<?xml version="1.0"?>
<svg xmlns="http://www.w3.org/2000/svg" version="1.2" baseProfile="tiny" width="800" height="775" viewBox="0 0 800 775" stroke-linecap="round" stroke-linejoin="round">
<g id="Chandigarh">
<path d="M 244.59 602.38 234.52 590.37 230.26 585.4 229.99 585.06 228.22 582.91 227.39 581.97 226.78 581.19 218.65 571.4 217.32 569.8 214.89 569.02 214.39 568.86 212.29 569.47 209.8 570.24 204.38 571.9 202.78 572.4 200.29 573.12 200.13 573.17 197.69 573.84 197.31 573.95 194.93 574.78 194.04 574.83 193.1 574.89 191.5 574.72 191.22 574.67 189.9 573.34 189.4 572.45 188.85 571.46 188.68 570.74 188.62 570.46 189.01 569.8 187.96 567.92 188.35 566.48 188.68 564.21 189.79 562.89 190.17 561.72 190.73 560.84 191.5 559.68 191.39 557.35 191.28 556.14 192 552.6 192.05 551.71 192.33 548.67 192.5 546.79 192 546.02 191.11 545.02 190.95 544.8 190.78 544.74 190.62 544.74 189.34 543.64 189.12 543.25 187.96 541.15 187.13 539.6 187.02 539.32 187.57 538.99 188.62 538.38 188.74 537.22 188.74 536.45 188.68 535.62 188.4 534.68 187.52 533.63 184.81 530.36 185.86 530.09 187.63 529.42 187.91 528.04 188.07 524.17 188.57 522.4 189.56 520.35 189.95 519.47 190.01 518.69 189.68 517.7 189.62 516.81 188.51 515.21 188.29 513.77 188.4 512.72 188.79 512 190.23 510.06 192.27 507.24 192.83 506.08 193.1 505.03 193.1 504.53 192.94 504.15 192.33 503.54 191.22 502.65 189.68 502.05 189.68 501.22 189.12 500.77 188.79 500.22 187.46 500.16 185.47 500.11 184.26 499.78 183.54 499.22 183.04 498.34 183.04 497.07 183.54 495.08 183.37 494.08 182.93 493.75 183.04 493.25 183.76 492.7 181.71 493.64 177.84 495.57 176.74 496.35 173.36 498.01 172.48 498.45 169.16 500.11 165.95 501.93 163.91 503.21 163.57 502.82 163.24 502.71 162.75 502.6 162.3 502.6 161.81 502.71 161.36 502.87 160.98 503.15 160.75 503.48 160.37 502.65 160.2 501.71 159.7 501.1 159.04 500.16 158.87 499.94 157.22 497.84 156.17 496.62 155.06 496.57 153.84 497.18 153.46 497.4 151.35 498.78 150.41 497.57 149.97 497.01 149.53 496.4 149.31 496.18 148.64 495.24 148.26 494.74 146.49 495.8 146.32 495.85 146.16 495.8 145.27 494.8 143.61 495.8 143.39 495.8 143.17 495.74 142.51 494.97 139.47 496.68 139.13 496.24 138.91 495.74 138.64 495.13 138.41 494.74 138.25 494.47 137.7 493.69 136.65 492.31 136.15 491.65 138.41 490.21 137.25 488.83 135.65 486.89 137.7 485.78 136.76 484.57 136.7 484.4 136.81 484.24 138.58 483.13 138.14 482.63 136.7 480.97 135.98 480.14 135.26 479.31 134.76 478.43 134.54 477.65 134.38 476.38 134.32 475.88 134.27 475.72 134.38 474.45 134.38 473.78 134.05 471.96 134.71 471.18 133.77 470.02 132.94 469.14 132.22 468.36 133.44 467.59 134.49 466.92 135.48 466.26 139.74 463.66 140.96 462.89 142.4 461.95 144.22 460.78 145.11 460.18 146.1 459.18 146.93 458.24 148.09 456.8 149.97 454.42 151.63 452.38 152.46 451.27 154.45 448.84 152.02 446.24 151.46 444.41 149.86 442.86 147.21 440.76 145 439.05 144.05 437.94 144.05 436.84 145.05 436.23 146.21 435.4 146.76 434.68 146.32 432.69 145.99 430.86 146.16 429.26 145.22 425 144.22 422.46 143.11 421.02 142.73 420.02 143.11 419.41 143.56 418.86 144.44 418.14 145.55 417.09 146.38 416.09 147.37 412.72 145.22 408.52 144.88 407.96 142.06 402.49 140.13 401.83 138.14 402.71 135.71 403.48 134.65 403.32 134.54 402.88 134.21 402.32 133.6 401.71 133.16 401.44 132.11 400 130.06 397.01 124.59 389.44 128.63 388 127.96 387.06 125.97 385.12 124.98 383.3 124.87 382.74 124.42 380.53 122.77 377.82 121.71 375.61 117.35 378.32 113.14 380.92 111.54 381.42 109 377.93 108.06 377.16 107.39 375.66 102.36 376.27 101.64 370.91 97.77 371.07 95.5 363.39 95.61 363.05 95.56 362.83 94.4 359.57 91.85 353.71 90.75 351.38 90.2 350.33 89.48 348.34 89.03 347.4 88.65 346.68 88.48 346.35 88.31 346.02 87.49 344.03 86.32 341.48 85.66 340.04 84.67 337.78 83.61 335.4 83.34 335.01 83.01 334.29 82.12 332.74 81.18 331.03 80.96 329.31 80.68 328.71 79.91 326.94 79.58 326 78.97 324.12 78.64 323.01 77.86 320.85 76.65 318.53 76.26 317.76 75.98 316.98 75.6 315.82 75.21 314.77 74.77 313.99 74.27 313.11 73.88 312.45 73.77 311.89 73.94 311.67 73.72 311.17 73.22 310.45 72.89 309.62 72.33 308.85 72.5 308.41 71.78 307.74 71.34 307.36 60.5 314.16 59.5 309.74 57.02 305.2 53.37 301.94 51.54 299.84 46.57 298.67 42.69 300.39 39.76 302.82 36.28 304.59 30.92 305.64 25.22 306.8 18.09 307.3 15.49 298.01 15.16 297.07 13.99 293.25 11.23 289.66 10.73 288.99 10.57 284.18 8.24 275.83 6.75 272.51 5.42 270.69 5.37 270.47 5.37 270.19 5.37 269.86 5.37 269.58 5.31 267.65 5.37 266.37 5.76 261.01 5.87 258.41 5.92 257.19 6.2 252.82 7.36 252.44 7.47 249.78 7.3 249.39 10.07 248.29 11.06 248.01 11.56 247.9 12.39 247.24 12.56 246.02 12.28 244.8 11.89 241.98 11.67 240.82 10.62 234.68 7.64 230.09 5.37 228.27 3.21 226.5 1 224.61 1.88 220.85 2.22 220.25 2.71 220.36 3.1 220.25 3.38 219.75 3.54 219.36 6.31 216.82 13.77 209.79 30.69 195.96 31.52 195.19 33.18 193.7 39.71 191.43 42.92 190.21 48.39 189.11 48.94 189 58.51 187.12 71.78 185.07 77.64 184.13 79.69 182.8 80.13 181.09 80.52 178.6 80.63 175.45 81.96 173.68 82.4 172.96 84.11 171.74 84.67 170.91 93.35 174.12 94.84 174.56 97.11 175.28 97.77 175.56 98.77 175.94 100.15 176.27 107.95 178.49 111.71 179.76 122.1 182.97 123.1 183.35 123.93 183.85 124.59 184.41 126.19 187.17 126.86 188.22 127.13 188.83 127.08 189.44 127.02 189.88 127.13 190.21 129.68 188.11 131.39 186.06 133.88 184.18 134.54 183.63 135.1 183.08 137.47 180.53 138.8 178.82 137.86 175.83 144.17 173.56 149.03 171.41 149.97 170.91 151.8 170.19 169.38 163.28 176.29 160.12 177.51 159.63 190.34 154.87 210.47 150.94 211.02 148.18 214.23 146.57 214.39 144.53 214.39 144.42 220.53 132.58 221.2 129.7 221.69 127.82 221.69 123.51 220.53 120.36 217.77 116.37 215 114.44 215.39 111.45 216.66 110.4 217.55 109.68 222.69 108.08 221.75 104.43 221.36 103.27 220.92 102.05 218.76 98.9 218.49 97.13 219.2 96.02 220.48 95.47 222.47 96.46 224.73 97.02 228.61 97.07 231.59 96.63 236.01 96.63 239.17 96.63 240.33 95.74 240.88 94.03 241.71 91.87 244.03 90.88 246.85 90.16 249.07 90.88 250.17 91.26 253.32 90.93 256.75 89.38 258.24 88.94 259.07 88.61 259.41 88.11 259.41 87.56 259.35 87.17 259.18 86.67 259.07 86.12 258.91 85.57 258.96 84.52 258.19 84.3 258.02 84.02 257.42 82.19 257.58 79.76 259.57 78.32 259.85 73.9 257.14 68.37 255.98 65.66 258.3 63.94 266.59 60.18 268.47 59.57 274.83 56.36 279.09 54.26 279.76 54.98 279.92 54.71 280.2 54.48 280.47 54.43 280.81 54.37 281.14 54.48 281.41 54.59 281.69 54.82 281.91 55.15 281.97 55.48 281.91 55.92 281.64 56.31 281.19 56.53 282.19 57.42 281.69 57.58 281.86 57.86 282.46 58.47 283.29 59.3 284.18 60.07 288.05 63.17 296.23 70.14 298.22 71.85 299.39 72.96 301.43 74.67 306.13 78.54 308.4 80.42 310.22 82.3 312.99 84.35 314.26 85.9 317.41 88.5 320.12 90.77 322.78 92.92 323.61 93.64 324.44 94.36 325.82 95.03 334.56 100.17 346.44 107.3 351.92 110.4 353.47 111.29 353.74 111.18 353.74 110.62 353.69 107.08 356.01 107.3 357.5 104.37 357.61 104.26 357.84 104.21 360.93 104.21 360.88 103.82 359.83 102.11 356.9 97.29 356.23 95.97 356.12 95.41 356.01 93.81 356.84 92.26 357.39 91.26 357.89 90.38 358.5 89.22 358.5 88.44 358.5 86.18 358.61 83.63 358.67 82.14 358.78 69.97 358.78 69.42 358.83 65.21 358.83 63.5 358.89 61.56 358.89 60.02 359.05 59.07 359.49 58.19 360.1 57.47 360.49 57.08 360.82 56.75 361.87 55.48 362.65 54.48 363.92 53.16 365.02 52.11 366.13 50.94 366.63 50.23 366.9 49.45 366.79 46.8 366.85 43.92 367.02 38 367.13 29.71 367.24 24.34 367.29 22.18 367.24 21.02 367.13 18.31 367.24 9.68 367.18 8.36 367.29 7.97 367.57 7.53 367.18 4.32 367.24 1 367.62 1.06 367.9 1.22 371.55 6.03 372.43 7.19 377.36 13.33 381.23 17.76 383.77 21.58 388.25 26.22 397.26 31.2 418.61 42.81 421.76 46.8 424.03 50.56 425.46 52.88 427.73 56.25 428.51 57.58 430.44 62.12 431.71 64.38 432.49 65.82 436.36 70.03 442.88 77.44 443.27 78.27 443.99 79.04 443.05 79.32 441.5 79.87 436.19 83.36 433.43 87.17 432.38 87.78 431.16 88.89 429.06 91.1 428.45 91.82 427.9 92.65 427.4 93.59 422.98 102.38 420.16 107.91 419.33 109.57 418.66 111.23 415.57 119.2 417.17 122.24 418.11 124.56 419.77 127.66 420.16 128.32 421.43 130.98 421.65 131.42 421.98 132.19 422.59 133.47 424.8 138.22 425.52 139.83 427.34 143.75 430.11 143.48 431.22 143.64 433.04 143.14 435.2 142.26 440.34 142.2 442.66 142.09 446.15 142.31 449.63 142.31 454.11 142.31 460.36 142.54 462.29 142.54 464.45 142.59 466.27 142.65 469.7 142.65 469.98 143.26 471.75 143.37 471.91 143.42 472.36 143.42 472.52 143.48 472.63 143.59 474.02 146.46 474.62 147.79 475.56 149.67 476.12 150.83 476.34 151.5 476.56 151.88 476.78 152.33 477.17 151.88 477.67 151.5 478.5 151.05 480.15 150.33 482.37 149.23 487.51 146.68 488.56 146.24 489.61 145.91 490.49 145.69 491.66 145.41 492.65 145.14 493.54 144.8 497.3 142.65 498.02 142.26 498.79 141.98 499.56 141.82 500.23 141.76 500.89 141.76 502.27 141.87 503.66 141.93 506.75 142.04 509.02 142.04 510.01 141.98 510.9 141.82 513.72 140.71 514.94 140.27 517.04 139.44 522.46 137.28 524.23 136.56 525.55 136.01 529.59 134.41 530.64 134.02 530.7 133.24 530.75 132.19 530.92 129.37 531.08 127.99 531.53 123.23 531.8 120.03 532.3 119.8 532.35 119.03 534.79 116.98 536.5 115.77 538.11 115.55 539.49 115.1 540.65 114.49 542.14 114.16 543.75 113.66 544.91 113.83 546.18 113.61 547.06 112.23 546.79 110.73 548.72 109.57 550.88 108.47 553.2 109.74 557.4 109.41 559.84 108.36 562.99 107.41 568.41 107.69 568.52 107.91 568.8 108.02 572.39 108.24 575.87 108.47 576.37 108.47 576.81 108.41 577.37 108.41 579.19 108.41 581.07 108.52 585.33 108.74 588.32 108.91 591.36 109.07 597 109.35 598.93 109.3 599.65 109.24 599.71 109.52 599.76 109.79 599.87 110.01 599.21 112.34 599.1 114.33 598.99 116.15 598.6 119.69 598.38 121.57 598.32 121.8 598.21 122.13 598.1 122.9 598.05 123.51 599.43 125.89 600.59 126.61 602.97 128.1 605.96 132.25 606.29 132.41 607.17 133.08 608.17 133.91 609.11 134.79 611.71 137.45 613.03 138.78 613.64 139.44 614.2 140.05 612.04 144.31 608.83 147.07 605.4 149.01 600.7 150.72 596.39 153.27 588.15 156.03 587.38 156.31 576.26 160.46 567.58 163.83 565.75 163.66 563.87 163.55 561.33 163.39 560.22 163.28 558.07 165.16 556.08 167.04 553.09 169.69 549.94 172.68 551.43 174.84 552.15 174.95 552.76 175.11 553.2 175.39 553.92 176.16 554.86 177.33 555.91 178.65 559.95 183.3 560.94 184.41 562.66 186.4 564.59 188.66 566.25 190.66 568.41 193.2 570.18 195.3 570.62 195.91 571.12 196.57 571.62 197.29 574.49 200.72 575.21 201.61 576.98 203.71 584.39 212.94 585.61 214.49 588.37 217.92 593.51 223.79 595.39 226.05 599.04 230.26 600.7 232.14 601.48 233.02 602.47 234.24 607.01 239.82 607.28 240.1 607.73 239.99 608.33 239.77 610.82 238.66 612.43 238 615.08 236.95 616.02 236.56 617.07 236.06 617.68 235.73 618.18 235.4 618.79 234.85 620.28 233.35 622.05 231.47 624.09 229.21 625.59 227.44 626.53 226.22 628.96 222.84 629.9 221.63 630.9 220.3 631.28 219.91 631.12 219.58 630.84 219.47 629.13 219.08 627.19 218.7 628.08 216.04 628.13 215.77 628.35 214.6 628.41 213.88 628.52 212.28 628.63 211.84 629.4 210.62 630.62 209.02 631.78 207.41 634.71 203.43 638.36 199.34 643.78 196.19 648.26 194.91 650.86 194.64 652.96 193.31 654.56 190.99 657.66 189.49 660.09 187.89 663.24 185.95 664.68 184.9 664.3 178.93 665.68 178.32 667.17 177.99 669.71 178.38 670.82 178.54 673.97 179.76 677.12 182.19 678.4 183.13 680.66 183.46 682.27 184.18 685.42 188.28 688.24 190.77 688.96 191.43 692.72 194.25 695.54 196.35 697.64 198.23 699.63 200.33 700.68 202.44 701.29 203.21 701.73 203.82 702.84 205.04 702.95 207.97 700.07 209.9 704.77 210.57 715.78 220.96 722.03 225.17 728 229.09 733.25 233.3 733.58 239.05 733.69 241.26 733.75 242.98 733.97 243.81 734.19 244.58 734.41 245.3 734.85 246.3 735.46 247.13 734.91 248.18 734.74 248.45 734.63 248.67 734.52 248.84 734.36 249.12 734.19 249.45 733.36 249.84 732.03 250.44 726.62 250.61 722.41 251.88 720.26 253.49 718.32 253.65 714.89 253.87 712.46 254.54 711.69 255.59 709.53 256.92 708.31 257.91 707.21 259.85 706.82 262.06 707.37 263.77 707.04 263.94 707.04 264.27 706.71 266.26 706.76 266.98 706.98 268.53 707.15 269.08 707.32 270.41 707.7 272.18 707.7 272.68 707.65 273.18 706.87 275.5 705.55 278.82 705.49 280.15 705.71 280.97 706.49 282.19 708.98 285.4 709.36 286.34 709.31 287.67 709.03 289.66 708.98 290.1 709.69 290.93 710.97 292.53 711.8 293.64 712.07 293.59 712.18 294.03 712.57 295.3 712.24 297.9 713.4 300.22 713.9 301.27 715.56 303.93 708.75 307.58 707.59 308.24 706.27 308.91 706.76 309.74 707.32 310.68 707.7 311.34 707.37 312.67 706.32 316.76 705.27 318.81 705.27 321.46 708.64 325.78 712.02 327.99 712.57 328.65 717.38 333.41 720.64 337.39 721.58 339.05 721.8 339.33 723.13 341.48 724.13 342.98 724.57 343.7 724.9 344.08 725.45 344.69 726.17 345.35 727 346.18 727.56 346.85 727.89 347.24 728.83 348.34 729.6 349.12 730.76 348.56 731.92 348.06 732.59 348.01 734.25 347.84 737.45 348.01 738.95 347.84 741.38 348.95 743.98 349.89 746.58 351.55 748.57 351.88 751.06 351.94 751.55 352.21 752.11 352.27 752.27 352.21 753.77 352.71 757.42 353.54 759.02 357.91 760.07 359.02 761.95 361.17 765.6 360.84 767.09 360.34 771.41 358.91 773.84 358.08 775.78 357.91 778.37 357.58 784.4 359.18 786.28 360.95 787.89 362.56 788.94 363.5 788.55 363.77 788.22 363.88 788 363.94 787.06 364.49 785.78 365.27 785.12 365.93 784.84 366.15 784.57 366.32 782.24 367.04 779.2 368.36 779.37 368.58 779.48 368.81 779.7 369.14 782.96 376.66 784.4 379.7 787.06 384.73 787.44 385.29 789.99 390.76 791.92 395.8 793.03 398.17 793.91 400.17 794.02 400.5 796.18 403.82 796.46 404.31 796.9 404.92 797.29 405.25 799 406.91 798.72 407.25 794.85 411.39 792.14 412.39 789.16 414.55 787.5 413.44 787.06 413.16 785.95 412.39 781.91 409.73 773.18 416.26 771.24 419.8 770.74 420.85 768.37 425.05 765.1 429.2 764.72 429.2 765.43 430.2 766.87 432.19 772.18 439.16 772.9 439.93 775.5 438.72 778.76 437.28 781.58 436.12 782.41 435.73 782.74 436.23 785.73 440.98 786.39 442.86 786.78 443.92 788.94 449.22 788.83 453.37 786.39 456.42 785.51 459.01 784.68 461.39 784.12 462.89 782.63 464.27 783.85 466.09 783.52 467.86 781.58 469.91 780.86 470.46 776.88 472.79 772.29 476.99 770.13 479.31 769.25 480.36 768.2 482.19 767.92 482.85 767.04 484.95 766.49 487.17 766.21 488.27 764.6 489.49 759.57 488.99 757.14 489.38 756.31 489.88 755.7 490.32 754.04 491.26 751.33 492.97 750.56 493.42 749.84 493.86 748.9 494.41 749.07 495.68 749.18 496.4 748.4 496.68 746.08 497.29 740.38 499.67 737.67 500.72 735.57 501.55 735.08 501.77 733.69 502.76 732.31 503.59 726.06 508.18 723.85 509.68 722.47 510.45 721.36 511.23 719.26 514.27 718.93 515.37 718.49 517.14 718.76 518.8 716.44 520.63 715.72 520.85 715.06 521.18 714.34 521.74 713.45 522.62 712.79 522.73 711.96 523.01 710.8 523.56 710.03 524.22 709.64 524.83 708.7 526.33 708.42 526.22 708.04 526.16 707.65 526.27 707.32 526.55 707.21 526.99 707.26 527.43 707.37 527.76 707.59 527.99 707.98 528.15 708.2 528.21 708.15 528.65 707.98 529.2 707.65 529.87 707.26 530.58 708.81 531.41 709.47 531.8 710.36 532.52 710.75 533.13 710.8 533.24 711.57 535.12 713.01 538.27 713.23 538.88 713.62 539.54 713.95 541.26 713.9 541.87 713.62 542.37 705.71 549.56 705.38 549.89 704.72 550.5 703.72 551.49 703.34 551.82 699.69 554.92 699.13 555.53 699.02 556.36 699.13 557.02 699.41 557.91 699.57 558.46 700.02 558.96 700.02 559.12 700.07 559.29 700.18 559.46 700.35 559.57 700.57 559.57 700.85 560.4 702.12 564.6 704.77 572.67 704.5 573.5 702.34 573.5 701.95 573.56 699.85 574 697.31 574.44 694.27 575.16 692.28 575.77 689.95 576.21 689.01 576.33 688.13 576.33 687.35 576.16 686.97 575.77 686.75 575.38 686.08 574.17 685.47 573.34 684.87 572.62 684.26 572.23 683.7 572.07 683.26 572.07 682.88 572.12 680.28 573.5 678.73 574.22 676.02 575.66 674.14 576.88 673.03 577.65 671.76 578.81 670.65 580.69 669.94 582.02 669.44 583.63 669.33 584.84 669.38 585.89 669.6 586.78 670.05 587.5 670.93 588 672.09 588.22 673.14 588.27 674.19 588.38 675.13 588.77 676.18 589.16 677.01 589.38 677.79 589.54 678.56 589.99 679.39 590.82 680.17 592.09 679.56 592.53 676.79 594.25 673.75 596.13 664.52 599.89 663.02 600.44 662.03 600.83 662.25 602.1 662.41 602.93 662.58 604.09 662.8 605.31 663.08 606.47 663.24 607.41 663.47 607.96 663.96 608.07 664.85 615.59 664.96 616.59 665.07 618.14 665.01 620.13 664.96 621.07 664.79 622.84 664.68 623.95 664.57 625.61 663.69 634.46 663.52 636.39 663.41 637.28 663.24 638.05 663.02 638.49 662.69 638.99 662.3 639.49 661.81 640.1 661.59 640.48 661.25 640.82 661.09 641.26 660.98 641.92 659.82 642.03 658.6 642.25 657 642.47 654.12 643.3 655.5 646.46 651.36 650.33 651.13 650.83 650.08 650.99 649.86 650.99 649.53 650.99 646.71 651.05 644 651.05 644.5 653.04 645.16 654.86 645.55 657.35 645.27 658.9 643.83 660.51 641.46 661.83 640.52 663.82 640.52 665.37 641.46 666.31 642.62 666.98 643.28 668.25 642.12 668.8 640.9 669.3 638.58 669.3 638.14 669.63 637.64 670.9 635.82 671.84 632.11 672.89 631.72 673.01 631.78 674.72 631.78 675.22 631.78 675.94 631.84 676.77 631.78 677.43 631.72 678.26 631.45 678.26 630.95 678.54 630.84 679.75 630.51 681.03 628.3 681.19 628.52 682.13 628.41 683.02 628.3 685.28 628.13 686.45 628.02 687.22 627.8 687.39 626.91 688.05 626.36 688.16 623.87 688.33 621.55 687.99 617.96 687.99 615.47 688.49 614.31 690.1 614.47 692.09 614.47 695.41 614.69 698.5 615.14 701.82 616.08 703.87 616.35 707.68 616.24 709.73 615.36 709.9 613.81 710.01 612.15 709.51 611.87 705.69 610.05 705.8 606.9 706.02 605.9 705.64 606.07 703.37 605.79 701.16 606.01 699.5 602.8 699.33 601.48 696.84 599.49 696.35 598.55 695.07 595.06 695.35 594.01 693.64 593.29 694.02 579.36 703.59 568.3 712.94 568.57 713.05 567.69 714.38 566.25 717.2 563.54 722.67 560.06 729.48 559.01 731.58 561.55 731.58 564.21 731.63 567.19 730.69 569.79 731.3 572.11 733.35 575.21 736.11 575.32 736.44 575.49 736.67 579.8 741.04 583.89 744.91 584.39 745.29 584.83 745.63 585.44 745.85 588.59 746.84 593.07 748.28 594.01 748.61 594.51 748.83 594.95 749.28 597.44 752.15 597.72 752.54 597.88 753.09 598.05 754.7 598.49 757.3 598.55 757.63 598.77 757.96 600.26 759.45 600.59 759.79 600.76 760.17 600.65 761.39 600.65 762.77 600.59 763.1 600.48 763.44 594.56 769.08 591.47 772.06 590.8 772.17 583.06 773.89 582.51 774 581.29 770.96 580.52 770.63 581.4 769.46 579.74 767.53 578.86 766.64 577.37 766.26 574.44 765.26 570.51 763.6 569.02 762.72 568.52 761.94 567.97 760.73 567.69 757.46 567.25 756.91 565.48 756.36 561.88 755.47 553.53 755.19 546.51 754.97 543.75 753.7 542.36 753.42 540.48 753.76 537.61 755.47 536.12 756.36 531.19 757.35 529.42 757.19 527.38 756.14 519.36 756.58 518.75 758.07 517.92 759.9 515.1 761.22 512.61 761.89 507.53 762.38 502.55 758.57 501.89 758.02 494.37 760.84 491.82 759.12 490.22 755.58 489.33 752.76 487.9 747.17 487.9 746.95 487.9 746.68 490.27 731.91 490.27 728.7 490.11 725.05 483.53 728.87 481.7 730.58 482.37 731.58 481.65 732.35 481.09 732.85 480.38 733.51 479.99 733.9 480.26 734.56 479.88 734.9 479.44 735.34 479.05 735.78 477.67 737 475.62 738.93 474.96 738.38 474.68 738.49 474.46 738.66 472.85 740.54 472.03 741.31 470.86 742.64 466 746.12 462.68 747.67 460.52 744.96 458.86 745.68 458.26 744.63 458.64 743.52 457.98 743.64 455.66 740.1 448.3 743.86 446.7 741.64 441.67 742.69 440.73 740.59 440.62 740.1 440.73 737.39 441 726.99 440.95 725.33 441 722.89 440.89 722.51 440.62 722.34 439.18 722.18 438.9 718.8 438.74 716.2 438.35 715.43 437.96 714.76 433.65 707.68 433.32 707.46 432.93 707.52 432.49 707.79 429.22 709.56 427.95 710.23 427.73 710.06 427.51 709.9 426.85 709.84 415.95 709.68 414.96 709.73 414.46 709.73 414.07 709.73 411.81 709.68 408.65 709.62 402.85 709.56 392.29 709.4 390.9 709.4 383 709.29 383.16 700.72 391.01 700.6 397.15 698.28 397.15 698.06 400.47 696.79 400.47 695.74 404.45 693.25 407.33 690.37 409.48 688.82 409.04 688.1 410.2 686.89 409.37 685.89 409.1 685.39 409.93 684.84 399.2 680.91 380.73 673.67 384.32 667.25 388.14 660.28 383.49 657.8 385.1 655.42 349.26 641.76 346.06 640.48 338.54 637.55 331.96 635.06 333.5 632.24 333.67 631.14 333.73 630.42 333.67 629.59 333.62 629.09 333.5 628.87 333.39 628.76 333.28 628.65 333.5 627.98 333.62 627.6 335.33 627.71 374.59 641.42 375.86 640.37 376.36 639.6 379.13 639.6 383.6 632.24 381.83 631.08 378.85 629.7 376.36 628.37 374.65 625.83 368.62 617.25 364.25 611.06 361.1 606.58 360.99 606.25 359.27 602.49 359.05 602.27 358.89 601.99 358.94 601.82 357.39 600.16 356.45 599.22 354.96 598.78 354.63 599.28 354.13 600.05 354.52 603.09 354.13 604.04 351.97 606.08 351.59 606.19 350.09 606.47 349.26 607.63 349.98 608.9 350.87 609.51 351.03 610.45 350.81 611.06 350.65 611.5 350.09 611.78 348.82 612.05 348.27 611.89 346.78 610.51 345.84 608.57 346 606.03 345.89 603.87 345.89 603.43 345.34 603.21 344.95 602.98 342.74 604.2 340.03 605.09 337.93 606.14 337.04 606.47 335.5 606.47 334.67 606.86 333.01 608.24 331.57 610.06 330.96 610.62 330.41 611.23 329.36 612.55 328.91 613.05 328.58 613.44 328.31 613.82 328.03 615.59 329.69 616.37 329.91 617.97 329.25 618.97 327.26 619.08 325.76 619.02 325.15 618.97 316.36 616.7 313.32 612.83 312.77 612.22 311.77 610.89 311.33 610.34 304.97 614.49 294.96 620.63 293.86 621.35 287.83 625.11 285.89 626.32 284.12 627.38 282.58 628.32 281.25 629.2 280.36 629.86 277.82 631.8 274.39 634.4 273.62 634.95 273.23 635.23 272.07 636 271.24 635.01 270.69 634.34 268.09 631.08 265.77 628.21 259.24 620.35 258.74 619.8 256.86 617.53 255.09 615.43 254.87 615.15 253.05 613 251.44 611 247.13 605.64 244.59 602.38 Z" id="Chandigarh"/>
</g>
</svg>