<?xml version="1.0"?>
<svg xmlns="http://www.w3.org/2000/svg" version="1.2" baseProfile="tiny" width="800" height="799" viewBox="0 0 800 799" stroke-linecap="round" stroke-linejoin="round">
<g id="Dadra&amp;Nagarhaveli">
<path d="M 725.22 420.98 734.97 420.1 739.92 420.95 749.23 422.63 754.96 426.81 773.67 440.46 777.2 441.9 795.41 449.23 799 456.35 796.88 467.18 792.71 476.81 788.86 480.88 780.66 489.55 769.41 497.99 753.52 503.53 752.1 504.02 744.64 506.6 734.68 510.09 723.46 513.98 721.45 514.68 715.08 525.88 713.32 528.92 712.6 533.61 711.36 541.72 711.29 542.28 711.54 546.72 711.72 550.07 712.37 560.73 712.5 563.36 712.94 570.61 713.53 571.87 713.63 572.11 717.22 579.9 721.94 590.22 725.06 597.03 730.35 600.18 749.96 611.78 751.76 612.4 759.89 615.09 765.41 616.89 765.59 616.94 766.39 625.85 769.2 657.35 771.5 672.02 772.76 680.15 762.73 696.89 759.45 702.57 757.8 705.92 755.5 709.18 753.83 710.98 750.01 713.35 741.13 715.68 735.87 719.16 730.07 722.98 720.78 729.07 718.12 730.82 718.15 731.31 719.02 747.43 719.51 756.41 719.64 758.94 720.29 770.91 719.44 771.53 716.99 773.28 709.27 778.81 707.98 779.71 699.73 785.62 690.98 791.86 686.52 795.03 675.01 798 666.29 789.05 664.38 787.01 659.38 781.7 658.29 780.12 656.77 777.88 646.04 762.19 631.77 746.79 628.11 742.84 623.47 742.22 618.77 741.63 614.8 741.11 611.14 740.62 600.61 737.27 600.43 737.22 598.24 736.52 596.33 735.93 595.55 735.67 579.38 730.54 572.36 721.46 571.15 719.83 570.24 718.67 569.88 718.26 566.61 713.97 565.47 713.59 559.23 711.45 550.69 720.76 545.79 726.07 545.5 726.41 536.01 729.71 524.04 730.25 516.35 729.04 509.59 727.98 499.87 720.86 494.81 717.15 491.07 713.02 484.72 706 479.87 706.18 477.55 706.26 465.63 694.83 460.83 690.21 460.19 689.62 453.89 689.1 439.83 687.99 436.92 687.76 433.93 687.53 418.11 686.24 415.92 686.06 407.74 685.41 405.29 684.87 396.23 682.91 385.45 680.59 377.5 678.86 362.26 675.56 355.34 681.6 355.42 683.27 356.32 704.76 356.63 712.32 356.66 712.66 357.12 724.06 357.36 729.94 357.72 738.61 357.95 744.29 358.13 748.52 358.31 752.93 358.44 755.82 345.1 756.36 344.69 756.36 344.07 756.39 342.5 756.59 341.85 756.49 336.54 753.6 322.32 745.89 318.86 742.66 304.91 729.56 294.43 719.8 287.36 713.23 284.16 707.83 282.57 705.12 282.41 704.87 280.66 701.9 276.14 694.26 269.38 682.91 268.69 681.73 268.48 681.36 266.83 678.6 264.89 675.33 259.91 666.94 255.81 660.05 250.5 656.98 246.34 654.61 241.26 651.7 238.09 649.86 231.59 646.15 234.61 637.17 235.51 634.46 236.26 632.48 236.82 631.34 242.55 611.99 243.07 610.29 243.61 608.61 248.43 594.37 248.74 592.28 248.74 592.15 248.77 592 249.88 586.3 249.98 585.68 250.5 582.84 248.02 580.98 245.44 579.02 241.62 576.13 239.92 574.87 238.58 573.86 232.49 569.27 230.35 573.14 229.34 574.97 229.03 575.56 228.54 576.44 227.95 577.52 227.12 581.76 225.68 589.24 225.06 590.48 225.16 595.63 224.98 601.83 224.96 602.34 224.91 604.74 223.38 613.82 222.43 618.16 221.35 619.68 218.82 623.29 218.35 623.96 216.39 626.75 209.12 629.64 208.27 629.97 206.41 630.7 205.97 630.85 202.56 632.04 199.06 633.28 190.1 637.14 181.56 638.25 177.33 638.82 171.27 638.46 168.66 633.07 161.42 626.23 151.17 609.8 150.79 609.18 149.29 606.34 144.34 600.67 143.87 600.25 142.01 598.65 137.27 594.55 136.98 592.9 138.22 588.54 146.79 570.66 146.99 570.25 150.32 563.31 157.21 548.96 157.96 547.42 160.13 542.88 163.89 535.06 165.88 530.91 167.84 526.8 168.85 524.71 168.92 524.53 169.34 516.9 169.98 505.31 170.08 503.25 170.19 501.39 170.37 498.3 170.88 488.98 170.01 481.97 169.57 478.41 169.18 475.46 167.04 474.72 157.75 471.44 144.9 466.9 143.72 466.49 143.05 441.8 140.16 429.88 136.18 413.42 128.88 383.13 139.1 376.35 141.89 365.46 140.49 355.76 139.41 348.33 130.1 332.8 126.87 327.41 125.76 326.48 122.15 323.38 121.79 323.07 121.63 322.97 115.78 319.05 96.89 309.17 96.22 308.8 91.29 306.9 88.48 305.81 87.19 305.32 83.22 303.8 79.87 302.51 74.86 301.66 73.57 301.45 70.09 300.86 59.67 299.1 52.36 294.1 49.76 290.85 44.42 284.17 38.95 277.36 27.31 262.83 24.73 259.61 23.65 258.26 10.13 241.39 8.12 238.89 7.35 235.54 7.24 235.05 5.88 234.4 5.1 233.96 5.08 233.21 4.1 233.21 4.04 232.52 3.14 232.41 2.44 232.62 1.41 231.98 1 231.61 1.08 228.88 1.62 228.85 1.83 224.83 2.42 223.1 4.48 223.02 4.41 222.87 7.94 216.29 10.31 211.9 11.24 211.03 11.37 210.9 11.99 210.38 18.83 204.11 25.25 198.23 45.37 187.86 45.68 187.47 45.97 187.11 46.97 185.87 53.96 177.26 65.78 173.9 72.85 175.99 78.19 177.57 87.4 183.47 88.41 184.12 95.58 188.71 101.64 195.11 111.34 205.33 114.75 208.83 117.94 212.34 127.39 222.2 128.14 222.66 139.59 229.83 148.49 231.51 153.99 232.52 157.18 231.77 157.67 231.67 158.84 231.38 159.61 231.2 161.75 230.74 163.14 230.43 163.71 230.3 164.43 230.14 164.59 230.02 164.85 229.81 173.13 223.13 173.98 222.43 175.42 220.01 177.13 218.15 178.44 216.7 178.42 215.72 178.52 213.43 178.6 212.32 178.75 210.07 178.75 209.97 178.86 208.45 179.06 205.33 179.14 204.06 179.29 201.82 179.32 201.28 179.55 197.77 179.71 195.6 179.73 195.39 180.17 189.07 180.45 184.76 180.53 183.68 180.92 178.11 180.97 177.54 182.62 177.41 183.65 177.33 184.01 177.31 184.17 177.28 184.5 177.26 197.12 176.28 208.6 175.37 208.88 175.35 210.25 175.24 211.72 175.14 214.97 174.88 216.73 175.06 231.43 176.74 232.88 176.9 250.5 181.67 258.78 180.71 259.01 180.38 259.11 180.25 259.29 179.99 260.74 178.01 262.24 175.94 262.36 174.44 262.91 167.38 259.04 151.87 259.04 151.43 259.01 141.53 258.99 137.86 257.95 135.08 257.46 133.71 255.79 129.27 255.04 127.23 254.19 124.91 253.65 123.44 251.92 118.75 251.37 117.27 252.46 116.37 257.18 112.37 263.47 116.4 266.47 120.14 269.77 124.27 271.01 129.14 271.29 132.13 271.39 133.42 272.66 147.02 273.43 155.3 274.62 167.97 274.41 172.43 282.64 177.13 282.87 177.26 284.45 177.64 288.73 178.55 299.15 180.87 300.39 181.15 302.25 181.54 313.47 182.42 314.48 182.49 320.13 180.25 324.51 176.87 324.8 174.86 325.16 172.36 325.88 167.48 328.9 146.58 329.03 145.86 329.03 143.56 329.11 136.93 329.11 136.37 329.29 118.33 329.34 114.51 336.61 98.03 338.21 97.26 341.64 95.63 348.61 92.28 357.61 91.63 363.68 91.22 378.56 90.16 387.38 88.17 391.07 87.35 392.29 86.55 400.75 81.05 420.12 82.37 424.46 86.03 429.36 90.16 441.28 88.3 442.23 87.06 442.28 87.01 457.74 67.61 458.2 67.02 458.67 65.73 459.1 64.52 459.41 63.69 459.72 62.84 460.01 62.01 462.74 54.56 462.85 53.78 462.97 52.88 463.54 48.86 464.32 43.18 467.36 20.68 468.08 15.32 468.13 14.98 468.39 13.02 471.54 3.66 473.73 1.9 479.92 1.36 484.1 1 484.57 1.52 487.04 4.38 489.13 6.8 492.62 10.8 497.16 16.04 501.85 21.43 507.53 36.34 510.6 44.47 511.58 47.05 519.89 62.45 520.53 63.67 521.41 70.17 521.77 72.82 519.29 78.14 518.54 79.74 514.29 88.9 513.77 90.03 513.62 90.86 512.64 96.46 512.61 96.53 511.58 102.13 511.48 102.67 509.51 114.02 507.97 122.8 507.61 124.83 502.11 130.17 500.74 135.26 499.04 141.58 498.16 144.83 505.39 147.18 506.29 147.07 521.28 145.14 540.27 142.74 553.6 143.9 563.46 135.64 566.66 132.96 567.82 126.15 568.88 119.78 569.93 118 573.11 112.66 587.4 114.28 598.67 112.89 600.64 112.66 614.67 113.12 618.95 113.28 623.88 113.43 633.58 116.42 634.53 116.71 641.94 122.18 644.96 126.3 648.08 130.61 654.48 128.83 656.77 128.19 658.6 127.67 662.94 126.49 664.56 126.02 664.95 126.69 666.91 130.17 664.54 138.15 664.51 139.72 664.2 155.53 665.62 161.62 670.78 183.96 670.39 185.95 669.44 190.7 669.05 192.71 662.47 197.59 661.03 198.64 658.71 199.62 653.52 201.89 651.12 202.93 648.62 203.06 643.74 203.37 637.76 200.53 628.52 200.45 620.65 199.03 613.9 196.68 610.85 194.57 607.76 195.32 607.6 203.21 606.41 207.21 603.5 216.96 600.84 217.86 593.93 208.96 592.95 208.63 587.5 206.9 586.39 206.56 584.67 207.91 579.15 215.9 575.35 221.4 575.04 238.58 570.81 247.3 560.11 259.61 537.3 264.64 529.72 268.53 528.35 269.23 527.42 270.24 512.58 286.64 499.12 301.5 487.56 315 486.68 316.03 489.21 324.39 489.26 324.62 489.99 326.97 490.09 327.25 491.71 332.59 473.24 339.4 469.55 340.77 441.12 330.84 432.38 327.77 430.91 328.05 429.51 328.33 417.65 330.73 404.62 338.47 388.73 358.83 387.8 359.99 378.69 387 377.09 391.77 375.44 396.68 375.26 397.22 374.51 399.46 371.96 406.97 372.58 408.59 375.29 414.66 375.72 415.61 378.3 420.72 378.51 421.13 381.01 421.18 381.73 421.18 382.46 421.26 383.67 421.39 384.5 421.49 387.57 421.88 394.61 425.29 397.01 431.76 398.07 434.63 397.83 458.49 397.68 473.89 397.45 475.72 396.23 485.09 396.21 485.22 395.92 487.38 395.87 487.8 393.5 505.91 393.03 509.52 399.23 516.33 400.98 518.26 408.02 521.82 411.66 523.66 416.72 526.21 418.86 527.29 419.19 527.27 429.36 526.24 429.98 522.52 433.05 503.66 438.26 491.64 441.15 488.85 441.77 488.26 441.95 488.08 445.66 484.52 447.55 482.74 449.77 482.46 450.62 482.35 451.88 482.2 454.46 481.86 463.08 486.15 469.11 507.97 471.75 512.74 473.01 515.07 474.09 515.87 474.2 515.97 477.71 518.65 481.55 519.4 483.15 519.71 498.09 522.65 508.43 521.67 515.53 521.02 528.99 527.27 529.92 527.14 536.99 526.08 534.41 521.93 530.62 515.84 531.91 509.31 543.16 502.22 548.88 498.63 554.64 490.58 555.95 488.75 557.24 486.92 566.66 484.86 578.01 487.98 585.29 489.96 586.27 490.22 594.13 485.6 596.82 481.86 600.12 477.32 599.96 474.87 599.81 472.63 599.5 467.83 593.72 458.95 592.56 457.15 589.85 452.99 583.71 448.09 582.63 444.58 572.18 410.74 573.78 404.23 583.01 397.58 593.54 401.14 598.47 406.01 599.81 407.36 603.42 409.88 613.12 410.63 613.3 410.63 619.18 411.1 620.24 411.17 621.12 411.25 629.01 411.82 643.13 416.44 653.52 412.31 672.23 393.48 674.68 409.37 674.7 409.5 676.02 409.81 676.74 409.99 678.73 410.48 682.6 411.41 693.85 414.12 700.58 418.97 701.04 419.33 712.81 422.14 725.22 420.98 Z M 167.66 343.63 167.48 343.94 167.56 344.97 167.56 345.28 167.48 346.06 167.43 346.83 168.12 350.13 168.2 353.44 168.36 354.55 168.82 355.22 171.81 359.06 173.28 360.97 174.37 362.31 175.01 363.14 175.55 364.92 175.68 365.77 175.71 365.9 175.66 367.19 175.76 367.99 176.56 369.02 177.36 370.03 178.98 371.52 182.36 374 183.4 375.24 184.45 376.53 185.49 377.22 186.57 377.22 189.07 376.71 189.48 376.66 190.31 376.55 190.75 376.81 191.39 377.17 192.06 377.64 192.71 378.1 192.92 378.28 193.92 379.08 194.33 379.83 195.44 380.37 197.77 380.29 199.11 380.55 199.93 380.71 201.22 381.14 201.76 381.69 201.94 381.87 202.72 382.33 203.05 382.51 204.16 382.69 204.32 382.69 204.73 382.72 207 382.8 207.52 382.82 208.73 382.9 210.07 383.31 211.08 383.65 211.23 383.7 212.96 384.16 214.74 384.21 215.49 384.5 216.55 384.37 218.71 383.6 219.59 382.77 220.16 382.69 222.12 382.31 223.77 381.94 225.6 381.43 225.78 381.32 226.89 380.68 227.9 379.83 228.21 379.18 228.75 378.1 228.85 377.89 229.55 376.47 230.4 374.67 230.92 373.48 231.9 372.71 233.91 371.5 234.09 371.37 235.87 369.74 236.13 369.38 237.03 368.58 237.57 367.94 238.24 366.77 238.48 366.21 238.58 365.97 239.09 364.58 239.43 363.14 239.61 362.08 239.89 360.92 240.72 360.02 241.42 359.47 241.78 358.62 241.7 358.03 242.24 357.02 243.12 356.61 244.85 355.45 247.25 353.67 249.67 350.99 250.24 348.84 250.32 345.59 250.29 345.13 250.11 341.85 249.85 339.66 249.78 338.94 249.26 337.52 247.35 334.78 245.88 331.12 244.15 328.64 243.17 327.22 240.28 323.9 238.48 323.36 235.74 322.5 232.75 321.39 230.79 320.67 229.81 320.29 229.03 320.39 228.03 320.49 227.25 320.96 226.76 321.01 226.63 321.03 226.22 320.93 226.01 320.83 224.13 319.95 223.05 319.33 222.2 318.84 217.89 318.25 214.82 317.37 212.88 316.49 211.41 316.23 211.08 316.18 210.9 316.16 209.5 316.23 207.88 316.67 207.34 316.8 203.62 317.29 202.74 317.42 201.89 317.55 201.48 317.6 200.09 317.76 197.97 317.96 197.84 317.99 196.32 318.17 195.08 318.3 194.67 318.35 193.72 319.23 192.99 319.85 192.53 320.26 190.52 321.29 189.46 321.94 188.48 322.74 187.86 323.46 186.7 323.79 186.44 323.87 184.58 324.62 182.75 325.37 180.61 327.33 179.6 329.08 179.04 330.09 178.83 331.46 178.7 332.15 177.98 333.57 177.33 334.01 175.94 334.11 175.71 334.01 175.29 333.83 174.96 333.86 174.78 333.88 173.82 333.98 172.87 334.99 171.71 338.4 170.06 341.65 169.83 341.9 169.23 342.47 168.56 343.09 167.81 343.4 167.66 343.63 Z" fill-rule="evenodd" id="Dadra &amp; Nagar Haveli"/>
</g>
</svg>