<?xml version="1.0"?>
<svg xmlns="http://www.w3.org/2000/svg" version="1.2" baseProfile="tiny" width="800" height="161" viewBox="0 0 800 161" stroke-linecap="round" stroke-linejoin="round">
<g id="Daman&amp;Div">
<path d="M 768.9 153.18 768.68 153.19 768.44 153.19 768.22 153.19 767.99 153.19 767.75 153.18 767.52 153.18 767.29 153.17 767.05 153.15 766.81 153.13 766.57 153.11 766.33 153.09 766.09 153.06 765.97 153.03 765.85 153.02 765.73 153 765.61 152.97 765.5 152.95 765.38 152.93 765.27 152.9 765.15 152.87 765.04 152.84 764.93 152.8 764.82 152.77 764.7 152.73 764.6 152.69 764.5 152.64 764.39 152.6 764.29 152.55 764.19 152.5 764.09 152.44 763.99 152.39 763.92 152.34 763.89 152.32 763.81 152.27 763.72 152.2 763.62 152.13 763.54 152.07 763.45 152 763.36 151.92 763.28 151.85 763.19 151.78 763.11 151.7 763.02 151.63 762.86 151.47 762.69 151.3 762.38 150.96 762.36 150.98 762.35 151 762.33 151.01 762.3 151.03 762.26 151.06 762.22 151.09 762.2 151.11 762.18 151.13 762.15 151.16 762.13 151.18 762.11 151.22 762.08 151.24 762.05 151.27 762 151.33 761.93 151.38 761.87 151.44 761.82 151.5 761.76 151.55 761.71 151.6 761.66 151.66 761.61 151.71 761.56 151.75 761.52 151.81 761.47 151.85 761.42 151.9 761.37 151.95 761.33 151.99 761.29 152.02 761.28 152.03 761.24 152.07 761.22 152.08 761.19 152.11 761.13 152.14 761.08 152.18 761.03 152.21 760.97 152.24 760.92 152.27 760.85 152.3 760.79 152.33 760.73 152.36 760.6 152.41 760.53 152.44 760.48 152.47 760.41 152.5 760.35 152.53 760.29 152.57 760.23 152.61 760.21 152.63 760.18 152.66 760.16 152.68 760.13 152.7 760.11 152.73 760.08 152.76 760.06 152.78 760.04 152.82 760.02 152.85 760.01 152.88 759.97 152.94 759.94 153.02 759.91 153.09 759.88 153.16 759.85 153.24 759.8 153.4 759.75 153.55 759.72 153.63 759.69 153.71 759.66 153.78 759.62 153.86 759.6 153.89 759.58 153.93 759.56 153.96 759.54 153.99 759.52 154.02 759.5 154.05 759.47 154.08 759.44 154.1 759.42 154.13 759.39 154.15 759.36 154.17 759.33 154.19 759.3 154.2 759.26 154.21 759.23 154.23 759.2 154.24 759.16 154.25 759.12 154.25 759.09 154.26 759.05 154.26 758.98 154.27 758.9 154.28 758.82 154.28 758.74 154.28 758.66 154.27 758.58 154.26 758.43 154.26 758.28 154.25 758.12 154.23 757.98 154.21 757.82 154.19 757.68 154.16 757.53 154.14 757.36 154.19 756.45 154.48 753.65 154.88 753.58 154.92 753.52 154.97 753.45 155.01 753.39 155.05 753.32 155.08 753.25 155.12 753.18 155.15 753.11 155.18 753.04 155.21 752.97 155.23 752.9 155.26 752.82 155.28 752.75 155.3 752.67 155.32 752.6 155.34 752.44 155.37 752.14 155.43 751.98 155.46 751.83 155.5 751.75 155.51 751.67 155.53 751.6 155.56 751.53 155.58 751.46 155.61 751.38 155.64 751.31 155.67 751.24 155.7 751.17 155.74 751.1 155.78 751.04 155.82 750.97 155.86 750.9 155.91 750.84 155.96 750.77 156 750.71 156.06 750.65 156.11 750.59 156.17 750.53 156.22 750.47 156.28 750.42 156.34 750.36 156.4 750.31 156.47 750.26 156.53 750.2 156.59 750.15 156.66 750.1 156.73 750.05 156.8 750 156.87 749.95 156.93 749.86 157.07 749.77 157.21 749.71 157.31 749.68 157.35 749.51 157.64 749.43 157.78 749.34 157.92 749.25 158.05 749.15 158.19 749.11 158.26 749.06 158.32 749.01 158.38 748.96 158.45 748.91 158.51 748.85 158.57 748.8 158.63 748.75 158.69 748.69 158.74 748.61 158.82 748.57 158.86 748.51 158.91 748.45 158.96 748.39 159.02 748.32 159.06 748.26 159.12 748.13 159.22 748 159.31 747.93 159.36 747.86 159.4 747.79 159.44 747.72 159.49 747.65 159.52 747.58 159.57 747.51 159.6 747.44 159.64 747.37 159.67 747.3 159.71 747.22 159.74 747.15 159.77 747.07 159.79 747 159.81 746.92 159.83 746.84 159.85 746.77 159.87 746.69 159.89 746.61 159.9 746.53 159.92 746.45 159.93 746.37 159.93 746.21 159.95 746.04 159.97 745.88 159.97 745.71 159.99 745.63 159.99 745.54 159.99 745.46 159.99 745.38 159.98 745.34 159.98 745.3 159.97 745.26 159.97 745.22 159.96 745.18 159.95 745.14 159.94 745.1 159.92 745.06 159.91 745.03 159.89 744.5 160 744.99 159.16 746.02 158.71 746.61 157.99 747.27 156.88 748.25 155.65 748.81 154.95 749.49 154.66 750.59 154.39 751.22 154.57 751.83 154.88 752.94 154.71 753.53 154.78 753.92 154.71 754.96 154.37 756.14 154.25 756.62 154.1 756.94 153.62 757.98 152.46 759.17 151.18 760.26 149.59 760.76 148.69 761.12 148.35 761.41 147.8 761.28 146.62 761.4 146.26 761.56 145.58 761.63 145.39 762.12 143.97 762.34 143.1 762.61 142.41 762.98 141.5 763 141.43 763.23 140.85 763.78 138.51 763.88 135.77 763.5 134.01 763.23 133.85 763.12 133.67 763.16 133.51 763.24 133.45 763.43 133.44 763.67 133.51 763.86 133.27 763.9 132.96 761.77 132.23 761.71 131.82 761.44 130.73 761.34 130.09 764.01 129.46 764.12 127.66 763.67 123.36 764.66 118.29 765.11 117.83 766.39 116 766.67 115.77 767.12 115.23 768.48 113.81 769.03 113.18 769.53 112.56 772.38 111.07 773.15 110.45 774.07 110.18 775.09 109.87 775.69 109.59 776.71 108.73 777.29 108.62 777.42 108.59 778.14 108.62 780.08 108.69 786.21 108.94 786.5 108.86 786.73 108.8 786.96 108.73 787.19 108.66 787.46 108.58 787.65 108.53 787.78 108.49 787.89 108.46 787.92 108.45 788.01 108.43 788.13 108.4 788.24 108.38 788.3 108.37 788.36 108.37 788.42 108.36 788.48 108.35 788.53 108.35 788.59 108.35 788.65 108.35 788.71 108.36 788.76 108.37 788.82 108.37 788.87 108.38 788.93 108.39 788.98 108.41 789.04 108.43 789.1 108.45 789.15 108.47 789.2 108.5 789.26 108.53 789.31 108.56 789.36 108.59 789.4 108.62 789.45 108.66 789.49 108.7 789.53 108.74 789.57 108.78 789.61 108.83 789.64 108.88 789.67 108.92 789.69 108.98 789.71 109.03 789.73 109.08 789.75 109.13 789.76 109.19 789.77 109.24 789.77 109.3 789.78 109.35 789.78 109.4 789.77 109.47 789.77 109.53 789.77 109.59 789.75 109.71 789.74 109.84 789.73 109.92 789.72 109.96 789.7 110.08 789.68 110.2 789.67 110.32 789.66 110.44 789.64 110.57 789.62 110.91 789.61 111.25 789.61 111.43 789.61 111.49 789.61 111.61 789.61 111.72 789.62 111.85 789.63 111.96 789.64 112.08 789.66 112.14 789.66 112.19 789.68 112.26 789.7 112.31 789.71 112.36 789.73 112.42 789.75 112.47 789.77 112.52 789.8 112.57 789.82 112.62 789.85 112.67 789.88 112.72 789.91 112.76 789.95 112.81 789.98 112.85 790.02 112.89 790.06 112.93 790.1 112.98 790.14 113.02 790.18 113.05 790.27 113.13 790.36 113.2 790.45 113.26 790.47 113.28 790.52 113.31 790.65 113.4 790.74 113.46 790.84 113.52 790.93 113.58 791.02 113.63 791.11 113.69 791.2 113.74 791.28 113.79 791.46 113.9 791.63 113.99 791.81 114.09 791.9 114.15 791.99 114.19 792.08 114.25 792.18 114.3 792.28 114.35 792.38 114.41 792.49 114.46 792.6 114.52 792.72 114.58 792.78 114.61 792.84 114.64 792.91 114.68 792.97 114.7 793.1 114.77 793.24 114.84 793.7 115.48 793.65 116.54 793.56 118.14 793.55 118.46 793.49 119.48 793.44 120.47 793.43 120.76 793.31 123.08 793.56 123.58 793.72 123.6 793.77 123.6 794.03 123.6 794.1 123.61 794.31 123.64 794.38 123.65 794.54 123.67 794.97 124.29 795.52 124.53 795.89 124.7 796 124.77 796.14 124.86 796.36 125 796.85 125.47 797.05 125.7 797.27 125.84 797.24 125.9 797.28 125.93 797.38 125.99 797.56 126.09 797.72 126.19 797.83 126.24 798.15 126.38 798.4 126.49 798.75 126.61 798.8 126.63 798.85 126.65 799 126.7 798.71 127.2 798.65 127.28 798.52 127.48 798.41 127.66 798.28 127.86 798.24 127.93 798.23 127.94 798.21 127.98 798.03 128.43 798.01 128.51 798 128.55 798.05 128.59 798.15 128.67 798.34 128.73 798.37 128.74 798.46 128.78 798.57 128.93 798.57 128.98 798.57 129.1 798.56 129.43 798.49 129.57 798.45 129.66 798.21 130.17 797.83 130.46 797.54 130.62 797.4 130.69 797.25 130.76 797.1 130.82 797.03 130.86 796.85 130.94 796.39 131.26 795.98 131.82 795.56 132.33 794.68 132.64 794.65 132.7 794.41 133.14 794.26 133.47 793.84 134.21 793.61 134.63 793.45 134.92 792.76 136.22 792.18 137.31 792.15 137.37 791.7 138.21 790.86 139.77 790.83 139.82 790.65 140.15 790.45 140.53 790.33 140.73 790.29 140.82 790.31 140.95 790.33 141.08 790.46 141.91 790.49 142.03 790.61 142.84 790.63 142.96 789.49 142.84 789.25 142.81 787.36 142.6 786.6 142.49 786.59 142.51 786.61 142.53 787.03 142.71 790.1 144 790.24 144.06 790.31 144.08 790.72 144.26 791 144.38 791 144.4 790.86 145.15 790.53 145.28 790.5 145.29 790.07 145.46 789.47 145.63 788.93 145.79 788.45 146.04 787.92 146.32 787.34 146.96 787.11 147.22 787.09 147.24 787 147.37 786.54 147.97 786.38 148.18 786.17 148.79 785.94 149.06 785.79 149.11 785.65 149.15 785.59 149.16 785.54 149.18 785.27 149.25 784.95 149.29 784.55 149.34 784 149.4 782.16 149.73 782.05 149.76 780.41 150.28 780.18 150.37 778.37 151.09 778.08 151.19 777.78 151.3 775.57 152.1 775.54 152 775.49 151.89 775.46 151.8 775.42 151.7 775.37 151.6 775.34 151.56 775.31 151.52 775.28 151.47 775.26 151.43 775.23 151.39 775.21 151.35 775.17 151.32 775.14 151.29 775.11 151.25 775.07 151.22 775.04 151.2 775.01 151.18 774.97 151.16 774.94 151.14 774.9 151.13 774.87 151.12 774.83 151.11 774.79 151.1 774.75 151.1 774.72 151.11 774.67 151.11 774.64 151.12 774.6 151.13 774.56 151.14 774.52 151.16 774.47 151.17 774.43 151.19 774.4 151.21 774.35 151.24 774.31 151.26 774.27 151.29 774.23 151.32 774.18 151.35 774.13 151.38 774.1 151.4 774.05 151.45 773.96 151.52 773.95 151.53 773.86 151.59 773.77 151.67 773.68 151.75 773.49 151.91 773.39 151.98 773.29 152.07 773.19 152.14 773.1 152.21 773 152.28 772.9 152.34 772.8 152.4 772.71 152.45 772.6 152.51 772.51 152.55 772.45 152.59 772.4 152.61 772.3 152.64 772.2 152.69 772.11 152.73 772 152.77 771.9 152.8 771.8 152.82 771.7 152.86 771.59 152.88 771.49 152.9 771.39 152.93 771.28 152.95 771.18 152.97 771.07 152.98 770.86 153.02 770.65 153.04 770.44 153.07 770.23 153.09 770.01 153.11 769.8 153.13 769.57 153.15 769.35 153.16 769.12 153.17 768.96 153.18 768.9 153.18 Z" id="Daman"/>
<path d="M 49.9 2.1 50.8 1.67 51.68 1.43 52.83 1.21 53.53 1.17 53.61 1.16 53.76 1.15 54.35 1.24 54.9 1.92 55.23 2.68 55.3 2.86 55.05 3.63 53.6 4.02 52.71 4.52 50.66 5.6 49.55 6.3 48.63 7.39 48.09 8.49 47.71 9.34 47.64 10.02 48.07 10.91 48.79 11.51 49.66 11.9 50.36 12.09 51.2 12.15 51.32 12.23 50.96 12.88 50.8 13.1 50.64 13.25 50.41 13.37 50.3 13.37 49.88 13.82 49.79 14.02 49.67 14.15 49.54 14.23 49.26 14.34 48.84 14.34 48.64 14.37 48.41 14.46 48.01 14.73 47.88 14.78 47.71 14.79 47.41 14.62 46.83 14.64 46.4 14.85 45.73 15.39 44.3 15.99 43.92 16.11 43.76 16.26 43.74 16.51 43.69 16.67 43.56 16.79 43.27 16.97 43.13 17.1 43.13 17.29 43.12 17.43 43.03 17.6 42.72 17.69 42.38 17.59 42.38 17.39 42.48 17.33 42.59 17.23 42.6 17.08 42.51 16.89 42.43 16.79 42.28 16.81 42.11 16.77 41.93 16.86 41.84 17.15 41.73 17.28 41.65 17.12 41.56 16.65 41.39 16.52 41.25 16.52 41.13 16.59 41.02 16.79 40.93 16.83 40.83 16.84 40.74 16.77 40.7 16.62 40.39 15.76 40.03 15.49 39.71 15.48 39.39 15.69 39.15 15.71 38.77 15.79 38.02 16.08 37.72 16.15 36.79 16.12 36.04 16.18 35.5 16.26 34.37 16.8 34.02 16.9 33.82 16.91 33.4 16.83 32.48 16.13 32.15 16.03 31.92 16.09 31.78 16.2 31.66 16.26 31.36 16.21 30.18 16.01 29.83 15.88 28.18 15.35 28.05 15.25 27.97 14.87 27.69 14.63 26.98 14.35 25.61 14.01 24.02 13.86 23.4 13.85 21.44 14.28 21.04 14.44 20.17 14.88 19.65 15.28 19.31 15.62 19.13 15.92 19.01 16.28 19.05 16.74 19.22 17.16 19.33 17.45 19.43 17.81 19.33 18.04 18.26 18.68 17.87 18.69 17.67 18.58 17.63 18.37 17.69 18.1 17.65 17.96 17.56 17.84 17.42 17.76 17.07 17.74 16.88 17.83 16.82 18.07 16.63 18.18 15.84 18.21 13.95 18.57 13.6 18.65 13.09 18.67 12.69 18.61 12.44 18.56 12 18.47 11.05 17.74 8.35 16.45 5.22 15.63 3.52 15.32 1.7 15.42 1.63 15.33 1.51 15.18 1.35 14.84 1.2 14.39 1.13 14.1 1.05 13.73 1.02 13.38 1.04 12.98 1.07 12.75 1.19 12.56 1.28 12.47 1.28 12.42 1.35 12.25 1.41 12.11 1.43 11.65 1.44 11.14 1.41 11.11 1.36 11.08 1.27 11.03 1.15 11 1 10.94 1.23 10.93 1.4 10.93 1.44 10.89 1.55 10.8 1.74 10.47 1.99 10.08 2.52 9.63 3.77 7.7 3.93 7.45 4.54 6.73 5.42 6.38 6.44 6.1 8.03 5.83 9.69 5.64 11.73 5.04 12.03 4.95 13.66 4.44 14.5 3.87 15.01 3.47 15.31 3.22 15.85 2.99 16.45 2.88 16.58 2.86 17.37 2.8 18.23 2.65 18.51 2.38 18.72 2.22 19.17 1.88 19.93 1.41 20.02 1.38 20.73 1.14 21.65 1.07 22.97 1.14 24.04 1.29 24.96 1.44 26.21 1.41 26.78 1.4 28.13 1.3 29.48 1.3 31.28 1.3 34.53 1.73 36.68 1.77 39.08 1.79 41.78 1.65 43.45 1.56 43.93 1.51 44.93 1.41 46.46 1.17 47.85 1 48.73 1.13 49.26 1.58 49.9 2.1 Z" id="Diu"/>
</g>
</svg>