<?xml version="1.0"?>
<svg xmlns="http://www.w3.org/2000/svg" version="1.2" baseProfile="tiny" width="800" height="1088" viewBox="0 0 800 1088" stroke-linecap="round" stroke-linejoin="round">
<g id="Goa">
<path d="M 278.65 478.62 279.13 478.47 279.94 478.43 280.58 478.41 281.21 478.53 281.33 477.99 281.37 477.55 281.35 477.03 281.25 476.46 281.29 475.88 281.19 475.38 280.92 474.72 280.7 474.16 280.66 473.54 280.62 472.95 280.61 472.46 280.79 472.23 280.84 466.67 280.65 466.32 280.48 466.14 280.27 465.99 279.89 465.82 279.12 465.67 277.42 465.37 276.97 465.37 276.93 465.65 276.84 465.79 276.47 465.69 276.42 465.58 276.4 465.37 276.25 465.28 275.12 465.33 274.62 465.26 274.11 465.1 273.53 465.03 272.58 464.85 272.07 464.82 271.6 464.82 271.04 464.93 270.71 464.97 269.82 464.8 269.06 464.65 268.6 464.44 267.52 463.78 266.69 462.23 265.51 459.6 264.6 457.51 264.34 457.12 264.06 456.63 263.96 456.23 263.74 455.76 263.37 455.18 262.6 453.74 262.41 453.38 260.03 450.1 258.03 447.09 257.24 445.93 256.75 445.36 256.59 445.06 256.46 444.82 256.04 444.48 255.83 444.57 255.67 444.8 255.33 444.7 254.95 444.47 254.51 444 253.93 443.39 253.71 443.33 253.44 443.59 253.26 443.57 252.93 443.35 252.62 443.09 252.51 442.97 252.17 443.08 251.57 443.22 251.18 443.33 250.43 443.28 249.85 443.16 249.09 443.11 248.57 443.04 248.31 443 248.16 443.04 248.04 443.06 247.69 443.34 247.63 443.39 247.38 443.57 246.98 443.97 246.66 444.26 246.14 444.69 245.86 444.91 245.49 445.04 245.01 445.07 244.2 445.05 243.49 444.95 242.84 445.01 242.52 445.03 242.31 445.27 241.99 445.32 241.52 445.24 240.83 445.06 240.13 445 239.49 444.99 238.85 444.99 238.33 445.01 237.21 445.03 236.48 445.04 235.73 445.34 234.91 445.56 234.37 445.6 234.07 445.76 233.6 446.27 233.57 446.59 233.1 446.95 232.55 447.22 232.09 447.33 231.77 447.34 231.55 447.53 231.25 447.81 230.95 447.96 230.51 448.1 230.2 448.21 229.76 448.33 229.48 448.35 229.26 448.48 229 448.51 228.58 448.51 228.29 448.46 227.95 448.37 227.66 448.28 227.39 448.23 227.27 447.92 227.29 447.72 227.53 447.65 227.73 447.1 227.64 444.86 227.55 443.98 227.32 443.29 227.2 442.91 226.52 441.99 226.33 441.56 226.13 440.94 225.85 440.49 225.68 440.26 225.6 439.86 225.58 439.17 225.5 437.04 225.33 435.34 224.97 433.41 224.8 432.85 224.54 432.42 224.4 432.31 224.18 432.3 223.91 432.25 223.73 432.25 223.49 432.26 223.28 432.21 223.02 431.97 222.78 431.61 222.59 431.41 222.4 431.37 222.17 431.24 221.94 430.97 221.65 430.85 221.32 430.79 221.12 430.88 220.83 430.84 220.58 430.77 220.12 430.62 219.83 430.46 219.7 430 219.35 428.99 218.88 428.11 218.47 427.61 218.28 427.49 218.08 427.48 217.89 427.48 217.66 427.4 217.51 427.3 217.31 427.17 217.25 426.88 217.22 426.78 216.81 425.94 215.57 424.11 214.59 422.99 213.11 421.65 211.92 420.64 211.6 420.44 211.47 420.34 211.17 420.1 211.04 420.03 210.89 419.97 210.87 419.97 210.68 419.94 210.3 419.91 209.94 419.91 209.59 419.91 209.25 419.99 209.04 420.03 208.81 420.17 208.7 420.22 208.51 420.06 208.34 419.94 208.17 419.93 207.99 420.02 207.68 420.24 207.4 420.56 206.87 420.98 206.53 421.18 205.98 421.33 205.68 421.3 205.3 421.3 204.91 421.39 204.48 421.46 204.12 421.47 203.86 421.56 203.65 421.71 203.53 421.85 203.47 422.03 203.46 422.62 203.62 423.46 203.74 423.77 203.73 423.89 203.63 424.03 203.53 424.1 203.51 424.23 203.56 424.43 203.57 424.6 203.47 424.71 203.32 424.78 203.24 424.9 203.24 425.07 203.28 425.28 203.04 425.51 202.88 425.58 202.64 425.55 202.41 425.51 202.18 425.49 201.93 425.35 201.58 425.11 201.38 424.78 201.21 424.54 200.98 424.4 200.7 424.3 200.38 424.04 200.04 423.86 199.85 423.57 199.49 423.17 199.18 422.97 198.93 422.59 198.59 422.09 198.21 421.87 197.9 421.77 197.46 421.79 197.15 421.69 196.61 421.42 196.22 421.24 195.96 421.24 195.69 421.23 195.56 421.36 195.35 421.47 194.94 421.5 194.44 421.36 194.04 421.07 193.8 420.94 193.58 420.91 193.49 421.01 193.34 421.06 193.08 421.11 192.85 420.87 192.39 420.27 192 419.92 191.58 419.65 191.2 419.55 190.92 419.59 190.61 419.68 190.25 419.47 189.91 419.12 189.35 418.76 189.04 418.61 188.75 418.52 188.46 418.46 188.2 418.38 187.9 418.38 187.72 418.43 187.62 418.63 187.58 418.77 187.58 418.99 187.62 419.11 187.51 419.2 187.25 419.11 187.04 418.94 186.75 418.79 186.52 418.69 186.28 418.59 186.08 418.49 185.74 418.45 185.48 418.45 185.09 418.39 184.67 418.35 184.38 418.21 183.91 417.94 183.54 417.9 183.26 417.91 182.97 417.88 182.46 417.81 182.16 417.69 181.91 417.57 181.59 417.47 181.2 417.5 180.74 417.55 180.42 417.61 180.06 417.63 179.57 417.74 179.21 417.73 178.86 417.63 178.5 417.69 178.04 417.81 177.62 417.79 177.16 417.75 176.78 417.75 176.45 417.7 176.09 417.56 175.9 417.5 175.61 417.55 174.84 418.05 174.56 418.22 174.33 418.53 174.26 418.71 174.12 418.92 173.88 418.99 173.64 419.09 173.38 419.22 173.3 419.33 173.03 419.32 172.76 419.35 172.55 419.41 172.15 419.38 171.94 419.22 171.61 418.88 171.37 418.47 171.01 418.08 170.49 417.65 170.27 417.26 169.85 416.73 169.09 416.17 168.58 415.91 168.07 415.73 167.54 415.68 167.25 415.79 167.12 415.91 166.88 416.05 166.6 416.09 166.31 416.16 166.17 416.32 165.85 416.35 165.48 416.35 165.25 416.46 165.02 416.69 164.87 417.02 164.47 417.32 164.25 417.51 164.06 417.7 163.81 417.92 163.47 418.02 163.13 418.04 162.81 418.1 162.41 418.06 162.18 417.91 161.99 417.59 161.67 417.4 161.4 417.4 161.2 417.55 160.95 417.57 160.82 417.41 160.52 417.33 159.96 417.28 159.42 417.27 159 417.27 158.59 417.28 158.16 417.32 157.84 417.43 157.62 417.56 157.52 417.73 157.24 417.97 156.86 418.35 156.66 418.8 156.49 419.15 156.35 419.26 156.18 419.32 156.01 419.45 155.95 419.65 156.01 419.87 156.19 420.09 156.54 420.34 156.7 420.62 156.7 420.83 156.71 420.98 156.63 421.16 156.59 421.23 156.39 421.34 156 421.32 155.75 421.16 155.53 420.98 155.34 420.79 155.07 420.62 154.88 420.68 154.78 420.87 154.63 421.03 154.36 420.98 153.98 420.77 153.77 420.52 153.62 420.24 153.58 419.98 153.78 419.83 154.06 419.77 154.3 419.62 154.4 419.47 154.42 419.2 154.39 418.67 154.15 418.41 153.77 418.26 153.18 418.23 152.74 418.23 152.11 418.18 151.68 418.16 151.12 417.96 150.88 417.74 150.6 417.37 150.46 417.14 150.01 417.15 149.77 416.94 149.75 416.78 149.95 416.61 150.17 416.41 150.21 416.14 150.07 415.8 149.82 415.6 149.44 415.43 149.15 415.4 148.8 415.32 148.52 415.29 148.23 415.37 147.93 415.37 147.7 415.27 147.42 415.01 147.2 414.82 147.12 414.45 146.94 414.2 146.62 413.89 146.29 413.64 146.02 413.33 145.71 413.02 145.45 412.77 145.24 412.55 145 412.54 144.69 412.36 144.46 412.18 144.28 411.95 143.9 411.78 143.63 411.89 143.49 411.89 143.28 411.9 143.05 411.91 142.9 411.81 142.65 411.6 142.43 411.43 142.39 411.21 142.4 410.98 142.39 410.75 142.11 410.57 142.09 410.27 142 409.98 141.82 409.68 141.63 409.48 141.41 409.27 141.02 409.23 140.64 409.27 139.99 409.32 139.27 409.26 138.92 409.2 138.49 409.13 138.16 408.83 137.9 408.41 137.55 407.82 137.54 407.13 137.66 406.52 138.11 405.94 138.66 405.66 139.11 405.46 139.53 405.35 139.97 405.3 140.52 405.29 141.32 405.58 142.31 406.29 144.16 407.71 145.09 408.43 145.39 408.53 145.68 408.56 146.16 408.82 147.51 409.76 148.11 410.31 148.41 410.33 148.8 410.33 149.07 410.49 149.4 410.73 149.73 410.92 150.13 411.13 150.59 410.96 151.46 410.47 153.59 408.96 154.74 407.78 155.74 406.58 156.71 405.14 157.88 402.88 159.18 398.83 159.61 395.46 160.46 390.31 160.48 390.15 160.54 387.66 160.82 385.42 160.83 384.44 160.75 383.62 160.78 383.09 160.7 382.19 160.6 381.84 160.37 381.38 160.42 380.89 160.7 380.55 161.2 380.34 161.59 380.18 162.14 380.04 162.66 379.78 163.04 379.1 163.65 378.25 164.43 377.16 164.85 376.6 165.5 376.01 166.7 375.16 167.3 374.76 167.85 374.42 168.77 373.59 168.95 372.88 169.01 372.4 168.81 370.74 168.77 370.67 168.17 369.11 166.71 368.33 164.69 368.07 164.01 367.96 163.46 367.97 162.37 367.87 160.39 367.72 159.93 367.69 159.48 367.86 159.11 368.17 158.68 368.35 158.21 368.41 157.52 368.4 156.89 368.23 156.49 368.03 155.87 367.99 155.34 367.97 154.86 367.89 154.63 367.92 154.25 367.99 153.92 367.97 153.63 367.76 153.47 367.58 153.16 367.21 152.8 366.85 152.38 366.72 152.03 366.69 151.87 366.75 151.71 366.9 151.4 366.91 151.11 366.68 150.79 366.36 150.06 365.8 149.3 365.15 148.73 364.66 148.22 364.31 147.71 364.12 147.23 364.14 146.75 364.28 146.45 364.4 145.73 364.3 145.29 363.98 144.74 363.73 144.26 363.49 143.18 363.26 142.22 363.12 141.06 362.9 140.45 362.8 139.38 362.88 138.32 363.08 137.31 363.6 136.91 363.86 135.79 364.96 134.93 365.9 134.6 366.15 134.36 366.3 134.13 366.43 133.8 366.62 133.69 366.9 133.75 366.99 133.83 367.1 134.43 367.39 135.56 367.76 136.11 367.95 136.28 367.86 136.42 367.79 137.58 368.28 137.75 368.56 137.94 368.76 138.07 369.08 138.07 369.27 137.88 369.4 137.58 369.39 137.38 369.43 137.37 369.67 137.25 369.85 136.95 370.03 136.63 370.35 136.22 370.74 135.43 370.94 135.11 371.03 134.83 371.18 134.51 371.17 134.09 371.15 133.8 371.18 133.22 371.37 132.74 371.51 132.18 371.65 131.79 371.86 131.45 371.85 131.03 371.82 130.72 371.8 130.49 371.87 130.27 372.04 130.02 372.2 129.74 372.22 129.45 372.16 129.27 371.9 129.08 371.58 128.93 371.34 128.65 371.12 128.13 371.17 127.81 371.28 127.48 371.39 127.12 371.57 126.9 371.5 126.84 371.28 126.63 371.15 126.31 371.22 125.97 371.37 125.73 371.52 125.55 371.7 125.16 371.87 124.95 372.03 124.56 372.35 124.35 372.97 123.95 373.75 123.73 374.05 123.18 374.35 122.94 374.44 122.65 374.4 122.41 374.45 122.03 374.42 121.84 374.29 121.54 374.26 120.88 374.26 120.26 374.26 119.53 374.4 118.76 374.47 117.99 374.32 117.59 374.2 117.21 374.2 116.79 374.18 116.31 374.11 115.83 374.03 115.29 374 114.83 373.68 114.59 373.28 114.18 372.98 114.09 372.49 114 371.64 114.03 371.11 114.05 370.8 113.93 370.64 113.56 370.86 113.32 370.96 113.25 370.69 113.25 370.41 113.18 370.06 112.9 369.86 112.64 369.86 112.44 370.04 112.19 370.2 112 370.04 112.16 369.72 112.2 369.5 111.9 369.55 111.7 369.81 111.49 369.99 111.17 369.96 111.01 369.66 111.02 369.38 110.91 369.13 110.75 368.9 110.41 368.85 110.34 368.49 110.34 368.19 110.28 367.91 110.01 367.64 109.95 367.28 109.95 366.84 109.95 366.45 110.02 366.08 110.25 365.71 110.59 365.44 110.84 365.4 111.26 365.45 111.65 365.52 111.91 365.51 112.3 364.95 112.17 364.83 112.1 364.8 112.04 364.75 112.02 364.68 112.05 364.62 112.1 364.57 112.19 364.57 112.24 364.6 112.28 364.63 112.29 364.68 112.28 364.75 112.38 364.86 112.75 364.69 113.07 364.45 113.26 364.2 113.53 363.63 113.58 362.98 113.41 361.86 113.44 360.73 113.41 359.84 112.55 357.06 112.11 355.55 111.61 354.1 110.9 352.84 110.28 351.94 109.96 351.41 109.76 351.06 109.36 350.27 109.26 348.83 108.95 347.83 108.73 347.56 108.53 347.15 108.36 346.17 107.11 341.77 106.57 339.83 105.78 337.02 105.13 334.4 104.31 330.96 104.12 330.18 102.47 324.55 101.47 321.16 99.21 314.02 98.6 311.81 97.54 307.87 95.85 301.32 94.83 298.56 93.99 296.08 93.87 295.72 92.93 293.03 91.15 289.35 90.67 288.64 90.5 288.23 90.52 287.88 90.67 287.52 90.73 287.26 90.67 287.01 90.63 286.91 90.58 286.77 90.4 286.7 90.34 286.73 90.26 286.78 89.92 287.24 89.37 287.7 88.93 287.91 88.52 287.93 88.29 287.93 88.1 288.01 87.94 288.2 87.91 288.42 87.81 288.66 87.63 288.84 87.38 288.93 87.05 288.89 86.78 288.76 86.66 288.46 86.63 288.13 86.43 287.83 86.19 287.59 86.09 287.44 85.98 287.15 85.84 286.91 85.51 286.85 85.4 286.75 85.11 286.64 84.86 286.58 84.69 286.79 84.55 286.89 84.41 286.71 84.38 286.52 84.22 286.34 84.22 286.19 84.11 286 83.88 285.76 83.54 285.64 83.23 285.55 83.04 285.53 82.8 285.42 82.52 285.36 82.28 285.3 82.07 285.26 81.99 285.04 82.01 284.73 82.32 284.37 82.74 283.92 82.86 283.4 82.67 283.02 82.67 282.84 82.67 282.7 82.74 282.47 82.82 282.11 82.84 281.86 82.72 281.59 82.44 281.35 82.23 281.35 82.02 281.35 81.76 281.35 81.61 281.09 81.6 280.8 81.84 280.48 81.97 280.33 82.23 280.18 82.58 279.46 82.82 278.81 82.82 278.14 82.68 277.3 82.46 276.92 82.01 276.38 81.69 275.99 81.63 275.69 81.7 275.34 81.72 275 81.5 274.67 81.15 274.32 80.97 273.91 80.85 273.32 80.8 272.04 80.62 271.51 80.11 270.43 79.2 268.59 78.07 267.03 77.93 266.44 77.61 265.38 77.33 264.37 77.2 264.13 77.15 263.89 77.19 263.67 77.31 263.37 77.31 263.19 77.19 263.01 76.98 262.69 76.91 262.38 77.06 262.18 77.21 261.89 77.2 261.7 77.13 261.54 76.99 261.43 76.87 261.39 76.69 261.34 76.6 261.32 76.55 261.22 76.6 261.02 76.69 260.72 76.69 260.46 76.66 259.98 76.38 259.55 76.33 259.48 76.16 259.24 76 259.11 75.73 259.06 75.54 258.95 75.38 258.81 75.37 258.43 75.37 258.25 75.25 258.05 75.09 257.88 74.86 257.69 74.37 257.3 74 256.97 73.83 256.8 73.62 256.75 73.45 256.6 73.38 256.41 73.36 256.24 73.2 256.1 72.92 255.92 72.65 255.87 72.42 255.94 72.14 255.99 71.79 256 71.79 255.8 71.95 255.56 71.95 255.44 71.83 255.27 71.68 255.12 71.29 254.93 71.13 254.87 70.95 254.82 70.88 254.71 70.83 254.67 70.8 254.52 70.8 254.36 70.79 254.27 70.82 254.15 70.8 253.99 70.72 253.85 70.68 253.62 70.86 253.27 71.06 253.05 71.33 252.76 71.49 252.63 71.67 252.43 71.86 252.2 72.09 252.02 72.3 251.81 72.54 251.68 72.72 251.63 73 251.41 73.19 251.1 73.32 250.72 73.33 250.31 73.36 250.03 73.35 249.78 73.32 249.61 73.18 249.54 72.86 249.32 72.82 249.22 72.94 249.04 73.03 248.92 73.09 248.77 73.12 248.5 73.04 248.34 72.98 248.19 72.94 247.92 72.94 247.72 72.94 247.56 72.92 247.39 72.92 247.21 73.02 246.91 73.04 246.8 73.06 246.55 73.02 246.37 72.9 246.2 72.77 246.08 72.63 245.91 72.6 245.83 72.59 245.59 72.56 245.37 72.48 245.18 72.47 244.95 72.44 244.73 72.45 244.56 72.42 244.36 72.38 244.2 72.35 244 72.19 243.82 72.09 243.68 71.96 243.45 71.83 243.3 71.78 243.07 71.91 242.88 72.12 242.76 72.37 242.35 72.45 242.03 72.47 241.77 72.59 241.29 72.65 240.53 72.63 239.75 72.39 238.67 72.27 238.16 72.15 237.79 72.01 236.99 71.92 236.8 71.85 236.72 71.71 236.64 71.63 236.41 71.61 236.12 71.66 235.93 71.66 235.55 71.49 235.11 71.25 234.48 70.97 234.13 70.76 234.03 70.59 233.71 70.6 233.41 70.76 233.13 71.06 232.87 71.3 232.65 71.45 232.47 71.97 232.46 72.35 232.45 72.82 232.45 73.36 232.51 73.66 232.64 74.27 232.65 74.69 232.62 75.36 232.58 75.66 232.56 76.07 232.51 76.62 232.48 77.02 232.45 77.4 232.39 77.86 232.3 78.24 232.4 78.67 232.66 79.14 233.03 79.48 233.35 79.62 233.76 80.09 234.34 80.45 234.8 80.48 235.36 80.49 235.57 80.55 235.93 80.67 236.39 80.86 236.61 81.31 236.78 81.7 236.87 81.98 237.06 82.44 236.99 82.73 236.81 83.03 236.78 83.64 236.93 84.13 236.95 84.48 236.83 84.91 236.47 85.25 236.13 85.66 235.8 85.92 235.68 86.2 235.62 86.56 235.62 86.93 235.62 87.58 235.45 87.86 235.03 88.31 234.51 88.93 233.84 89.02 233.36 89.34 232.98 89.65 232.76 90.12 232.56 91.3 232.28 92.15 231.82 92.87 231.46 93.67 231.1 94.26 230.75 94.46 230.67 94.83 229.9 94.95 229.35 95.11 228.58 95.63 227.51 96.36 226.2 97.58 224.73 98.65 223.12 99.23 222.72 99.36 222.6 99.62 222.38 99.72 222.28 99.21 221.95 98.59 221.61 98.07 221.41 97.36 221.53 96.51 220.91 95.85 220.49 94.92 219.76 94 218.83 93.3 218.07 92.67 217.65 91.44 217.31 91.38 217.28 90.03 216.32 89.85 215.99 90.49 214.4 90.76 213.76 90.75 213.47 90.74 213.02 89.67 211.93 87.5 210.56 86.9 210.56 86.43 210.56 83.98 211.59 82.14 212.51 81.2 213.67 80.92 214.55 79.18 216.12 78.42 217.73 78.54 218.5 77.92 220.49 77.86 220.67 77.52 222.28 77.25 223.33 77.44 224.19 77.52 225.19 77.25 225.68 76.85 225.86 76.31 225.56 75.75 224.98 75.06 224.07 74.47 223.63 74 223.46 73.8 223.39 72.69 222.62 71.23 221.07 70.85 220.62 70.47 220.15 69.57 218.8 67.86 214.87 67.44 213.96 65.94 210.74 64.68 209.07 64.11 208.44 63.71 207.97 63.47 207.68 62.97 207.16 62.14 206.76 61.19 206.49 60.65 206.34 60.37 206.23 60.17 206.27 59.89 206.15 59.53 205.63 59.48 205.5 59.5 205.06 59.43 204.38 58.58 202.31 57.64 200.08 57.47 199.8 57.34 199.79 57.14 199.61 55.65 195.5 54.73 193.85 54.22 192.97 54.06 192.53 53.64 190.6 53.23 189.12 52.15 186.87 51.63 185.16 51.16 183.76 50.87 183.28 50.58 183.03 50.51 182.64 50.54 182.23 50.88 181.98 51.11 181.8 51.43 181.62 51.48 181.27 51.23 180.23 51.09 179.94 51.12 179.34 51 178.86 50.82 178.88 50.54 178.76 50.28 178.22 49.62 176.56 48.77 173.9 47.8 171.03 45.28 163.51 43.95 160.68 41.33 156.17 40 153.66 39.57 152.34 39.53 152.24 38.86 150.1 37.51 145.82 36.47 141.1 35.98 139.25 35.4 137.09 34.23 134.09 33.17 132.19 32.64 131.54 32.25 131.11 31.86 130.9 31.61 130.9 31.45 130.95 31.11 131.03 30.88 131.1 30.63 131.17 30.45 131.1 30.37 130.93 30.28 130.69 30.42 130.3 30.52 129.78 30.29 129.42 30.17 129.14 30.21 128.8 30.39 128.44 30.32 128.16 30.09 127.92 29.81 127.79 29.57 127.67 29.36 127.43 29.31 127.12 29.04 125.11 28.39 123.26 27.86 122.66 27.56 122.38 27.31 122.26 26.9 121.96 26.58 121.66 26.42 121.53 26.27 121.38 26.03 121.24 25.73 121.12 25.71 120.84 25.77 120.54 25.81 120.28 25.85 119.98 25.86 119.69 25.86 119.4 25.74 119.16 25.4 119.01 25.21 118.83 25.16 118.47 25.02 118.17 24.92 117.76 24.86 117.47 24.86 117.23 24.78 117 24.52 116.78 24.38 116.47 24.56 116.35 24.73 116.22 24.89 116.06 24.9 115.56 24.8 114.93 24.14 113.05 23.12 109.76 22.25 106.73 21.71 105.2 21.59 104.5 21.49 103.97 20.96 103.07 20.6 102.1 20.42 101.38 20.5 100.33 20.75 99.35 21.2 98.9 21.48 98.82 22.07 99.02 23.01 99.09 23.19 99.11 23.3 99.07 23.57 98.66 23.77 98.2 23.9 97.54 23.42 96.64 23.43 96.35 23.38 96.29 23.06 96.29 22.31 96.22 21.95 95.88 21.63 95.57 21.43 95.37 21.1 95.04 20.68 94.99 20.19 94.99 19.63 94.93 19.02 94.8 18.82 94.52 18.67 94.05 18.43 93.81 17.85 93.72 17.37 93.78 17.1 94.16 17.02 94.71 16.89 95.17 16.84 95.69 16.72 96.24 16.5 96.64 15.97 96.89 15.41 96.94 15.01 96.9 14.6 96.82 14.29 96.97 13.99 97.25 13.72 97.42 13.52 97.2 13.36 97.02 13.02 97.05 12.68 97.08 12.36 97.06 12.15 96.88 12.11 96.49 12.14 96.17 12.06 95.73 11.95 95.4 11.76 95.2 11.3 95.17 11.01 95.34 10.13 95.6 9.49 95.73 9.13 95.89 8.69 96 8.6 96.22 8.44 96.3 8.34 96.1 8.41 95.88 8.44 95.67 8.09 95.43 7.65 95.36 7.37 95.34 7.49 95.01 7.88 94.81 8.18 94.64 8.44 94.39 8.6 94.05 8.73 93.64 8.94 93.35 9.36 92.92 9.56 92.71 9.58 92.47 9.42 92.23 9.12 92.04 8.81 91.87 8.69 91.8 8.46 91.62 8.32 91.23 7.93 91.07 7.52 91.06 7 90.89 6.48 90.99 6.07 91.01 5.44 91.05 5.06 91.03 4.7 90.82 4.52 90.77 4.23 90.66 3.87 90.57 3.66 90.3 3.54 89.91 3.19 89.65 2.77 89.36 2.58 89.04 1.98 88.62 1 87.8 4.25 87.23 4.79 87.15 12.02 86.02 12.62 85.49 13.02 85.14 13.11 84.99 13.46 84.43 13.97 83.57 15.19 83.27 17.17 83.15 19.06 83.03 20.18 82.97 21.89 82.89 22.8 82.72 25.77 82.74 27.68 83.32 29.66 83.91 30.29 84.1 32.44 85.07 32.97 86.06 32.98 86.14 33.09 86.82 33.28 88.09 33.33 89.1 34.13 90.94 35.23 91.03 35.38 91.17 35.91 91.53 36.14 91.75 36.56 92.41 36.71 92.74 36.81 92.99 36.5 93.34 35.25 93.52 34.51 93.53 33.53 93.41 35.37 94.04 44.57 92.35 49.41 90.83 51.96 90.98 53.17 91.05 53.6 90.71 53.69 90.53 54.05 90.35 56.42 90.63 56.59 90.64 57.65 90.77 58.84 90.76 59.32 90.76 59.59 90.76 60.63 90.71 62.19 90.82 63.15 91.03 63.2 91.05 63.9 91.41 64.72 91.28 65.85 91.82 67.48 93.49 68.79 95 70.32 95.79 72.33 96.13 72.5 96.16 73.94 95.98 77.1 94.11 77.37 93.74 78.05 92.76 78.72 88.16 78.92 85.72 79.83 83.9 80.95 82.38 81.79 81.63 82.5 81.02 85.5 79.41 87.79 77.71 88.03 77.53 88.43 77.47 92.51 76.91 93.87 76.84 94.42 76.82 95.93 77.17 96.69 77.35 99.95 77.5 107.12 78.35 110.79 78.69 110.91 78.71 112.3 78.9 113.87 79.02 116.05 79.82 117.21 80.75 118.24 81.56 119.67 82.57 121.65 83.69 122.02 83.98 122.48 84.32 124.23 85.62 128.78 87.55 133.09 88.28 135.1 88.73 136.67 89.06 137.15 89.23 137.75 89.44 138.45 89.87 139.68 90.64 140.72 90.41 141.62 88.82 142 88.15 142.21 87.73 142.52 87.05 142.88 85.87 143.1 85.19 143.2 84.87 143.22 84.52 143.35 82.78 143.69 81.1 145.41 79.83 145.88 79.66 148.16 78.83 148.18 78.82 149.65 79.15 151.58 79.6 152.17 79.73 153.82 80.12 153.91 80.1 156.3 79.9 156.45 79.89 156.54 79.88 157 79.72 157.34 79.65 157.47 79.61 161.69 78.57 161.94 78.37 166 75.19 166.52 74.18 166.99 73.43 167.6 72.34 168.22 71.24 168.28 71.13 171.25 71.23 175.25 73.38 177.26 74.14 177.39 74.19 178.3 74.54 178.61 74.65 178.97 74.79 180.65 74.67 181.33 74.62 181.39 74.6 184.08 73.25 185.71 70.71 185.8 70.36 185.83 70.28 185.79 70.1 186.34 69.4 186.81 68.6 186.99 68.3 188.79 65.44 190.85 61.08 192.21 58.22 192.32 56.98 192.46 55.45 192.5 54.84 192.61 53.13 192.7 51.77 192.49 51.22 191.21 47.87 191.27 45.9 191.28 45.27 191.52 43.53 192.26 41.79 194.44 41.17 197.98 40.67 198.91 40.21 199.56 39.46 200.08 38.52 201.61 33.91 202.03 31.65 203.48 28.79 205.03 26.26 206.51 25.17 206.84 24.92 210.98 25.22 211.09 25.23 213.74 25.83 214.9 26.1 215.07 26.13 215.35 26.01 216.46 25.54 216.37 23.7 216.36 23.36 215.48 21.86 213.65 20.28 212.08 18.69 211.9 17.65 211.82 17.18 212.53 16.32 212.9 15.85 213.55 15.04 214.52 13.85 215.87 7.97 217.32 4.87 218.7 3.11 220.25 1.59 220.59 1.49 221.03 1.37 222.2 1.05 222.44 1 225.27 2.14 226 2.31 226.71 2.48 227.36 2.64 229.03 3.18 229.61 3.38 229.72 3.41 229.82 3.43 230.25 3.58 230.82 3.76 231.43 3.96 232.14 4.41 233.69 5.37 233.75 7 233.79 7.97 233.37 9.48 232.47 10.74 231.23 12.5 231.32 14.01 232.09 16.5 232.47 17.69 234.03 20.28 235.27 21.65 235.69 22.11 235.84 22.24 239.61 25.7 241.78 28.43 242.89 29.83 244.07 31.17 244.37 31.5 245.85 32.83 247.23 33.57 248.02 34.25 248.02 34.99 247.92 35.64 247.85 36.17 246.78 38.35 246.58 38.75 246.49 38.94 245.45 40.79 244.6 42.22 244.26 43.94 244.35 45.07 243.84 46.58 243.1 47.61 243.07 47.67 242.33 49.48 241.52 51.46 240.33 53.83 240.51 55.5 240.58 55.63 241.36 57.16 241.38 57.2 241.38 57.21 242.09 58.6 242.79 59.31 244.52 61.09 244.76 61.21 246.74 62.2 247.99 62.84 250.82 62.73 253.1 62.64 256.07 63.16 257.06 63.34 257.7 63.45 261.07 64.18 261.28 64.28 261.92 64.59 264.55 65.85 268.02 67.76 270.71 68.41 270.96 68.38 271.59 68.27 272.12 68.17 272.71 68.07 274.25 67.81 274.58 67.69 275.38 67.39 275.94 67.18 277.89 66.45 278.17 66.35 278.26 66.32 279.53 65.86 280.56 64.93 281.3 65.06 281.86 65.17 282.33 65.26 283.68 65.5 285.62 67.18 286.47 67.92 290.44 69.15 292.84 69.54 298.16 70.63 301.98 71.36 303.09 71.41 309.52 71.65 312.98 71.47 315.7 72.55 320.58 74.5 320.96 75.93 321.05 76.23 321.07 76.29 321.08 76.32 321.11 76.41 322.49 81.45 323.36 83.1 323.76 83.86 324.42 91.72 328.85 102.29 330.88 103.12 333.24 104.08 333.55 104.31 337.61 106.96 338.25 107.69 337.95 108.46 337.63 109.81 336.08 111.63 333.29 114.09 332.97 114.36 333.47 115.3 334.24 116.78 334.86 117.39 334.88 119.19 334.5 120.53 333.95 122.53 333.8 122.65 334.03 124.38 334.38 125.73 335.71 126.66 336.6 126.59 337.92 126.54 339.12 125.97 339.78 125.11 340.36 123.97 340.49 123.89 341.62 123.14 345.51 124.14 347.63 124.97 348.39 125.51 348.93 126.72 348.97 126.79 350.34 128.66 350.54 128.92 352.02 130.93 354.44 132.58 354.15 135.5 354.21 138.88 353.52 141.06 353.25 141.93 352.98 143.2 353.39 146.01 353.15 147.33 353.09 147.71 352.94 148.44 352.74 149.5 352.52 151.34 352.91 154.15 353.44 155.45 353.57 155.79 355.44 160.42 356.98 164.23 358.15 167.59 359.21 170.65 359.03 174.07 357.53 175.98 356.68 177.08 356.52 177.25 350.72 183.62 350.54 185.53 350.37 187.31 350.56 190.3 352.22 194.33 352.74 195.23 354.05 197.5 358.17 207.03 361.93 210.83 362.73 211.63 364.12 213.05 365.63 211.87 372.72 212.78 373.39 213.16 375.11 214.16 379.43 220.9 386.29 227.47 388.65 229.8 388.76 229.91 390.96 231.98 391.1 232.06 391.36 231.94 391.68 231.83 391.92 231.8 392.12 231.85 392.27 231.97 392.39 232.12 392.61 232.47 392.75 232.81 393.07 233.53 393.22 233.63 393.38 233.68 393.72 233.94 396.65 233.88 397.28 233.88 398.93 233.87 401.46 233.48 401.62 233.46 403.35 233.19 404.1 233.09 409.5 232.91 414.91 234.11 420.12 236.06 424.75 237.79 425.47 236.59 427.73 235.21 427.93 235.09 429.46 234.01 429.07 232.46 429.83 231.27 430.13 230 430.35 228.82 430.65 227.56 431.18 226.37 432.25 225.55 432.84 224.1 433.26 223.08 433.7 222.02 434 221.3 434.4 220.33 435.41 219.56 435.84 219.23 436.68 219.14 438.12 219.24 438.83 219.29 440.13 219.42 442.19 219.19 443.88 218.52 445.71 217.77 447.37 217.61 448.8 217.49 450.54 217.48 452.81 217.32 455.17 217.21 456.29 217.17 461.98 216.16 462.58 216.05 464.69 215.6 467.46 215.01 467.88 214.59 468.5 213.99 468.85 213.64 469.59 213.4 470.76 213.02 472.15 212.58 474.5 211.8 475.41 211.48 477.98 211.54 480.34 212.05 483.77 210.97 486.61 209.34 487.75 209.6 488.68 209.97 489.97 209.29 491.64 207.98 493.96 207.53 495.24 207.18 495.3 206.81 495.7 204.05 496.17 203.94 499.01 202.55 501.49 201.2 504.5 200.49 506.73 198.39 508.16 197.9 509.29 197.69 511.31 198.47 512.04 198.79 512.51 198.81 512.82 198.77 513.4 198.68 515.08 197.74 517.3 195.71 519.64 193.58 521.81 192.62 523.28 191.87 524.35 191.73 526.05 191.83 527.19 191.99 527.47 192.11 527.59 192.16 530.04 193.19 530.45 192.37 530.76 191.69 530.83 191.53 531.75 190.78 533.82 189.1 537.51 185.95 537.46 182.37 537.4 177.84 537.84 178.15 541.42 178.21 558.42 181.67 559.84 181.32 563.05 180.1 572.88 178.76 573.95 178.92 580.05 179.79 582.88 180.2 586.16 175.62 591.1 175.84 595.21 176.02 597.64 154.22 597.8 154.16 598.01 154.03 598.39 153.85 598.64 153.84 599.13 153.74 601.54 152.71 603.76 149.7 606.8 145.56 608.9 144.5 612.68 142.59 615.43 141.21 620.46 142.57 622.9 143.23 624.56 143.67 625.09 150.02 621.67 151.42 620.86 151.75 620.67 151.83 622.92 160.53 641.35 165.27 641.77 167.76 641.85 168.24 639.31 173.5 643.4 179.64 648.09 179.09 656.53 178.09 662.22 174.91 661.78 173.12 656.48 167.79 657.45 166.81 659.65 164.59 664.97 159.21 665.05 159.12 665.58 158.58 666.23 159.15 671.96 164.17 677.08 160.17 678.09 159.38 681.86 159.65 688.48 166.99 690.54 169.28 694.26 173.39 695.72 182.3 696.51 195.64 696.64 197.79 693.36 202.99 690.96 209.97 693.18 210.8 699.31 209.19 700.14 209.62 703.03 211.05 705.18 213.57 709.06 218.11 710.37 227.09 706.62 236.7 706.25 250.46 702.25 253.91 695.64 259.61 696.89 268.12 693.26 271.72 693.16 279.75 703.54 284.81 705.59 285.81 709.29 282.62 712.01 285.37 712.83 287.48 712.96 287.81 713.18 288.36 715.25 293.67 722.98 300.37 727.79 308.93 731.03 317.84 731.73 321.23 733.06 327.66 727.67 334.24 728.81 335.55 726.82 342.44 726.56 343.37 709.9 351.83 701.07 357.95 696.75 362.86 696.65 363.56 695.64 371.57 698.53 375.88 696.2 377.75 695.4 380.25 692.83 380.63 690.77 382.03 689.02 383.99 687.3 383.77 677.87 386.78 673.39 388.83 672.55 389.28 668.34 391.49 665.28 394.81 660.69 399.45 658.03 400.78 653.42 401.51 649.71 402.47 640.86 405.94 637.78 407.64 636.34 408.44 629.06 414.01 627.39 417.43 626.57 419.1 622.65 421.35 621.81 423.07 622.15 424.43 622.37 424.94 623.53 427.84 623.52 428.32 623.53 430.32 623.53 430.7 623.57 430.86 622.55 433.67 621.45 434.62 618.87 436.89 618.23 437.33 618.15 437.39 617.87 437.58 617.62 437.77 617.26 438.02 616.94 438.23 615.63 439.32 615.37 439.54 615.03 439.81 613.96 441.38 612.43 443.1 610.73 443.63 608.34 443.49 604.96 442.61 603.1 441.64 601.56 440.46 599.62 438.08 599.24 437.98 597.93 437.63 594.62 439.58 592.63 439.45 589.31 439.46 587.69 440.13 586.83 440.49 586.27 440.78 584.64 441.37 582.41 440.79 580.9 440.41 579.4 440.78 578.65 441.76 578.39 441.88 575.91 442.96 572.7 442.14 570.92 442.15 568.81 442.16 567.93 442.28 566.56 442.46 566.22 442.67 565.92 442.83 563.14 444.44 562.35 445.04 561.72 445.54 561.67 445.58 561.33 445.79 559.1 447.17 557.24 447.1 555.91 446.88 550.84 444.04 548.64 443.89 547.58 443.82 547.19 444.28 543.85 446.47 541.93 448.15 543.17 449.12 542.64 451.6 541.87 451.97 538.63 452.77 536.83 453.58 535.2 454.33 534.04 455.32 533.45 456.57 533.08 457.83 532.6 459.12 532.18 460.37 531.88 464.05 531.72 465.56 531.51 466.29 530.43 464.94 529.52 463.8 528.06 461.95 526.77 460.03 525.58 457.23 523.86 456.36 523.33 456.56 521.3 457.92 512.69 463.26 512.22 463.55 508.21 464.76 505.79 464.91 505.48 464.93 505.22 464.94 504.77 464.97 504.65 465.03 503.63 465.49 502.92 465.8 502.24 466.11 501.93 466.47 501.32 467.18 499.85 468.89 499.5 469.3 498.43 469.8 498.3 469.85 495.55 471.1 495.32 471.21 493.96 471.89 491.12 473.33 489.24 473.72 488.73 474.72 489.09 475.24 489.7 475.99 490.26 476.44 490.61 476.75 490.89 477.35 490.96 477.71 491.05 478.14 490.87 478.85 490.82 479.03 490.77 479.19 490.62 479.67 490.53 480.01 490.02 480.95 489.35 482.21 489.2 482.69 489.07 483.1 489.06 484.09 489.08 484.73 489.73 486.13 490.38 487.01 490.68 486.61 492.03 487.53 491.83 488.47 492.64 488.9 494.2 489.82 494.43 490.02 494.53 490.09 494.71 491.1 494.42 491.58 494 492.16 493.78 492.45 492.3 494.82 491.79 495.74 491.85 496.82 491.93 497.36 492.59 499.22 492.66 499.41 492.8 499.63 493.09 499.61 494.77 499.53 494.89 499.52 495.11 499.31 495.56 498.89 496.18 498.34 496.62 497.18 496.89 496.39 497.18 495.49 497.43 495.16 498.02 494.94 499.04 494.98 499.22 496.92 501.16 499.2 501.74 499.66 502.95 501.03 503.91 501.66 504.38 501.09 504.51 500.94 504.73 500.89 505.6 500.71 505.72 500.68 506.39 500.76 506.93 501.02 507.39 501.48 508.14 502.65 508.26 503.27 508.28 503.59 508.75 505.97 508.78 506.3 508.87 507.33 509.21 508.01 509.66 510.17 510.04 510.79 510.79 511.97 511.21 512.63 512.51 512.63 512.78 512.37 512.38 511.76 511.9 511.03 511.78 510.43 512.16 510.31 512.32 509.97 513.64 509.84 514.68 509.95 514.72 509.96 514.79 509.99 515.61 510.43 516.18 510.88 517.17 511.61 517.69 512.17 518.02 512.53 518.27 512.85 518.79 513.5 518.91 513.69 519.36 514.41 520.09 515.53 520.14 515.6 520.03 516.29 519.45 516.26 519.28 516.22 516.81 515.59 515.5 516.19 515.14 516.58 514.59 517 514.1 518.35 514.9 518.47 514.94 518.63 514.97 518.7 516.41 519.18 517.93 519.86 519.09 520.48 519.67 521.19 519.99 521.43 520.28 521.66 521.58 522.36 522.58 523 523.81 524.36 524.09 525.52 524.44 528.09 524.52 530.2 524.87 531.09 525.63 531.71 526.05 532.05 526.53 532.91 526.83 533.57 526.94 534.22 526.95 534.32 526.62 534.84 525.62 535.62 525.28 535.96 525.01 536.21 524.13 538.7 523.92 540.66 524.51 542.43 524.97 543.61 525.42 544.4 525.01 545.18 524.52 545.29 523.94 545.07 523.33 544.66 522.36 544.67 521.48 544.67 521.2 546.38 521.2 547.34 521.2 547.71 521.2 548.38 521.39 549.08 521.86 550.17 522.67 550.86 524.12 551.6 525.32 552.15 527.23 553.21 526.81 554.07 526.09 554.26 524.98 554.08 523.1 553.72 520.85 554.18 520.3 555.1 519.51 555.92 518.91 557.22 519.04 559.65 519.11 560.34 519.15 560.69 518.83 561.64 518.67 562.17 518.06 563.8 517.91 565.69 517.22 566.94 516.96 567.36 516.79 567.64 516.38 568.28 515.97 568.83 515.63 569.3 514.81 570.32 513.8 571.42 513.45 571.78 513.39 571.84 513.22 572.02 512.44 572.62 510.61 573.29 509.63 574.12 508.5 575.62 508.21 576.09 507.2 577.13 506.91 577.46 504.5 579.89 504.37 580.02 503.95 582.16 504.01 582.94 504.02 583.17 505.2 584.62 506.44 586.52 507.14 587.6 508.07 588.6 508.81 589.46 508.92 589.96 509.07 590.6 508.99 591.79 508.97 592.32 508.81 593.41 508.78 593.61 508.74 594.52 508.74 595.9 509.58 598.2 509.93 599.16 510.03 599.42 510.19 599.71 510.52 600.32 510.74 600.71 511.72 602.46 513.29 603.52 513.85 604.43 513.85 605.33 513.35 606.05 512.68 606.43 512.03 606.78 511.98 606.82 511.25 607.45 511.19 607.52 510.62 608.26 510.61 608.34 510.52 608.99 510.48 609.4 510.52 610.64 512.6 611.16 512.96 611.39 513.43 611.68 514.22 613.34 516.4 615.48 517.44 616.05 519.85 616.7 521.17 617.94 521.52 618.23 522.51 619.03 523.24 619.6 526.11 621.32 527 622.27 527.18 622.85 527.35 623.42 527.6 624.42 528.64 625.36 529.98 626.6 530.02 627.36 529.93 627.98 529.83 628.69 530.37 629.55 530.71 629.91 531.47 630.71 531.77 632.2 531.37 633.48 531 634.72 530.17 636.77 529.48 637.69 529.24 638.01 529.04 638.28 528.41 639.12 528.22 639.85 528.07 640.41 527.84 640.82 527.83 640.84 527.5 641.46 526.94 642.43 526.93 642.49 526.78 643.03 526.59 643.89 525.09 644.82 525.05 644.85 524.89 645.02 524.41 645.53 524.16 645.67 523.98 645.77 523.54 646.02 523.44 646.13 523.21 646.77 523.17 646.89 522.15 647.08 521 647.22 520.85 647.3 520.76 647.33 520.42 647.32 519.7 647.56 519.03 647.8 518.91 647.85 518.75 647.9 518.08 648.12 517.82 648.19 517.16 648.15 516.45 648.13 515.91 648.1 515.28 648.04 514.52 647.97 513.64 647.73 513.23 647.36 512.96 647.1 512.86 647.02 512 644.6 511.69 644.2 511.58 644.14 511.29 643.83 509.98 642.41 509.57 641.9 508.51 640.61 507.96 639.94 507.68 639.71 507.22 639.32 507.11 639.2 506.93 639 506.45 638.47 505.93 637.89 505.2 637.47 504.51 637.37 504.38 637.37 503.38 637.39 502.74 637.53 501.91 638.12 501.07 638.72 500.86 638.93 499.71 640.02 499.53 640.17 499.33 640.31 498.98 640.6 498.6 640.9 497.73 640.84 496.27 640.69 495.74 640.64 495.23 640 494.91 639.59 494.79 639.53 494.61 639.22 493.62 638.22 491.67 635.12 491.19 634.36 490.11 632.81 490.07 632.76 489.52 632.09 489.15 631.46 489.07 631.14 488.32 629.57 488.02 628.94 487.88 627.66 487.91 625.99 488.47 625.07 488.58 624.89 489.03 624.13 489.67 623.12 489.65 622.01 489.64 621.36 489.61 620.29 489.42 619.64 489.11 618.58 488.5 617.73 488.32 617.48 487.55 616.47 486.94 615.67 485.7 614.67 483.93 614.11 482.81 613.89 482.46 613.83 481.02 613.22 480.14 612.75 479.66 612.46 478.95 612.04 477.63 611.27 477.06 611.21 475.83 611.01 472.1 610.41 469.5 610.22 465.51 610.17 463.63 610.48 462.21 610.71 461.31 610.82 459.34 611.06 457.87 610.42 456.43 609.39 456.05 608.8 455.49 607.92 454.98 605.28 454.7 603.85 454.62 603.33 454.21 602.63 453.57 602.36 453.3 602.24 451.89 601.65 450.38 602.24 450.3 602.27 450.07 602.37 448.73 602.9 446.79 603.67 445.79 604.25 440.02 607.57 439.21 608.03 438.19 608.06 436.48 608.14 430.7 607.81 426.92 607.21 426.72 607.17 425.65 606.74 424.52 606.32 423.58 605.53 421.34 603.68 420.7 602.43 420.62 602.24 420.1 600.96 419.8 599.33 419.65 598.53 419.11 595.54 418.97 594.81 418.38 591.71 418.05 590 417.34 587.66 416.54 585.09 415.45 581.52 414.7 574.77 414.48 573.77 414.09 571.91 414 571.52 413.92 571.14 413.69 570.06 413.55 566.57 413.44 564.01 413.48 563.38 413.7 560.34 413.74 559.9 413.86 558.17 413.58 556.49 413.38 556.13 412.41 554.45 410.83 552.2 410.02 551.56 408.86 550.66 407.38 549.43 406.47 548.68 406.22 548.56 405.1 548.07 403.49 547.35 403.33 547.28 402.95 547.11 401.22 546.37 399.42 545.58 396.91 544.48 395.85 544.01 392.75 541.82 390.47 540.22 388.14 538.71 387.12 537.33 386.21 536.11 385.27 534.67 384.99 534.32 383.27 532.28 382.5 530.21 381.78 529.15 381.37 529.01 379.42 528.31 378.83 527.94 378.76 527.89 377.77 527.49 376.88 527.14 375.64 526.73 375.61 526.72 374.78 526.67 373.36 526.58 372.27 526.48 369.46 526.06 367.57 526.03 365.88 526.02 363.74 525.77 362.64 525.4 360.99 525.14 360.33 524.55 359.06 523.6 358.98 523.5 358.22 522.31 357.99 522.01 357.27 521.08 356.79 520.35 356.46 519.65 356.17 518.98 354.16 519.27 353.15 519.29 352.53 519.27 352.14 519.17 351.63 519.02 349.52 518.18 348.89 517.89 348.29 517.56 347.09 516.86 346.26 516.35 345.79 516.04 345.33 515.64 344.83 515.1 344.44 514.58 344.07 513.98 343.74 513.23 343.33 512.14 343.18 511.44 343.04 510.64 342.97 509.69 342.86 508.03 342.63 505.18 342.57 504.27 342.56 503.42 342.74 500.81 342.71 499.96 342.66 498.94 342.5 497.29 342.28 496.12 342.08 495.41 341.16 492.94 340.77 491.98 339.49 489.44 337.06 484.57 335.94 481.78 335.76 481.16 335.72 480.62 335.73 480.35 335.82 480.17 334.41 478.77 334.19 478.65 333.83 478.6 333.19 478.17 330.96 476.85 328.67 475.73 328 475.65 326.42 475.04 325.35 474.48 323.2 473.82 321.2 473.7 318.06 473.84 317.28 473.96 315.76 473.55 305.59 471.04 300.63 471.99 293.55 472.82 292.09 472.63 290.87 472.66 289.91 473.71 289.68 473.86 289.32 473.86 288.98 474.29 289.08 474.53 289.37 475.88 289.46 476.31 289.49 477.19 289.49 478.11 289.49 478.41 289.49 479.12 289.63 479.83 289.85 480.25 290.08 480.92 290.09 480.96 290.13 481.33 289.97 481.5 289.46 480.84 289.43 480.83 288.83 480.6 288.14 480.67 287.62 480.96 287.12 481.19 286.15 481.42 285.66 481.42 284.26 481.38 283.89 481.31 283.07 481.15 282.97 481.13 281.66 480.73 281.45 480.68 281.42 480.66 281.38 480.62 281.25 480.51 280.97 480.39 280.71 480.29 279.76 479.54 279.5 479.14 278.96 478.74 278.86 478.71 278.65 478.62 Z" id="North Goa"/>
<path d="M 698.53 375.88 712.02 395.94 715.28 400.8 724.19 418.21 726.47 424.84 727.35 427.41 727.88 434.19 724.32 436.06 726.69 438.38 727.55 439.22 719.02 450.52 721.13 461.38 721.42 461.79 721.86 462.43 726.08 468.41 729.82 477.48 727.52 492.98 731.89 500.24 736.39 501.89 740.19 502.06 755.43 502.74 762.37 508.16 764.09 509.51 777.13 515.87 780.73 517.63 782.87 518.68 783.16 520.82 777.19 524.99 775.92 530.72 777.57 535.62 779.96 542.76 782.97 547.38 777.54 562.1 776.82 564 782.45 583.63 797.57 603.46 799 608.11 789.92 620.23 770.89 621.37 760.48 619.79 752.19 616.9 751.41 616.63 748.65 620.92 743.23 619.96 735.47 624.81 728.84 622.44 727.98 622.14 727.67 622.48 724.76 625.61 720.32 630.38 715.65 638.41 712.6 646.65 709.84 649.71 697.22 650.63 697.57 652.15 697.82 653.27 699.03 658.58 699.32 659.83 699.99 661.48 702.35 667.37 704.48 669.57 713.26 673.64 716.65 674.2 722.82 675.21 731.62 678.12 741.74 681.48 748.18 684.62 751.23 686.1 756.73 692.03 756.76 697.09 760.84 703.8 761.57 709.18 762.72 711.47 763.66 711.94 766.15 713.19 767.51 716.09 767.66 721.07 767.75 724.39 769.2 730.69 775.21 739.12 774.93 739.76 773.23 743.66 770.62 749.64 761.85 765.65 750.42 780.28 746.08 784.58 739.74 782.93 736.06 788.41 738.09 797.73 736.26 804.24 737.86 810.37 738.35 812.27 740.36 816.28 737.38 820.29 734.51 833.6 731.45 835.82 725.82 838.1 722.51 845.24 729.14 847.52 730.26 855.44 731.17 862.03 731.23 862.46 731.64 865.41 732.64 872.51 733.3 877.2 735.46 881.41 743.01 885.2 742.7 895.31 749.59 906.57 750.23 907.61 750.54 908.75 750.94 910.22 751.6 912.67 743.59 917.95 740.44 920.04 735.53 924.4 736.18 931.81 736.44 934.64 726.84 941.92 726.29 942.51 720.25 949.06 714.72 957.66 716.01 958.9 713.74 962.1 714.02 963.38 714.42 963.38 713.93 964.83 713.68 965.58 713.5 966.11 713.27 966.81 713.04 966.92 702.46 971.78 713.67 984.21 716.68 989.48 717.25 990.47 713.66 994.91 712.67 1000.8 708.41 1000.59 705.68 1004.9 703.15 1011.2 702.93 1011.75 696.31 1010.7 689.54 1007.82 688.18 1008.45 687.39 1008.82 680.89 1011.83 678.82 1022.35 678.24 1025.1 659.27 1030.81 657.71 1031.28 651.14 1043.26 642.14 1055.26 633.36 1049.26 631.56 1048.03 632.22 1044.89 632.52 1043.46 632.74 1042.41 632.84 1035.48 624.68 1028.96 618.69 1026.89 616.03 1018.79 611.52 1016.8 604.03 1017.2 594.09 1019.66 591.36 1024.13 591.06 1030.29 586.76 1033.58 586.6 1036.81 596.17 1059.47 600.41 1065.17 599.38 1067.41 598.03 1070.32 591.3 1069.9 588.73 1068.32 583.49 1065.1 572.02 1060.28 566.34 1058.77 562.1 1060.09 554.47 1056.45 552.69 1056.88 550.59 1057.4 547.23 1061.87 545.56 1065.85 538.88 1065.17 534.31 1065.85 530.18 1068.14 529.3 1068.64 528.96 1068.82 528.84 1068.89 527.75 1069.49 522.59 1067.65 511.84 1076.57 511.58 1077.23 510.79 1079.31 506.56 1083.44 505.95 1084.04 505.27 1084.7 504.43 1085.51 504.13 1085.8 504.09 1085.75 504.01 1085.62 503.8 1085.29 503.59 1085.11 503.27 1085.07 503.06 1085.48 502.53 1085.8 502.15 1086.21 501.95 1086.35 501.57 1086.4 501.32 1086.53 500.92 1086.75 500.67 1086.94 500.44 1087 499.96 1086.86 499.65 1086.9 499.42 1086.8 499.21 1086.77 499.03 1086.82 498.67 1086.71 498.33 1086.4 498.45 1086.18 498.37 1085.98 498.22 1085.92 498.1 1085.77 497.92 1085.7 497.6 1085.69 497.04 1085.68 496.51 1085.56 496.19 1085.31 495.89 1085.07 495.77 1084.65 495.72 1084.24 495.76 1083.93 495.85 1083.66 496.17 1083.52 496.08 1083.34 495.91 1083.38 495.66 1083.24 495.43 1082.97 495.3 1082.95 495.14 1083.13 494.96 1083.23 494.7 1083.13 494.6 1082.97 494.53 1082.82 494.31 1082.77 494 1082.81 493.79 1082.76 493.65 1082.53 493.59 1082.21 493.8 1081.83 493.8 1081.61 494.15 1081.23 494.24 1080.94 494.13 1080.75 493.85 1080.86 493.61 1080.74 493.47 1080.39 493.44 1080.09 493.92 1079.43 494.15 1078.79 494.2 1078.52 494.07 1078.17 492.97 1076.39 491.61 1074.91 490.43 1073.92 489.2 1073.21 488.82 1073.39 488.52 1073.5 488.38 1073.48 488.15 1073.25 487.85 1072.97 487.47 1072.63 487 1072.54 486.48 1072.68 486.23 1072.81 485.83 1073.09 485.41 1073.27 485.1 1073.48 484.61 1073.61 483.9 1073.55 483.43 1073.56 482.9 1073.62 482.54 1073.96 482.39 1074.19 482.43 1074.44 482.32 1074.6 481.99 1074.74 481.54 1074.75 481.24 1074.89 480.92 1074.83 480.53 1074.91 480.02 1075.07 479.95 1075.31 479.82 1075.55 479.6 1075.75 479.43 1075.81 479.23 1075.83 478.96 1076.09 478.83 1076.26 478.68 1076.29 478.36 1076.25 477.98 1076.08 477.59 1075.87 477.35 1075.58 477.21 1075.18 477.41 1074.93 477.46 1074.66 477.42 1074.5 477.25 1074.46 477.07 1074.04 476.59 1073.91 476.03 1074.02 475.42 1074.1 474.76 1074.42 474.41 1074.81 474.28 1075.25 474.12 1075.54 474.07 1075.89 474.24 1076.27 474.29 1076.5 474.18 1076.66 474.17 1076.92 474.07 1076.99 473.71 1076.86 473.52 1076.68 473.5 1076.28 473.15 1075.91 473.18 1075.78 473.41 1075.5 473.34 1075.3 473.01 1075.22 472.48 1075.14 471.71 1074.63 471.21 1074.02 470.41 1073.46 469.8 1072.9 469.24 1072.49 468.92 1072.44 467.82 1072.48 467.3 1072.47 467.24 1072.6 467.09 1072.65 467.08 1073.03 466.81 1073.12 466.42 1072.92 466.26 1073.04 466.08 1072.96 465.81 1072.67 465.63 1072.56 465.57 1072.16 465.44 1071.73 465.05 1071.31 465.08 1071.15 465.24 1071.18 465.5 1071.26 465.65 1071.44 465.81 1071.38 465.94 1071.09 466.02 1070.77 465.69 1070.51 465.38 1070.37 465.08 1070.33 464.91 1070.26 464.94 1070.15 465.33 1070.05 465.26 1069.82 464.85 1069.32 464.14 1068.9 463.5 1068.71 463.02 1068.77 462.82 1068.76 462.44 1068.56 462.11 1068.18 461.82 1067.85 461.47 1067.77 461.16 1067.66 460.68 1067.6 460.16 1067.53 458.63 1067.61 457.45 1067.68 456.5 1067.74 455.86 1067.52 455.61 1067.34 454.6 1067.24 454.32 1067.12 454.16 1066.85 453.83 1066.69 453.48 1066.67 452.92 1066.44 452.21 1066.31 451.63 1066.13 451.34 1066.14 451.08 1066.37 450.97 1066.64 450.71 1066.81 450.39 1066.72 450.19 1066.4 449.97 1065.97 449.99 1065.69 449.77 1065.31 449.49 1065.2 449.09 1065 448.96 1064.72 448.63 1064.59 448.12 1064.33 447.45 1064.02 446.85 1064.13 446.5 1063.95 446.32 1063.76 446.45 1063.53 446.65 1063.24 446.61 1063.06 446.38 1063 446.01 1063.21 445.81 1063.13 445.65 1062.99 445.89 1062.63 446.07 1062.28 446.22 1062.11 446.18 1061.94 445.94 1061.89 445.69 1061.89 445.42 1061.33 444.92 1060.35 444.63 1059.74 444.36 1059.36 444.35 1058.87 444.55 1058.5 444.45 1058.04 444.47 1057.74 445.24 1057.03 445.71 1056.91 446.02 1056.63 446.03 1056.23 446.07 1055.97 446.16 1055.9 446.34 1055.94 446.45 1055.91 446.56 1055.71 446.74 1055.8 446.98 1055.99 447.12 1056.1 447.24 1056.12 447.34 1056.12 447.56 1056.1 447.74 1055.98 447.93 1055.85 448.02 1055.68 448.09 1055.57 448.33 1055.56 448.51 1055.43 448.59 1055.28 448.5 1055.04 448.37 1054.88 448.21 1054.67 448.16 1054.5 448.12 1054.25 448.12 1054.07 447.98 1053.94 447.79 1053.82 447.53 1053.54 447.36 1053.28 447.22 1052.98 447.22 1052.73 447.33 1052.55 447.44 1052.52 447.51 1052.31 447.44 1052.02 447.45 1051.73 447.67 1051.56 447.93 1051.56 448.07 1051.46 447.89 1051.32 447.59 1051.24 447.49 1051.12 447.43 1050.92 447.26 1050.68 447.03 1050.33 446.77 1050.24 446.43 1050.06 446.24 1049.89 446.1 1049.73 446.1 1049.5 446.26 1049.34 446.42 1049.37 446.53 1049.26 446.53 1049.06 446.62 1048.75 446.89 1048.73 447.4 1048.91 447.84 1048.94 448.2 1048.92 448.57 1048.83 448.92 1048.73 449.2 1048.49 449.38 1048.27 449.43 1048 449.38 1047.79 449.22 1047.51 448.95 1047.13 448.83 1046.9 448.89 1046.7 449.08 1046.55 449.31 1046.42 449.44 1046.29 449.44 1046.09 449.27 1045.9 449.26 1045.71 449.27 1045.49 449.27 1045.26 449.37 1045.01 449.56 1044.78 449.75 1044.64 449.96 1044.46 450.12 1044.29 450.28 1044.06 450.42 1043.82 450.51 1043.7 450.51 1043.56 450.42 1043.49 450.3 1043.4 450.1 1043.37 449.93 1043.34 449.74 1043.19 449.73 1042.95 449.87 1042.72 449.91 1042.61 449.73 1042.54 449.57 1042.46 449.51 1042.31 449.55 1042.1 449.56 1041.75 449.37 1041.31 449.27 1041 449.2 1040.4 449.09 1039.78 448.97 1039.22 448.85 1038.77 448.71 1038.39 448.6 1038.05 448.46 1037.86 448.2 1037.8 448.03 1037.66 447.74 1037.24 447.75 1036.97 447.86 1036.78 447.86 1036.52 447.66 1036.56 447.37 1036.65 447.14 1036.7 446.9 1036.76 446.69 1036.76 446.66 1036.59 446.81 1036.4 447.12 1036.36 447.44 1036.33 447.54 1036.18 447.45 1036 447.31 1035.83 447.1 1035.73 446.9 1035.65 446.78 1035.53 446.78 1035.23 446.9 1035.06 446.95 1034.91 446.97 1034.74 446.81 1034.51 446.8 1034.27 446.81 1034.09 446.81 1033.98 446.71 1033.87 446.62 1033.71 446.53 1033.59 446.43 1033.55 446.18 1033.37 446.19 1033.23 446.3 1033.11 446.44 1033.1 446.5 1033.05 446.36 1032.93 446.32 1032.75 446.39 1032.46 446.54 1032.34 446.69 1032.31 446.85 1032.31 447.1 1032.1 447.2 1031.94 447.28 1031.76 447.4 1031.73 447.62 1031.55 447.77 1031.4 447.84 1031.22 447.86 1031.02 447.84 1030.82 447.89 1030.68 447.84 1030.5 447.78 1030.29 447.77 1030.07 447.72 1029.96 447.59 1029.84 447.44 1029.72 447.42 1029.61 447.43 1029.48 447.44 1029.32 447.32 1029.21 447.26 1029.15 447.12 1029.07 447.03 1029.04 446.77 1029.04 446.62 1028.99 446.49 1028.87 446.45 1028.8 446.36 1028.64 446.26 1028.49 446.19 1028.31 446.12 1028.13 446.1 1027.99 446.13 1027.84 446.24 1027.71 446.45 1027.63 446.51 1027.48 446.62 1027.37 446.74 1027.27 446.83 1027.18 446.85 1026.99 446.79 1026.87 446.75 1026.68 446.69 1026.57 446.55 1026.44 446.39 1026.34 446.28 1026.27 446.14 1026.27 446 1026.27 445.85 1026.25 445.88 1026.13 446 1026.07 446.18 1026.06 446.31 1026.03 446.43 1025.91 446.55 1025.79 446.74 1025.71 447 1025.69 447.27 1025.63 447.42 1025.57 447.69 1025.53 447.95 1025.49 448.1 1025.43 448.36 1025.41 448.53 1025.42 448.75 1025.44 449.04 1025.48 449.24 1025.44 449.49 1025.41 449.77 1025.41 449.97 1025.3 450.16 1025.16 450.32 1025.04 450.54 1025.02 450.69 1025 450.91 1024.92 451.03 1024.84 451.18 1024.67 451.22 1024.55 451.22 1024.42 451.14 1024.32 450.91 1024.18 450.77 1024.02 450.55 1023.88 450.4 1023.73 450.33 1023.6 450.28 1023.5 450.15 1023.33 450.07 1023.21 450.1 1023.04 450.27 1022.82 450.3 1022.71 450.3 1022.56 450.21 1022.43 450.07 1022.43 449.97 1022.43 449.79 1022.43 449.73 1022.35 449.71 1022.26 449.83 1022.21 449.97 1022.2 450.12 1022.19 450.3 1022.13 450.46 1022.02 450.57 1021.8 450.69 1021.68 450.75 1021.47 450.75 1021.34 450.69 1021.17 450.68 1021.05 450.68 1020.88 450.75 1020.72 450.86 1020.58 450.91 1020.38 450.91 1020.2 450.89 1019.9 450.99 1019.67 450.95 1019.46 450.93 1019.19 451.02 1019 451.28 1018.76 451.42 1018.54 451.69 1018.26 451.85 1018.05 452.04 1017.83 452.22 1017.61 452.4 1017.35 452.42 1017.19 452.52 1016.96 452.79 1016.65 452.89 1016.57 452.97 1016.48 453.26 1016.42 453.36 1016.04 453.36 1015.82 453.3 1015.74 453.23 1015.64 453.1 1015.52 452.91 1015.34 452.73 1015.19 452.66 1015.12 452.55 1015.02 452.45 1014.83 452.39 1013.8 452.27 1012.85 451.78 1011.32 450.83 1009.06 449.84 1006.73 448.89 1004.48 448.22 1003.2 447.5 1001.22 446.77 999.19 446.32 998.2 445.94 997.74 445.71 997.56 445.47 997.5 445.13 997.48 444.91 997.46 444.79 997.38 444.9 997.23 445.13 997.07 445.38 996.9 445.67 996.6 445.85 996.35 445.85 995.93 445.47 994.89 444.62 992.59 443.1 989.63 441.71 987.39 440.64 986.12 440.2 986.02 440.02 985.93 439.86 985.91 439.6 985.91 439.36 985.9 439.09 985.88 438.8 985.88 438.6 985.82 438.32 985.82 438.07 985.79 437.91 985.67 437.68 985.53 437.37 985.45 437.11 985.43 436.7 985.43 436.46 985.49 436.05 985.49 435.59 985.5 435.37 985.43 435.28 985.28 435.3 985.09 435.58 984.78 435.82 984.64 436.15 984.62 436.58 984.56 436.96 984.43 437.37 984.28 437.79 984.05 438.03 983.92 438.33 983.8 438.65 983.73 438.85 983.64 439.03 983.57 439.36 983.37 439.61 983.21 439.84 982.92 439.96 982.6 439.78 982.33 439.66 982.19 439.54 981.99 439.49 981.67 439.44 981.37 439.36 981.16 439.26 980.99 439.24 980.67 439.25 980.38 439.18 980.14 439.07 979.87 438.85 979.39 438.76 978.83 438.43 977.96 438.27 977.61 437.91 976.7 437.23 975.41 436.36 973.97 436.12 973.36 435.96 972.96 435.79 972.58 435.6 972.42 435.46 972.17 435.38 971.95 435.48 971.64 435.32 971.12 434.99 970.41 434.24 969.12 433.46 967.9 432.75 966.98 431.93 966.25 431.19 965.77 430.59 965.45 430.31 965.29 430.12 965.27 429.88 965.27 429.66 965.27 429.35 965.26 429.13 965.28 428.92 965.3 428.73 965.56 428.3 965.87 427.95 966.05 427.65 966.31 427.52 966.5 427.36 966.7 427.22 966.94 427.18 967.1 427.19 967.27 427.16 967.37 427.01 967.52 426.94 967.63 426.83 967.71 426.72 967.58 426.76 967.39 426.77 967.3 426.67 967.27 426.57 967.27 426.49 967.25 426.35 967.07 426.35 967 426.23 966.95 426.07 966.95 425.94 967.04 425.69 967.07 425.53 967.16 425.45 967.06 425.6 966.86 425.84 966.69 426.02 966.51 426.22 966.31 426.37 966.19 426.54 966.01 426.83 965.75 427.05 965.57 427.28 965.36 427.52 965.21 427.7 965.11 428.07 964.99 428.37 964.77 428.66 964.58 428.89 964.46 429.01 964.28 429.12 963.97 429.02 963.75 428.82 963.65 428.72 963.47 428.73 963.33 428.94 963.08 429.04 962.87 429.04 962.71 428.9 962.53 428.72 962.41 428.47 962.24 428.26 962.24 427.98 962.26 427.76 962.27 427.58 962.38 427.48 962.45 427.31 962.46 427.18 962.38 427.12 962.23 427.13 962.06 427.13 961.98 427.04 961.85 426.83 961.75 426.35 961.74 426.18 961.79 425.81 961.87 425.48 962.02 425.28 962.27 425.17 962.39 425 962.44 424.58 962.74 424.46 962.92 424.34 963.02 424.22 963.05 424.08 962.98 424.1 962.77 424.25 962.55 424.33 962.41 424.33 962.24 424.24 962.09 424.12 961.92 424 961.85 423.82 961.8 423.63 961.7 423.51 961.73 423.45 961.81 423.35 961.96 423.24 961.94 423.22 961.81 423.21 961.69 423.07 961.59 422.94 961.49 422.86 961.38 422.86 961.25 422.93 961.1 423.02 961.03 423.17 960.97 423.37 960.87 423.53 960.79 423.75 960.69 424.06 960.64 424.28 960.63 424.46 960.61 424.58 960.7 424.65 960.82 424.82 960.85 425.07 960.85 425.24 960.73 425.37 960.58 425.39 960.46 425.48 960.32 425.59 960.27 425.74 960.23 425.87 960.13 425.9 960.04 425.75 959.86 425.58 959.8 425.43 959.72 425.28 959.54 425.39 959.35 425.54 959.28 425.54 959.14 425.47 958.98 425.46 958.79 425.64 958.66 425.8 958.66 425.9 958.42 425.9 958.19 425.83 957.75 425.66 957.31 425 956.22 424.24 955.4 423.06 954.19 421.6 952.98 419.87 951.84 418.6 951.19 417.54 950.82 416.23 950.47 414.87 950.36 413.89 950.44 412.87 950.61 411.61 951.07 410.96 951.44 410.57 951.7 410.16 952.06 410.06 952.35 410.02 952.65 409.86 952.71 409.7 952.8 409.53 952.97 409.5 953.09 409.5 953.26 409.69 953.37 409.84 953.48 410.06 953.67 410.17 953.83 410.32 953.9 410.53 954.03 410.73 954.08 410.92 954.21 410.93 954.37 410.93 954.57 410.93 954.8 410.91 955.22 410.92 955.42 410.98 955.66 410.98 955.9 410.91 956.08 410.92 956.2 410.97 956.31 410.88 956.52 410.7 956.67 410.49 956.8 410.34 956.91 410.12 956.97 409.91 956.92 409.76 956.81 409.64 956.67 409.47 956.46 409.34 956.46 409.18 956.46 408.92 956.56 408.74 956.79 408.62 956.74 408.53 956.68 408.53 956.4 408.62 956.26 408.65 956.14 408.65 956.02 408.56 955.9 408.44 955.9 408.32 955.86 408.2 955.78 408.08 955.79 408.02 955.74 407.96 955.54 407.93 955.32 407.88 955.22 407.74 955.22 407.65 955.22 407.47 955.22 407.41 955.1 407.35 954.98 407.35 954.67 407.31 954.33 407.35 954.18 407.47 954 407.65 953.82 407.84 953.63 408.02 953.51 408.35 953.33 408.65 953.16 408.79 952.98 408.84 952.8 408.84 952.59 408.81 952.23 408.74 951.96 408.64 951.8 408.51 951.49 408.52 951.21 408.52 951.06 408.38 950.85 408.31 950.67 408.31 950.49 408.4 950.32 408.41 950.18 408.35 950.03 408.21 949.97 408.12 950.01 407.96 949.95 407.93 949.77 407.88 949.62 407.79 949.59 407.63 949.53 407.45 949.43 407.29 949.42 407.15 949.37 406.92 949.3 406.78 949.25 406.73 949.11 406.72 948.99 406.63 948.84 406.47 948.77 406.19 948.75 406.11 948.65 406 948.52 405.85 948.41 405.75 948.26 405.66 948.16 405.45 948.02 405.14 947.95 404.93 947.88 404.74 947.7 404.52 947.55 404.37 947.42 404.19 947.38 403.99 947.36 403.73 947.18 403.64 947 403.64 946.87 403.57 946.64 403.38 946.46 403.26 946.23 403.19 945.96 403.19 945.7 403.16 945.55 402.97 945.31 402.85 945.11 402.85 944.96 402.84 944.77 402.68 944.52 402.58 944.35 402.46 944.15 402.31 943.78 402.28 943.6 402.14 943.4 402.05 943.22 401.91 943.09 401.72 943.07 401.7 943.15 401.7 943.28 401.7 943.35 401.64 943.36 401.5 943.29 401.48 943.19 401.42 943.11 401.28 943.19 401.29 943.3 401.31 943.42 401.29 943.51 401.22 943.66 401.11 943.72 400.97 943.77 400.78 943.78 400.66 943.86 400.46 944.03 400.39 944.18 400.3 944.3 400.16 944.37 399.99 944.37 399.93 944.42 399.97 944.53 399.98 944.75 399.84 945.02 399.66 945.18 399.55 945.3 399.42 945.33 399.28 945.31 399.15 945.3 399.03 945.3 398.83 945.31 398.64 945.28 398.5 945.21 398.22 945.23 398.02 945.29 397.78 945.33 397.56 945.24 397.43 945.16 397.18 945.02 396.92 944.9 396.62 944.66 396.55 944.51 396.54 944.29 396.51 944.04 396.36 943.87 396.24 943.68 396.15 943.58 396.21 943.4 396.31 943.25 396.49 943.12 396.51 942.99 396.24 942.86 396.07 942.75 395.89 942.64 395.81 942.44 395.83 942.18 395.83 942.01 395.95 941.85 395.97 941.71 395.97 941.53 395.96 941.39 395.84 941.21 395.71 941.2 395.56 941.22 395.39 941.21 395.25 941.29 395.07 941.41 395.01 941.58 394.97 941.77 394.86 941.98 394.68 942.11 394.56 942.23 394.38 942.42 394.21 942.59 393.98 942.72 393.85 942.74 393.66 942.71 393.49 942.65 393.3 942.63 393.1 942.59 392.9 942.46 392.85 942.32 392.84 942.12 392.83 941.95 392.78 941.77 392.73 941.69 392.69 941.69 392.59 941.71 392.51 941.71 392.43 941.71 392.36 941.68 392.25 941.62 392.19 941.54 392.13 941.47 392.07 941.4 392.03 941.33 391.91 941.22 391.9 941.11 391.92 941.04 392.03 940.98 392.19 940.87 392.32 940.76 392.42 940.67 392.41 940.61 392.33 940.48 392.27 940.39 392.21 940.32 392.1 940.27 391.97 940.28 391.84 940.34 391.78 940.34 391.69 940.34 391.57 940.34 391.53 940.27 391.49 940.2 391.42 940.12 391.33 940.1 391.21 940.1 391.12 940.04 391.06 939.92 391.02 939.77 391.03 939.65 391.06 939.51 391.07 939.41 391.03 939.29 390.98 939.16 390.83 938.96 390.67 938.85 390.49 938.77 390 938.76 389.59 938.85 389.21 939.04 388.92 939.35 388.77 939.58 388.76 939.71 388.84 939.87 388.94 939.99 388.95 940.09 388.94 940.26 388.89 940.4 388.89 940.48 388.88 940.58 388.79 940.64 388.68 940.71 388.56 940.75 388.43 940.8 388.18 940.82 388.09 940.8 387.97 940.8 387.9 940.81 387.82 940.83 387.74 940.89 387.67 940.98 387.62 941.05 387.53 941.15 387.44 941.27 387.44 941.38 387.45 941.47 387.48 941.57 387.55 941.65 387.55 941.7 387.42 941.76 387.37 941.8 387.33 941.86 387.3 941.91 387.24 941.92 387.15 941.95 387.11 942.06 387 942.1 386.85 942.04 386.84 941.89 386.88 941.79 386.91 941.68 386.88 941.5 386.74 941.47 386.59 941.5 386.48 941.59 386.42 941.71 386.33 941.83 386.18 941.89 386.05 941.88 385.88 941.88 385.79 941.93 385.66 941.99 385.44 942 385.39 942.03 385.36 942.15 385.3 942.33 385.27 942.5 385.23 942.7 385.09 942.75 384.95 942.76 384.8 942.8 384.65 942.92 384.53 943.11 384.36 943.24 384.14 943.18 383.96 943.07 383.79 942.98 383.74 942.86 383.74 942.7 383.74 942.59 383.68 942.51 383.56 942.47 383.44 942.27 383.4 942.07 383.31 941.8 383.05 941.5 382.95 941.42 382.66 941.39 382.42 941.35 382.18 941.27 382.06 941.12 381.87 941.05 381.7 940.93 381.58 940.77 381.34 940.52 381.11 940.22 380.89 940.06 380.71 939.98 380.34 939.94 380.23 939.83 380.2 939.69 380.23 939.39 380.34 938.85 380.29 938.21 380.29 937.85 380.2 937.62 380.17 937.22 380.03 936.99 379.84 936.72 379.77 936.51 379.77 936.27 379.81 936.13 379.9 935.94 379.94 935.8 379.95 935.51 379.91 935.31 379.79 935.1 379.67 934.97 379.5 934.9 379.29 934.74 379 934.38 378.88 934.17 378.82 933.89 378.65 933.78 378.5 933.89 378.4 934.1 378.3 934.26 378.18 934.32 377.94 934.34 377.71 934.36 377.52 934.43 377.4 934.5 377.25 934.54 377.01 934.61 376.77 934.51 376.64 934.44 376.52 934.26 376.45 934.19 376.32 934.03 376.23 933.93 376.22 933.79 376.26 933.67 376.38 933.52 376.46 933.27 376.66 933.11 376.79 933.04 377.04 932.99 377.32 932.99 377.64 932.99 377.87 932.99 378.01 932.91 378.16 932.91 378.34 932.86 378.48 932.81 378.61 932.81 378.73 932.73 378.78 932.62 378.66 932.44 378.44 932.27 378.28 932.15 378 931.92 377.88 931.8 377.7 931.62 377.53 931.53 377.4 931.4 377.26 931.21 377.11 930.96 376.96 930.78 376.85 930.62 376.89 930.53 376.79 930.37 376.69 930.24 376.61 930.08 376.61 929.94 376.66 929.84 376.77 929.88 376.89 929.83 377.04 929.78 377.31 929.82 377.49 929.85 377.58 929.85 377.75 929.8 377.85 929.68 378.04 929.6 378.22 929.6 378.38 929.69 378.57 929.84 378.78 929.88 379.12 929.86 379.46 929.61 379.93 929.31 380.71 928.72 381.34 928.25 381.54 928 381.76 927.29 381.94 926.3 381.9 925.17 381.79 924.32 381.42 923.25 379.14 918.06 377.64 914.73 375.72 910.68 373.83 906.41 373.1 904.98 371.6 902.74 370.52 901.73 370.31 901.64 370.09 901.54 369.82 901.54 369.57 901.52 369.37 901.42 369.17 901.31 368.95 901.24 368.71 901.22 368.48 901.22 368.23 901.28 367.83 901.36 367.46 901.46 366.71 902 366.13 902.44 365.95 902.62 365.77 902.88 365.52 902.89 365.29 902.89 365.09 902.93 364.91 903.02 364.75 903.24 364.54 903.44 364.48 903.59 364.29 903.74 363.97 903.94 363.65 904.01 363.4 904.06 363.21 903.96 363.12 903.8 363.07 903.68 362.91 903.5 362.77 903.43 362.73 903.31 362.82 903.14 362.85 903.01 362.82 902.9 362.71 902.72 362.6 902.54 362.47 902.47 362.29 902.52 362.15 902.65 361.93 902.66 361.77 902.53 361.63 902.53 361.38 902.53 361.23 902.49 361.17 902.41 361.15 902.29 361.1 902.17 360.88 902.15 360.61 902.14 360.39 902.01 360.12 901.9 359.82 901.7 359.49 901.61 359.29 901.48 359.16 901.28 359.09 901 359.06 900.72 359.08 900.47 359.08 900.23 359.18 899.93 359.53 899.59 359.65 899.39 359.69 899.23 359.75 898.94 359.71 898.75 359.64 898.29 359.46 898.11 359.38 897.94 359.32 897.68 359.22 897.45 359.22 897.28 359.12 896.96 358.91 896.71 358.73 896.31 358.47 895.83 358.12 895.28 357.69 894.76 357.71 894.56 357.7 894.38 357.69 894.11 357.65 893.82 357.44 893.5 357.3 893.08 357.12 892.59 356.93 892.23 356.7 891.98 356.32 891.38 356.14 890.96 355.7 890.37 355.38 890 355.14 889.86 354.92 889.78 354.78 889.79 354.39 889.68 354.23 889.68 354.11 889.68 353.91 889.53 353.63 889.23 353.52 889.05 353.57 888.86 353.7 888.78 353.86 888.6 354.29 888.23 354.56 887.98 354.68 887.73 354.69 887.19 354.63 886.83 354.38 886.25 353.85 885.66 352.99 885.07 352.73 885.06 352.49 885.03 352.39 885.02 352.05 884.86 351.78 884.73 351.63 884.74 351.46 884.79 351.21 884.92 351.07 884.97 350.87 884.99 350.57 884.99 350.23 884.97 350.03 884.93 349.81 884.85 349.55 884.79 349.37 884.67 349.33 884.53 349.37 884.36 349.44 884.21 349.44 884.02 349.31 883.79 349.07 883.54 348.82 883.36 348.58 883.32 348.16 883.35 347.89 883.37 347.54 883.35 347.42 883.25 347.55 883.15 347.74 883.15 347.9 883.04 347.97 882.88 347.9 882.71 347.72 882.54 347.44 882.41 347.17 882.32 346.95 882.24 346.51 882.23 346.27 882.17 346.03 882.17 345.77 882.12 345.44 882.01 345.27 881.94 345.11 881.85 344.99 881.78 344.95 881.66 344.95 881.36 344.95 881.15 344.86 880.95 344.67 880.73 344.4 880.6 343.78 880.5 343.38 880.39 342.96 880.39 342.27 880.36 341.9 880.3 341.27 880.26 340.94 880.24 340.62 880.27 340.34 880.25 340.12 880.11 339.96 880.03 339.77 879.91 339.39 879.74 339.22 879.53 339.09 879.36 338.88 879.35 338.68 879.47 338.45 879.65 338.24 879.68 338.09 879.72 337.92 879.8 337.72 879.91 337.6 879.8 337.54 879.66 337.65 879.5 337.8 879.31 338 879.09 338.19 878.89 338.43 878.65 338.71 878.41 338.84 878.3 339.03 878.14 339.13 877.82 339.12 877.42 339.06 876.95 338.96 876.67 338.83 876.45 338.51 876.2 338.1 876.08 337.9 876.07 337.77 876.12 337.56 876.17 337.29 876.17 337.02 876.13 336.89 876.14 336.67 876.07 336.5 876.07 336.27 875.94 336.12 875.87 335.98 875.89 335.68 875.94 335.44 875.89 335.36 875.87 335.32 875.76 335.21 875.71 335.07 875.73 334.95 875.77 334.82 875.81 334.55 875.81 334.37 875.76 334.29 875.65 334.3 875.53 334.32 875.41 334.23 875.35 334.13 875.29 334.09 875.11 334.13 875.01 334.08 874.88 333.92 874.82 333.8 874.76 333.58 874.75 333.32 874.77 333.07 874.69 332.83 874.58 332.72 874.42 332.71 874.28 332.61 874.13 332.41 874.01 332.25 873.99 332.09 873.99 331.97 873.89 331.74 873.88 331.56 873.89 331.41 874.06 331.23 874.14 330.89 874.22 330.72 874.29 330.48 874.31 330.34 874.31 330.29 874.19 330.42 874.06 330.53 873.99 330.53 873.9 330.29 873.82 330.08 873.8 329.9 873.8 329.68 873.88 329.42 873.95 329.13 873.98 328.78 874 328.64 874.06 328.18 874.18 327.89 874.36 327.69 874.49 327.4 874.66 327.2 874.64 327.01 874.49 326.84 874.57 326.73 874.63 326.5 874.63 326.14 874.51 325.9 874.37 325.54 874.36 325.37 874.36 325.18 874.42 325.01 874.51 324.72 874.51 324.49 874.54 324.32 874.66 324.06 874.65 323.78 874.65 323.47 874.64 323.18 874.58 322.9 874.48 322.82 874.36 322.77 874.13 322.93 873.96 323.01 873.82 322.99 873.68 322.77 873.64 322.48 873.8 322.29 873.8 322.01 873.9 321.76 873.94 321.3 874 321.06 873.99 320.75 873.86 320.48 873.74 320.18 873.52 319.8 873.22 319.31 872.83 318.9 872.33 318.42 871.92 318.24 871.81 318.01 871.8 317.83 871.8 317.72 871.87 317.58 871.94 317.42 871.95 317.22 871.84 317.12 871.92 316.99 872.01 316.82 872.05 316.59 872.01 316.58 871.91 316.76 871.7 316.87 871.58 316.75 871.46 316.7 871.38 316.62 871.21 316.49 871.07 316.33 871.09 316.13 871.18 316.01 871.28 315.83 871.27 315.75 871.12 315.77 870.97 315.75 870.82 315.58 870.66 315.29 870.58 315.05 870.54 314.82 870.52 314.54 870.52 314.34 870.6 314.12 870.58 313.94 870.53 313.76 870.52 313.56 870.68 313.41 870.73 313.19 870.71 312.88 870.62 312.69 870.53 312.47 870.42 312.34 870.28 312.16 870.28 312 870.34 311.69 870.26 311.57 870.1 311.48 869.94 311.29 869.86 311.04 869.74 310.88 869.62 310.81 869.46 310.81 869.28 310.93 869.2 311.21 869.2 311.35 869.12 311.38 868.99 311.18 868.89 310.91 868.88 310.74 868.89 310.38 868.83 310.27 868.65 310.18 868.45 310.16 868.27 309.98 868.21 309.77 868.3 309.5 868.2 309.23 868.08 309.09 867.96 309.21 867.82 309.42 867.79 309.64 867.69 309.8 867.59 309.81 867.45 309.91 867.24 310.04 867.1 309.98 867 309.62 866.96 309.39 866.93 309.15 866.92 308.98 866.76 308.91 866.59 308.94 866.38 309.15 866.26 309.38 866.11 309.65 865.91 309.73 865.8 309.68 865.69 309.48 865.76 309.34 865.78 309.29 865.63 309.4 865.43 309.44 865.32 309.46 865.19 309.44 865.05 309.4 864.97 309.3 864.96 309.15 864.92 309.15 864.79 309.3 864.75 309.36 864.66 309.35 864.51 309.32 864.42 309.27 864.26 309.16 864.1 308.93 864.05 308.77 864.15 308.65 864.21 308.52 864.27 308.36 864.23 308.32 864.1 308.26 863.98 308.22 863.87 308.24 863.75 308.21 863.62 308.14 863.42 308 863.32 307.87 863.3 307.57 863.3 307.42 863.34 307.12 863.37 306.95 863.36 306.64 863.28 306.42 863.22 306.15 863.03 305.98 862.9 305.68 862.73 305.51 862.62 305.23 862.48 305.11 862.28 305.04 862.15 304.93 861.98 304.86 861.81 304.71 861.62 304.57 861.45 304.35 861.42 304.09 861.39 303.91 861.42 303.65 861.42 303.46 861.32 303.27 861.33 303.03 861.44 302.93 861.45 302.7 861.45 302.35 861.19 302.22 861.12 301.98 861.06 301.74 861 301.62 860.9 301.49 860.78 301.41 860.67 301.32 860.57 301.14 860.65 300.99 860.71 300.82 860.71 300.63 860.72 300.46 860.74 300.28 860.75 300 860.77 299.79 860.74 299.56 860.73 299.37 860.75 299.23 860.86 299.14 861.02 298.99 861.18 298.9 861.2 298.63 861.25 298.46 861.36 298.33 861.5 298.25 861.66 298.09 861.83 297.66 862.2 297.32 862.48 297.08 862.62 296.84 862.67 296.07 863.08 295.49 863.34 295.04 863.62 294.9 863.81 294.8 863.96 294.75 864.11 294.63 864.23 294.48 864.23 294.31 864.05 294.14 864.07 294.04 864.05 294.08 863.84 294.26 863.74 294.37 863.68 294.43 863.52 294.39 863.34 294.36 863.21 294.25 863.08 294.08 863.04 293.9 863.07 293.79 863.09 293.63 863.05 293.39 862.95 293.3 862.81 293.34 862.69 293.4 862.61 293.37 862.5 293.24 862.42 293.15 862.32 293.04 862.16 292.97 862.04 292.75 861.96 292.57 861.95 292.46 861.96 292.36 861.92 292.27 861.98 292.26 862.07 292.31 862.26 292.31 862.34 292.08 862.4 291.97 862.38 291.85 862.24 291.65 862.25 291.51 862.4 291.6 862.5 291.74 862.58 291.77 862.68 291.67 862.77 291.52 862.84 291.33 862.93 291.22 862.96 290.99 862.95 290.81 862.93 290.68 862.86 290.55 862.74 290.48 862.62 290.36 862.51 290.14 862.5 290.1 862.58 290.21 862.74 290.25 862.84 290.24 862.93 290.12 862.96 289.99 862.95 289.89 862.81 289.81 862.64 289.75 862.58 289.63 862.61 289.54 862.73 289.54 862.86 289.46 863.04 289.4 863.11 289.31 863.1 289.12 863.08 288.79 863.09 288.59 863.16 288.42 863.2 288.16 863.21 287.94 863.2 287.68 863.19 287.61 863.04 287.6 862.91 287.6 862.72 287.72 862.56 287.8 862.39 287.8 862.21 287.81 861.99 287.74 861.89 287.61 861.75 287.61 861.6 287.83 861.49 288.04 861.48 288.37 861.48 288.65 861.44 288.91 861.44 289.19 861.37 289.42 861.24 289.83 861.15 289.96 861.19 290.14 861.18 290.24 861.09 290.33 860.9 290.5 860.81 290.65 860.79 290.86 860.74 291.07 860.63 291.25 860.63 291.36 860.77 291.51 860.85 291.83 860.86 292.03 860.83 292.09 860.74 292.07 860.63 291.9 860.56 291.77 860.45 291.77 860.34 291.93 860.21 292.13 860.13 292.43 859.91 292.52 859.8 292.64 859.61 292.73 859.55 292.83 859.55 292.99 859.6 293.07 859.54 293.11 859.41 293.03 859.33 292.86 859.22 292.64 858.95 292.57 858.82 292.64 858.62 292.84 858.44 292.98 858.35 293.08 858.33 293.34 858.33 293.55 858.31 293.78 858.31 293.93 858.29 294.1 858.17 294.31 858 294.48 857.76 294.6 857.64 294.74 857.55 294.9 857.53 295.13 857.44 295.28 857.33 295.54 857.15 295.73 857 295.89 856.83 296.09 856.64 296.28 856.61 296.51 856.54 296.74 856.33 296.88 856.2 297.05 856.01 297.2 855.91 297.35 855.85 297.49 855.85 297.67 855.89 297.8 856.01 297.93 856.15 298.03 856.26 298.16 856.18 298.26 856.08 298.4 856.15 298.43 856.3 298.49 856.46 298.74 856.5 298.9 856.43 299.02 856.27 299.1 856.01 299.09 855.71 299.16 855.55 299.28 855.32 299.43 855.2 299.57 855.14 299.79 855.08 299.96 855.02 300.09 854.84 300.23 854.72 300.29 854.56 300.43 854.48 300.57 854.38 300.72 854.36 300.81 854.42 300.99 854.43 301.23 854.42 301.39 854.3 301.62 854.24 301.68 854.12 301.62 853.95 301.69 853.87 301.88 853.84 301.96 853.82 301.92 853.7 301.8 853.7 301.65 853.66 301.55 853.54 301.5 853.41 301.62 853.36 301.7 853.41 301.87 853.41 301.99 853.31 302.16 853.07 302.32 852.81 302.52 852.46 302.52 852.23 302.53 852.04 302.63 851.88 302.62 851.71 302.51 851.55 302.32 851.41 302.31 851.23 302.34 851.05 302.43 850.89 302.64 850.69 303.17 850.42 303.69 850.12 304.16 849.74 304.57 849.34 304.96 848.87 305.14 848.44 305.11 848.07 304.97 847.74 304.79 847.47 304.87 847.21 304.99 846.73 305.05 846.46 305.11 846.27 305.12 846.06 305.02 846.05 304.87 845.88 304.97 845.74 304.93 845.53 304.75 845.51 304.59 845.4 304.57 845.18 304.62 844.98 304.7 844.83 304.75 844.68 304.75 844.55 304.75 844.39 304.74 844.16 304.7 843.92 304.59 843.7 304.35 843.27 304.26 843.03 304.2 842.79 304.18 842.55 304.12 842.32 304.02 842.13 303.87 841.82 303.81 841.26 303.63 840.43 303.06 839.19 302.8 838.52 302.55 838.28 302.27 838.19 302.04 838.25 301.86 838.15 301.63 838.08 301.37 838.05 301.17 838.04 300.93 837.92 300.78 837.79 300.53 837.57 300.29 837.5 299.88 837.48 299.52 837.48 299.39 837.44 299.31 837.3 299.25 837.18 299.31 837.02 299.45 836.89 299.67 836.85 299.87 836.8 299.85 836.45 299.79 836.32 299.79 836.15 299.79 835.98 299.79 835.79 299.82 835.54 299.85 835.35 299.91 835.19 299.81 835.07 299.55 835.01 299.19 834.98 298.86 835.1 298.63 835.13 298.33 835.31 297.86 835.31 297.56 835.32 297.17 835.36 296.9 835.41 296.66 835.57 296.33 835.6 296.01 835.6 295.7 835.61 295.46 835.59 295.26 835.44 294.96 835.42 294.83 835.29 294.86 835.04 295.01 834.97 295.4 835.08 295.73 835.01 295.98 834.77 296.29 834.65 296.58 834.66 296.8 834.67 297.17 834.6 297.57 834.41 298.02 834.31 298.29 834.32 298.68 834.35 298.98 834.25 299.51 834 299.85 833.92 300.23 833.8 300.57 833.65 300.9 833.36 300.91 833.25 300.96 833.15 301.17 833.15 301.46 833.21 301.76 833.2 302.1 833.09 302.5 832.93 302.88 832.8 303.27 832.58 303.75 832.55 304.26 832.52 304.63 832.38 305.08 832.19 305.45 832.12 305.91 832.03 306.21 831.85 306.55 831.54 306.97 831.26 307.2 831.17 307.61 831.07 308.14 830.83 308.65 830.58 308.97 830.56 309.42 830.5 309.93 830.3 310.38 829.99 310.89 829.76 311.33 829.67 311.63 829.6 311.77 829.46 311.85 829.23 311.88 829.04 312.07 828.79 312.22 828.76 312.35 828.77 312.46 828.7 312.57 828.58 312.64 828.51 312.77 828.4 312.83 828.46 312.92 828.58 312.98 828.7 313.12 828.79 313.27 828.83 313.34 828.94 313.4 829.12 313.47 829.19 313.62 829.19 313.71 829.06 313.82 829 313.92 829.08 313.92 829.23 313.94 829.43 314.03 829.66 314.29 829.91 314.6 830.18 315.03 830.18 315.24 830.06 315.53 829.91 315.71 829.77 315.83 829.69 316.02 829.64 316.25 829.59 316.52 829.55 316.7 829.47 316.72 829.36 316.63 829.24 316.47 829.1 316.4 828.95 316.39 828.76 316.36 828.51 316.36 828.29 316.59 828.13 316.94 827.84 317.04 827.59 317.01 827.23 317.02 826.99 317.02 826.51 317.02 826.17 317.11 825.75 317.22 825.4 317.43 824.88 317.75 824.38 318.12 823.99 318.28 823.88 318.42 823.7 318.53 823.34 318.53 823.01 318.7 822.73 318.99 822.5 319.4 822.27 319.8 822.18 320.22 822.18 320.61 822.18 320.94 822.15 321.31 822.01 321.58 821.86 321.93 821.45 322.2 820.82 322.35 820.4 322.47 820.04 322.49 819.68 322.37 819.29 322.35 819.12 322.23 818.98 322.19 818.79 322.08 818.5 322.13 818.31 322.12 818.13 322.07 817.9 322.01 817.72 321.84 817.6 321.79 817.44 321.77 817.22 321.64 817.04 321.52 816.78 321.45 816.66 321.45 816.51 321.49 816.34 321.64 816.21 321.73 816.08 321.81 815.81 321.77 815.61 321.71 815.42 321.7 815.21 321.66 815.08 321.57 814.87 321.48 814.71 321.37 814.51 321.3 814.34 321.29 814.15 321.31 813.96 321.34 813.84 321.45 813.36 321.51 812.57 321.49 811.8 321.46 811.08 321.31 810.47 321.16 810.08 320.93 809.65 320.7 809.29 320.61 809.21 320.49 809 320.41 808.87 320.12 808.52 319.77 808.23 319.46 808.23 319.23 808.26 319.02 808.29 318.86 808.29 318.71 808.3 318.52 808.23 318.48 808.13 318.48 808 318.42 807.93 318.29 807.78 318.18 807.65 318.01 807.65 317.93 807.55 318.02 807.41 318.19 807.25 318.33 807.06 318.4 806.88 318.4 806.66 318.34 806.43 318.22 806.22 318.05 806.06 317.95 806.01 317.7 805.89 317.55 805.82 317.4 805.78 317.21 805.75 317.13 805.67 317.04 805.66 316.94 805.66 316.83 805.71 316.69 805.75 316.54 805.79 316.43 805.95 316.35 806.02 316.22 806.05 316.25 805.87 316.33 805.76 316.24 805.67 316.09 805.58 315.96 805.53 315.89 805.41 315.87 805.28 315.99 805.2 316.17 805.1 316.31 805.13 316.43 805.14 316.52 805.07 316.43 804.93 316.41 804.78 316.45 804.63 316.65 804.43 316.82 804.28 317 804.14 317.19 804.13 317.42 804.22 317.72 804.24 318.18 804.18 318.87 803.94 319.36 803.74 319.54 803.8 319.77 803.67 319.92 803.49 320.18 803.29 320.55 803.11 320.8 803.07 321.37 802.87 321.59 802.75 321.72 802.55 321.79 802.43 321.95 802.43 322.13 802.52 322.47 802.4 322.65 802.31 322.96 802.31 323.25 802.31 323.43 802.27 323.59 802.12 323.7 801.76 323.7 801.53 323.71 801.37 323.88 801.21 324.1 801.12 324.23 801.04 324.46 800.77 324.63 800.54 324.83 800.11 324.97 799.68 325.04 799.4 325.17 799.09 325.47 798.74 325.65 798.54 325.66 798.38 325.63 798.26 325.47 798.11 325.36 797.98 325.3 797.81 325.38 797.51 325.5 797.36 325.71 797.3 325.88 797.34 326.18 797.43 326.28 797.47 326.48 797.45 326.75 797.34 326.99 797.18 327.14 797 327.18 796.84 327.08 796.62 326.97 796.51 326.78 796.41 326.64 796.17 326.6 796.02 326.52 795.94 326.37 795.82 326.19 795.75 326.2 795.64 326.26 795.52 326.38 795.43 326.47 795.31 326.58 795.22 326.66 795.22 326.83 795.22 327.2 795.28 327.43 795.26 327.69 795.21 327.83 795.09 327.99 794.92 328.14 794.76 328.14 794.49 328.14 794.33 328.23 794.16 328.41 794.01 328.6 793.91 328.76 793.82 328.9 793.82 329.02 793.91 329.11 794.03 329.18 794.13 329.37 794.13 329.58 794.1 329.82 794.07 330 794.05 330.18 794.09 330.38 794.05 330.61 794.05 331.08 794.04 331.31 794.04 331.6 794.04 331.8 794.04 331.97 794.04 332.35 794.14 332.54 794.14 332.7 794.04 332.99 793.82 333.17 793.4 333.21 792.72 333.01 792.3 332.89 791.97 332.74 791.57 332.54 791.16 332.43 790.9 332.35 790.62 332.19 790.22 331.95 789.74 331.6 789.27 331.41 789.02 331.14 788.41 330.83 787.45 330.31 785.67 329.81 783.99 329.37 782.55 328.81 780.2 328.26 777.93 326.44 772.18 326.24 771.35 325.38 768.04 324.81 765.04 324.19 763.09 323.54 761 323.08 758.4 322.63 756.46 322.07 753.51 320.3 746.75 319.7 744.49 317.34 735.76 317.18 735.05 315.34 727.32 313.81 721.28 312.18 715.06 310.13 707.05 307.62 698.5 305.62 691.52 303.03 682.48 303.03 682.21 303.03 681.86 302.27 679.29 302.16 678.86 300.92 674.52 300.69 673.97 300.57 673.58 300.56 673.02 300.05 671.04 299.63 670.13 299.29 668.56 298.4 665.16 297.11 660.41 296.33 657.83 292.14 643.76 290.67 638.86 288.54 631.85 286.02 623.45 283.47 615.31 283.1 614.05 282.8 612.84 282.47 612.16 280.06 605.03 277.29 597.15 276.79 595.77 275.56 591.96 273.53 586.38 273.52 586.33 271.42 580.57 270.17 577.15 269.72 575.9 267.12 568.6 263.94 560.21 260.7 553.15 259.52 550.62 256.71 544.55 251.59 534.63 246.68 526.47 243.99 523.25 240.96 520.28 239.97 519.55 238.38 518.77 237.43 518.25 236.96 518.47 236.53 518.25 236.19 518.17 236.1 518.25 236.02 518.33 235.86 518.33 235.6 518.31 235.47 518.37 235.45 518.58 235.37 518.81 235.21 518.88 234.97 518.88 234.73 518.88 234.51 518.95 234.31 518.96 234.2 519.21 234.03 519.27 233.67 519.29 233.42 519.27 233.26 519.16 232.96 518.95 232.72 518.95 232.35 518.98 232.19 519.18 232 519.31 231.71 519.3 231.35 519.21 231.06 519.21 230.67 519.21 230.29 519.21 230.01 519.27 229.62 519.39 229.25 519.58 228.97 519.66 228.65 519.64 228.27 519.53 228.14 519.39 227.94 519.22 227.6 519.34 227.37 519.45 227.07 519.46 226.89 519.49 226.84 519.57 226.85 519.8 226.95 520.22 227.05 520.66 227.36 520.94 227.9 521.39 228.26 521.54 228.36 521.57 228.25 521.69 228.01 522.05 227.8 522.22 227.74 522.5 227.68 522.69 227.6 522.85 227.58 523.2 227.35 523.41 226.99 523.58 226.8 523.49 226.5 523.58 226.3 523.66 226.15 523.9 225.82 523.87 225.55 523.77 225.32 523.81 225.09 523.84 224.99 523.79 224.74 523.5 224.42 523.52 223.97 523.53 223.67 523.49 223.37 523.5 223.08 523.43 222.83 523.5 222.6 523.54 222.36 523.49 222.01 523.47 221.75 523.52 221.52 523.59 221.22 523.5 221.02 523.44 220.73 523.54 220.35 523.46 220.1 523.35 219.85 523.23 219.46 523.26 219.1 523.37 218.72 523.5 218.43 523.56 218.13 523.58 217.82 523.53 217.57 523.69 217.49 524.06 217.41 524.25 217.14 524.11 216.9 524.02 216.6 524.12 216.58 524.34 216.39 524.36 216.1 524.62 215.63 525.03 215.3 525.42 215.45 526.84 215.26 527.09 215.18 527.37 215.25 527.56 215.43 527.56 215.67 527.74 215.94 528.19 215.88 528.69 215.58 529.27 215.22 529.45 214.88 529.54 214.57 529.65 214.23 529.78 213.61 529.72 213.34 529.73 213.02 529.93 212.77 530 212.39 529.84 212 529.6 211.65 529.61 211.22 529.65 210.41 529.95 209.98 529.96 209.6 530.01 208.94 530.09 208.68 530.19 208.47 530.08 208.18 530.07 207.92 530.1 207.59 530.25 207.1 530.32 206.76 530.38 206.48 530.54 206.19 530.54 205.83 530.44 205.25 530.37 204.76 530.4 204.27 530.59 203.85 530.62 203.36 530.54 202.57 530.38 202.29 530.24 202.16 530.07 202.06 529.79 201.82 529.61 201.08 529.33 200.2 529.03 199.88 528.85 199.46 528.56 199.03 528.3 198.56 528.16 198.3 527.92 197.97 527.88 197.58 527.73 197.21 527.5 196.92 527.24 196.79 526.89 196.77 526.43 196.77 526.24 196.9 526.08 197 525.91 197.04 525.73 196.93 525.25 196.87 525.05 196.69 524.96 196.45 524.97 196.26 524.88 196.09 524.66 196.08 524.47 196.02 524.28 195.91 524.09 195.92 523.72 195.74 523.66 195.47 523.41 195.47 523.14 195.34 522.96 195.18 522.64 195.18 522.44 195.16 522.28 194.87 521.99 194.78 521.76 194.74 521.4 193.94 520.52 192.49 519.27 191.37 518.64 190.54 518.34 189.68 518.07 189.29 518.17 188.72 518.36 188.54 518.59 188.54 518.92 188.49 519.27 188.29 519.49 187.92 519.68 187.54 519.76 187.15 519.81 186.78 519.82 186.44 519.65 185.91 519.43 185.57 519.41 185.11 519.34 184.83 519.29 184.44 519.3 184.16 519.23 183.77 519.12 183.46 518.96 183.1 518.78 182.9 518.77 182.72 518.65 182.43 518.51 181.97 518.39 181.63 518.39 181.26 518.28 181.01 518.15 180.75 518.17 180.54 518.12 180.37 517.88 180.07 517.6 179.74 517.35 179.42 517.09 179.24 516.7 179.12 516.47 178.91 516.19 178.66 515.98 178.5 515.68 177.98 515.39 177.53 515.06 177.19 514.91 176.8 514.7 176.31 514.62 175.68 514.63 175.06 514.65 174.41 514.68 173.9 514.83 173.27 514.92 172.82 514.88 172.21 514.89 171.83 514.76 171.29 514.36 171.17 513.98 171.17 513.56 171.07 513.15 170.68 512.87 168.41 511.67 166.82 510.98 166.58 510.96 166.19 510.78 165.81 510.76 165.37 510.75 164.94 510.82 164.57 511.04 164.16 511.14 163.82 511.14 163.41 511.13 163.01 510.97 162.72 510.74 162.48 510.47 162.32 510.23 161.92 509.98 161.57 509.84 161.41 509.64 161.29 509.38 161.24 509.17 161.41 508.78 161.58 508.27 161.82 507.83 161.93 507.72 161.99 507.65 162.32 507.22 162.17 506.9 161.98 506.39 161.87 505.1 161.88 503.51 161.94 502.17 161.67 499.23 161.31 496.58 160.61 493.86 160.34 492.93 159.77 491.95 158.86 490.53 158.18 489.83 157.19 489.08 156.77 488.82 156.63 488.81 156.54 488.82 156.23 488.87 155.9 489.12 155.19 489.4 154.83 489.53 154.51 489.51 153.98 489.49 153.87 489.61 153.59 489.68 153.31 489.61 152.88 489.58 152.63 489.68 152.28 489.58 152 489.51 151.59 489.49 151.32 489.61 150.81 489.58 150.33 489.51 149.99 489.61 149.64 489.68 149.18 489.56 148.82 489.47 148.14 489.43 147.88 489.43 147.08 489.35 146.71 489.33 146.49 489.51 146.28 489.74 146.03 490.09 145.93 490.34 145.57 490.45 145.35 490.22 144.94 490.14 144.49 490.09 143.77 490.02 143.18 489.97 142.86 489.99 142.35 489.97 141.72 489.93 141.44 489.71 141.67 489.58 141.99 489.47 142.1 489.35 142.15 489.12 141.99 488.85 141.64 488.69 141.23 488.57 141.06 488.34 140.93 487.98 140.86 487.58 140.84 487.38 140.8 487.17 140.69 486.9 140.67 486.69 140.74 486.5 140.75 486.26 140.82 486.11 140.8 485.84 140.66 485.48 140.84 485.26 140.99 485.2 141.11 485.02 141.34 484.86 141.55 484.61 141.62 484.45 141.73 484.31 141.76 484.13 141.78 483.92 141.96 483.75 142.06 483.51 142 483.14 142.09 482.92 142.18 482.74 142.09 482.56 141.86 482.53 141.59 482.53 141.32 482.39 141.14 482.3 140.91 482.3 140.64 482.32 140.35 482.32 140.2 482.18 140.1 482.09 140.03 481.88 139.99 481.74 139.92 481.62 139.73 481.48 139.52 481.33 139.38 481.25 139.16 481.12 138.94 481.06 138.7 480.97 138.54 480.83 138.5 480.65 138.49 480.5 138.47 480.36 138.32 480.23 138.17 480.14 138.01 480.03 137.81 479.85 137.67 479.61 137.5 479.32 137.32 479.14 137.21 478.94 137.17 478.66 137.17 478.56 137.16 478.3 137.04 478.15 136.95 477.95 136.93 477.73 136.93 477.56 136.87 477.35 136.75 477.19 136.64 476.89 136.58 476.73 136.43 476.48 136.48 476.28 136.5 476.05 136.38 475.65 136.13 475.2 135.73 474.69 135.17 474.41 134.74 474.16 134.33 473.93 134.07 473.6 133.91 473.35 133.8 473.28 133.66 473.24 133.44 473.24 133.26 473.24 133.11 473.1 133.13 472.89 133.19 472.77 133.2 472.65 133.03 472.58 132.81 472.58 132.68 472.52 132.75 472.41 132.98 472.34 133.05 472.21 132.95 472.02 132.89 471.77 132.85 471.46 132.79 471.19 132.71 470.96 132.58 470.75 132.42 470.7 132.37 470.48 132.44 470.33 132.43 470.01 132.5 469.72 132.56 469.54 132.57 469.27 132.57 469.09 132.68 468.93 132.56 468.82 132.5 468.64 132.74 468.4 133.14 468.21 133.49 468.01 133.77 467.92 133.96 467.79 134.1 467.59 134.04 467.41 134.26 467.18 134.6 467.08 134.91 466.95 135.28 466.75 135.75 466.59 136.21 466.58 136.61 466.58 137.11 466.67 137.73 466.91 138.27 467.11 138.69 467.32 139.08 467.35 139.47 467.39 139.84 467.21 140.26 466.75 140.64 466.28 141.8 462.79 142.4 461.13 145.65 461.26 161.24 474.85 162.3 475.78 162.73 482.8 163.31 482.81 164.82 482.67 166.44 482.24 168.44 481.62 169.64 480.91 170.96 479.96 173.03 477.95 173.09 477.53 173.07 476.9 172.95 476.23 172.86 475.84 172.89 475.53 172.95 475.26 173.02 475.01 173.2 474.81 173.39 474.55 173.55 474.36 173.47 474.19 173.42 473.99 173.27 473.81 173.14 473.58 172.94 473.51 172.72 473.39 172.61 473.19 172.44 473.02 172.23 472.89 172.11 472.63 171.99 472.45 171.91 472.1 172 471.82 172.23 471.47 172.5 471.17 172.77 471.1 173.25 471.03 173.64 470.95 173.96 470.87 174.39 470.66 174.64 470.57 174.88 470.62 175.11 470.72 175.43 470.86 175.91 470.89 176.29 470.81 176.56 470.88 177.04 471.19 177.63 471.33 178 471.39 178.31 471.65 178.69 471.93 179.09 472.28 179.77 472.93 180.22 473.41 180.62 474.28 180.68 474.59 180.51 475 180.36 475.26 180.36 475.65 180.3 476.23 180.09 476.68 184.51 478.02 184.51 478.32 184.51 478.66 184.58 478.85 184.73 479.11 185.01 479.14 185.3 479.25 185.45 479.38 185.58 479.5 186.67 479.31 187.03 479.27 187.02 478.88 187.01 478.43 186.95 477.91 186.61 477.23 186.28 476.65 186.2 476.2 186.17 475.64 186.39 475.28 186.86 474.95 187.48 474.89 188.17 475.16 189.2 475.82 190.25 476.66 190.58 476.99 191.09 476.81 192.13 475.99 193.04 474.73 193.27 473.76 193.44 473.19 193.76 472.45 194.34 471.92 195.16 471.68 196.39 471.71 196.97 471.59 197.55 471.37 197.97 471.3 198.35 471.22 198.73 471.1 199.03 470.94 199.34 470.94 199.75 470.82 200.09 470.71 200.59 470.69 201.09 470.71 201.38 470.86 201.73 471.01 202.05 471.16 202.36 471.34 202.54 471.69 202.71 471.95 202.85 472.23 203.05 472.35 203.33 472.39 203.47 472.31 203.68 472.25 204 472.4 204.29 472.6 204.74 472.88 205.13 473.13 205.4 473.48 205.65 474.02 205.7 474.34 205.74 474.72 205.72 474.95 205.95 475.52 206.27 476.17 206.41 477.12 206.28 478.02 206.28 478.66 207.48 480.02 208.75 481.47 209.05 481.85 207.99 483.83 208.1 483.83 208.24 483.86 208.53 483.98 208.83 484.1 209.21 484.2 209.63 484.28 209.92 484.37 210.24 484.39 211.15 484.34 211.41 484.32 211.65 484.16 211.9 484.03 212.02 483.71 212.18 483.5 212.45 482.89 212.72 482.53 213.45 481.97 214.2 481.81 215.19 481.66 216.7 481.72 218.18 481.95 219.31 482.24 221.09 482.89 221.66 483.31 222.15 484.02 222.43 484.79 222.71 485.62 223.05 485.74 223.37 485.73 223.64 485.5 224.27 484.93 224.7 484.45 226.05 482.67 226.7 482.02 228.44 481.07 229.55 480.31 230.09 478.13 230.36 477.94 230.88 478.17 231.09 478.48 231.3 480.45 233.68 480.77 235.09 481.07 236.71 481.67 237.74 483.5 238.54 483.5 238.65 484.04 237.92 484.32 238.12 485.46 237.86 485.64 237.89 486.09 238.15 486.35 238.51 486.03 238.87 486.13 239.18 486.39 239.21 486.92 239.26 487.21 239.71 487.56 241.25 487.55 244.25 486.96 248.67 485.52 251.05 485.13 254.45 482.01 255.88 481.03 256.35 480.77 257.38 479.59 257.74 478.73 257.86 477.95 257.8 477.59 257.51 477.21 257.39 476.89 257.47 476.56 257.48 476.31 257.38 476.02 257.27 475.79 257.48 475.71 257.85 475.96 258.17 476.02 259 475.77 259.18 475.4 259.12 474.72 259.48 474.18 260.15 474.05 261.25 474.04 261.96 473.76 262.29 473.61 262.57 473.33 263.15 473.18 263.69 473.12 264.13 473.17 264.69 473.41 265.24 473.77 265.49 474.2 265.64 474.65 265.68 474.82 267.82 475.47 268.65 475.61 269.19 475.84 270.08 476.31 271.07 477.09 271.99 477.99 272.94 478.47 274.19 478.8 275.54 478.97 277.79 478.91 278.65 478.62 278.86 478.71 278.96 478.74 279.5 479.14 279.76 479.54 280.71 480.29 280.97 480.39 281.25 480.51 281.38 480.62 281.42 480.66 281.45 480.68 281.66 480.73 282.97 481.13 283.07 481.15 283.89 481.31 284.26 481.38 285.66 481.42 286.15 481.42 287.12 481.19 287.62 480.96 288.14 480.67 288.83 480.6 289.43 480.83 289.46 480.84 289.97 481.5 290.13 481.33 290.09 480.96 290.08 480.92 289.85 480.25 289.63 479.83 289.49 479.12 289.49 478.41 289.49 478.11 289.49 477.19 289.46 476.31 289.37 475.88 289.08 474.53 288.98 474.29 289.32 473.86 289.68 473.86 289.91 473.71 290.87 472.66 292.09 472.63 293.55 472.82 300.63 471.99 305.59 471.04 315.76 473.55 317.28 473.96 318.06 473.84 321.2 473.7 323.2 473.82 325.35 474.48 326.42 475.04 328 475.65 328.67 475.73 330.96 476.85 333.19 478.17 333.83 478.6 334.19 478.65 334.41 478.77 335.82 480.17 335.73 480.35 335.72 480.62 335.76 481.16 335.94 481.78 337.06 484.57 339.49 489.44 340.77 491.98 341.16 492.94 342.08 495.41 342.28 496.12 342.5 497.29 342.66 498.94 342.71 499.96 342.74 500.81 342.56 503.42 342.57 504.27 342.63 505.18 342.86 508.03 342.97 509.69 343.04 510.64 343.18 511.44 343.33 512.14 343.74 513.23 344.07 513.98 344.44 514.58 344.83 515.1 345.33 515.64 345.79 516.04 346.26 516.35 347.09 516.86 348.29 517.56 348.89 517.89 349.52 518.18 351.63 519.02 352.14 519.17 352.53 519.27 353.15 519.29 354.16 519.27 356.17 518.98 356.46 519.65 356.79 520.35 357.27 521.08 357.99 522.01 358.22 522.31 358.98 523.5 359.06 523.6 360.33 524.55 360.99 525.14 362.64 525.4 363.74 525.77 365.88 526.02 367.57 526.03 369.46 526.06 372.27 526.48 373.36 526.58 374.78 526.67 375.61 526.72 375.64 526.73 376.88 527.14 377.77 527.49 378.76 527.89 378.83 527.94 379.42 528.31 381.37 529.01 381.78 529.15 382.5 530.21 383.27 532.28 384.99 534.32 385.27 534.67 386.21 536.11 387.12 537.33 388.14 538.71 390.47 540.22 392.75 541.82 395.85 544.01 396.91 544.48 399.42 545.58 401.22 546.37 402.95 547.11 403.33 547.28 403.49 547.35 405.1 548.07 406.22 548.56 406.47 548.68 407.38 549.43 408.86 550.66 410.02 551.56 410.83 552.2 412.41 554.45 413.38 556.13 413.58 556.49 413.86 558.17 413.74 559.9 413.7 560.34 413.48 563.38 413.44 564.01 413.55 566.57 413.69 570.06 413.92 571.14 414 571.52 414.09 571.91 414.48 573.77 414.7 574.77 415.45 581.52 416.54 585.09 417.34 587.66 418.05 590 418.38 591.71 418.97 594.81 419.11 595.54 419.65 598.53 419.8 599.33 420.1 600.96 420.62 602.24 420.7 602.43 421.34 603.68 423.58 605.53 424.52 606.32 425.65 606.74 426.72 607.17 426.92 607.21 430.7 607.81 436.48 608.14 438.19 608.06 439.21 608.03 440.02 607.57 445.79 604.25 446.79 603.67 448.73 602.9 450.07 602.37 450.3 602.27 450.38 602.24 451.89 601.65 453.3 602.24 453.57 602.36 454.21 602.63 454.62 603.33 454.7 603.85 454.98 605.28 455.49 607.92 456.05 608.8 456.43 609.39 457.87 610.42 459.34 611.06 461.31 610.82 462.21 610.71 463.63 610.48 465.51 610.17 469.5 610.22 472.1 610.41 475.83 611.01 477.06 611.21 477.63 611.27 478.95 612.04 479.66 612.46 480.14 612.75 481.02 613.22 482.46 613.83 482.81 613.89 483.93 614.11 485.7 614.67 486.94 615.67 487.55 616.47 488.32 617.48 488.5 617.73 489.11 618.58 489.42 619.64 489.61 620.29 489.64 621.36 489.65 622.01 489.67 623.12 489.03 624.13 488.58 624.89 488.47 625.07 487.91 625.99 487.88 627.66 488.02 628.94 488.32 629.57 489.07 631.14 489.15 631.46 489.52 632.09 490.07 632.76 490.11 632.81 491.19 634.36 491.67 635.12 493.62 638.22 494.61 639.22 494.79 639.53 494.91 639.59 495.23 640 495.74 640.64 496.27 640.69 497.73 640.84 498.6 640.9 498.98 640.6 499.33 640.31 499.53 640.17 499.71 640.02 500.86 638.93 501.07 638.72 501.91 638.12 502.74 637.53 503.38 637.39 504.38 637.37 504.51 637.37 505.2 637.47 505.93 637.89 506.45 638.47 506.93 639 507.11 639.2 507.22 639.32 507.68 639.71 507.96 639.94 508.51 640.61 509.57 641.9 509.98 642.41 511.29 643.83 511.58 644.14 511.69 644.2 512 644.6 512.86 647.02 512.96 647.1 513.23 647.36 513.64 647.73 514.52 647.97 515.28 648.04 515.91 648.1 516.45 648.13 517.16 648.15 517.82 648.19 518.08 648.12 518.75 647.9 518.91 647.85 519.03 647.8 519.7 647.56 520.42 647.32 520.76 647.33 520.85 647.3 521 647.22 522.15 647.08 523.17 646.89 523.21 646.77 523.44 646.13 523.54 646.02 523.98 645.77 524.16 645.67 524.41 645.53 524.89 645.02 525.05 644.85 525.09 644.82 526.59 643.89 526.78 643.03 526.93 642.49 526.94 642.43 527.5 641.46 527.83 640.84 527.84 640.82 528.07 640.41 528.22 639.85 528.41 639.12 529.04 638.28 529.24 638.01 529.48 637.69 530.17 636.77 531 634.72 531.37 633.48 531.77 632.2 531.47 630.71 530.71 629.91 530.37 629.55 529.83 628.69 529.93 627.98 530.02 627.36 529.98 626.6 528.64 625.36 527.6 624.42 527.35 623.42 527.18 622.85 527 622.27 526.11 621.32 523.24 619.6 522.51 619.03 521.52 618.23 521.17 617.94 519.85 616.7 517.44 616.05 516.4 615.48 514.22 613.34 513.43 611.68 512.96 611.39 512.6 611.16 510.52 610.64 510.48 609.4 510.52 608.99 510.61 608.34 510.62 608.26 511.19 607.52 511.25 607.45 511.98 606.82 512.03 606.78 512.68 606.43 513.35 606.05 513.85 605.33 513.85 604.43 513.29 603.52 511.72 602.46 510.74 600.71 510.52 600.32 510.19 599.71 510.03 599.42 509.93 599.16 509.58 598.2 508.74 595.9 508.74 594.52 508.78 593.61 508.81 593.41 508.97 592.32 508.99 591.79 509.07 590.6 508.92 589.96 508.81 589.46 508.07 588.6 507.14 587.6 506.44 586.52 505.2 584.62 504.02 583.17 504.01 582.94 503.95 582.16 504.37 580.02 504.5 579.89 506.91 577.46 507.2 577.13 508.21 576.09 508.5 575.62 509.63 574.12 510.61 573.29 512.44 572.62 513.22 572.02 513.39 571.84 513.45 571.78 513.8 571.42 514.81 570.32 515.63 569.3 515.97 568.83 516.38 568.28 516.79 567.64 516.96 567.36 517.22 566.94 517.91 565.69 518.06 563.8 518.67 562.17 518.83 561.64 519.15 560.69 519.11 560.34 519.04 559.65 518.91 557.22 519.51 555.92 520.3 555.1 520.85 554.18 523.1 553.72 524.98 554.08 526.09 554.26 526.81 554.07 527.23 553.21 525.32 552.15 524.12 551.6 522.67 550.86 521.86 550.17 521.39 549.08 521.2 548.38 521.2 547.71 521.2 547.34 521.2 546.38 521.48 544.67 522.36 544.67 523.33 544.66 523.94 545.07 524.52 545.29 525.01 545.18 525.42 544.4 524.97 543.61 524.51 542.43 523.92 540.66 524.13 538.7 525.01 536.21 525.28 535.96 525.62 535.62 526.62 534.84 526.95 534.32 526.94 534.22 526.83 533.57 526.53 532.91 526.05 532.05 525.63 531.71 524.87 531.09 524.52 530.2 524.44 528.09 524.09 525.52 523.81 524.36 522.58 523 521.58 522.36 520.28 521.66 519.99 521.43 519.67 521.19 519.09 520.48 517.93 519.86 516.41 519.18 514.97 518.7 514.94 518.63 514.9 518.47 514.1 518.35 514.59 517 515.14 516.58 515.5 516.19 516.81 515.59 519.28 516.22 519.45 516.26 520.03 516.29 520.14 515.6 520.09 515.53 519.36 514.41 518.91 513.69 518.79 513.5 518.27 512.85 518.02 512.53 517.69 512.17 517.17 511.61 516.18 510.88 515.61 510.43 514.79 509.99 514.72 509.96 514.68 509.95 513.64 509.84 512.32 509.97 512.16 510.31 511.78 510.43 511.9 511.03 512.38 511.76 512.78 512.37 512.51 512.63 511.21 512.63 510.79 511.97 510.04 510.79 509.66 510.17 509.21 508.01 508.87 507.33 508.78 506.3 508.75 505.97 508.28 503.59 508.26 503.27 508.14 502.65 507.39 501.48 506.93 501.02 506.39 500.76 505.72 500.68 505.6 500.71 504.73 500.89 504.51 500.94 504.38 501.09 503.91 501.66 502.95 501.03 501.74 499.66 501.16 499.2 499.22 496.92 499.04 494.98 498.02 494.94 497.43 495.16 497.18 495.49 496.89 496.39 496.62 497.18 496.18 498.34 495.56 498.89 495.11 499.31 494.89 499.52 494.77 499.53 493.09 499.61 492.8 499.63 492.66 499.41 492.59 499.22 491.93 497.36 491.85 496.82 491.79 495.74 492.3 494.82 493.78 492.45 494 492.16 494.42 491.58 494.71 491.1 494.53 490.09 494.43 490.02 494.2 489.82 492.64 488.9 491.83 488.47 492.03 487.53 490.68 486.61 490.38 487.01 489.73 486.13 489.08 484.73 489.06 484.09 489.07 483.1 489.2 482.69 489.35 482.21 490.02 480.95 490.53 480.01 490.62 479.67 490.77 479.19 490.82 479.03 490.87 478.85 491.05 478.14 490.96 477.71 490.89 477.35 490.61 476.75 490.26 476.44 489.7 475.99 489.09 475.24 488.73 474.72 489.24 473.72 491.12 473.33 493.96 471.89 495.32 471.21 495.55 471.1 498.3 469.85 498.43 469.8 499.5 469.3 499.85 468.89 501.32 467.18 501.93 466.47 502.24 466.11 502.92 465.8 503.63 465.49 504.65 465.03 504.77 464.97 505.22 464.94 505.48 464.93 505.79 464.91 508.21 464.76 512.22 463.55 512.69 463.26 521.3 457.92 523.33 456.56 523.86 456.36 525.58 457.23 526.77 460.03 528.06 461.95 529.52 463.8 530.43 464.94 531.51 466.29 531.72 465.56 531.88 464.05 532.18 460.37 532.6 459.12 533.08 457.83 533.45 456.57 534.04 455.32 535.2 454.33 536.83 453.58 538.63 452.77 541.87 451.97 542.64 451.6 543.17 449.12 541.93 448.15 543.85 446.47 547.19 444.28 547.58 443.82 548.64 443.89 550.84 444.04 555.91 446.88 557.24 447.1 559.1 447.17 561.33 445.79 561.67 445.58 561.72 445.54 562.35 445.04 563.14 444.44 565.92 442.83 566.22 442.67 566.56 442.46 567.93 442.28 568.81 442.16 570.92 442.15 572.7 442.14 575.91 442.96 578.39 441.88 578.65 441.76 579.4 440.78 580.9 440.41 582.41 440.79 584.64 441.37 586.27 440.78 586.83 440.49 587.69 440.13 589.31 439.46 592.63 439.45 594.62 439.58 597.93 437.63 599.24 437.98 599.62 438.08 601.56 440.46 603.1 441.64 604.96 442.61 608.34 443.49 610.73 443.63 612.43 443.1 613.96 441.38 615.03 439.81 615.37 439.54 615.63 439.32 616.94 438.23 617.26 438.02 617.62 437.77 617.87 437.58 618.15 437.39 618.23 437.33 618.87 436.89 621.45 434.62 622.55 433.67 623.57 430.86 623.53 430.7 623.53 430.32 623.52 428.32 623.53 427.84 622.37 424.94 622.15 424.43 621.81 423.07 622.65 421.35 626.57 419.1 627.39 417.43 629.06 414.01 636.34 408.44 637.78 407.64 640.86 405.94 649.71 402.47 653.42 401.51 658.03 400.78 660.69 399.45 665.28 394.81 668.34 391.49 672.55 389.28 673.39 388.83 677.87 386.78 687.3 383.77 689.02 383.99 690.77 382.03 692.83 380.63 695.4 380.25 696.2 377.75 698.53 375.88 Z M 131.91 537.88 132.38 538.5 132.96 539 133.43 539.53 133.69 540.03 133.81 540.72 133.62 541.36 133.24 541.9 132.66 542.33 132.36 542.51 131.96 542.47 131.73 542.64 131.58 542.87 131.63 543.1 131.9 543.19 131.81 543.47 131.91 543.71 131.67 543.94 131.67 544.26 131.6 544.57 131.44 544.76 131.18 544.7 131.04 544.51 130.77 544.34 130.44 544.42 130.12 544.3 129.98 544.37 129.92 544.59 129.46 544.6 129.02 544.54 128.69 544.41 128.5 544.18 128.67 543.84 129.51 543.65 129.97 543.4 130.08 543.13 129.9 542.92 129.54 542.71 128.89 542.35 128.53 542 128.1 541.94 127.61 541.98 127.18 542.27 126.51 542.36 125.86 542.51 125.5 542.7 125.32 542.88 124.84 542.88 124.44 542.69 123.95 542.63 123.5 542.74 122.97 542.75 122.25 542.66 121.94 542.58 121.43 542.39 121.05 542.52 120.68 542.63 120.15 542.57 119.56 542.76 119.23 543.02 118.78 542.65 117.65 542.47 117 542.31 116.76 541.89 116.08 541.57 115.14 541.41 114.43 541.43 113.64 541.78 112.71 542.3 112.01 542.64 111.75 542.81 111.38 542.94 111.08 543.08 110.77 543.18 110.65 542.99 110.82 542.58 110.77 542.34 110.63 542.1 110.25 542.1 109.82 542.15 108.84 542.13 108.84 542.29 108.81 542.42 108.59 542.47 108.47 542.34 108.42 542 107.84 541.8 107.31 541.54 106.8 541.46 106.35 541.4 106.25 541.27 106.37 540.97 106.4 540.58 106.37 540.24 105.99 539.87 105.92 539.6 106.05 539.28 106.29 538.92 106.87 538.63 107.47 538.52 108.22 538.57 108.47 538.85 108.76 538.94 109.12 538.93 109.64 539 109.9 539.27 109.95 539.63 110.06 539.89 110.28 539.87 110.29 539.63 110.42 539.57 110.57 539.6 110.61 540.11 110.45 540.22 110.28 540.5 110.51 540.83 111.28 541.13 111.9 541.29 113.11 541.27 114.67 540.87 115.41 540.74 115.76 540.74 116.15 540.85 116.55 541 116.85 540.95 117.12 540.69 117.53 540.52 118.05 540.47 118.32 540.62 118.68 540.82 118.93 540.75 119.25 540.64 119.6 540.7 119.76 540.56 119.79 540.32 120 540.21 120.35 540.17 120.38 539.91 120.61 539.69 121.09 539.38 122.09 539.36 122.56 539.46 123.12 539.54 123.47 539.52 123.74 539.35 124.39 539.03 124.74 538.91 125.6 538.94 126.18 538.8 126.68 538.44 127.18 538.09 127.71 538.21 128.2 538.05 128.68 537.77 129.2 537.42 130.2 537.34 131.14 537.51 131.91 537.88 Z M 148.4 515.67 147.76 515.85 147.55 515.73 146.62 515.41 145.32 514.65 144.27 513.5 144.18 512.33 144.27 511.23 144.53 510.21 144.81 509.86 145.33 509.5 146.56 509.19 147.87 509.03 149.11 509.2 150.16 509.46 151.07 509.6 151.41 509.87 151.48 510.33 151.52 511.56 151.34 512.8 150.34 514.15 149.16 515.45 148.4 515.67 Z" fill-rule="evenodd" id="South Goa"/>
</g>
</svg>