<?xml version="1.0"?>
<svg xmlns="http://www.w3.org/2000/svg" version="1.2" baseProfile="tiny" width="800" height="1680" viewBox="0 0 800 1680" stroke-linecap="round" stroke-linejoin="round">
<g id="Lakshwadeep">
<path d="M 148.21 481.59 148.95 481.72 149.57 481.72 150.04 481.71 150.41 481.93 150.63 482.26 150.57 482.87 150.41 483.27 150.26 483.66 150.17 484.15 150.01 484.66 149.39 486.12 148.49 488.03 148.15 488.92 148.12 489.01 148 490.13 147.97 491.02 147.94 492.17 147.84 492.9 147.75 493.72 147.56 494.79 147.32 495.76 146.92 496.8 146.61 498.28 146.2 499.13 146.05 500.13 145.99 500.9 145.96 501.75 145.84 502.41 145.68 503.18 145.68 503.97 145.58 504.94 145.58 505.61 145.58 506.34 145.48 507.07 145.3 507.74 144.89 508.5 144.15 509.26 143.68 509.96 143.13 510.48 142.69 511.27 142.32 512.09 141.44 513.69 140.39 515.39 140.17 515.79 139.12 516.85 138.5 517.8 137.97 518.32 137.63 518.83 137.07 519.56 136.42 520.33 135.87 521.15 135.28 521.6 134.04 522 133.08 522.09 131.37 522.52 129.94 522.94 128.55 523.52 127.22 524.26 126.13 524.99 125.08 525.72 124.18 526.08 123.4 526.18 122.98 526.24 122.05 526.11 120.87 525.57 119.26 524.66 117.58 523.74 116.68 523.01 116.28 522.53 116.06 521.98 115.93 521.46 115.63 521.07 115.1 520.58 114.48 520.09 113.98 519.41 113.33 518.25 112.65 516.43 112.43 514.97 112.4 514.45 112.33 513.72 112.27 512.87 112.21 512.04 112.02 511.44 111.55 510.55 110.75 509.4 110.41 508.64 109.82 507.51 108.98 506.48 107.46 505.04 106.5 503.92 105.44 502.73 104.51 501.77 104.07 501.16 103.76 500.34 103.67 499.48 103.79 498.84 104.1 498.21 104.56 497.5 105.84 497.2 107.17 496.86 108.1 496.92 109.06 497.17 110.33 497.8 111.33 498.17 113.09 498.5 115.17 498.44 117.68 498.16 119.44 498.07 121.12 497.95 122.3 497.92 123.85 497.85 125.03 497.55 126.28 497.09 128.36 496.09 129.47 495.48 130.56 494.99 131.36 494.56 132.04 494.11 132.88 493.35 133.65 492.92 134.37 492.22 134.96 491.61 136.02 490.85 136.92 490.33 138.09 489.66 139.21 488.96 140.39 488.11 141.04 487.41 141.72 486.65 142.26 486.49 142.6 485.98 143 485.4 143.56 484.82 144.03 484.12 144.8 483.18 146.04 482.17 147.47 481.62 148.21 481.59 Z M 67.76 46 67.05 46.42 66.01 46.3 64.91 45.46 64.67 44.96 64.06 43.29 63.91 41.3 63.91 39.54 64.15 38.29 64.19 37.04 64.28 35.04 64.19 33.56 63.76 31.43 63.28 30 62.85 28.87 62.28 26.55 61.8 25.03 61.42 23.55 61.42 21.42 61.32 19.56 61.17 17.52 60.94 15.12 60.65 13.01 60.6 10.69 60.55 8.75 60.45 6.89 60.49 5.18 60.87 3.7 62.29 2.17 63.43 1.24 64.52 1 65.47 1 66.7 1.28 67.75 1.97 68.46 2.62 69.19 3.13 69.6 3.41 71.16 4.24 72.3 4.79 73.54 5.44 74.77 6.27 75.34 7.24 75.69 7.94 75.96 8.49 76.25 10.16 76.44 12.29 76.44 13.73 76.44 15.44 76.49 17.71 76.64 18.87 76.59 20.72 76.54 21.65 76.26 23.22 75.79 25.4 75.51 26.98 75.51 27.11 75.27 28.51 75.23 29.15 75.09 30.18 74.47 31.87 73.81 34.56 72.82 36.41 72.8 36.45 72.2 38.36 70.69 41 69.22 43.87 68.66 45.17 67.76 46 Z M 24.29 215.62 24.29 216.26 24.24 216.67 24.62 216.89 24.76 217.32 24.76 217.69 24.8 218.28 25.11 218.94 25.45 219.57 26.05 219.92 26.53 220.42 27.45 220.6 28.4 220.9 29.78 221.09 31.14 221.71 32.36 222.82 33.05 223.06 33.96 223.25 34.65 223.14 35.27 222.76 35.76 222.32 36.29 221.68 36.65 220.88 36.67 220.01 36.45 219.39 36.05 219.11 35.49 219.33 35.14 219.48 34.58 218.85 34.07 218.28 33.45 217.78 33.16 217.21 33.18 216.67 33.86 216.25 34.55 216.13 35.85 216.61 37.29 217.12 38.92 217.73 39.88 219.23 40.35 221.33 41.2 224.04 42.4 226.08 43.44 228.04 44.33 230.2 44.95 232.13 44.61 233.18 43.89 234.3 42.65 234.81 41.13 234.8 39.37 234.19 37.71 233.28 36.7 232.83 34.21 231.82 32.59 231.16 31.53 230.94 29.78 230.85 27.98 230.87 25.95 230.85 24.09 230.71 22.47 230.64 21.19 230.42 20.36 230.1 19.41 229.49 18.56 228.78 17.65 227.93 16.67 226.75 16.12 225.8 15.69 224.52 15.24 223.33 14.96 222.52 14.49 221.54 13.88 220.31 13.28 219.04 13 218.2 12.61 217.64 11.94 216.69 11.89 216.29 12.2 215.91 12.73 215.78 14.15 215.71 16.35 215.64 17.86 215.67 19.06 215.14 20.13 214.49 20.98 213.84 21.84 213.42 22.73 213.22 23.33 213.57 23.16 214.16 23.11 214.53 23.42 214.81 23.91 215.19 24.29 215.62 Z M 775.9 951.92 775.16 952.14 774.41 952.1 773.48 951.55 773.2 951.36 772.98 951.13 772.65 950.71 772.29 950.37 771.86 949.85 771.47 949.45 771.06 949.02 770.6 948.55 770.2 948.15 769.95 947.97 769.7 947.8 769.35 947.46 768.97 947.04 768.51 946.63 768.17 946.21 767.72 945.63 767.28 945.13 766.81 944.5 766.58 943.94 766.4 943.46 766.31 943.02 766.18 942.2 766.17 941.74 766.15 941.19 766.08 940.66 766.05 940.39 766.04 939.8 766.04 938.61 765.95 937.8 765.84 937.01 765.61 935.85 765.62 935.61 765.62 935.34 765.63 934.75 765.64 934.11 765.7 933.07 765.8 932.64 765.95 932 766.09 931.55 766.81 930.41 767.87 929.05 768.04 928.84 768.82 927.9 769.33 927.23 769.91 926.8 770.75 925.98 771.26 925.3 771.81 924.45 772.18 923.59 772.66 922.62 773.06 921.37 773.5 920.34 774.3 919.34 775.36 918.45 776.86 916.81 778.37 914.95 779.44 913.23 780.21 911.95 780.79 911.38 781.41 911.06 781.44 911.05 781.48 911.04 781.52 911.04 781.55 911.04 781.62 911.08 781.68 911.11 781.72 911.14 781.77 911.18 781.78 911.21 781.8 911.26 781.81 911.31 781.81 911.35 781.81 911.42 781.79 911.48 781.79 911.52 781.78 911.57 781.74 911.61 781.75 911.62 781.76 911.65 781.76 911.67 781.77 911.69 781.8 911.72 781.83 911.75 781.85 911.78 781.87 911.83 781.87 911.86 781.88 911.88 781.89 911.91 781.91 911.94 781.91 911.97 781.93 912.02 781.93 912.05 781.94 912.08 781.95 912.13 781.96 912.17 781.97 912.2 781.98 912.24 781.98 912.26 781.99 912.28 782 912.3 782 912.33 782 912.35 782.01 912.38 782.02 912.45 782.02 912.47 782.02 912.5 782.02 912.53 782.02 912.56 782.03 912.63 782.04 912.69 782.04 912.77 782.04 912.83 782.04 912.86 782.05 912.88 782.06 912.93 782.07 912.97 782.08 913.01 782.09 913.07 782.11 913.14 782.11 913.18 782.11 913.21 782.11 913.24 782.11 913.26 782.13 913.35 782.13 913.38 782.13 913.41 782.15 913.51 782.16 913.6 782.18 913.69 782.19 913.72 782.19 913.75 782.21 913.78 782.21 913.84 782.23 913.93 782.24 914 782.25 914.05 782.27 914.12 782.29 914.18 782.31 914.24 782.33 914.31 782.33 914.35 782.34 914.39 782.34 914.41 782.37 914.44 782.38 914.47 782.38 914.49 782.39 914.52 782.39 914.54 782.41 914.58 782.42 914.61 782.43 914.64 782.44 914.67 782.44 914.7 782.45 914.72 782.45 914.74 782.45 914.76 782.46 914.78 782.46 914.81 782.47 914.84 782.49 914.87 782.5 914.9 782.52 914.93 782.53 914.96 782.53 914.98 782.55 915.02 782.56 915.04 782.57 915.06 782.58 915.08 782.58 915.11 782.58 915.13 782.6 915.15 782.6 915.18 782.61 915.2 782.62 915.22 782.63 915.24 782.65 915.26 782.66 915.28 782.67 915.3 782.69 915.34 782.69 915.36 782.7 915.41 782.71 915.46 782.71 915.49 782.73 915.54 782.74 915.59 782.77 915.65 782.78 915.67 782.8 915.7 782.8 915.72 782.8 915.74 782.82 915.77 782.84 915.8 782.85 915.82 782.86 915.84 782.9 915.86 782.92 915.89 782.93 915.92 782.94 915.95 782.95 915.97 782.96 916 782.97 916.02 782.99 916.05 783 916.09 783.01 916.12 783.03 916.17 783.04 916.2 783.06 916.26 783.08 916.32 783.1 916.38 783.11 916.39 783.13 916.41 783.13 916.43 783.13 916.46 783.14 916.48 783.16 916.49 783.17 916.54 783.17 916.57 783.18 916.59 783.19 916.61 783.2 916.63 783.2 916.65 783.22 916.68 783.23 916.71 783.24 916.75 783.25 916.77 783.26 916.79 783.27 916.82 783.28 916.84 783.29 916.86 783.3 916.9 783.33 916.94 783.34 916.97 783.34 916.99 783.35 917.02 783.35 917.04 783.35 917.07 783.35 917.09 783.36 917.11 783.36 917.14 783.38 917.17 783.38 917.2 783.39 917.23 783.39 917.25 783.39 917.28 783.39 917.3 783.39 917.32 783.39 917.34 783.4 917.38 783.4 917.41 783.4 917.44 783.4 917.46 783.41 917.49 783.41 917.51 783.41 917.54 783.41 917.61 783.41 917.63 783.41 917.66 783.41 917.68 783.41 917.71 783.41 917.73 783.42 917.75 783.42 917.78 783.42 917.81 783.41 917.86 783.42 917.91 783.41 917.95 783.4 918.01 783.4 918.07 783.39 918.11 783.38 918.15 783.38 918.19 783.38 918.21 783.37 918.23 783.36 918.26 783.34 918.26 783.33 918.3 783.33 918.33 783.32 918.39 783.31 918.44 783.31 918.49 783.31 918.55 783.31 918.57 783.31 918.59 783.31 918.61 783.3 918.65 783.29 918.69 783.27 918.74 783.27 918.76 783.26 918.78 783.25 918.8 783.24 918.82 783.23 918.84 783.22 918.85 783.22 918.87 783.21 918.9 783.19 918.92 783.18 918.93 783.17 918.97 783.17 918.99 783.16 919.02 783.16 919.05 783.15 919.08 783.14 919.13 783.13 919.16 783.12 919.19 783.11 919.22 783.1 919.24 783.1 919.28 783.11 919.31 783.1 919.33 783.1 919.35 783.1 919.37 783.1 919.4 783.09 919.42 783.08 919.45 783.08 919.47 783.07 919.49 783.07 919.53 783.07 919.55 783.07 919.57 783.06 919.61 783.05 919.63 783.05 919.65 783.04 919.67 783.04 919.69 783.03 919.73 783.02 919.75 782.99 919.79 782.97 919.85 782.95 919.89 782.92 919.95 782.9 919.99 782.89 920.03 782.89 920.05 782.87 920.07 782.88 920.08 782.89 920.11 782.88 920.13 782.86 920.15 782.85 920.18 782.85 920.2 782.84 920.22 782.83 920.25 782.82 920.28 782.81 920.31 782.8 920.33 782.79 920.36 782.78 920.38 782.77 920.41 782.74 920.45 782.73 920.48 782.73 920.5 782.73 920.52 782.72 920.57 782.71 920.6 782.7 920.62 782.68 920.69 782.67 920.74 782.67 920.77 782.65 920.81 782.63 920.82 782.62 920.84 782.61 920.87 782.58 920.88 782.56 920.9 782.56 920.93 782.56 920.96 782.54 920.98 782.53 921.01 782.52 921.03 782.52 921.04 782.53 921.06 782.53 921.08 782.53 921.1 782.53 921.13 782.53 921.15 782.52 921.17 782.51 921.19 782.5 921.21 782.49 921.23 782.48 921.25 782.47 921.28 782.46 921.32 782.46 921.34 782.45 921.38 782.45 921.41 782.45 921.43 782.44 921.46 782.43 921.47 782.42 921.49 782.43 921.53 782.42 921.55 782.38 921.56 782.37 921.58 782.36 921.62 782.36 921.64 782.36 921.69 782.35 921.72 782.34 921.74 782.33 921.77 782.33 921.79 782.32 921.81 782.31 921.84 782.31 921.86 782.3 921.88 782.26 921.91 782.24 921.93 782.17 922.48 781.99 922.83 781.74 923.35 781.56 923.59 781.31 924.19 781.04 924.88 780.72 925.34 780.53 925.68 780.28 926.13 779.94 926.87 779.55 927.63 779.27 928.37 779.12 928.92 778.9 929.66 778.76 930.5 778.71 931.08 778.59 931.76 778.54 932.47 778.44 932.93 778.38 933.23 778.36 933.67 778.24 934.44 778.07 935.49 778.02 935.95 777.79 936.57 777.61 937.3 777.46 938.18 777.1 939.95 776.84 941.23 776.68 942.47 776.6 943.87 776.67 946.25 776.62 948.34 776.69 950.02 776.39 951.12 775.9 951.92 Z M 733.82 980.35 730.56 980.97 727.46 979.92 725.51 978.36 724.43 974.68 724.73 969.8 726.17 967.04 728.59 965.72 734 965.53 736.65 966.82 737.9 969.11 738.33 972.38 737.92 976.07 736.44 978.57 733.82 980.35 Z M 784.59 642.62 784.74 642.63 784.85 642.64 785.02 642.67 785.29 642.74 785.48 642.8 785.71 642.82 785.87 642.83 786.12 642.81 786.57 642.78 786.95 642.78 787.33 642.77 787.52 642.77 787.65 642.77 787.75 642.77 788 642.8 788.04 642.84 788.03 642.93 788.09 642.98 788.17 643.01 788.44 643.02 788.72 642.93 788.85 642.83 788.92 642.77 789.01 642.74 789.06 642.73 789.14 642.72 789.26 642.72 789.4 642.72 789.47 642.74 789.59 642.77 789.69 642.78 789.79 642.78 789.92 642.87 790.01 642.91 790.12 642.95 790.18 642.97 790.25 642.98 790.31 642.98 790.41 642.96 790.59 642.96 790.78 642.94 790.97 642.93 791.19 642.92 791.34 642.96 791.47 642.95 791.62 642.95 791.77 642.94 791.91 642.98 792.08 643.01 792.21 643.02 792.39 643.05 792.57 643.06 792.74 643.07 792.92 643.02 793.08 643 793.31 642.86 793.51 642.82 793.85 642.82 794.25 642.83 794.79 642.95 795.24 643 795.57 643.02 795.89 643.02 796.28 643.02 796.67 643.04 797.4 643.07 797.71 643.07 797.99 643.06 798.13 643.03 798.26 643.01 798.38 643 798.48 643 798.59 643.05 798.67 643.14 798.76 643.28 798.9 643.47 798.99 643.61 799 643.75 798.98 643.88 798.98 644.03 798.92 644.23 798.82 644.3 798.71 644.46 798.21 644.82 797.75 645.05 797.06 645.29 796.54 645.44 795.9 645.61 795.36 645.74 794.91 645.91 794.13 646.2 793.58 646.41 792.56 646.83 791.89 647.15 791.17 647.43 790.53 647.62 789.89 647.77 789.26 647.96 788.57 648.12 787.87 648.21 787.32 648.25 786.79 648.26 786.12 648.2 785.18 648.1 784.5 647.95 783.7 647.7 783.19 647.49 782.82 647.29 782.63 647.13 782.45 646.94 782.25 646.65 782 646.21 781.79 645.67 781.71 645.43 781.61 645.01 781.54 644.42 781.55 644.22 781.58 643.93 781.61 643.78 781.65 643.65 781.7 643.54 781.78 643.43 782.08 643.13 782.21 643.01 782.28 642.95 782.4 642.89 782.59 642.83 782.81 642.79 782.95 642.75 783.06 642.72 783.15 642.7 783.96 642.62 784.15 642.62 784.31 642.62 784.59 642.62 Z M 535.71 1675.36 534.94 1676.33 534.75 1676.59 534.52 1676.97 534.14 1677.47 533.86 1677.79 533.74 1677.93 533.58 1678.09 533.45 1678.2 533.38 1678.27 533.29 1678.35 533.15 1678.44 533.03 1678.51 532.83 1678.63 532.69 1678.7 532.46 1678.78 532.26 1678.85 532.04 1678.91 531.95 1678.93 531.74 1678.96 531.58 1678.98 531.4 1678.99 531.21 1679 531.01 1679 530.79 1679 529.93 1678.95 529.7 1678.92 529.27 1678.91 528.95 1678.89 528.64 1678.86 528.45 1678.85 528.31 1678.84 528.23 1678.84 528.18 1678.83 528.05 1678.81 527.94 1678.8 527.83 1678.79 527.73 1678.78 527.71 1678.77 527.63 1678.76 527.59 1678.74 527.52 1678.73 527.47 1678.71 527.36 1678.69 527.14 1678.65 526.78 1678.59 526.22 1678.48 525.76 1678.37 525.31 1678.24 524.81 1678.11 524.44 1678 524.04 1677.88 523.79 1677.8 523.53 1677.7 523.17 1677.57 522.98 1677.48 522.81 1677.4 522.69 1677.34 522.18 1677.08 521.87 1676.91 521.62 1676.77 521.56 1676.74 521.48 1676.69 521.41 1676.65 521.35 1676.55 521.33 1676.47 521.36 1676.41 521.38 1676.37 521.42 1676.24 521.42 1676.15 521.4 1676.08 521.38 1676.02 521.37 1675.97 521.38 1675.92 521.36 1675.81 521.31 1675.63 521.29 1675.54 521.25 1675.46 521.23 1675.37 521.22 1675.31 521.13 1675.09 521.01 1674.85 520.96 1674.71 520.93 1674.64 520.93 1674.51 520.92 1674.38 520.93 1674.28 520.95 1674.22 521 1674.16 521.06 1674.16 521.12 1674.17 521.37 1674.24 521.49 1674.3 521.62 1674.37 521.72 1674.46 521.81 1674.56 521.85 1674.62 521.87 1674.64 522.01 1674.71 522.15 1674.79 522.24 1674.85 522.42 1674.95 522.56 1675.02 522.71 1675.14 522.81 1675.21 522.89 1675.27 522.96 1675.37 523.07 1675.49 523.18 1675.61 523.26 1675.76 523.26 1675.85 523.24 1675.89 523.18 1675.87 523.07 1675.85 523.01 1675.86 522.95 1675.87 522.93 1675.89 522.89 1675.94 522.85 1676 522.81 1676 522.79 1675.98 522.77 1675.94 522.7 1675.92 522.68 1675.93 522.64 1675.92 522.62 1675.91 522.53 1675.8 522.4 1675.67 522.38 1675.6 522.32 1675.54 522.28 1675.53 522.24 1675.52 522.2 1675.48 522.2 1675.42 522.14 1675.31 522.1 1675.28 522.08 1675.28 521.99 1675.28 521.97 1675.28 521.91 1675.23 521.84 1675.12 521.82 1675.04 521.77 1674.99 521.74 1674.95 521.71 1674.9 521.67 1674.85 521.65 1674.79 521.62 1674.74 521.54 1674.72 521.49 1674.75 521.46 1674.77 521.45 1674.84 521.45 1674.93 521.47 1675.01 521.51 1675.05 521.57 1675.1 521.65 1675.17 521.73 1675.29 521.76 1675.34 521.77 1675.41 521.8 1675.5 521.86 1675.61 521.92 1675.68 522.02 1675.8 522.22 1675.94 522.32 1676.01 522.46 1676.06 522.67 1676.11 522.85 1676.25 522.96 1676.28 523.37 1676.32 523.89 1676.37 524.13 1676.4 524.38 1676.41 525.07 1676.36 525.36 1676.3 525.74 1676.22 526.09 1676.13 526.42 1676.03 526.66 1675.95 526.89 1675.88 527.07 1675.81 527.22 1675.75 527.56 1675.65 527.72 1675.63 527.94 1675.62 528.17 1675.62 528.55 1675.62 528.81 1675.62 529.06 1675.63 529.35 1675.64 529.84 1675.67 530.19 1675.63 530.52 1675.59 530.96 1675.49 531.24 1675.43 531.63 1675.33 531.78 1675.27 531.94 1675.21 532.22 1675.03 532.5 1674.89 532.72 1674.76 532.91 1674.62 533.13 1674.41 533.25 1674.3 533.53 1674.06 533.61 1674 533.66 1673.97 533.71 1673.96 533.77 1673.93 533.81 1673.85 534.06 1673.65 534.53 1673.29 534.95 1672.98 535.18 1672.8 535.32 1672.7 535.44 1672.57 535.45 1672.56 535.65 1672.43 535.9 1672.27 536.1 1672.13 536.22 1672.03 536.32 1671.91 536.37 1671.81 536.41 1671.73 536.43 1671.65 536.45 1671.6 536.51 1671.5 536.53 1671.44 536.58 1671.38 536.62 1671.36 536.64 1671.35 536.67 1671.32 536.72 1671.25 536.74 1671.19 536.75 1671.14 536.73 1671.11 536.72 1671.08 536.77 1671.06 536.78 1671.02 536.84 1670.99 536.88 1670.95 536.94 1670.8 536.96 1670.73 537.07 1670.48 537.18 1670.39 537.24 1670.3 537.3 1670.2 537.34 1670.17 537.37 1670.14 537.43 1670.09 537.48 1670.04 537.55 1669.97 537.62 1669.87 537.63 1669.82 537.76 1669.69 538.08 1669.24 538.04 1669.18 538.18 1669.07 538.23 1669.01 538.26 1668.93 538.3 1668.79 538.37 1668.65 538.52 1668.47 538.53 1668.41 538.53 1668.37 538.43 1668.28 538.47 1668.26 538.65 1668.11 538.84 1667.94 539.06 1667.68 539.18 1667.52 539.13 1667.46 539.11 1667.39 539.19 1667.28 539.29 1667.17 539.4 1667.03 539.52 1666.86 539.68 1666.59 539.76 1666.45 539.86 1666.23 539.96 1666.04 540.06 1665.74 540.17 1665.39 540.21 1665.12 540.29 1664.73 540.31 1664.37 540.38 1664.04 540.44 1663.85 540.52 1663.51 540.56 1663.35 540.64 1663.13 540.69 1662.97 540.76 1662.84 540.85 1662.69 540.94 1662.58 541.02 1662.47 541.06 1662.4 541.15 1662.24 541.22 1662.09 541.25 1662.01 541.3 1661.89 541.34 1661.78 541.36 1661.74 541.39 1661.67 541.42 1661.61 541.54 1661.4 541.7 1661.06 541.9 1660.65 542 1660.44 542.15 1660.07 542.22 1659.91 542.28 1659.79 542.34 1659.71 542.36 1659.64 542.4 1659.57 542.44 1659.45 542.5 1659.35 542.54 1659.27 542.59 1659.13 542.65 1659.01 542.7 1658.89 542.73 1658.82 542.79 1658.73 542.99 1658.32 543.06 1658.17 543.18 1657.98 543.35 1657.67 543.5 1657.41 543.71 1657.06 543.86 1656.79 544 1656.49 544.13 1656.25 544.29 1656.04 544.38 1655.93 544.45 1655.84 544.6 1655.76 544.64 1655.7 544.75 1655.56 544.88 1655.4 544.96 1655.36 545.02 1655.3 545.06 1655.17 545.1 1655.03 545.17 1655 545.29 1654.97 545.33 1654.96 545.38 1654.94 545.4 1654.95 545.4 1654.97 545.4 1655 545.38 1655.02 545.35 1655.07 545.31 1655.09 545.16 1655.26 545.03 1655.39 544.88 1655.58 544.79 1655.69 544.68 1655.82 544.55 1655.98 544.46 1656.09 544.37 1656.29 544.23 1656.59 544.07 1656.95 543.69 1657.81 543.58 1657.99 543.3 1658.45 543.22 1658.6 543.01 1658.97 542.68 1659.57 542.5 1659.89 542.27 1660.26 542.15 1660.46 542.11 1660.54 542.09 1660.57 542.05 1660.62 542.02 1660.7 541.97 1660.79 541.91 1660.91 541.82 1661.07 541.8 1661.13 541.62 1661.48 541.46 1661.88 541.41 1662 541.36 1662.11 541.31 1662.25 541.25 1662.44 541.18 1662.58 541.11 1662.83 541.07 1662.92 541 1663.09 540.96 1663.22 540.93 1663.31 540.89 1663.41 540.87 1663.49 540.84 1663.57 540.82 1663.64 540.8 1663.7 540.72 1663.96 540.66 1664.25 540.6 1664.6 540.57 1664.82 540.55 1665.07 540.55 1665.19 540.55 1665.37 540.54 1665.5 540.52 1665.68 540.51 1665.8 540.5 1665.94 540.48 1666.09 540.46 1666.27 540.46 1666.33 540.44 1666.48 540.4 1666.63 540.35 1667.13 540.34 1667.38 540.34 1667.81 540.36 1668.16 540.41 1668.6 540.46 1668.93 540.53 1669.22 540.61 1669.46 540.65 1669.55 540.65 1669.72 540.63 1669.82 540.62 1669.89 540.61 1670.04 540.6 1670.23 540.58 1670.39 540.55 1670.54 540.54 1670.58 540.52 1670.63 540.48 1670.72 540.44 1670.8 540.39 1670.85 540.32 1670.95 540.23 1671.06 540.14 1671.17 540.09 1671.24 539.98 1671.36 539.42 1671.85 539.34 1671.92 539.26 1671.98 538.66 1672.44 538.47 1672.58 537.99 1673.04 537.63 1673.36 537.54 1673.43 537.46 1673.52 537.33 1673.67 537.28 1673.71 537.24 1673.76 537.18 1673.82 536.08 1674.94 535.71 1675.36 Z M 367.64 740.57 367.79 740.59 367.9 740.58 368.02 740.59 368.24 740.65 368.4 740.67 368.51 740.66 368.57 740.64 368.63 740.65 368.72 740.68 368.94 740.72 369.13 740.73 369.2 740.73 369.23 740.74 369.41 740.79 369.47 740.81 369.53 740.82 369.63 740.83 369.69 740.83 369.75 740.82 369.8 740.83 369.84 740.87 370.31 741.42 370.67 741.89 370.77 742.01 371.01 742.46 371.04 742.52 371.05 742.58 371.08 742.66 371.17 742.89 371.21 742.99 371.26 743.21 371.3 743.38 371.33 743.49 371.39 743.81 371.4 743.88 371.41 743.96 371.4 744.02 371.4 744.09 371.41 744.16 371.42 744.23 371.43 744.31 371.43 744.4 371.41 744.54 371.38 744.63 371.35 744.78 371.34 744.87 371.33 744.95 371.31 745.06 371.29 745.17 371.26 745.33 371.23 745.46 371.22 745.51 371.19 745.58 371.13 745.75 371.11 745.84 371.09 745.92 371.07 746.06 371.05 746.17 371.03 746.27 371 746.36 371 746.4 370.98 746.46 370.97 746.54 370.94 746.59 370.89 746.64 370.84 746.67 370.76 746.72 370.73 746.74 370.66 746.79 370.6 746.86 370.56 746.9 370.51 746.93 370.48 746.94 370.01 747.36 369.87 747.44 369.72 747.51 369.62 747.57 369.55 747.6 369.48 747.64 369.4 747.67 369.32 747.71 369.19 747.76 369.09 747.79 368.2 748.1 367.7 748.29 367.42 748.41 366.94 748.63 366.53 748.83 366.07 749.02 365.88 749.08 365.49 749.3 365.44 749.34 365.37 749.38 365.28 749.42 365.2 749.47 365.12 749.52 365.03 749.59 364.44 750.05 364.29 750.16 364.23 750.21 364.12 750.3 363.93 750.45 363.76 750.56 363.61 750.69 363.38 750.87 363.3 750.92 363.15 751.02 362.89 751.21 361.17 752.54 360.6 753.02 360.43 753.19 360.26 753.43 360.19 753.49 360.15 753.54 360.09 753.7 360.02 753.79 359.88 753.95 359.72 754.13 359.54 754.37 359.41 754.54 358.9 754.97 358.54 755.2 358.32 755.31 358.1 755.38 358 755.4 357.91 755.38 357.81 755.36 357.73 755.32 357.66 755.29 357.59 755.19 357.52 755.01 357.48 754.83 357.5 754.72 357.55 754.61 357.63 754.51 357.73 754.41 357.8 754.35 357.86 754.23 357.92 754.13 357.97 754.06 358.13 753.84 358.32 753.64 358.49 753.57 358.62 753.52 358.75 753.52 358.86 753.5 359.1 753.36 359.2 753.31 359.29 753.27 359.36 753.23 359.45 753.21 359.58 753.16 359.66 753.11 359.76 753.07 359.8 753.04 359.86 753.05 359.9 753.05 359.98 753.09 360.05 753.11 360.14 753.1 360.22 753.05 360.4 752.9 360.66 752.62 360.84 752.34 360.97 752.12 361.08 751.89 361.22 751.61 361.41 751.19 361.6 750.87 361.79 750.57 361.91 750.37 362 750.25 362.36 749.69 362.56 749.41 362.84 749 363.04 748.75 363.13 748.66 363.21 748.55 363.36 748.33 363.45 748.2 363.56 748.03 363.59 747.93 363.65 747.82 363.7 747.73 363.76 747.63 363.84 747.52 363.88 747.46 363.95 747.35 364.01 747.26 364.1 747.11 364.2 746.96 364.33 746.79 364.56 746.42 364.73 746.1 364.81 745.97 364.86 745.84 365.08 745.46 365.18 745.26 365.45 744.78 365.76 744.13 365.84 743.97 365.95 743.8 366 743.69 366.08 743.58 366.12 743.49 366.17 743.39 366.18 743.28 366.19 743.21 366.2 743.19 366.21 743.15 366.22 743.12 366.24 743.05 366.3 742.94 366.37 742.79 366.41 742.69 366.44 742.61 366.47 742.5 366.5 742.41 366.54 742.35 366.58 742.28 366.63 742.19 366.67 742.09 366.69 742.04 366.75 741.86 366.78 741.78 366.81 741.67 366.95 741.29 367.04 741.05 367.1 741 367.14 740.95 367.19 740.9 367.24 740.83 367.31 740.77 367.39 740.66 367.43 740.62 367.46 740.57 367.5 740.55 367.54 740.54 367.64 740.57 Z M 416.94 495.49 416.89 495.62 416.87 495.6 416.87 495.51 416.85 495.44 416.8 495.39 416.76 495.35 416.74 495.3 416.74 495.24 416.74 495.19 416.75 495.12 416.74 495.06 416.75 495.01 416.76 494.93 416.77 494.88 416.79 494.82 416.81 494.71 416.82 494.56 416.84 494.42 416.86 494.35 416.85 494.29 416.86 494.26 416.87 494.2 416.89 494.06 416.9 493.99 416.93 493.94 416.93 493.87 416.94 493.83 416.95 493.76 416.97 493.67 416.99 493.56 417.01 493.47 417.02 493.35 417.04 493.23 417.06 493.1 417.08 493 417.08 492.92 417.1 492.87 417.12 492.77 417.14 492.66 417.14 492.57 417.12 492.52 417.12 492.47 417.13 492.43 417.13 492.37 417.14 492.32 417.15 492.28 417.2 492.01 417.23 491.64 417.3 491.24 417.4 490.87 417.58 490.34 417.6 490.2 417.67 489.99 417.77 489.67 417.84 489.54 417.97 489.18 417.98 489.08 418.02 488.96 418.09 488.78 418.13 488.63 418.15 488.56 418.22 488.44 418.35 488.13 418.64 487.35 418.68 487.24 418.73 487.16 418.79 486.88 418.88 486.58 419.09 485.92 419.33 485.28 419.49 484.89 419.72 484.26 419.78 484.06 419.85 483.87 419.92 483.63 419.96 483.51 420.03 483.36 420.07 483.19 420.11 483.1 420.16 483.02 420.19 482.9 420.25 482.76 420.32 482.58 420.5 482.08 420.63 481.78 420.72 481.5 420.82 481.2 420.89 481.07 420.96 480.79 421.04 480.56 421.13 480.31 421.21 480.12 421.24 480.07 421.27 480.04 421.32 479.92 421.4 479.68 421.5 479.37 421.56 479.17 421.62 478.93 421.73 478.61 421.86 478.26 421.94 478.02 421.99 477.81 422.03 477.68 422.06 477.61 422.12 477.53 422.1 477.47 422.11 477.42 422.12 477.38 422.14 477.33 422.17 477.25 422.18 477.17 422.21 477.07 422.21 476.99 422.25 476.9 422.28 476.74 422.33 476.6 422.4 476.37 422.47 476.11 422.53 475.9 422.59 475.63 422.65 475.38 422.74 475.03 422.82 474.75 422.85 474.65 422.85 474.55 422.92 474.28 422.97 474.09 422.99 473.95 423.02 473.84 423.06 473.65 423.12 473.45 423.18 473.17 423.26 472.92 423.31 472.69 423.38 472.46 423.47 472.16 423.51 472.01 423.56 471.9 423.63 471.7 423.71 471.42 423.79 471.16 424.05 470.47 424.1 470.33 424.16 470.21 424.24 470.06 424.36 469.76 424.45 469.6 424.77 468.91 425.09 468.18 425.42 467.47 425.5 467.3 425.58 467.14 425.66 466.97 425.83 466.61 425.98 466.25 426.13 465.94 426.35 465.42 426.47 465.23 426.59 465.05 426.71 464.88 426.81 464.74 426.91 464.61 427.04 464.53 427.09 464.45 427.15 464.41 427.3 464.36 427.49 464.31 427.65 464.25 427.7 464.18 427.74 464.13 427.85 464.13 427.96 464.11 428.07 464.04 428.12 463.99 428.18 463.93 428.21 463.91 428.26 463.91 428.28 463.96 428.31 464.04 428.35 464.11 428.36 464.26 428.34 464.45 428.32 464.73 428.31 464.89 428.26 465.05 428.22 465.24 428.2 465.4 428.15 465.6 428.12 465.75 428.05 465.9 427.96 466.1 427.9 466.31 427.76 466.55 427.64 466.71 427.54 467 427.52 467.2 427.47 467.35 427.36 467.47 427.02 468.25 426.97 468.44 426.86 468.68 426.75 468.94 426.63 469.27 426.55 469.42 426.5 469.59 426.42 469.75 426.33 469.97 426.24 470.23 426.15 470.5 426.04 470.7 425.96 470.83 425.9 470.96 425.78 471.28 425.64 471.68 425.55 471.92 425.48 472.16 425.42 472.39 425.3 472.7 425.14 473.17 425.07 473.39 425.02 473.59 424.99 473.76 424.95 473.98 424.85 474.29 424.83 474.5 424.75 474.65 424.67 474.92 424.52 475.44 424.4 475.85 424.37 476.02 424.32 476.17 424.25 476.38 424.2 476.53 424.16 476.73 424.03 477.08 423.9 477.53 423.8 477.98 423.82 478.07 423.83 478.11 423.78 478.16 423.74 478.22 423.7 478.38 423.63 478.64 423.52 478.99 423.41 479.49 423.38 479.65 423.33 479.93 423.28 480.11 423.22 480.27 423.21 480.38 423.14 480.7 423.04 480.9 422.99 481.16 422.93 481.33 422.81 481.6 422.61 481.91 422.46 482.21 422.37 482.34 422.14 482.72 421.99 482.94 421.83 483.13 421.65 483.3 421.4 483.64 421.14 483.97 421.01 484.2 420.84 484.4 420.63 484.67 420.32 485.09 420.24 485.28 420.12 485.5 419.86 485.9 419.59 486.49 419.55 486.71 419.39 487.16 419.22 487.54 419.09 487.95 419.03 488.21 418.95 488.43 418.81 488.8 418.65 489.36 418.61 489.6 418.49 489.87 418.37 490.13 418.26 490.33 418.22 490.46 418.21 490.56 418.16 490.81 418.1 490.89 418.05 490.91 418.02 491 417.98 491.13 417.96 491.27 417.9 491.52 417.77 491.8 417.69 492 417.64 492.12 417.61 492.4 417.57 492.57 417.58 492.86 417.61 493.04 417.62 493.17 417.59 493.36 417.52 493.7 417.44 494.01 417.41 494.21 417.38 494.35 417.33 494.59 417.29 494.75 417.24 494.89 417.17 494.97 417.14 495.09 417.09 495.19 417.04 495.29 417 495.4 416.94 495.49 Z M 190.67 618.65 190.79 618.66 190.99 618.63 191.15 618.62 191.3 618.63 191.43 618.71 191.51 618.84 191.55 618.99 191.6 619.09 191.56 619.25 191.44 619.61 191.23 620.09 191.06 620.46 190.81 620.96 190.61 621.39 190.41 621.88 190.27 622.19 190.08 622.48 189.8 622.88 189.52 623.38 189.49 623.48 189.4 623.6 189.36 623.74 189.35 623.83 189.3 623.91 189.25 623.94 189.21 624.01 189.14 624.07 189.08 624.09 189.03 624.16 188.71 624.75 188.66 624.85 188.52 625.06 188.31 625.38 188.32 625.43 188.33 625.45 188.33 625.53 188.33 625.6 188.22 625.62 188.14 625.63 188.1 625.67 188 625.83 187.62 626.41 187.38 626.72 186.93 627.36 186.4 628.11 185.87 628.9 185.52 629.47 185.04 630.19 184.63 630.82 184.6 630.89 184.58 630.96 184.51 631.1 184.35 631.43 183.97 632 183.75 632.52 183.39 633.04 182.82 634.2 182.54 634.61 182.19 635.32 181.7 636.25 181.61 636.56 181.55 636.76 181.5 636.96 181.4 637.22 181.13 637.85 181.03 638.12 180.86 638.36 180.68 638.62 180.55 638.81 180.46 638.93 180.33 639.07 180.03 639.55 179.78 639.89 179.59 640.22 179.45 640.45 179.24 640.67 178.88 641.06 178.68 641.4 178.3 641.86 178.1 642.1 178.01 642.26 177.7 642.73 177.52 643.02 177.39 643.17 177.25 643.31 177.18 643.38 177.12 643.47 177.08 643.48 177.03 643.51 176.97 643.47 176.96 643.41 176.95 643.32 177.09 642.92 177.15 642.8 177.25 642.49 177.34 642.33 177.46 642.14 177.67 641.9 177.87 641.66 178.16 641.26 178.33 641.02 178.57 640.66 178.72 640.36 178.89 640.05 179.14 639.65 179.35 639.29 179.75 638.71 180.08 638.15 180.28 637.82 180.38 637.69 180.44 637.58 180.5 637.46 180.57 637.32 180.64 637.22 180.71 637.09 180.79 636.96 180.9 636.72 180.98 636.56 181.08 636.38 181.19 636.21 181.25 636.09 181.31 636.01 181.37 635.95 181.62 635.49 181.72 635.3 181.98 634.56 182.16 634.25 182.34 633.87 182.45 633.7 182.6 633.42 183.08 632.63 183.25 632.27 183.29 632.17 183.32 632.12 183.4 631.96 183.45 631.87 183.49 631.8 183.51 631.69 183.57 631.61 183.86 631.21 183.95 630.98 184.03 630.72 184.11 630.56 184.21 630.35 184.24 630.22 184.27 630.16 184.31 630.08 184.37 629.96 184.41 629.75 184.48 629.51 184.51 629.33 184.57 629.06 184.63 628.72 184.71 628.33 184.75 628.13 184.82 627.85 184.88 627.63 184.88 627.53 184.9 627.39 184.97 627.01 184.98 626.94 185.01 626.84 185.03 626.77 185.08 626.61 185.16 626.32 185.21 626.04 185.24 625.83 185.23 625.74 185.25 625.58 185.29 625.19 185.36 624.98 185.44 624.75 185.52 624.58 185.69 624.13 185.8 623.82 185.88 623.51 185.97 623.19 186.01 622.95 186.2 622.56 186.38 622.22 186.56 621.75 186.68 621.48 186.76 621.33 186.94 621.11 187.2 620.79 187.4 620.56 187.69 620.18 188.03 619.78 188.26 619.56 188.56 619.26 188.92 618.89 189.22 618.62 189.32 618.51 189.43 618.43 189.55 618.34 189.65 618.33 189.69 618.35 189.78 618.41 189.94 618.48 190.2 618.57 190.39 618.61 190.67 618.65 Z M 242.64 923.07 242.55 923.79 242.57 924.36 242.55 925.14 242.64 925.95 242.9 927.25 243.2 928.53 243.53 929.35 244.01 930.31 244.45 931.31 244.79 932.19 245.15 932.96 245.21 933.73 245.07 934.57 244.71 935.3 244.05 936.23 243.39 938.16 243.32 939.79 243.08 941.47 242.67 941.96 241.72 942.04 240.84 941.94 240.49 941.48 240.43 940.83 240.74 939.45 241.2 937.99 241.54 937.1 242.03 936.27 243.14 934.8 243.5 933.47 243.4 932.43 243.18 931.8 242.8 931.14 242.43 930.65 242.39 929.52 242.22 928.55 242.11 927.95 241.89 927.19 241.66 926.59 241.54 925.82 241.71 925.41 241.78 924.99 241.89 924.71 241.92 924.35 241.78 924.02 241.58 923.6 241.29 923.55 240.91 923.72 240.54 923.73 240.23 923.57 240.04 923.01 240.05 922.34 240.07 921.69 240.04 921.12 240.04 920.7 239.91 920.38 239.68 920.21 239.56 919.76 239.58 919.56 239.71 919.42 240.3 919.42 240.79 919.43 241.22 919.83 241.55 920.59 241.66 921.11 241.89 921.56 242.3 921.83 242.55 922.43 242.64 923.07 Z M 399.7 523.27 399.67 523.31 399.58 523.3 399.53 523.28 399.5 523.23 399.48 523.2 399.42 523.1 399.36 523.03 399.2 522.92 399.08 522.83 398.96 522.7 398.84 522.55 398.73 522.42 398.61 522.27 398.45 521.97 398.34 521.73 398.3 521.39 398.26 521.08 398.26 520.81 398.26 520.61 398.25 520.41 398.27 520.18 398.3 519.91 398.31 519.7 398.34 519.46 398.36 519.26 398.4 519.02 398.68 518.45 398.76 518.35 398.84 518.25 398.91 518.06 398.99 517.79 399.03 517.65 399.14 517.44 399.2 517.35 399.39 517.14 399.52 516.99 399.83 516.71 400.26 516.36 400.87 515.89 401.62 515.41 402.36 514.95 402.87 514.57 403.3 514.28 403.47 514.19 403.68 514.11 404.12 514.07 404.44 514.09 404.73 514.14 404.85 514.16 405.03 514.2 405.17 514.26 405.24 514.36 405.28 514.47 405.35 514.72 405.39 514.93 405.39 515.11 405.38 515.28 405.34 515.56 405.21 515.91 405.04 516.37 404.95 516.59 404.91 516.73 404.88 516.81 404.85 516.88 404.81 516.96 404.8 517.01 404.69 517.25 404.58 517.47 404.47 517.72 404.36 517.99 404.26 518.18 403.78 519.05 403.46 519.55 403.34 519.72 403.26 519.85 403.2 519.96 403.1 520.08 402.95 520.26 402.89 520.36 402.85 520.42 402.82 520.5 402.75 520.61 402.56 520.84 402.33 521.04 402.13 521.22 401.96 521.39 401.67 521.65 401.34 521.91 401.19 522.03 401.04 522.19 400.82 522.42 400.58 522.63 400.16 522.91 399.94 523.06 399.81 523.17 399.75 523.23 399.7 523.27 Z M 515.83 368.97 516.13 369.37 516.35 369.71 516.55 370.07 516.8 370.54 517.05 371.09 517.2 371.5 517.25 371.82 517.26 372.04 517.26 372.25 517.25 372.49 517.26 373.17 517.26 373.52 517.27 373.74 517.3 373.95 517.36 374.24 517.42 374.72 517.44 374.99 517.47 375.2 517.53 375.48 517.6 375.71 517.67 375.94 517.74 376.18 517.8 376.42 517.87 376.73 517.91 376.95 517.98 377.16 518.04 377.37 518.04 377.52 518 377.73 517.98 377.8 517.88 377.96 517.78 378.1 517.69 378.21 517.52 378.34 517.32 378.47 517.13 378.62 516.83 378.8 516.65 378.9 516.52 378.94 516.43 378.91 516.35 378.89 516.26 378.84 516.18 378.77 516.1 378.63 516.08 378.47 516.08 378.43 516.08 378.33 516.12 378.22 516.19 378.05 516.39 377.88 516.48 377.81 516.5 377.74 516.51 377.65 516.5 377.46 516.45 377.29 516.4 377.13 516.32 377.04 516.22 376.9 516.13 376.64 516 376.41 515.89 376.19 515.74 375.86 515.64 375.51 515.61 375.41 515.58 375.31 515.5 375.07 515.39 374.61 515.25 374.22 515.17 374.09 515.09 374 515.04 373.89 514.99 373.77 514.92 373.56 514.91 373.49 514.93 373.41 515 373.12 515 372.95 515 372.77 514.98 372.59 514.97 372.3 514.95 372.1 514.93 371.97 514.89 371.88 514.87 371.77 514.86 371.66 514.85 371.58 514.84 371.52 514.79 371.41 514.73 371.28 514.68 371.14 514.59 370.7 514.51 370.33 514.46 370.1 514.31 369.67 514.12 369.3 514.03 369.19 513.98 369.16 513.94 369.12 513.86 369.12 513.77 369.12 513.68 369.13 513.54 369.14 513.42 369.13 513.31 369.11 513.22 369.04 513.06 368.9 513.03 368.82 512.99 368.71 512.9 368.37 512.87 368.25 512.84 368.15 512.76 368.02 512.7 367.96 512.6 367.88 512.52 367.82 512.48 367.78 512.46 367.7 512.45 367.64 512.44 367.57 512.45 367.51 512.5 367.44 512.58 367.35 512.72 367.27 512.98 367.18 513.34 367.11 513.65 367.07 513.93 367.06 514.18 367.15 514.37 367.24 514.55 367.36 514.84 367.65 515.07 367.96 515.33 368.32 515.52 368.59 515.83 368.97 Z M 4.6 183.28 3.77 183.31 3.26 182.97 2.37 182.6 1.77 182.07 1.06 180.81 1 180.2 1.17 179.6 1.58 179.22 2.15 178.92 3.29 178.94 4.74 179.22 6.6 180.13 7.24 180.89 7.49 181.52 7.58 182.32 6.97 182.75 5.81 183.12 4.6 183.28 Z M 397.7 282.77 397.72 282.82 397.73 282.91 397.81 283.09 397.84 283.16 397.87 283.2 397.91 283.23 397.96 283.28 397.99 283.38 398.03 283.49 398.07 283.52 398.15 283.62 398.2 283.76 398.24 283.97 398.29 284.18 398.37 284.69 398.4 284.86 398.45 285.13 398.51 285.88 398.56 286.12 398.59 286.53 398.55 287.02 398.45 287.44 398.32 287.79 398.07 288.36 397.95 288.65 397.82 288.81 397.5 289.22 397.28 289.5 396.82 290.06 396.01 291.19 395.73 291.56 395.66 291.68 395.62 291.82 395.37 292.1 394.95 292.44 394.84 292.47 394.74 292.47 394.57 292.48 394.48 292.48 394.31 292.49 394.14 292.48 393.99 292.46 393.86 292.43 393.76 292.4 393.67 292.34 393.59 292.29 393.53 292.23 393.52 292.14 393.53 292.04 393.62 291.88 393.69 291.71 393.72 291.65 393.74 291.57 393.76 291.51 393.8 291.46 393.83 291.43 393.84 291.4 393.88 291.39 393.93 291.38 393.96 291.38 394.01 291.38 394.05 291.39 394.11 291.39 394.15 291.38 394.2 291.37 394.24 291.34 394.28 291.3 394.31 291.28 394.33 291.25 394.36 291.23 394.4 291.21 394.44 291.19 394.51 291.15 394.6 291.04 394.71 290.87 394.87 290.67 394.96 290.54 395 290.49 395.04 290.42 395.05 290.35 395.06 290.3 395.06 290.26 395.07 290.21 395.08 290.17 395.11 290.13 395.12 290.09 395.14 290.05 395.15 290 395.15 289.94 395.15 289.91 395.18 289.77 395.21 289.68 395.25 289.59 395.28 289.53 395.29 289.49 395.31 289.46 395.33 289.43 395.33 289.38 395.33 289.35 395.33 289.29 395.35 289.14 395.36 289.01 395.36 288.88 395.38 288.75 395.41 288.64 395.48 288.48 395.57 288.28 395.66 288.1 395.76 287.91 395.87 287.71 395.93 287.61 395.94 287.57 395.98 287.5 396 287.44 396.03 287.37 396.04 287.3 396.06 287.24 396.2 287.05 396.38 286.74 396.48 286.55 396.53 286.49 396.56 286.44 396.57 286.42 396.59 286.4 396.6 286.36 396.61 286.3 396.63 286.22 396.7 285.99 396.76 285.84 396.78 285.75 396.79 285.59 396.85 285.38 396.89 285.1 396.91 284.98 396.95 284.87 396.98 284.79 397.04 284.68 397.09 284.59 397.13 284.48 397.17 284.37 397.2 284.29 397.28 284.17 397.35 284.12 397.43 284.07 397.52 284.01 397.61 283.94 397.64 283.9 397.67 283.86 397.69 283.77 397.69 283.72 397.7 283.67 397.73 283.65 397.78 283.64 397.82 283.62 397.85 283.59 397.85 283.54 397.85 283.51 397.86 283.46 397.84 283.43 397.8 283.4 397.76 283.39 397.74 283.38 397.73 283.35 397.74 283.31 397.79 283.29 397.81 283.26 397.77 283.18 397.61 282.89 397.55 282.82 397.48 282.79 397.42 282.79 397.39 282.77 397.36 282.73 397.36 282.68 397.37 282.62 397.37 282.57 397.39 282.51 397.41 282.48 397.45 282.48 397.49 282.54 397.55 282.66 397.61 282.71 397.65 282.74 397.7 282.77 Z M 224.75 591 225.04 591.04 225.4 591.03 225.51 591.04 225.6 591.04 225.68 591.05 225.73 591.08 225.72 591.12 225.67 591.14 225.63 591.13 225.59 591.13 225.53 591.13 225.38 591.13 225.32 591.13 225.25 591.15 225.2 591.19 225.15 591.22 225.09 591.26 225.02 591.34 224.91 591.46 224.8 591.61 224.72 591.75 224.66 591.92 224.65 592.02 224.66 592.14 224.66 592.22 224.7 592.29 224.77 592.42 224.87 592.58 224.96 592.78 225.06 592.97 225.11 593.16 225.16 593.26 225.18 593.37 225.19 593.42 225.19 593.46 225.21 593.52 225.26 593.61 225.31 593.77 225.35 593.88 225.44 594.03 225.48 594.1 225.52 594.17 225.56 594.22 225.59 594.32 225.6 594.42 225.6 594.48 225.65 594.57 225.66 594.7 225.68 594.77 225.71 594.84 225.62 594.98 225.5 595.07 225.36 595.16 225.25 595.2 225.15 595.23 225.02 595.27 224.83 595.31 224.69 595.33 224.56 595.36 224.18 595.38 223.96 595.39 223.86 595.38 223.73 595.35 223.58 595.3 223.42 595.26 223.24 595.08 223.17 595.04 223.14 594.97 223.01 594.76 223.02 594.57 222.99 594.32 223.05 594.07 223.11 593.7 223.19 593.32 223.3 592.97 223.49 592.15 223.6 591.74 223.65 591.58 223.73 591.4 223.87 591.14 224.14 590.97 224.44 590.87 224.48 590.84 224.55 590.92 224.75 591 Z M 235.37 592.34 235.17 592.37 235.05 592.27 234.93 592.09 234.87 591.94 234.88 591.68 234.92 591.37 234.91 591.12 234.93 590.89 234.97 590.67 235.02 590.53 235.14 590.3 235.32 590.06 235.43 589.9 235.47 589.87 235.52 589.84 235.59 589.81 235.65 589.81 235.7 589.81 235.91 589.79 236.22 589.76 236.56 589.73 236.9 589.65 237.11 589.58 237.28 589.54 237.71 589.39 238.42 589.16 239.17 588.77 239.52 588.49 239.74 588.17 239.83 587.99 240.03 587.68 240.19 587.53 240.24 587.53 240.27 587.55 240.27 587.58 240.18 587.68 239.87 588.14 239.66 588.4 239.36 588.81 239.19 589.04 239.05 589.24 238.88 589.5 238.51 589.87 238.24 590.13 237.92 590.43 237.71 590.64 237.48 590.88 237.04 591.28 236.78 591.51 236.41 591.81 236.11 592 235.69 592.21 235.37 592.34 Z M 206.76 971.22 206.77 971.43 206.77 971.6 206.86 971.95 206.82 972.1 206.77 972.22 206.61 972.34 206.35 972.48 205.94 972.48 205.34 972.48 204.71 972.42 204.33 972.36 203.9 972.21 203.53 972.11 203.13 971.89 202.87 971.65 202.74 971.48 202.72 971.42 202.84 971.26 202.92 971.24 203.08 971.22 203.27 971.26 203.43 971.34 203.63 971.37 203.88 971.34 204.01 971.22 204.11 971.06 204.16 970.9 204.2 970.76 204.37 970.66 204.78 970.51 205.09 970.44 205.56 970.39 205.95 970.39 206.27 970.4 206.48 970.51 206.58 970.59 206.68 970.8 206.72 970.96 206.76 971.22 Z M 222.97 959.39 222.45 959.57 222.13 959.43 222.06 959.13 222.09 958.75 222.52 957.99 223.14 957.35 223.54 956.72 224.07 956.2 224.48 955.69 225.1 955.06 225.78 954.45 226.14 954.31 226.35 954.22 226.55 954.15 226.69 954.2 226.7 954.3 226.55 954.41 226.26 954.51 225.62 954.97 225.01 955.59 224.55 956.61 224.37 957.26 224.25 958.08 223.68 958.94 222.97 959.39 Z M 184.61 327.35 183.97 327.4 183.01 327.02 182.69 326.69 182.43 325.81 182.65 325.2 183.44 325.3 184.23 325.72 184.69 326.59 184.61 327.35 Z M 175.87 645.2 175.74 645.23 175.65 645.24 175.54 645.24 175.46 645.24 175.38 645.24 175.27 645.23 175.14 645.22 175.05 645.22 174.99 645.22 174.9 645.22 174.84 645.22 174.78 645.22 174.75 645.23 174.7 645.22 174.67 645.22 174.65 645.21 174.64 645.19 174.63 645.15 174.63 645.12 174.66 645.1 174.7 645.09 174.75 645.07 174.79 645.04 174.8 645 174.81 644.96 174.83 644.92 174.85 644.87 174.88 644.84 174.9 644.81 174.93 644.77 174.96 644.73 175.01 644.67 175.04 644.64 175.08 644.61 175.15 644.56 175.22 644.53 175.29 644.5 175.4 644.46 175.55 644.39 175.61 644.36 175.66 644.33 175.8 644.29 175.86 644.27 175.94 644.23 175.98 644.2 176.03 644.17 176.09 644.12 176.12 644.1 176.17 644.07 176.2 644.06 176.22 644.06 176.26 644.06 176.32 644.07 176.35 644.11 176.39 644.12 176.43 644.15 176.46 644.18 176.47 644.2 176.47 644.23 176.44 644.28 176.38 644.29 176.32 644.29 176.28 644.29 176.25 644.31 176.22 644.34 176.2 644.38 176.16 644.4 176.13 644.4 176.11 644.42 176.09 644.47 176.09 644.5 176.08 644.52 176.07 644.56 176.07 644.58 176.07 644.64 176.08 644.67 176.09 644.71 176.1 644.75 176.16 644.83 176.2 644.85 176.31 644.91 176.39 644.94 176.43 644.98 176.44 645 176.47 645.05 176.48 645.1 176.45 645.14 176.43 645.15 176.41 645.17 176.37 645.18 176.32 645.19 176.26 645.2 176.21 645.2 176.16 645.2 176.11 645.2 176.04 645.2 175.98 645.2 175.94 645.2 175.87 645.2 Z M 243.04 586.99 243.03 587.02 243.01 587.06 242.98 587.08 242.95 587.08 242.93 587.04 242.89 587.03 242.84 587.03 242.81 587.01 242.78 587.01 242.75 587 242.71 587 242.64 587 242.56 587 242.53 586.96 242.49 586.93 242.46 586.88 242.46 586.83 242.52 586.82 242.56 586.81 242.59 586.75 242.6 586.7 242.61 586.62 242.61 586.37 242.61 586.21 242.6 586.09 242.58 586 242.54 585.91 242.51 585.87 242.46 585.83 242.38 585.79 242.31 585.74 242.3 585.71 242.31 585.68 242.38 585.68 242.45 585.7 242.52 585.73 242.58 585.76 242.61 585.78 242.66 585.83 242.71 585.87 242.82 585.97 242.95 586.13 243.01 586.22 243.12 586.35 243.18 586.47 243.22 586.6 243.22 586.75 243.22 586.84 243.2 586.9 243.17 586.93 243.14 586.94 243.08 586.95 243.05 586.97 243.04 586.99 Z M 242.72 587.84 242.75 587.86 242.75 587.84 242.78 587.81 242.82 587.83 242.81 587.87 242.82 587.9 242.82 587.94 242.82 588 242.78 588.09 242.72 588.17 242.67 588.23 242.62 588.29 242.55 588.31 242.49 588.3 242.48 588.28 242.5 588.24 242.52 588.18 242.54 588.17 242.51 588.1 242.48 588.04 242.49 587.99 242.46 587.97 242.43 587.97 242.4 587.95 242.41 587.88 242.46 587.81 242.53 587.76 242.59 587.74 242.63 587.72 242.67 587.71 242.69 587.74 242.69 587.79 242.72 587.84 Z" fill-rule="evenodd" id="Lakshadweep"/>
</g>
</svg>