<?xml version="1.0"?>
<svg xmlns="http://www.w3.org/2000/svg" version="1.2" baseProfile="tiny" width="800" height="699" viewBox="0 0 800 699" stroke-linecap="round" stroke-linejoin="round">
<g id="Pondicherry">
<path d="M 797.91 5.28 797.88 7.07 797.69 6.92 796 6.25 795.77 6.16 794.79 5.76 794.51 5.65 794.48 5.64 794.04 5.46 792.9 5.35 793.17 5.93 793.26 6.12 793.78 7.23 793.84 7.35 794.7 9.18 794.71 9.22 795.78 11.51 796.12 11.9 796.19 11.97 796.25 12.04 796.3 12.1 796.56 12.96 796.59 13.07 796.6 13.09 796.52 13.17 796.42 13.29 796.1 13.41 795.2 13.8 795.13 14.18 795.17 14.64 795.19 14.77 795.4 15.2 795.88 16.07 795.94 16.18 796.04 16.41 796.23 16.85 796.5 17.49 797.03 18.68 797.41 19.15 797.63 19.21 797.76 19.2 797.98 19.08 798.22 18.81 798.24 18.79 798.41 18.31 798.47 18.08 798.83 18.41 798.84 18.45 798.85 18.59 798.85 18.76 798.87 19.07 798.99 20 799 20.46 798.7 20.2 797.53 20.19 796.93 20.08 796.86 20.07 796.65 19.91 796.41 19.32 796.18 18.77 795.8 18 795.16 16.51 795.11 16.41 794.57 15.24 793.38 14.34 792.98 14.16 792.89 14.12 792.92 14.09 792.92 14.08 793.08 13.81 793.08 13.81 793.11 13.76 793.12 13.75 793.34 13.78 793.84 13.84 792.68 10.85 791.95 9.55 790.36 6.68 790.24 6.47 789.51 5.2 789.01 4.31 787.32 4.19 787.16 4.18 787.25 4.11 787.56 3.84 787.59 3.82 787.81 3.64 787.85 3.61 787.87 3.59 787.89 3.57 787.93 3.54 787.96 3.51 788.11 3.38 788.18 3.32 788.32 3.21 788.47 3.07 788.67 2.9 789.51 2.4 789.52 2.39 789.75 2.26 790.09 2.13 790.88 1.82 791.93 1.49 792.18 1.48 792.26 1.43 792.44 1.32 792.95 1.08 793.45 1.04 793.84 1 794.09 1.01 794.28 1.02 794.31 1.02 794.53 1.04 794.7 1.2 794.71 1.37 794.67 1.53 794.65 1.55 794.41 1.78 794.11 2.03 793.45 2.57 793.19 2.78 792.88 2.97 792.74 3 792.86 3.05 793 3.14 793.16 3.24 793.27 3.3 793.42 3.39 793.52 3.42 793.59 3.42 793.69 3.4 793.82 3.34 794.05 3.26 794.16 3.25 794.24 3.24 794.47 3.13 794.72 3.04 794.89 2.95 794.94 2.92 795.01 2.87 795.17 2.65 795.36 2.45 795.51 2.34 795.55 2.32 795.65 2.26 795.77 2.18 795.88 2.12 796.01 1.99 796.07 1.93 796.12 1.94 796.19 1.95 796.28 1.96 796.34 1.97 796.37 1.97 796.81 2.04 796.97 2.07 797.01 2.07 797.61 2.17 797.81 2.2 797.83 2.21 797.83 2.25 798.04 3.21 798.05 3.27 798.1 3.61 798.11 3.7 798.1 3.85 798.02 4.38 797.91 5.28 Z" id="Yanam"/>
<path d="M 503.71 688.8 503.74 688.77 503.82 688.69 503.83 688.68 504.03 688.58 504.06 688.57 504.1 688.46 504.1 688.45 504.06 688.36 504.11 688.3 504.25 688.27 504.26 688.18 504.27 688.13 504.22 688.07 504.2 688.05 504.13 687.98 504.1 687.99 504.16 687.89 504.15 687.78 503.92 687.6 503.81 687.5 503.79 687.27 503.81 687.12 503.82 686.91 503.9 686.83 503.9 686.66 503.82 686.51 503.84 686.38 503.93 686.23 503.93 686.09 503.68 686.07 503.71 685.99 503.71 685.98 503.8 685.82 503.82 685.78 504.12 685.54 504.29 685.31 504.21 685.22 504.16 685.08 504.29 684.89 504.29 684.81 504.29 684.64 504.28 684.59 504.24 684.33 504.1 684.19 504.07 684.08 504.05 684.03 504.02 683.94 504.02 683.92 504.02 683.71 504.04 683.61 504.18 683.61 504.4 683.6 504.55 683.51 504.6 683.24 504.61 683.22 504.61 682.98 504.63 682.82 504.62 682.76 504.62 682.63 504.61 682.59 504.61 682.54 504.6 682.48 504.58 682.24 504.58 682.14 504.57 682.09 504.55 681.73 504.49 681.33 504.32 680.91 504.28 680.82 504.24 680.73 504.16 680.62 504.12 680.57 504.07 680.5 504.06 680.49 503.9 680.32 503.78 680.23 503.68 680.14 503.45 679.74 503.31 679.54 503.29 679.51 503.19 679.36 503.14 679.19 503.09 679.13 503.08 679.11 503.09 679.06 503.09 679.05 503.09 678.78 503.09 678.77 503.09 678.74 503.14 678.72 503.19 678.77 503.23 678.8 503.24 678.81 503.27 678.88 503.32 678.89 503.37 678.91 503.41 678.92 503.48 678.94 503.5 678.93 503.62 678.91 503.68 678.83 503.71 678.7 503.77 678.5 503.84 678.4 503.94 678.38 503.96 678.38 504.05 678.4 504.19 678.43 504.33 678.39 504.35 678.26 504.31 678.19 504.28 678.1 504.28 678.01 504.3 677.93 504.33 677.89 504.41 677.88 504.51 677.93 504.56 677.91 504.58 677.88 504.52 677.78 504.46 677.65 504.45 677.6 504.46 677.55 504.46 677.53 504.44 677.49 504.5 677.38 504.57 677.29 504.74 677.25 504.75 677.24 504.86 677.22 504.88 677.21 505.01 677.21 505.16 677.27 505.24 677.26 505.34 677.2 505.46 677.07 505.51 676.97 505.53 676.92 505.57 676.88 505.64 676.89 505.65 676.89 505.7 676.93 505.75 676.97 505.79 677.11 505.83 677.2 505.87 677.31 505.94 677.34 506.03 677.35 506.09 677.31 506.14 677.2 506.14 677.1 506.22 677.09 506.31 677.15 506.38 677.23 506.41 677.26 506.44 677.3 506.47 677.33 506.5 677.39 506.56 677.42 506.61 677.45 506.78 677.46 506.82 677.41 506.85 677.25 506.93 677.15 506.98 677.1 507.03 677.05 507.09 676.98 507.1 676.98 507.13 676.95 507.24 676.88 507.39 676.85 507.54 676.89 507.62 676.91 507.72 676.95 507.83 676.95 507.84 676.94 507.92 676.93 507.98 676.88 508 676.86 508.09 676.85 508.13 676.87 508.14 676.87 508.19 676.93 508.2 676.94 508.18 677 508.12 677.08 508.09 677.18 508.03 677.33 507.99 677.57 507.94 677.79 507.94 677.85 508 677.88 508.27 677.85 508.57 677.83 508.64 677.82 508.75 677.81 508.94 677.87 509 677.9 509.04 677.98 509.04 677.99 509.04 678.05 509.02 678.1 508.96 678.2 508.86 678.44 508.88 678.67 508.9 678.95 508.93 679.09 508.98 679.12 509.35 679.11 509.37 679.11 509.44 679.12 509.37 680.94 509.27 684.24 509.3 685.78 509.31 686.93 509.36 687.22 509.42 687.43 509.4 687.66 509.3 687.94 509.23 688.48 509.21 689.38 509.22 690.41 509.19 691.01 509.17 692.15 509.2 692.71 509.23 695.67 509.22 695.8 509.16 697.35 509.14 697.65 509.13 698 509.09 698 509.09 697.95 509.09 697.95 509.08 697.89 509.06 697.85 509.04 697.83 509.02 697.82 509.01 697.82 508.94 697.84 508.93 697.85 508.92 697.86 508.88 697.87 508.83 697.9 508.81 697.92 508.69 697.97 508.59 697.99 508.56 697.97 508.47 697.97 508.41 697.93 508.41 697.93 508.36 697.97 508.31 697.99 508.3 697.99 508.24 698 508.17 697.99 508.06 697.99 507.94 697.96 507.85 697.93 507.72 697.9 507.69 697.89 507.67 697.89 507.6 697.87 507.59 697.87 507.57 697.86 507.48 697.83 507.45 697.82 507.39 697.8 507.33 697.77 507.31 697.76 507.29 697.75 507.19 697.7 507.17 697.66 507.15 697.6 507.14 697.55 507.13 697.53 507.13 697.53 507.13 697.51 507.13 697.49 507.12 697.37 507.1 697.29 507.06 697.18 507.06 697.11 507.06 697.07 507.07 696.95 507.07 696.83 507.07 696.74 507.05 696.57 507.03 696.44 507.03 696.4 507 696.18 506.99 696.1 506.97 695.97 506.96 695.87 506.94 695.72 506.92 695.59 506.91 695.45 506.91 695.42 506.9 695.23 506.9 695.14 506.91 695.05 506.91 695.04 506.85 695.02 506.8 695.03 506.78 695.08 506.71 695.13 506.63 695.18 506.62 695.19 506.46 695.25 506.29 695.3 506.25 695.31 506.19 695.3 506.14 695.31 506.12 695.32 506.08 695.34 506.05 695.32 506.02 695.27 506.01 695.24 506 695.2 505.99 695.18 505.99 695.16 505.97 695.05 505.92 694.99 505.88 694.94 505.83 694.91 505.77 694.88 505.7 694.85 505.61 694.82 505.55 694.79 505.47 694.75 505.39 694.71 505.37 694.7 505.25 694.6 505.18 694.53 505.08 694.42 504.99 694.33 504.89 694.28 504.86 694.23 504.85 694.15 504.84 694.09 504.84 694.08 504.84 694.01 504.84 693.93 504.83 693.86 504.82 693.77 504.8 693.68 504.79 693.67 504.78 693.59 504.77 693.56 504.76 693.52 504.74 693.46 504.73 693.4 504.72 693.28 504.72 693.2 504.73 693.19 504.76 693.08 504.8 693.04 504.85 693 504.9 692.98 504.94 692.98 504.98 692.99 505.02 693.03 505.04 693.1 505.06 693.18 505.05 693.22 505.05 693.27 505.07 693.33 505.09 693.38 505.13 693.44 505.18 693.49 505.22 693.53 505.27 693.56 505.3 693.57 505.31 693.57 505.36 693.57 505.43 693.56 505.46 693.55 505.55 693.54 505.57 693.54 505.6 693.54 505.65 693.53 505.69 693.51 505.7 693.5 505.72 693.48 505.76 693.43 505.77 693.43 505.81 693.39 505.85 693.38 505.9 693.38 505.96 693.39 506.05 693.4 506.08 693.4 506.15 693.41 506.22 693.39 506.26 693.39 506.29 693.39 506.33 693.38 506.41 693.37 506.47 693.35 506.48 693.35 506.57 693.33 506.6 693.32 506.63 693.31 506.67 693.29 506.69 693.25 506.71 693.2 506.71 693.15 506.73 693.1 506.73 693.02 506.71 692.96 506.7 692.93 506.68 692.89 506.66 692.84 506.65 692.82 506.62 692.76 506.59 692.69 506.59 692.69 506.56 692.62 506.56 692.6 506.56 692.56 506.56 692.54 506.55 692.49 506.54 692.45 506.51 692.42 506.48 692.41 506.45 692.4 506.44 692.39 506.4 692.37 506.37 692.35 506.33 692.32 506.31 692.3 506.3 692.29 506.26 692.27 506.19 692.26 506.18 692.26 506.13 692.25 506.09 692.24 506 692.22 505.85 692.14 505.74 692.1 505.62 692.08 505.55 692.07 505.5 692.06 505.42 692.01 505.42 692 505.38 691.97 505.36 691.91 505.35 691.84 505.36 691.75 505.37 691.67 505.39 691.6 505.42 691.54 505.45 691.51 505.49 691.5 505.54 691.5 505.6 691.52 505.65 691.54 505.7 691.56 505.79 691.57 505.85 691.58 505.92 691.58 505.97 691.58 506.03 691.59 506.08 691.6 506.14 691.61 506.23 691.63 506.32 691.64 506.4 691.64 506.51 691.64 506.53 691.65 506.57 691.65 506.62 691.66 506.66 691.67 506.72 691.69 506.82 691.71 506.88 691.73 506.94 691.74 506.99 691.72 507.06 691.71 507.16 691.71 507.21 691.7 507.23 691.69 507.25 691.68 507.3 691.61 507.3 691.58 507.28 691.53 507.22 691.49 507.16 691.45 507.06 691.4 506.96 691.34 506.96 691.34 506.95 691.33 506.92 691.29 506.9 691.27 506.81 691.28 506.75 691.26 506.7 691.21 506.62 691.15 506.48 691.16 506.45 691.16 506.43 691.14 506.4 691.13 506.31 691.04 506.2 690.99 506.05 690.91 505.93 690.91 505.89 690.89 505.82 690.85 505.64 690.78 505.53 690.73 505.39 690.69 505.2 690.64 505.09 690.63 505 690.6 504.92 690.56 504.86 690.52 504.8 690.44 504.77 690.39 504.76 690.37 504.73 690.32 504.69 690.27 504.64 690.24 504.61 690.22 504.57 690.22 504.54 690.24 504.51 690.26 504.46 690.29 504.43 690.3 504.35 690.3 504.3 690.29 504.26 690.3 504.23 690.31 504.2 690.34 504.18 690.37 504.15 690.4 504.13 690.45 504.13 690.48 504.13 690.51 504.13 690.54 504.12 690.55 504.08 690.56 504.06 690.57 504.04 690.58 504.03 690.57 503.98 690.54 503.93 690.52 503.91 690.51 503.84 690.5 503.75 690.47 503.68 690.44 503.64 690.4 503.62 690.37 503.62 690.35 503.61 690.27 503.6 690.22 503.56 690.16 503.5 690.12 503.45 690.09 503.4 690.04 503.37 689.97 503.33 689.9 503.31 689.86 503.29 689.83 503.25 689.78 503.21 689.76 503.17 689.76 503.14 689.78 503.12 689.83 503.12 689.83 503.1 689.93 503.07 690 503.02 690.04 502.96 690.06 502.9 690.06 502.77 690.05 502.68 690.06 502.62 690.07 502.53 690.08 502.5 690.07 502.43 690.07 502.27 690.06 502.2 690.06 502.15 690.06 502.14 690.05 502.14 689.99 502.15 689.9 502.15 689.82 502.14 689.74 502.13 689.68 502.13 689.62 502.14 689.57 502.17 689.56 502.22 689.53 502.25 689.51 502.32 689.52 502.39 689.54 502.45 689.57 502.5 689.6 502.59 689.62 502.61 689.63 502.65 689.64 502.73 689.66 502.8 689.66 502.83 689.64 502.87 689.61 502.89 689.56 502.89 689.52 502.89 689.5 502.91 689.43 502.95 689.39 502.99 689.38 503.01 689.38 503.07 689.39 503.13 689.4 503.22 689.43 503.26 689.46 503.29 689.47 503.33 689.47 503.34 689.43 503.33 689.39 503.31 689.33 503.31 689.29 503.32 689.27 503.38 689.26 503.46 689.24 503.48 689.21 503.46 689.17 503.41 689.11 503.36 689.05 503.35 689 503.34 688.98 503.32 688.94 503.31 688.91 503.3 688.85 503.3 688.85 503.32 688.82 503.36 688.8 503.38 688.8 503.4 688.79 503.46 688.8 503.51 688.81 503.55 688.84 503.6 688.85 503.68 688.86 503.71 688.84 503.71 688.8 Z" id="Karaikal"/>
<path d="M 498.68 560.19 498.47 560.26 498.32 560.42 498.1 560.69 497.85 561.03 497.44 561.09 497.21 561.15 497.11 561.17 497.06 561.21 497.03 561.24 496.93 561.32 496.75 561.59 496.65 561.81 496.63 561.81 496.34 561.88 496.32 561.88 496.27 561.88 495.95 561.89 495.75 561.85 495.71 561.81 495.55 561.65 495.35 561.51 495.28 561.47 495.22 561.39 495.18 561.33 495.06 561.17 494.89 561.04 494.72 561.08 494.63 561.16 494.67 561.23 494.67 561.24 494.63 561.42 494.51 561.65 494.47 561.76 494.41 561.92 494.28 562.13 494.29 562.23 494.29 562.26 494.34 562.68 494.34 562.68 494.34 562.7 494.5 562.77 494.67 562.81 494.97 562.83 495.01 562.83 495.02 562.83 495.26 562.87 495.58 562.96 495.91 563.12 496.08 563.27 496.47 563.39 497.42 563.62 497.42 563.63 497.5 563.78 497.64 564.07 497.73 564.52 497.82 564.87 497.84 564.96 497.91 565.23 497.92 565.25 497.94 565.36 497.95 565.38 497.9 565.62 497.94 565.87 497.96 566.06 498.06 566.08 498.25 566.12 498.4 566.15 498.83 566.17 499.01 566.07 499.07 565.87 499.11 565.84 499.32 565.6 499.59 565.63 500.05 565.69 500.12 565.69 500.3 565.62 500.42 565.31 500.57 564.93 500.66 564.85 500.66 564.84 500.75 564.71 500.75 564.7 500.81 564.62 500.95 564.48 501.07 564.48 501.12 564.43 501.39 564.22 501.58 564.05 501.61 564.02 501.73 563.84 501.76 563.79 501.98 563.81 502.01 563.82 502.04 563.82 502.16 563.84 502.19 563.86 502.2 563.87 502.21 563.88 502.23 563.9 502.36 564.02 502.51 563.99 502.64 563.99 502.74 563.86 502.75 563.86 502.77 563.85 503.07 563.78 503.21 563.78 503.3 563.71 503.69 563.26 503.7 563.23 504 562.72 504.11 562.52 504.16 562.43 504.16 562.43 504.22 562.31 504.29 562.14 504.5 561.62 504.58 561.5 504.59 561.49 504.64 561.42 504.88 561.34 504.94 561.37 505.06 561.42 505.68 562.2 505.69 562.22 505.73 562.39 505.76 562.5 505.84 562.69 505.85 562.69 505.92 563.08 506.03 563.46 506.07 563.53 506.18 563.69 506.23 563.75 506.29 563.79 506.35 563.81 506.38 563.83 506.39 563.85 506.4 563.87 506.41 563.87 506.41 563.92 506.42 563.93 506.43 563.98 506.46 564.51 506.45 564.53 506.41 564.57 506.4 564.58 506.38 564.6 506.35 564.62 506.35 564.63 506.34 564.64 506.34 564.65 506.3 564.78 506.3 564.79 506.32 564.8 506.33 564.81 506.37 564.82 506.39 564.82 506.4 564.83 506.41 564.83 506.42 564.83 506.44 564.84 506.46 564.84 506.49 564.85 506.61 564.86 506.61 564.87 506.61 564.88 506.63 564.89 506.66 564.89 506.67 564.89 506.69 564.9 506.73 564.89 506.75 564.89 506.8 564.89 506.82 564.89 506.83 564.89 506.86 564.9 506.88 564.9 506.93 564.9 506.96 564.9 506.98 564.9 507.02 564.9 507.1 564.9 507.19 564.9 507.23 564.9 507.31 564.9 507.32 564.89 507.38 564.9 507.48 564.91 507.5 564.92 507.67 564.95 507.74 564.96 507.75 564.96 507.75 565.01 507.69 565.29 507.49 566.09 507.41 566.67 507.28 567.59 507.15 568.28 507.01 568.84 506.93 569.09 506.67 569.75 506.59 569.96 506.51 570.25 506.48 570.61 506.47 570.77 506.47 570.79 506.47 570.8 506.46 570.88 506.44 570.93 506.43 570.93 506.64 570.98 506.74 570.91 506.8 570.9 506.82 570.93 506.83 570.96 506.81 571 506.78 571.04 506.58 571.2 506.44 571.7 506.3 572.27 506.15 572.89 506.05 573.35 505.9 573.87 505.8 574.1 505.76 574.21 505.39 575.15 504.39 577.92 504.05 579 503.8 579.05 503.7 579.04 503.6 578.76 503.51 578.56 503.5 578.53 503.5 578.52 503.46 578.38 503.48 578.17 503.46 577.99 503.36 577.83 503.22 577.64 503.08 577.45 503.01 577.31 502.97 577.23 502.87 577.04 502.73 576.94 502.65 576.92 502.58 576.9 502.44 576.92 502.3 576.93 502.1 576.94 502.07 576.95 502.02 576.95 501.92 576.93 501.77 576.91 501.73 576.9 501.45 576.83 501.27 576.77 501.1 576.75 500.92 576.74 500.87 576.73 500.85 576.73 500.77 576.73 500.59 576.71 500.56 576.71 500.47 576.78 500.43 576.92 500.42 577.13 500.4 577.28 500.37 577.47 500.36 577.59 500.32 577.63 500.29 577.67 500.17 577.73 500.08 577.78 500.03 577.88 500.01 578.04 500.01 578.08 500.01 578.27 499.99 578.45 499.99 578.5 499.99 578.53 499.96 578.67 499.95 578.7 499.93 578.77 499.83 578.85 499.71 578.88 499.6 578.91 499.5 578.92 499.44 578.91 499.28 578.87 499.13 578.76 498.97 578.66 498.96 578.65 498.91 578.59 498.75 578.41 498.64 578.19 498.6 578.06 498.52 577.83 498.44 577.71 498.31 577.6 498.29 577.59 498.23 577.56 498.21 577.4 498.22 577.36 498.29 577.26 498.42 577.12 498.52 576.99 498.55 576.78 498.64 576.58 498.82 576.55 498.97 576.52 499 576.41 498.98 576.13 498.97 576.07 498.96 575.92 498.95 575.87 498.91 575.74 498.89 575.65 498.86 575.56 498.75 575.39 498.71 575.18 498.7 574.98 498.71 574.83 498.71 574.69 498.68 574.53 498.56 574.42 498.55 574.4 498.41 574.38 498.25 574.38 498.01 574.31 497.96 574.3 497.87 574.27 497.68 574.29 497.55 574.33 497.44 574.34 497.36 574.4 497.34 574.6 497.41 574.89 497.38 575.09 497.37 575.11 497.26 575.26 497.18 575.4 497.14 575.55 497.14 575.57 497.14 575.59 497.14 575.61 497.14 575.66 497.14 575.71 497.13 575.75 497.18 576 497.19 576.09 497.25 576.38 497.25 576.68 497.27 576.87 497.25 577.09 497.23 577.14 497.2 577.19 497.1 577.33 496.97 577.39 496.89 577.42 496.86 577.44 496.53 577.52 496.35 577.54 496.27 577.54 496.19 577.5 496.15 577.44 496.15 577.43 496.13 577.28 496.08 577.08 496.03 576.63 496.01 576.4 495.95 576.27 495.89 576.13 495.89 575.89 495.88 575.8 495.88 575.77 495.8 575.68 495.77 575.66 495.64 575.59 495.56 575.57 495.2 575.58 495.08 575.55 494.98 575.47 494.97 575.46 494.89 575.4 494.81 575.44 494.74 575.55 494.74 575.56 494.7 575.73 494.57 575.81 494.34 575.84 494.06 575.85 493.83 575.85 493.75 575.85 493.66 575.85 493.62 575.92 493.6 575.95 493.57 576.08 493.58 576.36 493.58 576.38 493.57 576.52 493.52 576.66 493.49 576.67 493.46 576.68 493.45 576.69 493.34 576.54 493.25 576.25 493.15 576.05 493.09 576 493.04 575.94 492.91 575.77 492.75 575.63 492.74 575.62 492.73 575.58 492.7 575.48 492.65 575.32 492.64 575.29 492.59 575.14 492.59 575.12 492.58 575.1 492.57 575.05 492.56 574.98 492.54 574.94 492.51 574.88 492.46 574.85 492.4 574.81 492.32 574.73 492.24 574.59 492.23 574.57 492.21 574.55 492.2 574.42 492.19 574.2 492.19 574.01 492.19 573.52 492.19 573.48 492.21 573.19 492.19 572.91 492.19 572.81 492.21 572.72 492.24 572.5 492.16 572.38 492.16 572.37 492.05 572.34 491.82 572.25 491.69 572.18 491.57 572.17 491.52 572.18 491.45 572.22 491.4 572.24 491.04 572.3 491 572.3 490.99 572.31 490.82 572.34 490.69 572.32 490.54 572.28 490.49 572.26 490.45 572.25 490.35 572.22 490.18 572.21 490.21 572.18 490.39 571.88 490.96 571.82 490.99 571.82 491.25 571.76 491.2 571.28 491.23 571.09 491.24 571.07 491.39 570.78 491.45 570.68 491.47 570.55 491.47 570.29 491.46 570.27 491.4 570.08 491.36 569.95 491.19 569.53 491.19 569.15 491.18 568.98 491.44 568.96 491.92 568.86 492.08 568.85 492.4 568.84 493.19 568.83 493.42 568.83 493.55 568.83 493.65 569.09 493.66 569.12 493.72 569.32 493.68 569.33 493.61 569.35 493.53 569.37 493.26 569.43 493.18 569.45 492.73 569.59 492.38 569.83 492.43 570.28 492.59 570.55 492.66 570.84 492.51 571.18 492.51 571.23 492.5 571.31 492.49 571.38 492.46 571.72 492.6 571.92 492.99 572.22 493.18 572.23 493.76 572.22 493.88 572.07 494.15 572.27 494.44 572.45 494.66 572.52 494.66 572.43 494.68 572.14 494.91 572.15 495.06 572.07 495.08 572.06 495.13 572.03 495.18 571.88 495.19 571.83 495.24 571.68 495.27 571.33 495.28 571.21 495.29 571.09 495.29 571.02 495.31 570.64 495.36 570.64 495.64 570.63 495.76 570.66 495.92 570.59 495.98 570.57 495.99 570.55 495.99 570.55 496 570.54 496 570.53 496.02 570.51 496.09 570.31 496.09 570.22 496.08 570.19 496.07 570.14 495.97 570 495.78 569.86 495.69 569.78 495.61 569.69 495.38 569.49 495.01 569.16 494.77 568.9 494.7 568.82 494.64 568.77 494.47 568.59 494.41 568.47 494.27 568.23 494.05 567.99 493.82 567.82 493.63 567.64 493.62 567.51 493.63 567.35 493.64 567.19 493.66 567.07 493.7 566.91 493.72 566.86 493.73 566.81 493.74 566.77 493.75 566.72 493.81 566.52 493.87 566.35 493.87 566.33 493.88 566.28 493.88 566.24 493.89 566.22 493.9 566.12 493.96 565.95 493.99 565.76 493.9 565.68 493.81 565.65 493.5 565.58 493.44 565.54 493.34 565.46 493.01 565.36 492.99 565.35 492.92 565.33 492.81 565.24 492.76 565.16 492.68 565.13 492.59 565.32 492.49 565.55 492.47 565.61 492.45 565.64 492.43 565.68 492.37 565.81 492.37 566.03 492.45 566.27 492.55 566.41 492.55 566.6 492.57 566.69 492.58 566.73 492.71 566.88 492.8 567.07 492.81 567.09 492.93 567.39 493 567.51 493.18 567.69 493.57 568.06 493.22 567.95 492.87 567.76 492.6 567.61 492.4 567.43 492.3 567.24 492.03 566.39 491.98 566.36 491.96 566.35 491.59 566.22 491.21 565.95 490.85 565.49 490.81 565.42 490.78 565.37 490.75 565.31 490.67 565.17 490.61 565.06 490.59 565.03 490.6 564.98 490.6 564.95 490.61 564.87 490.62 564.71 490.78 564.3 490.81 564.22 490.89 563.97 491.07 563.81 491.23 563.78 491.42 563.72 491.55 563.63 491.56 563.61 491.74 563.32 491.93 563.17 492.01 563.16 492.03 563.16 492.08 563.16 492.15 563.15 492.31 563.28 492.63 563.3 493.01 563.22 493.14 563.03 493.16 562.82 493.17 562.75 493.17 562.73 493.17 562.72 493.17 562.72 493.14 562.7 492.95 562.58 492.69 562.28 492.73 561.9 492.85 561.26 493.37 561 493.48 560.79 493.64 560.49 493.69 560.41 493.73 560.41 493.77 560.41 493.85 560.45 494.13 560.48 494.31 560.37 494.42 560.25 494.67 560.16 495.02 560.23 495.26 559.92 495.48 559.75 495.67 559.55 495.81 559.34 496.04 559.23 496.12 559.19 496.25 559.11 496.28 559.09 496.35 559.05 496.57 558.81 496.57 558.8 497.01 558.62 497.08 558.6 497.11 558.59 497.42 558.5 497.53 558.52 497.62 558.54 497.92 558.61 498.48 558.8 498.71 558.92 498.73 558.98 498.78 559.16 498.78 559.18 498.78 559.28 498.77 559.57 498.76 559.73 498.78 560.04 498.73 560.17 498.68 560.19 Z M 500.04 571.31 500.04 571.32 499.93 571.32 499.87 571.32 499.7 571.32 499.68 571.33 499.69 571.35 499.79 571.55 499.78 571.58 499.77 571.61 499.76 571.64 499.65 571.95 499.65 572 499.63 572.06 499.6 572.12 499.68 572.53 499.69 572.56 499.74 572.77 499.78 572.9 499.8 572.99 499.72 573.44 499.86 573.46 499.9 573.47 499.97 573.48 499.97 573.55 499.96 573.66 499.96 573.67 499.93 574.17 499.93 574.21 499.93 574.23 499.96 574.22 500.51 573.99 500.67 574.02 500.69 574.13 500.71 574.26 500.76 574.58 500.75 574.64 500.65 575.15 500.49 575.42 500.51 575.48 500.53 575.55 500.55 575.59 500.57 575.65 500.59 575.73 500.61 575.8 500.63 575.85 500.83 575.87 500.86 575.87 500.97 575.88 501.21 575.9 501.3 575.66 501.3 575.65 501.34 575.56 501.42 575.35 501.53 575.05 501.57 574.77 501.73 574.54 501.83 574.28 501.84 574.26 501.89 574.15 501.84 574.02 501.84 573.92 501.94 573.8 502.03 573.73 502.11 573.67 502.16 573.58 502.35 573.22 502.36 573.2 502.4 573.11 502.41 573.04 502.42 572.95 502.47 572.83 502.54 572.7 502.61 572.61 502.57 572.49 502.55 572.44 502.55 572.36 502.55 572.33 502.56 572.07 502.59 571.9 502.56 571.79 502.52 571.79 502.48 571.81 502.34 571.84 502.16 571.88 502.1 571.91 501.96 571.94 501.95 571.95 501.92 571.96 501.83 572.02 501.66 572.03 501.64 572.03 501.63 572.03 501.5 571.95 501.27 571.69 501.22 571.51 501.02 571.32 500.93 571.28 500.88 571.25 500.82 571.22 500.78 571.2 500.73 571.19 500.11 571.04 500.07 571.16 500.06 571.19 500.05 571.21 500.05 571.26 500.04 571.31 Z M 503.14 678.72 503.09 678.74 503.09 678.77 503.09 678.78 503.09 679.05 503.09 679.06 503.08 679.11 503.09 679.13 503.14 679.19 503.19 679.36 503.29 679.51 503.31 679.54 503.45 679.74 503.68 680.14 503.78 680.23 503.9 680.32 504.06 680.49 504.07 680.5 504.12 680.57 504.16 680.62 504.24 680.73 504.28 680.82 504.32 680.91 504.49 681.33 504.55 681.73 504.57 682.09 504.58 682.14 504.58 682.24 504.6 682.48 504.61 682.54 504.61 682.59 504.62 682.63 504.62 682.76 504.63 682.82 504.61 682.98 504.61 683.22 504.6 683.24 504.55 683.51 504.4 683.6 504.18 683.61 504.04 683.61 504.02 683.71 504.02 683.92 504.02 683.94 504.05 684.03 504.07 684.08 504.1 684.19 504.24 684.33 504.28 684.59 504.29 684.64 504.29 684.81 504.29 684.89 504.16 685.08 504.21 685.22 504.29 685.31 504.12 685.54 503.82 685.78 503.8 685.82 503.71 685.98 503.71 685.99 503.68 686.07 503.93 686.09 503.93 686.23 503.84 686.38 503.82 686.51 503.9 686.66 503.9 686.83 503.82 686.91 503.81 687.12 503.79 687.27 503.81 687.5 503.92 687.6 504.15 687.78 504.16 687.89 504.1 687.99 504.13 687.98 504.2 688.05 504.22 688.07 504.27 688.13 504.26 688.18 504.25 688.27 504.11 688.3 504.06 688.36 504.1 688.45 504.1 688.46 504.06 688.57 504.03 688.58 503.83 688.68 503.82 688.69 503.74 688.77 503.71 688.8 503.69 688.75 503.67 688.73 503.64 688.71 503.58 688.68 503.55 688.65 503.54 688.65 503.54 688.58 503.53 688.53 503.51 688.49 503.51 688.49 503.46 688.42 503.44 688.39 503.42 688.36 503.38 688.33 503.35 688.31 503.29 688.27 503.23 688.22 503.08 688.19 503 688.16 502.93 688.14 502.75 688.12 502.67 688.12 502.61 688.14 502.56 688.16 502.5 688.18 502.44 688.16 502.4 688.16 502.35 688.14 502.29 688.11 502.22 688.09 502.15 688.05 502.02 687.99 502.01 687.98 501.87 687.94 501.8 687.92 501.73 687.9 501.7 687.92 501.69 687.96 501.7 688.04 501.71 688.06 501.72 688.12 501.73 688.15 501.73 688.17 501.74 688.22 501.74 688.22 501.7 688.27 501.64 688.33 501.62 688.38 501.62 688.39 501.61 688.47 501.61 688.54 501.6 688.66 501.58 688.86 501.58 688.97 501.58 689.06 501.58 689.15 501.57 689.2 501.55 689.22 501.5 689.23 501.41 689.22 501.3 689.2 501.16 689.18 500.93 689.15 500.85 689.14 500.73 689.13 500.54 689.12 500.41 689.09 500.33 689.07 500.31 689.06 500.24 689.05 500.22 689.09 500.23 689.16 500.26 689.22 500.3 689.26 500.34 689.29 500.39 689.34 500.4 689.38 500.4 689.41 500.39 689.43 500.35 689.46 500.33 689.46 500.31 689.47 500.26 689.46 500.21 689.46 500.17 689.46 500.13 689.45 500.06 689.46 500.02 689.46 499.97 689.48 499.91 689.51 499.85 689.52 499.78 689.51 499.68 689.5 499.66 689.5 499.62 689.49 499.46 689.46 499.42 689.44 499.37 689.44 499.32 689.45 499.26 689.49 499.22 689.53 499.18 689.54 499.14 689.54 499.12 689.52 499.08 689.46 499.06 689.41 499.04 689.37 499.04 689.29 499.04 689.26 499.05 689.22 499.07 689.2 499.11 689.18 499.14 689.15 499.14 689.11 499.12 689.07 499.12 689.01 499.14 688.99 499.16 688.98 499.23 688.99 499.28 689 499.35 689 499.41 689 499.52 688.95 499.62 688.96 499.66 688.94 499.68 688.93 499.74 688.87 499.8 688.84 499.84 688.76 499.86 688.7 499.9 688.63 499.95 688.58 499.99 688.56 500.04 688.56 500.07 688.58 500.1 688.61 500.14 688.66 500.2 688.72 500.25 688.76 500.28 688.79 500.32 688.81 500.36 688.81 500.4 688.8 500.43 688.79 500.45 688.77 500.51 688.78 500.55 688.8 500.6 688.82 500.66 688.86 500.72 688.9 500.77 688.93 500.81 688.94 500.84 688.93 500.86 688.91 500.86 688.87 500.85 688.82 500.82 688.79 500.77 688.77 500.71 688.73 500.61 688.68 500.54 688.61 500.41 688.47 500.32 688.36 500.23 688.29 500.23 688.17 500.22 688.15 500.21 688.13 500.2 688.1 500.19 688.08 500.18 688.04 500.16 687.93 500.16 687.83 500.16 687.82 500.16 687.74 500.17 687.67 500.2 687.54 500.19 687.51 500.16 687.49 500.14 687.49 500.1 687.5 500.06 687.55 500 687.68 499.98 687.74 499.95 687.89 499.95 687.94 499.98 688.03 499.98 688.05 499.99 688.07 499.99 688.1 499.99 688.1 499.99 688.14 499.98 688.16 499.98 688.18 499.97 688.18 499.94 688.22 499.93 688.31 499.89 688.38 499.79 688.48 499.77 688.54 499.75 688.58 499.72 688.64 499.69 688.67 499.64 688.69 499.62 688.7 499.58 688.71 499.54 688.71 499.48 688.7 499.46 688.69 499.42 688.66 499.4 688.62 499.39 688.58 499.4 688.55 499.42 688.5 499.44 688.46 499.44 688.38 499.44 688.33 499.44 688.28 499.44 688.28 499.42 688.23 499.4 688.16 499.39 688.12 499.39 688.1 499.37 688.01 499.35 687.95 499.35 687.92 499.35 687.9 499.34 687.86 499.33 687.85 499.33 687.8 499.34 687.76 499.36 687.73 499.38 687.69 499.39 687.67 499.42 687.63 499.44 687.6 499.47 687.53 499.51 687.47 499.54 687.42 499.57 687.37 499.6 687.34 499.62 687.31 499.68 687.27 499.73 687.22 499.76 687.19 499.8 687.17 499.83 687.16 499.87 687.15 499.89 687.12 499.89 687.09 499.87 687.02 499.84 686.98 499.8 686.93 499.78 686.9 499.74 686.87 499.73 686.86 499.7 686.84 499.66 686.81 499.62 686.77 499.56 686.75 499.49 686.74 499.49 686.74 499.45 686.74 499.37 686.73 499.32 686.73 499.28 686.72 499.23 686.7 499.18 686.68 499.12 686.66 499.07 686.66 499.04 686.66 499.02 686.69 498.99 686.74 498.96 686.79 498.92 686.83 498.88 686.87 498.81 686.89 498.72 686.88 498.63 686.89 498.45 686.88 498.38 686.88 498.28 686.88 498.17 686.87 498.11 686.87 497.96 686.86 497.89 686.84 497.82 686.84 497.75 686.83 497.72 686.82 497.69 686.81 497.67 686.78 497.66 686.74 497.67 686.71 497.7 686.67 497.71 686.65 497.75 686.61 497.75 686.6 497.76 686.54 497.76 686.49 497.74 686.46 497.73 686.46 497.72 686.45 497.67 686.44 497.62 686.44 497.55 686.44 497.52 686.45 497.48 686.44 497.48 686.43 497.47 686.4 497.47 686.37 497.49 686.34 497.49 686.33 497.53 686.31 497.57 686.28 497.61 686.25 497.63 686.23 497.66 686.19 497.66 686.15 497.66 686.09 497.66 686.08 497.66 686.01 497.66 685.95 497.63 685.87 497.62 685.84 497.59 685.8 497.53 685.76 497.49 685.75 497.44 685.74 497.39 685.73 497.38 685.73 497.33 685.73 497.28 685.74 497.24 685.78 497.2 685.83 497.18 685.85 497.13 685.85 497.1 685.85 497.07 685.83 497.05 685.82 497.05 685.78 497.05 685.72 497.05 685.66 497.06 685.6 497.06 685.55 497.04 685.51 497.02 685.51 496.99 685.51 496.97 685.53 496.95 685.57 496.94 685.61 496.93 685.65 496.91 685.68 496.91 685.69 496.82 685.66 496.78 685.63 496.71 685.57 496.7 685.54 496.66 685.47 496.65 685.44 496.65 685.39 496.66 685.35 496.65 685.3 496.62 685.26 496.52 685.23 496.48 685.22 496.41 685.22 496.37 685.23 496.31 685.25 496.28 685.26 496.27 685.26 496.23 685.26 496.18 685.24 496.14 685.22 496.04 685.19 495.97 685.17 495.88 685.13 495.8 685.09 495.74 685.05 495.67 685 495.64 684.99 495.62 684.97 495.57 684.9 495.56 684.89 495.55 684.81 495.56 684.73 495.59 684.62 495.61 684.56 495.63 684.54 495.67 684.51 495.72 684.5 495.79 684.5 495.87 684.5 495.91 684.5 495.93 684.48 495.94 684.45 495.95 684.43 495.95 684.39 495.93 684.35 495.91 684.34 495.88 684.33 495.83 684.33 495.79 684.32 495.73 684.33 495.67 684.33 495.55 684.34 495.5 684.33 495.49 684.33 495.47 684.32 495.46 684.29 495.45 684.28 495.46 684.23 495.47 684.19 495.5 684.17 495.55 684.15 495.62 684.13 495.67 684.11 495.68 684.08 495.67 684.05 495.65 684 495.6 683.96 495.57 683.91 495.53 683.85 495.51 683.8 495.48 683.72 495.46 683.65 495.46 683.58 495.46 683.52 495.48 683.48 495.49 683.47 495.52 683.45 495.52 683.45 495.59 683.43 495.62 683.42 495.66 683.41 495.73 683.41 495.76 683.41 495.86 683.4 495.94 683.4 495.95 683.4 496.04 683.39 496.15 683.39 496.25 683.38 496.29 683.36 496.3 683.33 496.31 683.27 496.32 683.19 496.33 683.14 496.36 683.1 496.37 683.08 496.4 683.05 496.46 683.01 496.52 682.98 496.57 682.96 496.62 682.94 496.69 682.92 496.75 682.91 496.78 682.88 496.8 682.84 496.82 682.79 496.85 682.74 496.85 682.73 496.88 682.71 496.9 682.68 496.92 682.63 496.92 682.58 496.92 682.51 496.91 682.4 496.91 682.4 496.91 682.37 496.9 682.33 496.9 682.24 496.88 682.15 496.87 682.08 496.85 682.05 496.79 682.02 496.73 682.02 496.68 682.03 496.65 682.06 496.62 682.09 496.61 682.15 496.6 682.2 496.57 682.33 496.54 682.39 496.51 682.43 496.48 682.46 496.43 682.48 496.37 682.5 496.31 682.5 496.23 682.5 496.18 682.49 496.07 682.48 496 682.46 495.94 682.43 495.87 682.41 495.78 682.38 495.77 682.38 495.72 682.38 495.65 682.38 495.62 682.39 495.6 682.42 495.58 682.44 495.54 682.45 495.5 682.46 495.44 682.46 495.39 682.45 495.33 682.43 495.27 682.42 495.25 682.41 495.14 682.36 495.07 682.32 495.01 682.27 494.97 682.23 494.97 682.23 494.96 682.2 494.96 682.19 494.96 682.18 494.96 682.15 494.98 682.12 495.02 682.09 495.07 682.06 495.08 682 495.05 681.92 495.02 681.87 494.97 681.82 494.93 681.77 494.91 681.73 494.92 681.68 494.95 681.65 495.01 681.61 495.07 681.58 495.09 681.55 495.09 681.47 495.07 681.4 495.05 681.29 495.03 681.24 495.03 681.16 495.05 681.08 495.08 681.04 495.08 681.03 495.09 681 495.09 680.92 495.06 680.84 495.04 680.77 495.02 680.7 495.03 680.48 495.05 680.44 495.07 680.43 495.09 680.42 495.15 680.42 495.24 680.42 495.33 680.41 495.44 680.39 495.64 680.37 495.76 680.36 495.84 680.36 495.95 680.36 495.97 680.36 496.12 680.37 496.2 680.37 496.27 680.38 496.28 680.38 496.35 680.39 496.45 680.41 496.53 680.44 496.57 680.45 496.62 680.47 496.67 680.5 496.7 680.51 496.8 680.56 496.89 680.61 496.98 680.66 497.05 680.73 497.16 680.85 497.24 680.91 497.31 680.94 497.37 680.94 497.43 680.94 497.52 680.96 497.61 680.99 497.82 681.06 497.85 681.1 497.88 681.13 497.89 681.2 497.89 681.26 497.9 681.41 497.9 681.48 497.89 681.59 497.88 681.67 497.86 681.76 497.85 681.84 497.87 681.94 497.9 682 497.94 682.03 498 682.03 498.07 682.03 498.08 682.03 498.18 682 498.26 681.98 498.36 681.97 498.45 681.98 498.54 681.98 498.69 681.96 498.72 681.96 498.84 681.95 498.93 681.96 499.01 681.98 499.09 682.02 499.17 682.03 499.28 682.03 499.36 682.03 499.45 682.01 499.49 681.97 499.56 681.95 499.66 681.95 499.78 681.97 499.81 681.98 499.88 681.99 499.96 682.02 499.97 682.02 500.03 682.04 500.05 682.05 500.12 682.08 500.19 682.11 500.27 682.11 500.29 682.09 500.3 682.03 500.28 681.97 500.24 681.91 500.23 681.88 500.21 681.83 500.18 681.79 500.14 681.74 500.11 681.68 500.09 681.61 500.1 681.51 500.1 681.43 500.11 681.36 500.11 681.3 500.1 681.26 500.05 681.19 500 681.13 499.96 681.08 499.94 681.02 499.91 680.9 499.9 680.83 499.88 680.76 499.84 680.7 499.67 680.59 499.66 680.58 499.59 680.53 499.53 680.49 499.51 680.47 499.45 680.42 499.45 680.42 499.4 680.37 499.37 680.34 499.31 680.27 499.29 680.21 499.28 680.2 499.24 680.11 499.22 680.07 499.2 680.02 499.2 679.98 499.21 679.94 499.24 679.91 499.28 679.9 499.32 679.9 499.34 679.9 499.43 679.89 499.52 679.88 499.62 679.88 499.72 679.85 499.76 679.86 499.79 679.86 499.84 679.85 499.88 679.82 499.9 679.79 499.92 679.73 499.94 679.66 499.95 679.59 499.95 679.51 499.93 679.47 499.86 679.43 499.79 679.4 499.69 679.4 499.59 679.38 499.53 679.38 499.48 679.37 499.44 679.35 499.41 679.33 499.31 679.24 499.26 679.18 499.25 679.16 499.22 679.12 499.18 679 499.15 678.93 499.11 678.89 499.07 678.86 499.05 678.84 499.04 678.84 499.02 678.83 498.99 678.8 498.97 678.8 498.9 678.75 498.79 678.7 498.71 678.65 498.7 678.64 498.68 678.62 498.68 678.55 498.68 678.54 498.69 678.49 498.7 678.45 498.7 678.43 498.7 678.36 498.68 678.28 498.65 678.19 498.65 678.12 498.66 678.02 498.68 677.93 498.69 677.85 498.7 677.78 498.69 677.76 498.69 677.68 498.69 677.67 498.69 677.62 498.73 677.1 498.73 677.09 498.73 676.78 498.74 676.65 498.82 676.55 498.97 676.49 499.05 676.48 499.12 676.46 499.19 676.43 499.27 676.42 499.29 676.42 499.38 676.42 499.48 676.51 499.7 676.81 499.74 676.81 499.78 676.82 499.87 676.75 499.88 676.74 499.94 676.67 500.03 676.69 500.06 676.74 500.12 676.84 500.53 677.1 500.62 677.11 500.74 677.1 500.85 677.18 500.92 677.2 501.02 677.15 501.11 677.11 501.22 677.07 501.53 677.02 501.67 677 501.68 677.12 501.68 677.2 501.73 677.24 501.75 677.25 501.84 677.3 502.08 677.44 502.14 677.45 502.17 677.46 502.21 677.42 502.2 677.35 502.2 677.28 502.3 677.26 502.42 677.3 502.52 677.42 502.59 677.7 502.59 677.73 502.62 677.88 502.55 677.94 502.51 678 502.56 678.2 502.64 678.54 502.69 678.56 502.76 678.51 502.77 678.38 502.79 678.39 502.86 678.42 502.91 678.52 502.97 678.57 503.14 678.72 Z M 497.58 578.84 497.74 578.92 497.78 578.97 497.81 579 497.89 579.03 498.03 579.09 498.1 579.12 498.23 579.18 498.26 579.19 498.38 579.26 498.39 579.26 498.59 579.37 498.72 579.53 498.79 579.81 498.79 580.06 498.82 580.3 498.86 580.35 498.89 580.38 498.91 580.4 498.92 580.41 498.95 580.42 499.17 580.51 499.44 580.52 499.57 580.55 499.82 580.57 499.9 580.37 499.98 580.12 500.09 579.91 500.19 579.83 500.28 579.78 500.44 579.68 500.66 579.57 500.92 579.54 501.09 579.56 501.18 579.57 501.24 579.62 501.27 579.65 501.33 579.69 501.36 579.72 501.41 579.77 501.48 579.83 501.6 579.85 501.65 579.85 501.69 579.85 501.85 579.85 502.14 579.95 502.25 579.99 502.32 580.03 502.45 580.11 502.57 580.15 502.79 580.18 502.85 580.14 502.88 580.04 502.92 579.91 502.95 579.74 502.95 579.58 502.87 579.5 502.75 579.48 502.46 579.5 502.33 579.49 502.28 579.44 502.31 579.3 502.32 579.25 502.41 579.13 502.5 579.07 502.57 579.02 502.57 578.83 502.58 578.7 502.68 578.63 502.72 578.64 502.79 578.69 502.92 578.79 503.07 579.03 503.2 579.18 503.29 579.3 503.41 579.4 503.48 579.43 503.65 579.53 503.78 579.6 503.85 579.64 503.76 579.92 503.2 581.91 502.76 583.82 502.63 584.63 502.54 584.57 502.52 584.55 502.27 584.37 502.02 584.39 501.97 584.39 501.76 584.49 501.63 584.56 501.61 584.57 501.56 584.62 501.45 584.63 501.39 584.63 501.36 584.63 501.31 584.63 501.23 584.66 501.15 584.67 501.07 584.69 501.03 584.69 500.95 584.69 500.92 584.69 500.9 584.68 500.85 584.68 500.8 584.68 500.78 584.69 500.75 584.71 500.73 584.74 500.71 584.74 500.69 584.75 500.65 584.79 500.48 584.86 500.39 584.93 500.38 584.96 500.22 585.19 500.13 585.15 499.96 585.09 499.97 585.06 500.09 584.84 500.17 584.68 500.2 584.61 500.18 584.54 500.17 584.51 500.12 584.4 500.09 584.33 500.03 584.36 499.99 584.39 499.97 584.41 499.95 584.42 499.88 584.47 499.79 584.52 499.74 584.61 499.69 584.69 499.65 584.77 499.64 584.79 499.54 584.97 499.22 584.88 499.04 584.85 499.01 584.96 498.99 585.02 498.95 584.98 498.74 584.83 498.58 584.71 498.24 585.4 498.21 585.45 498.05 585.8 497.88 585.95 497.88 585.95 497.86 585.96 497.82 585.98 497.62 586.1 497.54 586.08 497.48 586.06 497.19 585.97 497.02 585.92 496.62 585.83 496.48 585.77 496.28 585.61 496.14 585.53 496 585.49 495.89 585.46 495.78 585.46 495.57 585.43 495.51 585.42 495.47 585.42 495.39 585.43 495.3 585.42 495.1 585.46 494.69 585.26 494.54 585.1 494.27 584.8 494.02 584.75 493.96 584.74 493.85 584.72 493.62 584.65 493.4 584.44 493.38 584.42 493.34 584.31 493.3 584.15 493.3 584.12 493.3 584.08 493.29 584.01 493.3 583.88 493.56 583.79 493.6 583.76 493.69 583.68 493.87 583.59 493.93 583.59 494.07 583.58 494.23 583.6 494.31 583.59 494.39 583.59 494.59 583.52 494.69 583.3 494.78 583.07 494.79 583.03 494.8 583.01 494.85 582.88 494.87 582.85 495.01 582.76 495.14 582.76 495.23 582.65 495.13 582.55 494.99 582.43 494.9 582.31 494.86 582.11 494.89 582.09 494.97 582.05 495.22 582.08 495.56 582.17 495.89 582.29 495.97 582.26 495.95 582.2 495.92 582.12 495.83 581.89 495.8 581.84 495.46 581.05 495.46 581.04 495.41 580.88 495.37 580.75 495.27 580.41 495.23 580.05 495.19 579.68 495.15 579.44 495.07 579.32 494.99 579.16 494.95 579.04 494.96 578.9 495.17 578.88 495.23 578.88 495.45 578.89 495.62 578.85 495.62 578.68 495.58 578.52 495.57 578.33 495.6 578.18 495.6 578.18 495.77 578.16 495.97 578.27 496.28 578.45 496.58 578.59 496.66 578.64 496.74 578.69 496.85 578.69 496.97 578.71 497.09 578.76 497.32 578.77 497.58 578.84 Z M 483.77 556.72 483.93 556.73 484.14 556.66 484.41 556.63 484.62 556.75 484.64 556.76 484.95 556.89 485.24 557.04 485.3 557.07 485.4 557.1 485.47 557.18 485.47 557.27 485.47 557.28 485.41 557.31 485.34 557.35 485.27 557.39 485.2 557.44 485.05 557.56 484.99 557.7 484.99 557.79 485.06 557.98 484.98 558.1 484.93 558.33 484.9 558.59 484.88 558.79 484.87 558.82 484.87 558.88 484.87 558.89 484.86 559 484.86 559.18 484.84 559.2 484.78 559.26 484.77 559.28 484.65 559.3 484.57 559.43 484.48 559.76 484.44 559.93 484.35 560.03 484.2 560.06 483.97 560.06 483.84 560.06 483.82 560.07 483.7 560.16 483.66 560.37 483.66 560.39 483.79 560.54 483.95 560.64 484.06 560.71 484.08 560.79 484.09 560.8 484.11 560.88 484.13 560.96 484.13 560.98 484.12 561.18 484.06 561.25 484.01 561.28 484 561.33 483.87 561.51 483.86 561.8 483.81 562.11 483.81 562.39 483.85 562.42 483.99 562.61 484.02 562.67 484.05 562.68 484.06 562.73 484.13 562.87 484.16 563.06 484.21 563.1 484.22 563.29 484.22 563.3 484.24 563.33 484.28 563.38 484.36 563.42 484.46 563.43 484.48 563.44 484.59 563.48 484.73 563.56 484.74 563.58 484.82 563.61 484.93 563.66 484.99 563.89 484.99 563.92 484.97 564.05 484.94 564.15 484.94 564.28 484.94 564.46 484.95 564.68 484.92 565.06 484.92 565.21 484.92 565.25 484.92 565.3 484.91 565.38 484.83 565.46 484.73 565.45 484.54 565.44 484.47 565.44 484.46 565.47 484.46 565.59 484.49 565.92 484.48 566.04 484.48 566.25 484.49 566.33 484.5 566.35 484.51 566.45 484.56 566.53 484.67 566.66 484.82 566.54 484.96 566.54 484.98 566.54 485.15 566.54 485.2 566.54 485.34 566.43 485.4 566.36 485.5 566.26 485.53 566.23 485.56 566.2 485.6 566.13 485.63 566.06 485.68 565.98 485.75 565.94 485.81 565.93 486.01 565.96 486.08 566.03 486.13 566.01 486.13 566.08 486.19 566.14 486.26 566.21 486.4 566.59 486.47 566.7 486.56 566.78 486.56 566.87 486.57 566.9 486.61 566.98 486.73 567.13 486.82 567.15 486.88 567.07 486.94 567.01 487.07 566.97 487.18 567.04 487.25 567.09 487.4 567.12 487.53 567.13 487.63 567.16 487.64 567.16 487.72 567.25 487.73 567.31 487.75 567.4 487.75 567.43 487.75 567.5 487.75 567.53 487.75 567.58 487.75 567.6 487.74 567.7 487.79 567.99 487.79 568.05 487.8 568.15 487.74 568.4 487.71 568.84 487.71 568.87 487.67 569.1 487.65 569.3 487.62 569.35 487.59 569.42 487.55 569.48 487.48 569.49 487.15 569.51 487.07 569.52 487.04 569.5 487.01 569.49 486.97 569.49 486.94 569.53 486.9 569.62 486.8 569.65 486.74 569.67 486.72 569.68 486.7 569.73 486.69 569.77 486.71 569.84 486.8 569.88 486.85 569.91 486.87 569.96 486.89 570.03 486.87 570.06 486.79 570.11 486.64 570.14 486.39 570.15 486.26 570.15 486.15 570.22 486.11 570.32 486.09 570.52 486.09 570.65 486.09 570.68 486.04 570.75 485.97 570.77 485.76 570.78 485.68 570.78 485.66 570.78 485.57 570.78 485.5 570.78 485.46 570.78 485.44 570.79 485.37 570.79 485.32 570.8 485.16 570.8 485.05 570.81 485.03 570.8 484.75 570.79 484.73 570.79 484.59 570.79 484.47 570.79 484.39 570.84 484.36 570.88 484.35 571.03 484.33 571.19 484.31 571.34 484.23 571.37 484.11 571.4 483.97 571.43 483.54 571.5 483.4 571.51 483.12 571.51 483.09 571.51 482.96 571.51 482.86 571.51 482.71 571.47 482.7 571.46 482.65 571.45 482.6 571.43 482.44 571.38 482.45 571.35 482.47 571.27 482.52 571.11 482.53 571.08 482.53 571.05 482.56 570.96 482.57 570.93 482.57 570.89 482.57 570.86 482.56 570.82 482.6 570.71 482.65 570.4 482.73 570.07 482.75 570 482.77 569.92 482.77 569.83 482.77 569.79 482.77 569.76 482.76 569.73 482.77 569.69 482.76 569.5 482.75 569.48 482.7 569.43 482.62 569.31 482.53 569.21 482.23 569.08 481.88 568.91 481.84 568.88 481.76 568.81 481.73 568.75 481.7 568.71 481.7 568.52 481.69 568.36 481.69 568.19 481.65 568.04 481.62 567.72 481.62 567.63 481.63 567.47 481.7 567.33 481.71 567.1 481.71 567.09 481.73 566.67 481.77 566.48 481.8 566.44 481.94 566.43 482.23 566.46 482.35 566.45 482.42 566.45 482.53 566.38 482.55 566.36 482.81 565.96 482.81 565.72 482.81 565.65 482.83 565.25 482.8 565.22 482.79 565.2 482.76 565.16 482.74 565.06 482.77 565 482.79 564.9 482.79 564.82 482.74 564.74 482.69 564.69 482.67 564.66 482.65 564.58 482.65 564.52 482.63 564.49 482.54 564.23 482.61 563.95 482.56 563.67 482.58 563.64 482.56 563.63 482.34 563.61 482.3 563.6 482.17 563.57 482.1 563.48 482.08 563.47 482.02 563.41 481.89 563.4 481.74 563.36 481.72 563.35 481.76 563.24 481.93 563.06 482.18 562.96 482.3 562.85 482.32 562.75 482.32 562.73 482.34 562.65 482.28 562.4 482.28 562.33 482.15 562.2 481.94 562.01 481.84 561.92 481.54 561.75 481.45 561.61 481.43 561.58 481.39 561.51 481.37 561.46 481.37 561.45 481.38 561.35 481.41 561.33 481.47 561.26 481.51 561.26 481.48 561.22 481.51 561.13 481.54 561.12 481.57 561.12 481.63 561.14 481.79 561.18 481.83 561.2 481.88 561.2 481.94 561.15 482.06 561.04 482.21 560.87 482.29 560.64 482.33 560.37 482.35 560.05 482.35 560.03 482.29 559.97 482.14 559.94 481.85 559.83 481.81 559.81 481.71 559.81 481.71 559.59 481.74 559.52 481.79 559.43 481.79 559.41 481.78 559.13 481.78 558.77 481.87 558.78 481.88 558.78 481.9 558.75 481.93 558.64 481.94 558.58 481.96 558.38 481.99 558.27 482.01 558.23 482.13 558.24 482.48 558.17 482.65 558.06 482.76 557.91 482.82 557.66 482.81 557.64 482.8 557.61 482.58 557.1 482.48 556.78 482.46 556.51 482.5 556.5 482.49 556.48 482.45 556.39 482.36 556.3 482.37 556.21 482.47 556.21 482.57 556.22 482.8 556.24 483.05 556.28 483.1 556.29 483.4 556.48 483.57 556.56 483.63 556.64 483.66 556.66 483.69 556.67 483.77 556.72 Z M 510.06 551.28 510.37 551.29 510.96 551.25 511.09 551.24 511.61 551.28 512.21 551.65 512.39 551.76 512.41 551.77 512.67 551.93 512.73 551.97 512.79 552.01 512.85 552.04 513 552.13 513.1 552.21 512.76 552.85 511.85 554.7 511.14 556.14 510.31 557.8 510.14 557.66 509.98 557.64 509.47 557.6 509.38 557.59 508.93 557.57 508.71 557.55 508.42 557.53 508.1 557.5 507.69 557.46 507.68 557.46 507.09 557.4 507.11 556.5 507.16 556.03 507.18 555.77 507.17 555.43 507.16 555.17 507.15 554.62 507.15 554.6 507.19 554.5 507.53 553.59 507.71 552.72 507.72 552.65 507.74 552.61 507.86 552.38 507.99 552.12 508.21 551.43 508.36 550.97 508.68 551.14 509.34 551.24 509.39 551.25 510.06 551.28 Z M 490.98 555.88 491.05 555.89 491.1 555.87 491.14 555.82 491.19 555.82 491.29 555.84 491.39 555.91 491.47 555.94 491.57 555.95 491.58 555.95 491.64 555.98 491.69 556.04 491.71 556.07 491.73 556.09 491.79 556.11 491.83 556.11 491.85 556.19 491.87 556.37 491.88 556.45 491.85 556.67 491.77 556.75 491.71 557.06 491.66 557.4 491.65 557.42 491.63 557.85 491.62 558.02 491.7 558.35 491.79 558.66 491.82 558.68 491.85 558.75 491.87 558.81 491.94 558.92 492.05 558.99 492.1 559.04 492.17 559.05 492.26 559.05 492.32 559.17 492.32 559.26 492.36 559.29 492.42 559.33 492.47 559.36 492.58 559.39 492.58 559.41 492.58 559.45 492.59 559.48 492.59 559.52 492.6 559.57 492.64 559.67 492.66 559.72 492.81 559.81 492.92 559.81 492.97 559.93 493.1 560.07 493.26 560.15 493.26 560.19 493.37 560.35 493.38 560.36 493.42 560.48 493.4 560.55 493.38 560.61 493.37 560.65 493.33 560.9 493.27 560.94 493.21 560.95 493.12 560.92 492.99 560.9 492.9 560.9 492.88 560.9 492.86 560.9 492.79 560.88 492.68 560.86 492.61 560.85 492.48 560.78 492.38 560.72 492.26 560.68 492.13 560.66 491.94 560.66 491.75 560.6 491.72 560.6 491.61 560.59 491.55 560.58 491.51 560.58 491.44 560.6 491.32 560.8 491.22 560.82 491.21 560.82 491.14 560.84 491.02 560.88 490.8 560.84 490.63 560.82 490.52 560.91 490.42 561.01 490.4 561.03 490.29 561.05 490.26 561.06 490.22 561.07 490.14 561.11 490.04 561.12 489.84 561.05 489.75 560.98 489.65 560.89 489.61 560.85 489.59 560.83 489.56 560.82 489.46 560.82 489.43 560.87 489.4 560.94 489.4 560.97 489.29 561.07 489.23 561.1 489.21 561.16 489.21 561.24 489.2 561.28 489.2 561.34 489.16 561.43 489.12 561.5 489.06 561.59 489.05 561.59 488.99 561.69 488.99 561.69 488.95 561.76 488.92 561.75 488.89 561.74 488.82 561.7 488.77 561.62 488.76 561.61 488.65 561.5 488.63 561.47 488.61 561.45 488.56 561.39 488.54 561.3 488.52 561.25 488.5 561.23 488.46 561.15 488.44 561.11 488.3 560.88 488.3 560.87 488.27 560.83 488.26 560.82 488.25 560.81 488.23 560.78 488.12 560.73 487.99 560.66 487.77 560.66 487.64 560.68 487.59 560.72 487.41 560.85 487.35 560.9 487.32 560.92 487.21 560.97 487.19 560.98 487.12 561 486.89 561.03 486.75 561.1 486.7 561.18 486.65 561.19 486.59 561.12 486.55 561.06 486.53 561.06 486.41 561 486.37 561 486.34 560.97 486.28 560.97 486.21 560.97 486.17 560.97 486.12 560.85 486.11 560.82 486.11 560.81 486.08 560.7 486.08 560.55 486.06 560.42 486.04 560.12 486.06 560.03 486.09 559.89 486.16 559.56 486.17 559.53 486.32 558.77 486.38 558.56 486.39 558.52 486.41 558.45 486.58 558.52 486.59 558.49 486.62 558.45 486.7 558.45 486.86 558.48 486.98 558.52 487.1 558.59 487.32 558.66 487.41 558.7 487.77 558.63 487.81 558.62 487.82 558.61 487.98 558.48 487.98 558.42 487.98 558.32 488.03 558.25 488.04 558.24 488.08 558.2 488.1 558.14 488.19 557.73 488.2 557.7 488.27 557.6 488.37 557.44 488.4 557.43 488.46 557.36 488.68 557.32 488.73 557.32 488.91 557.32 489.1 557.33 489.21 557.29 489.28 557.22 489.32 557.07 489.37 557.01 489.39 556.98 489.57 556.79 489.72 556.64 489.77 556.61 489.87 556.6 489.89 556.56 489.94 556.48 490.01 556.46 490.09 556.42 490.13 556.38 490.13 556.33 490.13 556.31 490.13 556.18 490.17 556.11 490.21 556.03 490.28 555.89 490.38 555.7 490.43 555.65 490.47 555.63 490.55 555.63 490.62 555.64 490.7 555.69 490.72 555.7 490.78 555.73 490.85 555.75 490.9 555.77 490.94 555.83 490.98 555.88 Z M 482.21 572.73 482.28 572.78 482.36 572.76 482.4 572.8 482.41 572.81 482.43 572.84 482.51 572.86 482.54 572.87 482.66 572.91 482.71 572.92 482.81 572.96 482.86 572.97 482.9 572.98 482.94 572.99 483 573.03 483.04 573.06 483.06 573.08 483.1 573.13 483.11 573.15 483.11 573.22 483.11 573.23 483.1 573.28 483.08 573.35 483.08 573.38 483.09 573.53 483.08 573.58 483.06 573.67 483.05 573.71 483.17 573.79 483.19 573.81 483.28 573.83 483.35 573.83 483.55 573.84 483.57 573.84 483.59 573.81 483.6 573.79 483.61 573.72 483.61 573.49 483.6 573.33 483.6 573.27 483.6 573.23 483.63 573.16 483.73 573.1 483.79 573.1 483.92 573.16 484.08 573.22 484.3 573.25 484.36 573.34 484.37 573.35 484.36 573.58 484.35 573.62 484.33 573.68 484.33 573.74 484.34 573.76 484.35 573.77 484.46 573.87 484.5 573.89 484.82 573.91 484.93 573.93 485.08 573.9 485.14 573.88 485.18 573.92 485.18 573.98 485.18 574.06 485.18 574.18 485.18 574.27 485.18 574.42 485.21 574.81 485.21 574.95 485.22 574.98 485.22 575.01 485.22 575.04 485.23 575.15 485.24 575.15 485.34 575.16 485.4 575.16 485.5 575.17 485.65 575.24 485.74 575.24 485.87 575.24 486.28 575.24 486.31 575.29 486.35 575.37 486.45 575.39 486.5 575.41 486.51 575.44 486.53 575.48 486.56 575.49 486.62 575.5 486.78 575.5 486.82 575.52 486.84 575.57 486.92 575.7 486.94 575.72 486.98 575.76 487.03 575.76 487.06 575.82 487.04 575.89 487.01 575.97 487.01 576.16 486.97 576.21 486.93 576.24 486.87 576.26 486.81 576.27 486.74 576.31 486.72 576.34 486.62 576.5 486.53 576.69 486.48 576.78 486.44 576.86 486.36 577.03 486.36 577.1 486.36 577.14 486.33 577.17 486.21 577.23 486.14 577.25 486.06 577.25 485.99 577.25 485.96 577.26 485.89 577.29 485.84 577.38 485.8 577.44 485.61 577.48 485.53 577.5 485.5 577.52 485.33 577.53 485.22 577.52 485.17 577.53 484.94 577.59 484.88 577.59 484.76 577.6 484.68 577.55 484.6 577.52 484.57 577.5 484.51 577.47 484.46 577.46 484.37 577.45 484.25 577.44 484.02 577.45 483.62 577.4 483.3 577.24 483.11 577.16 482.94 577.14 482.81 577.16 482.67 577.17 482.59 577.14 482.59 577.14 482.57 577.12 482.55 577.09 482.48 577.01 482.46 576.94 482.45 576.84 482.51 576.68 482.55 576.57 482.6 576.34 482.63 576.13 482.68 575.98 482.69 575.96 482.71 575.95 482.72 575.79 482.77 575.78 482.83 575.78 482.84 575.73 482.86 575.67 482.86 575.65 482.86 575.57 482.77 575.34 482.62 575.23 482.59 575.22 482.54 575.24 482.29 575.27 482.23 575.31 482.18 575.35 482.1 575.34 482.01 575.33 481.99 575.33 481.91 575.33 481.89 575.33 481.86 575.37 481.89 575.44 481.92 575.62 481.93 575.85 481.9 576 481.84 576.09 481.77 576.13 481.58 576.14 481.53 576.12 481.52 576.12 481.4 576.07 481.28 576.07 481.15 576.11 481.09 576.17 481.04 576.25 480.98 576.25 480.9 576.28 480.83 576.3 480.79 576.34 480.76 576.38 480.75 576.41 480.69 576.41 480.61 576.4 480.59 576.41 480.54 576.42 480.5 576.44 480.28 576.54 480.14 576.65 480.06 576.67 480.01 576.66 479.98 576.66 479.85 576.64 479.84 576.64 479.82 576.63 479.77 576.61 479.78 576.58 479.8 576.49 479.76 576.34 479.76 575.94 479.8 575.4 479.85 575.23 479.85 575.12 479.85 575.12 479.83 575.05 479.82 575.05 479.79 575.07 479.79 575.09 479.79 575.11 479.79 575.17 479.73 575.17 479.71 575.08 479.66 574.99 479.6 574.88 479.6 574.87 479.6 574.81 479.6 574.79 479.6 574.76 479.58 574.72 479.58 574.68 479.54 574.57 479.51 574.47 479.5 574.35 479.5 574.24 479.52 573.99 479.53 573.84 479.53 573.78 479.55 573.7 479.61 573.67 479.66 573.7 479.68 573.7 479.7 573.71 479.83 573.76 480.03 573.88 480.05 573.9 480.14 574 480.19 574.1 480.27 574.19 480.37 574.24 480.39 574.26 480.5 574.29 480.52 574.31 480.58 574.33 480.64 574.4 480.79 574.28 480.92 574.15 481.08 573.94 481.43 573.7 481.45 573.68 481.47 573.67 481.51 573.64 481.7 573.49 481.76 573.43 481.84 573.28 481.93 573.1 481.94 572.86 481.99 572.71 482.03 572.7 482.08 572.68 482.21 572.73 Z M 486.08 578.54 486.18 578.56 486.23 578.56 486.29 578.6 486.33 578.66 486.35 578.7 486.5 578.73 486.6 578.74 486.68 578.79 486.74 578.89 486.75 578.97 486.72 579.1 486.62 579.45 486.55 579.66 486.53 579.89 486.59 580.07 486.59 580.13 486.65 580.17 486.68 580.22 486.78 580.31 486.87 580.39 487.06 580.53 487.13 580.52 487.19 580.47 487.29 580.46 487.33 580.47 487.51 580.52 487.72 580.54 487.82 580.54 487.85 580.55 487.9 580.59 487.93 580.68 487.92 580.71 487.91 580.76 487.89 580.83 487.88 580.9 487.85 581.01 487.85 581.25 487.84 581.42 487.83 581.53 487.63 581.55 487.54 581.56 487.25 581.58 487.18 581.65 487.11 581.72 487.01 581.74 486.97 581.81 486.97 581.92 486.87 581.87 486.76 581.87 486.63 581.91 486.49 581.96 486.37 581.87 486.3 581.69 486.04 581.68 485.69 581.64 485.38 581.55 485.17 581.54 485.11 581.5 485.05 581.46 484.99 581.38 484.99 581.29 484.99 581.21 485 581.19 485.03 581.15 485.02 581.13 485.01 581.11 484.98 581.04 484.85 581.01 484.78 580.98 484.75 580.87 484.67 580.78 484.62 580.73 484.48 580.71 484.38 580.68 484.32 580.6 484.36 580.48 484.59 580.33 484.65 580.21 484.64 579.81 484.66 579.72 484.69 579.6 484.81 579.34 484.83 579.29 484.9 579.03 484.83 578.81 484.84 578.55 484.9 578.47 484.93 578.43 484.99 578.37 485 578.35 485.01 578.3 485.07 578.18 485.18 578.17 485.23 578.21 485.28 578.21 485.48 578.24 485.52 578.24 485.61 578.26 485.62 578.26 485.7 578.29 485.91 578.46 486.08 578.54 Z M 489.72 563.61 489.62 563.73 489.6 563.85 489.56 563.92 489.48 563.98 489.42 564.03 489.37 564.13 489.3 564.27 489.27 564.35 489.27 564.42 489.28 564.59 489.33 564.84 489.33 564.87 489.3 564.96 489.27 565.04 489.2 565.19 489.05 565.45 488.88 565.6 488.75 565.71 488.6 565.82 488.55 565.87 488.45 565.92 488.23 565.94 488.04 565.95 487.65 565.94 487.48 565.9 487.13 565.83 487.01 565.75 486.94 565.69 486.91 565.66 486.85 565.66 486.83 565.66 486.69 565.66 486.51 565.78 486.38 565.78 486.32 565.69 486.31 565.67 486.24 565.58 486.19 565.52 486.12 565.48 486.04 565.48 486.01 565.48 485.93 565.44 485.82 565.2 485.74 565.08 485.68 564.93 485.68 564.82 485.71 564.76 485.74 564.68 485.78 564.56 485.82 564.49 485.87 564.5 485.9 564.61 486 564.71 486.08 564.78 486.17 564.85 486.29 564.87 486.34 564.87 486.38 564.87 486.41 564.87 486.5 564.83 486.5 564.79 486.51 564.75 486.52 564.7 486.53 564.56 486.53 564.51 486.54 564.49 486.55 564.41 486.6 564.38 486.66 564.33 486.67 564.33 486.74 564.23 486.75 564.21 486.77 564.13 486.78 563.89 486.75 563.65 486.78 563.58 486.83 563.57 486.87 563.57 486.98 563.55 487.16 563.63 487.24 563.65 487.35 563.67 487.46 563.63 487.54 563.59 487.58 563.57 487.68 563.59 487.84 563.61 487.94 563.66 488.12 563.67 488.4 563.61 488.53 563.51 488.6 563.38 488.63 563.21 488.73 563.16 488.78 563.12 488.79 563.1 488.82 563.08 488.84 563.06 488.98 563.05 489.12 563.04 489.33 563 489.4 562.96 489.48 562.96 489.52 562.96 489.55 562.94 489.57 563.03 489.6 563.12 489.63 563.2 489.76 563.47 489.78 563.51 489.72 563.61 Z M 489.56 581.96 489.59 581.96 489.6 581.96 489.61 581.96 489.63 581.95 489.67 581.93 489.69 581.91 489.7 581.9 489.74 581.86 489.76 581.87 489.8 581.87 489.86 581.91 489.88 581.91 489.94 582.05 489.97 582.14 489.99 582.24 490.07 582.32 490.12 582.4 490.14 582.49 490.1 582.65 490.06 582.82 490.06 582.87 490.06 583 489.96 583.14 489.8 583.13 489.69 583.13 489.57 583.15 489.44 583.2 489.34 583.2 489.28 583.24 489.26 583.37 489.2 583.44 489.15 583.52 489.06 583.65 489.05 583.67 489.03 583.71 488.99 583.78 488.87 583.7 488.71 583.55 488.66 583.48 488.53 583.33 488.3 583.07 488.25 582.92 488.24 582.8 488.29 582.63 488.34 582.42 488.36 582.33 488.38 582.24 488.38 582.01 488.38 581.87 488.38 581.86 488.42 581.76 488.44 581.74 488.46 581.71 488.47 581.69 488.56 581.64 488.63 581.64 488.82 581.66 488.93 581.68 489.02 581.76 489.23 581.87 489.35 581.92 489.37 581.93 489.42 581.95 489.56 581.96 Z M 501.93 558.15 501.86 558.18 501.23 557.99 500.81 557.86 500.78 557.85 500.52 557.78 500.47 557.74 500.44 557.66 500.42 557.6 500.41 557.58 500.4 557.54 500.39 557.49 500.38 557.43 500.44 556.77 500.41 556.65 500.39 556.53 500.41 556.48 500.45 556.46 500.49 556.47 500.53 556.5 500.61 556.56 500.73 556.69 500.74 556.7 500.76 556.71 500.87 556.73 501.41 556.87 501.74 556.96 501.76 556.97 502.07 557.12 502.23 557.25 502.26 557.32 502.25 557.35 502.15 557.7 502.05 557.96 501.93 558.15 Z M 491.18 580.61 491.42 580.63 491.42 580.63 491.51 580.7 491.51 580.81 491.51 580.9 491.72 581.67 491.73 581.69 491.41 581.75 491.38 581.75 491.05 581.76 491 581.76 490.98 581.76 490.73 581.75 490.57 581.69 490.54 581.68 490.52 581.67 490.5 581.67 490.46 581.65 490.51 581.41 490.52 581.37 490.58 581.26 490.62 581.16 490.64 580.96 490.65 580.82 490.65 580.74 490.65 580.72 490.65 580.71 490.74 580.63 490.89 580.63 491.18 580.61 Z" fill-rule="evenodd" id="Puducherry"/>
<path d="M 2.46 588.01 2.51 588.08 2.56 588.03 2.61 588.03 2.68 588.1 2.79 588.17 2.91 588.16 3.08 588.18 3.19 588.25 3.26 588.34 3.34 588.44 3.32 588.51 3.27 588.59 3.18 588.74 3.16 588.86 3.16 589.02 3.16 589.1 3.16 589.18 3.15 589.35 3.14 589.52 3.13 589.63 3.09 589.69 3.06 589.75 3.03 589.88 2.98 589.97 2.94 590.03 2.94 590.06 2.96 590.15 2.96 590.24 2.96 590.3 2.94 590.37 2.87 590.5 2.82 590.61 2.8 590.69 2.8 590.79 2.81 590.8 2.86 590.85 2.92 590.95 2.93 590.97 2.97 590.99 3.06 591.02 3.11 591.05 3.11 591.2 3.14 591.25 3.29 591.32 3.42 591.33 3.5 591.35 3.69 591.45 3.72 591.47 3.76 591.5 3.86 591.56 3.94 591.59 3.95 591.59 3.98 591.61 4.01 591.63 4.13 591.7 4.14 591.71 4.3 591.81 4.36 591.84 4.35 591.87 4.33 591.95 4.31 592 4.3 592.04 4.29 592.07 4.27 592.15 4.25 592.53 4.25 592.58 4.2 592.68 4.18 592.75 4.17 592.83 4.16 592.84 4.1 592.84 3.94 592.84 3.89 592.84 3.88 592.84 3.82 592.86 3.77 592.9 3.73 592.99 3.71 593.03 3.71 593.05 3.68 593.08 3.56 593.09 3.5 593.1 3.45 593.14 3.45 593.2 3.41 593.25 3.35 593.26 3.32 593.23 3.3 593.2 3.29 593.16 3.28 593.14 3.24 593.12 3.19 593.11 3.17 593.07 3.13 593.03 3.04 593.04 3 593.08 3 593.11 2.99 593.13 2.97 593.14 2.9 593.14 2.8 593.13 2.78 593.15 2.75 593.19 2.75 593.2 2.72 593.23 2.69 593.24 2.63 593.23 2.57 593.19 2.51 593.18 2.44 593.17 2.3 593.17 2.19 593.18 2.17 593.17 2.15 593.11 2.16 593.05 2.17 593 2.19 592.96 2.2 592.91 2.18 592.87 2.15 592.86 2.1 592.84 2.04 592.84 1.99 592.87 1.93 592.93 1.89 593.03 1.87 593.07 1.85 593.11 1.8 593.13 1.71 593.15 1.69 593.16 1.68 593.18 1.67 593.23 1.69 593.28 1.71 593.31 1.73 593.39 1.77 593.43 1.86 593.49 1.98 593.52 2.07 593.51 2.11 593.5 2.14 593.52 2.17 593.56 2.17 593.58 2.18 593.62 2.17 593.64 2.15 593.66 2.1 593.7 2.01 593.75 1.95 593.79 1.89 593.79 1.86 593.8 1.8 593.83 1.74 593.85 1.67 593.9 1.56 593.91 1.49 593.9 1.48 593.91 1.49 593.95 1.51 594 1.52 594.04 1.52 594.09 1.48 594.12 1.43 594.12 1.4 594.08 1.36 594.01 1.31 593.99 1.25 593.96 1.25 593.91 1.3 593.88 1.35 593.83 1.35 593.82 1.4 593.78 1.43 593.66 1.43 593.57 1.45 593.51 1.53 593.44 1.56 593.41 1.58 593.39 1.58 593.29 1.57 593.28 1.55 593.24 1.51 593.24 1.45 593.24 1.39 593.24 1.32 593.21 1.24 593.16 1.17 593.19 1.12 593.19 1.12 593.12 1.13 593.04 1.13 592.98 1.13 592.9 1.07 592.77 1.03 592.66 1.04 592.6 1.08 592.59 1.06 592.47 1.07 592.36 1.07 592.28 1.05 592.22 1 592.14 1.04 592 1.07 591.92 1.14 591.89 1.15 591.87 1.2 591.72 1.2 591.66 1.26 591.61 1.3 591.53 1.33 591.5 1.4 591.47 1.41 591.47 1.43 591.47 1.46 591.47 1.51 591.37 1.57 591.19 1.58 591.14 1.61 591 1.63 590.98 1.65 590.94 1.72 590.97 1.75 590.98 1.77 590.99 1.77 590.99 1.79 591 1.97 591.07 2.01 591.08 2.06 591.08 2.14 591.04 2.14 591.04 2.15 591 2.22 590.99 2.39 590.98 2.43 590.97 2.45 590.96 2.54 590.94 2.59 590.86 2.63 590.72 2.63 590.71 2.64 590.63 2.67 590.58 2.67 590.54 2.68 590.49 2.71 590.4 2.77 590.22 2.77 590.21 2.77 590.1 2.71 589.96 2.7 589.82 2.68 589.75 2.65 589.64 2.63 589.51 2.63 589.51 2.6 589.4 2.5 589.34 2.46 589.34 2.42 589.34 2.35 589.35 2.31 589.33 2.28 589.29 2.28 589.22 2.28 589.22 2.27 589.2 2.18 589.14 2.14 589.11 2.02 589 2 588.98 1.98 588.94 1.95 588.86 1.94 588.79 1.92 588.65 1.92 588.58 1.92 588.54 1.92 588.45 1.91 588.42 1.9 588.39 1.85 588.35 1.81 588.33 1.78 588.32 1.67 588.31 1.63 588.27 1.63 588.21 1.63 588.2 1.67 588.16 1.74 588.14 1.74 588.13 1.77 588.13 1.88 588.06 1.95 588.02 1.99 588.01 2.1 587.98 2.17 587.91 2.17 587.87 2.18 587.8 2.19 587.79 2.23 587.77 2.41 587.77 2.46 587.78 2.46 587.8 2.46 587.91 2.46 588.01 Z M 2.71 594.89 2.69 595.04 2.68 595.05 2.68 595.09 2.66 595.24 2.64 595.38 2.63 595.45 2.63 595.51 2.62 595.56 2.6 595.58 2.58 595.59 2.54 595.6 2.51 595.61 2.46 595.62 2.36 595.64 2.35 595.65 2.29 595.66 2.26 595.68 2.21 595.71 2.14 595.76 2.12 595.78 2.1 595.81 2 595.92 1.98 595.94 1.97 595.91 1.87 595.76 1.79 595.64 1.73 595.55 1.71 595.48 1.67 595.39 1.61 595.29 1.48 595.13 1.43 595.06 1.38 595 1.35 594.98 1.33 594.97 1.31 594.96 1.3 594.96 1.28 594.96 1.26 594.95 1.25 594.93 1.23 594.9 1.22 594.88 1.2 594.87 1.19 594.86 1.47 594.65 1.49 594.64 1.63 594.56 1.66 594.54 1.73 594.41 1.75 594.37 1.8 594.26 1.82 594.23 1.85 594.15 1.88 594.09 1.89 594.06 1.97 594.02 2.1 593.98 2.26 593.97 2.31 593.97 2.42 593.98 2.45 593.98 2.49 593.99 2.56 594.01 2.57 594.02 2.55 594.03 2.54 594.03 2.53 594.04 2.53 594.05 2.54 594.08 2.57 594.11 2.64 594.19 2.69 594.26 2.71 594.28 2.82 594.36 2.88 594.41 2.9 594.43 2.9 594.45 2.91 594.47 2.92 594.5 2.93 594.55 2.93 594.59 2.92 594.62 2.9 594.65 2.89 594.66 2.87 594.67 2.86 594.68 2.84 594.7 2.81 594.75 2.77 594.8 2.74 594.83 2.71 594.89 Z" fill-rule="evenodd" id="Mahe"/>
</g>
</svg>