<?xml version="1.0"?>
<svg xmlns="http://www.w3.org/2000/svg" version="1.2" baseProfile="tiny" width="800" height="920" viewBox="0 0 800 920" stroke-linecap="round" stroke-linejoin="round">
<g id="Sikkim">
<path d="M 697.45 627.96 685.64 626.06 676.84 621.38 672.5 620.42 664.53 626.1 659.43 628.45 658.93 628.41 647.57 627.56 628.14 623.55 616.99 625.84 611.32 629.81 600.87 638.9 596.11 641.86 589.09 642.1 582.42 640.41 578.89 640.32 568.64 646.51 564.63 648.26 559.54 647.84 559.47 647.84 559 647.8 556.02 647.56 548.89 648.41 545.97 650.48 545.42 650.53 536.6 651.57 526.97 651.17 526.17 651.02 512.9 648.54 512.8 648.52 512.54 648.45 507.65 647.13 507.04 646.32 505.05 643.69 502.97 644.13 497.4 645.3 492.36 645.69 485.04 646.32 473.66 647.14 468.81 646.4 468.22 646.31 468.09 646.3 464.02 645.68 461.35 644.98 455.26 643.41 451.04 643.84 446.02 642.98 445.42 643.36 444.84 643.73 443.99 644.27 442.47 645.24 437.77 649.64 433.54 652.25 433.32 652.38 426.97 656.11 425.33 656.57 423.34 657.12 423.24 657.14 418.03 659.12 413.47 659.39 412.95 659.21 412.06 658.89 406.93 657.04 403.13 654.92 399.87 653.1 394.74 651.6 394.18 651.43 385.23 650.49 376.43 646.2 376.29 646.14 375.97 645.83 370.28 640.58 369.23 639.39 366.76 636.58 361.62 628.94 355.36 624.2 352.86 619.89 350.96 614.37 350.71 606.1 352.29 599.74 348.23 593.11 348.08 592.87 345.95 589.38 344.49 585.04 344.69 579.02 343.16 574.27 337.13 571.37 316.95 555.14 313.61 551.22 307.41 543.95 304.35 537.91 301 532.36 296.69 527.13 293.07 522.75 282.8 524.55 275.79 525.42 267.67 529.29 242.97 536.51 227.05 536.32 218.79 530.44 213.32 533.37 207.97 539 201.52 540.56 197.46 539.65 193.78 537.43 188.61 534.67 185.11 531.72 182.72 525.26 181.61 517.7 181.42 513.09 183.27 507.37 182.35 500.73 181.42 493.72 181.42 491.33 183.27 488.24 181.61 485.84 177 481.96 170.92 476.8 164.65 470.35 160.04 468.32 159.49 465 153.95 460.02 149.9 456.71 142.9 452.83 140.69 452.83 135.34 456.71 127.6 460.57 125.2 463.43 123.72 464.86 117.46 471.13 112.85 472.98 108.43 475.19 103.82 474.63 101.42 472.98 99.76 468.74 99.21 461.54 99.21 456.93 98.56 455 88.76 449.65 87.39 448.9 87.67 447.95 87.71 447.68 87.68 446.89 87.93 446.5 88.25 446.14 88.64 445.48 88.66 445.38 89.15 444.55 89.86 443.53 90.1 443.05 90.73 442.17 91.08 441.86 91.36 441.41 91.26 440.98 90.86 440.85 90.43 440.55 89.94 440.34 89.69 440.15 89.55 439.93 89.42 439.59 89.4 439.19 89.96 437.32 90.08 436.69 90.15 436.15 90.25 435.78 90.34 435.25 90.46 434.92 90.84 434.49 90.93 434.26 91.23 433.6 91.43 433.3 91.68 432.97 92.2 431.58 92.36 430.73 92.3 430.35 92.13 429.87 92.06 429.56 92.09 429.24 92.2 428.81 92.14 428.45 92.05 428.25 91.92 427.72 91.85 427 91.68 426.21 91.67 425.81 91.85 425.38 92.7 425.12 93.35 424.78 93.7 424.53 93.87 424.27 93.86 423.79 94.44 423.17 94.98 422.53 95.4 422.17 95.63 421.88 96.87 420.82 97.29 420.56 97.56 420.33 98.04 420.05 98.26 419.73 98.47 419.59 98.79 419.44 99.46 419.28 99.92 419.09 100.11 418.74 100.33 418.43 100.72 418.17 101.25 417.63 101.46 417.08 101.66 416.84 102.29 416.61 102.64 416.57 103.04 416.4 103.53 416.29 104.18 415.93 104.99 415.77 105.7 415.59 106.42 415.23 106.55 415.11 106.84 414.95 107.88 414.05 108.09 413.69 108.43 413.37 108.78 412.43 109.08 412 110.04 411.05 110.43 410.78 110.72 410.49 111.08 410.23 111.44 409.79 111.89 409.47 112.54 408.83 112.88 408.45 113.06 408.16 113.33 407.83 113.61 406.89 113.82 405.01 113.93 404.68 114 404.3 114.01 403.97 114.15 403.56 114.26 402.92 114.45 402.21 114.63 401.83 114.89 400.77 114.98 400.21 115.07 397.67 115.22 396.12 115.77 395.1 115.91 394.76 116.34 394.3 116.54 393.98 116.63 393.62 116.84 393.03 116.98 392.45 117.01 392.24 116.99 391.75 117.21 391.4 117.6 391.26 118.4 390.83 118.56 390.63 118.84 390.18 119.45 388.7 119.68 388.36 119.91 387.97 120.18 387.68 120.79 387.34 121.06 387.08 121.44 386.66 122.09 386.15 122.22 385.92 122.01 385.53 121.72 385.23 121.49 384.83 121.29 384.19 120.93 383.38 120.67 383.06 119.99 382.02 119.2 381.24 118.77 380.93 118.96 380.14 118.85 379.7 118.87 379.3 118.72 378.8 118.61 378.58 118.39 378.42 118.12 378.38 117.87 377.94 117.64 377.62 117.49 377.25 117.23 376.78 116.64 376.03 116.28 375.66 115.86 375.34 115.82 375.16 116.14 374.77 116.79 374.15 117.08 373.42 117.27 373.05 117.3 372.76 117.26 372.11 117.49 371.43 117.51 370.63 117.77 370.29 118.88 369.28 119.17 368.94 119.61 368.07 120.14 367.5 121.12 365.89 121.36 365.21 121.61 364.33 121.66 363.68 121.75 363.51 122.16 362.94 122.55 362.66 122.77 362.52 122.82 362.16 122.76 361.47 122.82 360.53 122.86 360.42 122.9 359.93 122.73 359.67 122.15 359.18 122.03 358.84 122.02 358.46 122.08 358.11 122.23 357.5 122.3 356.53 122.19 356.14 121.88 355.8 121.78 355.4 121.96 353.89 121.97 353.59 122.04 353.07 122.04 352.77 122.12 352 122.23 351.42 122.51 350.37 122.59 349.89 122.73 349.51 122.98 349.1 123.02 347.96 123.27 347.07 123.37 346.6 123.42 346.18 123.52 345.79 123.7 345.49 124.05 345.15 124.46 344.82 124.57 344.66 124.8 344.47 125.02 344.17 125.21 343.77 125.37 343.51 125.4 342.07 125.7 342.07 125.92 341.96 126.17 341.93 126.66 342.05 127.07 342.28 128.51 342.43 128.99 342.45 129.38 342.4 129.65 342.33 130.45 342.32 130.97 341.96 131.26 341.81 131.7 341.69 132.07 341.53 132.64 341.56 133.03 341.66 133.28 341.66 133.57 341.75 133.86 341.75 134.46 341.61 134.62 341.46 134.84 341.45 135.29 341.36 135.66 341.23 136.05 340.98 136.78 340.76 137.37 340.52 137.86 340.28 138.88 339.85 139.4 339.31 139.46 339.04 139.7 338.66 139.94 338.39 140.45 337.92 140.99 337.37 142.28 336.99 142.59 336.99 143 336.61 143.21 335.93 143.26 335.32 143.2 334.93 143.05 334.51 143.05 334.3 143.16 333.8 142.15 331.95 142.14 331.82 142.22 331.47 142.2 331.15 142.1 330.63 141.92 329.89 141.75 328.79 141.62 328.56 141.48 327.95 141.47 327.56 141.37 327.07 141.42 326.71 141.47 326.57 141.62 326.41 141.96 326.21 142.15 326.02 143.24 325.19 144.72 324 144.98 323.72 145.65 322.83 145.91 322.27 146.09 321.65 146.28 321.38 146.4 320.72 146.77 320.27 147.21 319.87 147.25 319.77 147.2 319.25 147.11 319.02 146.66 318.58 146.13 318.29 145.93 318.07 145.72 317.82 145.59 317.4 145.54 317.12 145.48 316.03 145.52 315.73 145.66 315.11 145.65 314.96 145.68 314.79 145.71 314.63 145.95 314.33 146.21 313.88 146.29 313.63 146.28 313.47 146.31 313.32 146.28 313 146.06 312.65 145.59 312.2 145.35 311.53 145.38 311.37 145.48 311.25 145.85 311.03 146 310.86 146.24 310.78 146.57 310.73 147.39 310.66 148.23 310.47 148.75 310.28 148.86 310.21 149 310.09 149.41 309.37 149.54 309.27 149.83 309.19 149.9 309.09 150.6 307.99 150.95 307.62 151.12 307.38 151.15 307.27 151.23 307.13 151.33 306.86 151.4 306.52 152.64 305.55 153.59 304.61 154.35 304.01 154.6 303.78 155.28 303.48 155.98 303.06 157.21 302.4 157.71 302.05 157.75 301.96 157.78 301.82 157.81 301.07 157.97 300.49 157.95 300.32 157.99 300.18 158.08 299.99 158.38 299.52 158.71 299.16 158.91 298.87 159.31 298.42 159.39 298.3 159.37 298.19 159.41 298.12 159.42 298.02 159.29 297.62 159.2 297.45 159.09 297.06 158.96 296.85 158.68 296.52 158.57 296.45 158.08 296.39 157.94 296.32 157.69 296.07 157.5 295.57 157.25 295.1 157.13 294.95 157.05 294.78 156.78 294.33 156.63 294.15 156.56 293.97 156.32 293.59 156.24 293.54 156.17 293.52 155.98 293.56 154.71 293.21 154.57 293.05 154.29 292.35 154.14 292.19 154.07 292.14 153.89 292.1 153.36 292.08 153.14 292.03 152.9 291.91 152.58 291.54 152.44 291.25 152.34 291.09 152.22 290.99 152.06 290.93 151.6 290.85 151.38 290.74 151.21 290.18 151 289.82 150.38 289.2 150.25 289.03 150.18 288.88 150.04 288.27 149.79 287.77 149.66 287.62 149.59 287.32 149.55 287.08 149.55 286.63 149.57 286.4 149.62 286.24 149.66 286.01 149.74 285.17 149.7 284.74 149.73 283.93 149.64 283.56 149.34 283.21 149.1 283.02 148.99 282.89 148.89 282.69 148.88 281.75 148.92 281.69 148.92 281.33 148.9 281.06 148.86 281 148.78 280.91 148.15 280.63 147.76 280.3 146.65 279.46 146.19 279.16 145.24 278.39 145.1 278.32 144.45 277.75 143.91 277.15 143.61 276.71 143.35 276.48 142.92 276.29 142.26 276.19 140.89 275.69 140.44 275.43 140.1 275.18 139.86 275.07 139.52 275.04 138.88 275.08 138.71 275.05 138.61 274.99 138.54 274.76 138.54 274.61 138.55 274.51 138.73 274.08 138.71 273.67 138.5 273.04 138.31 272.6 138.26 272.36 138.33 272.18 138.6 272.07 138.72 271.98 139.29 271.74 139.68 271.69 140.05 271.51 140.2 271.41 142.41 270.77 142.73 270.66 143.28 270.4 143.63 270.27 144.02 270.2 144.54 270.26 144.97 270.35 145.77 270.36 146.41 270.13 146.56 270.11 146.79 269.94 149.04 268.8 149.44 268.62 150.18 268.34 150.33 268.31 150.81 268.11 151.03 267.94 151.86 267.17 152.22 266.46 152.41 266.01 152.56 265.84 152.8 265.69 152.94 265.51 153.1 265.14 153.6 264.64 153.81 264.25 154.16 263.08 154.22 262.77 154.26 262.16 154.41 261.83 154.95 261.49 155.76 260.91 156.14 260.56 156.4 260.21 156.52 260.02 156.53 259.9 156.85 259.16 157 259.02 157.24 258.85 157.58 258.67 158.11 258.58 158.54 258.39 159.05 258.3 159.31 258.27 160.15 258.31 161.25 258.3 161.61 258.48 161.7 258.47 161.79 258.39 161.98 258.04 162.08 257.97 162.32 257.9 162.87 257.5 163 257.24 163.1 256.87 163.22 255.8 163.14 255.35 163.14 254.82 163.19 254.12 163.13 253.42 163.01 252.95 162.84 252.55 162.63 252.22 162.21 251.79 162.07 251.67 161.82 251.51 161.57 251.39 161.14 251.32 161 251.22 160.7 250.99 160.02 250.3 160 249.9 159.73 249.23 159.66 248.92 159.52 248.59 159.45 248.51 159.24 248.1 159.16 247.78 159.14 247.64 159.32 247.24 159.47 246.57 159.44 246.18 159.31 245.73 159.03 244.89 158.96 244.47 158.91 243.84 158.82 243.58 158.68 243.4 158.59 243.17 158.29 242.76 158.03 242.56 157.88 242.51 157.34 242.42 155.79 242.41 155.47 242.38 154.82 242.46 154.04 242.5 152.91 242.86 152.15 242.93 151.82 243.09 151.61 243.14 150.98 242.82 150.67 242.62 149.76 241.65 149.14 240.76 148.98 240.63 148.86 240.6 148.72 240.58 148.21 240.62 147.67 240.58 147.12 240.33 146.93 240.29 146.59 240.28 146.21 240.32 145.69 240.46 144.35 240.59 143.61 240.7 143.03 240.72 142.82 240.66 142.68 240.57 142.6 240.48 142.4 240.08 142.34 240.03 142.19 239.96 141.85 239.92 141.62 239.77 141.34 239.5 141.05 239.01 140.98 238.83 140.91 238.46 140.83 238.27 140.72 238.12 140.45 237.87 140.12 237.65 139.49 237.34 139.38 237.25 139.3 237.12 139.08 236.2 138.97 236.02 138.87 235.92 138.52 235.71 138.13 235.33 137.75 234.89 137.49 234.76 136.77 234.65 136.5 234.57 136.37 234.52 136.2 234.32 135.88 234.1 135.55 233.96 135.08 233.85 134.81 233.75 134.2 233.45 133.66 233.23 133 232.87 132.73 232.7 132.38 232.29 132.27 232.06 132.15 231.9 131.64 231.41 131.3 231.01 130.96 230.74 130.46 230.42 129.6 230.08 129.28 229.86 129.03 229.76 128.02 229.52 127.25 229.25 127.03 229.22 126.82 229.12 126 228.95 125.32 228.63 124.31 228.38 123.91 228.3 123.31 228.23 122.79 228.22 122.59 228.25 121.78 228.45 121.61 228.43 121.46 228.39 121.39 228.34 121.31 228.25 121.11 227.64 120.77 227.25 120.44 226.43 120.24 226.2 119.67 225.72 118.98 225.04 118.65 224.61 118.44 224.25 118.16 224.02 117.84 223.84 116.96 223.12 116.86 223.07 116.52 223.05 115.96 223.16 115.83 223.14 115.5 222.94 115 222.84 114.82 222.72 114.36 222.6 112.9 221.88 111.88 221.72 111.07 221.71 110.39 221.75 109.47 221.88 109.28 221.92 109.09 222.03 108.96 222.18 108.78 222.31 108.71 222.3 108.54 222.23 108.43 222.1 108.36 221.99 108.18 221.33 107.6 220.56 107.03 220.14 107.61 219.07 107.38 215.55 107.33 215.45 105.16 210.88 104.2 207.55 103.79 207.48 103.29 206.36 101.29 205.38 100.88 204.28 100.16 203.02 98.37 201.45 97.69 201.06 96.57 198.36 95.89 197.98 95.77 196.99 95.64 196.75 93.4 192.59 93.2 189.41 93.14 187.86 95.97 180.7 103.9 173.14 106.54 169.75 106.6 168.39 106.48 163.42 101.99 161.29 101.99 159.3 102.23 158.72 102.88 158.17 107.52 154.32 110.25 149.36 111.69 148.16 115.46 147.73 116.14 147.92 116.3 147.98 128.23 152.7 140.06 161.01 145.64 164.12 147.43 164.51 153.61 165.13 158.78 165.02 164.11 162.8 164.98 162.02 166.2 159.05 168.04 152.51 168.45 150.32 170.98 145.94 171.76 145.35 171.76 144.95 177.29 143.93 181.06 145.49 182.55 146.04 183.26 146.38 184.46 146.84 187.56 147.21 188.23 147 188.91 146.81 191.57 144.41 194.65 143.81 195.33 144 195.79 144.4 196.78 145.15 197.35 145.58 197.85 148.02 199.43 155.86 201.42 157.2 201.66 158.18 201.66 158.99 202.12 159.16 202.12 159.57 207.04 160.75 210.81 159.34 211.02 158.73 220.09 153.93 221.88 153.71 222.56 153.91 225.68 153.7 230.33 152.19 230.75 152.39 231.21 152.19 231.66 152.06 234.09 150.27 234.76 149.68 235.74 146.89 235.84 145.91 238.18 144.31 238.95 143.91 247.42 142.87 250.73 143.64 260.3 142 263.86 139.6 268.27 134.63 270.26 133.44 276.13 132.03 277.02 132.23 280.15 131.52 281.59 131 283.93 129.03 284.47 128.03 286.72 127.05 289.12 126.2 295.62 124.89 300 124.75 300.68 124.56 311.84 126.06 321.42 129.96 327.47 133.28 327.47 133.69 333.69 135.05 334.58 134.85 338.28 133.41 340.03 132.21 344.11 130.23 345.24 130.03 346.67 128.05 347.24 127.26 347.96 126.9 349.22 126.25 351.19 122.28 352.2 121.29 353.76 119.49 354.29 118.3 364.05 110.74 364.06 110.36 365.16 109.94 366.71 108.55 367.18 108.37 367.91 108.1 372.02 106.56 388.05 102.51 392.36 100.6 397.37 98.31 400.02 95.34 404.01 86.9 406.17 83.43 411.71 78.38 415.1 76.26 416.2 75.75 421.93 73.57 431.19 72.88 431.96 72.82 432.41 73.02 432.41 73.42 432.42 73.83 433.53 74.4 437.08 74.96 445.55 77.12 449.16 79.67 449.38 80.47 449.38 80.86 450.49 81.46 450.49 81.86 455.18 83.4 458.51 83.79 460.07 83.58 464.15 81.95 464.36 81.88 464.97 81.59 466.75 80.2 468.3 77.01 468.43 72.15 468.47 71.46 469.11 69.67 470.34 68.49 475.03 62.14 476.22 59.78 476.67 58.39 476.84 47.7 478.58 41.39 481.92 39 489.49 37.76 490.22 38.22 492.83 39.92 496.42 40.7 497.92 40.12 505.74 36.71 507.52 35.72 508.86 35.52 509.97 35.71 514.19 31.93 514.96 30.81 520.86 29.51 523.13 28.39 530.16 25.86 532.81 24.89 530.28 20.49 529.04 19.42 528.83 17.31 528.63 15.34 528.53 14.3 528.05 12.28 527.91 11.7 527.59 10.92 524.45 8.15 524.33 5.19 524.99 4 528.77 2.2 537.01 1 541.94 4.34 541.94 4.74 541.94 5.12 543.74 6.49 544.4 6.69 544.39 7.08 545.07 7.27 546.18 9.64 546.62 9.85 547.09 10.05 548.69 15.39 549.26 17.28 550.23 20.49 551.35 24.26 552.8 25.37 554.45 26.59 555.94 27.55 557.95 28.87 565.68 36.97 566.89 38.75 571.76 45.89 576.72 50.76 577.33 50.88 581.99 51.84 582.44 51.64 584 50.65 585.76 47.87 593.36 46.46 601.58 48.23 603.86 47.87 609.15 47.19 618.28 49.33 622.73 48.73 631.21 49.69 641 49.06 650.38 51.4 652.6 52.6 652.61 52.99 662.23 59.84 665.18 61.95 665.39 62.49 665.85 62.48 666.14 62.69 667.52 63.83 667.54 64.21 667.55 64.61 668.81 65.28 669.79 65.79 677.62 71.11 677.84 72.11 678.07 73.11 678.73 73.5 679.38 73.89 680.52 76.83 681.4 77.43 681.41 77.82 688.46 83.12 688.46 83.33 688.45 83.5 688.68 83.69 688.99 83.83 689.66 84.12 690.22 85.38 690.87 86.84 691.01 87.12 692.33 88.12 692.56 88.3 692.56 88.55 692.57 88.67 692.67 88.74 697.71 92.16 697.71 92.57 697.94 92.7 699.93 93.42 709.87 98.25 711.14 98.91 715.19 100.59 718.43 102.25 721.76 105.42 722.28 108.75 723.28 115.16 724.16 115.96 724.23 116.29 724.67 116.48 724.68 117.08 725.14 118.27 727.13 119.84 728.71 123.38 727.75 145.94 727.87 146.91 730.54 149.1 730.78 150.28 731.45 153.63 730.91 154.09 727.66 156.82 724.78 161.56 724.58 175.01 727.47 176.39 727.72 176.46 739.68 179.61 744.41 180.89 746.41 182.47 749.52 191.57 750.25 193.01 754.24 200.86 754.67 200.86 754.67 201.26 754.85 201.31 755.33 201.4 762.47 206.78 762.47 207.15 762.93 207.15 763.15 208.54 763.2 208.92 763.63 208.92 763.98 209.52 763.95 212.57 763.15 217.53 762.72 220.21 763.1 225.27 763.39 229.11 764.27 231.1 766.71 233.27 767.74 236.82 767.63 238.81 765.31 240.18 765.2 240.58 764.52 241.97 764.5 242.09 763.56 256.4 763.35 256.84 763.01 257.58 761.77 257.98 760.78 258.77 760.13 260.76 759.77 261.28 759.38 261.94 758.55 263.29 756.58 266.51 752.44 269.02 751.75 268.95 750.04 269.77 747.24 271.46 741.47 274.63 741.14 274.83 740.15 276.03 740.04 277.41 740.49 277.6 740.61 278.59 741.04 279.58 742.83 280.56 742.95 283.35 742.39 291.46 738.41 309.45 738.65 318.18 740.14 325.16 740.36 326.07 740.75 326.75 741.54 328.15 742.43 328.95 742.92 330.21 743.81 331 744.69 331.6 746.28 335.16 747.14 343.84 746.9 344.66 746 346.62 740.07 351.58 739.63 352.37 739.56 352.46 737.65 356.92 736.76 362.05 736.31 362.64 728.68 367.42 726.58 368.21 726.34 368.81 726.35 370.78 727.02 372.97 727.45 373.15 727.9 373.35 728.47 375.17 728.57 375.52 729 375.76 732.37 377.7 732.37 379.38 732.36 382.84 731.15 387.65 731.23 388.28 731.45 390.28 731.6 391.53 731.89 394.05 732.12 394.86 732.27 395.39 733.39 399.34 733.29 405.18 730.21 410.34 726.12 414.1 724.67 415.09 720.7 421.43 715.26 425.68 712.04 427.98 710.63 428.46 709.83 428.77 706.08 428.13 704.82 427.67 704.05 427.39 701.84 428.01 701.18 428.79 698.75 433.74 698.39 435.7 698.1 437.3 698.89 443.05 699.68 448.73 699.9 452.93 699.44 453.52 697.27 462.62 694.18 465.6 693.3 465.8 693.31 466.18 692.86 466.19 692.85 466.59 690.63 468.56 690.2 468.56 690.21 468.96 688.5 470.16 687.71 470.72 687.28 470.71 686.16 472.47 685.28 473.68 684.61 474.2 682.43 475.9 681.32 478.09 680.25 483.9 679.82 486.22 679.16 487 678.63 487.42 678.5 487.53 676.93 488.77 666.39 492.87 664.65 493.55 664.66 493.96 663.87 494.55 663.64 496.13 664.33 500.49 664.79 500.68 665.24 500.89 668.07 511.09 668.88 514.01 670.61 520.06 671.01 520.34 671.71 520.83 674.14 523.2 674.81 524.39 674.8 524.76 678.6 527.13 680.14 527.52 681.03 527.32 681.94 527.52 682.37 527.92 682.71 530.08 682.59 531.06 681.6 531.47 681 534.71 680.69 536.17 680.25 539.74 680.21 541.03 680.13 542.9 679.37 547.29 677.85 555.05 677.66 556.02 677.76 557.73 678.59 558.43 679.68 559.58 679.57 563.72 677.59 568.08 676.07 576.4 676.09 581.14 677.76 591.83 678.54 593.19 681.21 594.57 681.21 595.55 681.44 596.53 687.66 599.3 687.01 608.4 687.8 611.75 689.2 613.5 693.04 615.62 695.01 616.71 695.79 618.26 695.8 618.48 697.45 627.96 Z" id="North District"/>
<path d="M 447.95 834.51 446.65 834.09 443.18 832.98 441.97 832.58 440.18 831.97 439.87 831.93 438.88 831.54 438.24 831.29 436.72 830.92 435.37 830.49 428.96 828.44 428.67 828.03 428.01 827.31 427.42 826.6 426.54 825.57 422.9 821.3 417.88 813.4 418.93 799.27 419.34 797.13 420.73 789.83 420.8 789.47 420.94 788.73 420.86 788.54 420.8 788.41 420.77 788.33 420.75 788.29 420.71 788.19 420.63 787.99 420.46 787.61 420.33 787.3 420.3 787.21 420.18 786.92 420.01 786.52 419.29 784.83 418.77 783.57 417.61 780.85 412.9 777.42 410.77 775.88 408.94 774.55 404.1 773.95 403.49 773.77 402.77 773.56 402.47 773.47 401.15 773.08 401.1 773.07 401.03 773.05 400.42 772.87 399.84 772.7 396.97 771.86 395.28 771.36 394.82 771.23 394.8 771.2 394.39 770.82 392.36 768.91 392.14 768.71 391.44 768.05 389.78 766.49 386.17 764.89 381.51 762.83 380.73 762.49 379.72 762.04 379.32 761.87 379.21 761.7 377.6 759.28 376.27 757.25 376.23 757.12 375.91 755.85 375.06 752.54 374.63 750.9 374.6 750.76 374.9 748.59 375.49 744.4 378.92 735.48 379.26 734.41 379.37 734.26 379.49 734.09 380.45 731.47 379.87 729.22 379.82 729.03 379.34 727.18 383.59 722.77 385.06 717.52 385.84 714.74 385.9 714.53 387.28 714.1 392.24 712.53 392.98 711.94 396.74 708.91 396.88 708.8 402.94 707.16 410.59 702.79 411.77 701.17 413.57 698.7 413.7 698.52 415.17 692.02 415.45 690.77 415.3 690.53 411.95 685.33 410.63 683.28 410.09 682.44 409.75 681.9 409.36 679.81 408.82 676.93 408.47 675.06 408.72 673.11 409.13 669.92 411.54 664.06 411.93 663.15 413.47 659.39 418.03 659.12 423.24 657.14 423.34 657.12 425.33 656.57 426.97 656.11 433.32 652.38 433.54 652.25 437.77 649.64 442.47 645.24 443.99 644.27 444.84 643.73 445.42 643.36 446.02 642.98 451.04 643.84 455.26 643.41 461.35 644.98 464.02 645.68 468.09 646.3 468.22 646.31 468.81 646.4 473.66 647.14 485.04 646.32 492.36 645.69 497.4 645.3 502.97 644.13 505.05 643.69 507.04 646.32 507.65 647.13 512.54 648.45 512.8 648.52 512.9 648.54 526.17 651.02 526.97 651.17 536.6 651.57 545.42 650.53 545.97 650.48 548.89 648.41 556.02 647.56 559 647.8 559.47 647.84 559.54 647.84 564.63 648.26 568.64 646.51 578.89 640.32 582.42 640.41 589.09 642.1 596.11 641.86 600.87 638.9 611.32 629.81 616.99 625.84 628.14 623.55 647.57 627.56 658.93 628.41 659.43 628.45 664.53 626.1 672.5 620.42 676.84 621.38 685.64 626.06 697.45 627.96 700.35 635.88 701.02 636.25 701.03 636.65 702.13 637.63 702.47 637.77 702.47 638.18 707.45 639.79 708.99 640.97 709.07 641.13 710.39 642.71 711.15 644.16 711.73 645.59 712.94 646.65 713.81 647.42 714.35 647.89 714.35 648.29 714.35 648.67 719.43 650.25 720.77 652.21 721.45 652.21 721.44 652.61 722.09 652.8 722.52 655.37 723.21 655.76 725.64 658.93 726.97 659.51 728.3 659.91 729.17 659.71 730.73 658.72 731.06 658.13 733.39 657.15 734.38 655.56 734.94 654.76 738.24 652.37 741.57 651.96 743.57 652.76 746 654.73 746.46 655.71 747.33 657.3 748.66 658.1 750.88 668.18 752.22 668.96 752.8 669.11 756.54 670.17 761.31 671.51 762.91 672.59 763.72 674.63 764.85 677.43 766.43 686.93 769.53 694.23 769.98 694.44 770.64 696.02 774.19 698.19 774.2 698.59 775.97 698.96 777.87 698.4 779.95 697.77 782.18 699.08 783.39 699.78 786.35 701.51 789.91 700.73 791.85 701.45 794.57 702.74 799 704.84 795.56 708.43 792.44 711.55 791.91 712.17 791.25 713.56 790.37 719.7 787.71 722.67 787.43 726.37 787.41 726.47 787.39 727.42 788.07 729.38 788.51 729.59 788.55 730.88 788.64 733.94 785.78 742.27 785.1 743.26 782.68 746.41 781.13 747.78 778.71 749.78 777.58 749.58 776.92 749.66 776.04 749.78 773.18 751.38 764.78 754.94 761.81 757.53 761.36 757.53 759.49 760.31 759.06 762.09 756.28 763.52 755.96 763.69 755.27 763.87 747.77 760.93 741.14 761.74 736.37 761.52 733.17 761.37 730.3 762.14 729.64 761.76 722.79 760.19 719.02 760.81 718.59 760.6 718.6 761 715.72 762.38 713.07 762.79 712.28 763.98 711.72 764.96 709.53 765.97 709.52 766.37 709.46 766.78 708.54 767.26 702.68 769.54 700.91 769.73 692.96 773.73 692.3 774.91 691.64 782.83 691.64 785.01 692.1 786.39 692.57 797.27 691.29 801.61 690.13 803.69 687.75 807.95 684.89 811.43 684.33 811.63 682.9 813.7 682.48 815.29 682.26 816.68 682.51 824.17 681.61 827.76 680.71 829.14 678.54 831.12 673.45 832.9 671.68 833.31 669.93 833.11 665.64 833.47 664.03 833.82 662.19 834.13 658.51 836.46 658.18 837.07 657.73 837.07 657.73 837.45 657.44 837.7 656.01 839.28 655.56 839.88 655.47 842.56 655.6 843.35 656.04 843.54 657.55 852.02 657.37 852.87 656.72 854.71 651.56 857.5 649.68 860.66 649.63 860.69 648.91 861.12 636.99 868.27 636.53 868.48 636.31 868.59 632.95 870.17 625.94 869.14 622.54 866.38 620.06 864.39 619.85 863.89 617.6 858.9 616.24 852.46 614.85 845.86 606.26 838.02 603.9 836.99 597.41 834.14 597.13 834.01 590.93 832.68 587.39 833.31 585.98 833.91 581.39 835.85 576.64 839.88 569.23 848.44 566.49 848.26 566.12 848.14 564.01 847.42 554.29 844.12 551.04 843.63 549.6 841.83 546.9 838.48 546.42 837.88 546.25 837.67 544.68 836.2 541.93 833.63 541.39 833.12 535.95 828.02 533.81 826.02 533.59 826 528.2 825.05 525.42 824.72 523.11 824.45 521.03 823.5 520.27 823.15 519.93 823.14 518.05 823.05 515.55 822.95 515.38 822.58 515.03 821.78 512.24 822.99 511.77 822.67 511.44 822.25 511.28 822.25 510.83 821.66 509.75 820.25 506.4 823.21 505.86 823.69 504.51 822.08 504.16 821.68 499.73 822.85 498.65 823.14 498.41 823.2 495.66 823.92 494.15 824.33 488.88 825.72 488.6 825.7 488.25 825.72 487.81 825.74 487.08 825.95 483.7 825.53 481.36 825.25 480.85 825.39 473.98 827.29 473.05 827.56 471.86 827.89 465.67 829.62 465.5 829.66 459.07 832.91 458.09 833.4 456.09 834.41 455.16 834.88 452.98 834.76 452.05 834.72 450.98 834.67 450.67 834.65 450.21 834.62 449.36 834.58 447.95 834.51 Z" id="East District"/>
<path d="M 235.91 875.98 235.9 875.91 235.88 875.85 235.81 875.54 235.7 875.1 235.6 874.7 235.52 874.39 235.42 873.93 235.34 873.62 235.3 873.47 235.23 873.21 235.09 872.64 235.07 872.53 233.87 867.63 233.71 866.99 233.4 865.74 233.4 865.71 233.62 865.39 234.48 864.21 234.65 863.98 234.96 861.97 235.09 861.12 235.22 860.28 235.23 860.22 237.35 858.54 238.87 858.33 239.45 858.25 239.97 857.77 241.16 856.69 241.36 856.51 241.49 856.38 242.17 855.76 242.43 855.52 244.06 851.55 244.34 850.88 245.7 847.57 247.1 846.94 247.7 846.67 250.85 842.52 250.93 842.04 250.98 841.76 251.15 840.79 251.42 839.19 251.54 838.48 251.58 838.46 254.69 836.06 256.56 835.45 257.69 835.08 259.13 834.61 260.13 833.24 260.53 832.69 260.86 832.23 261.36 831.55 261.42 831.46 267.12 828.49 267.99 828.04 273.1 826.92 273.68 826.79 274.15 826.68 274.95 826.51 275.45 826.4 275.84 826.31 277.62 825.19 276.36 823.01 276.09 822.53 276.67 822.25 277.51 821.85 280.89 820.22 280.72 819.94 278.57 816.52 278.64 814.34 276.2 811.51 276.11 811.25 276.1 811.1 276.09 810.97 276.07 810.69 276 809.57 275.97 808.94 275.04 808.4 274.75 807.63 273.19 803.47 272.54 801.69 272.4 801.32 272.28 800.99 270.96 797.49 268.24 795.13 259.94 793.75 257.55 792.61 256.74 790.65 256.2 789.33 255.73 788.16 255.71 788.12 255.56 787.75 255.36 787.25 254.65 785.52 254.36 784.79 253.66 783.09 254.44 780.01 255.68 775.1 255.87 770 255.84 768.46 255.78 765.96 255.47 765.14 255.35 764.83 255.48 763.22 255.28 762.16 250.57 759.42 247.83 757.44 245.87 755.57 245.61 755.32 241.54 751.42 236.81 749.31 234.26 746.99 232.88 745.25 232.74 745.08 231.93 744.07 232.56 740.05 232.58 739.89 233.16 738.97 233.61 738.26 236.36 736.48 238.65 734.99 238.76 734.69 240.09 733.88 240.53 733.5 240.81 733.28 241.34 732.98 242.41 732.34 242.58 732.13 243.23 732.01 243.91 731.78 245.15 731.37 247.27 730.5 249.59 729.96 253.7 729.24 254.4 729.1 254.8 728.85 255.93 728.51 256.5 728.38 258.9 725.78 259.06 725.6 260.46 722.99 260.37 720.18 260.33 719.13 260.16 714.21 258.45 711.54 255.39 709.28 250.95 707.52 250.19 706.75 248.05 704.54 248.49 703.08 248.59 702.72 249.15 700.87 253.27 696.48 257.94 693.67 258.01 693.63 262.51 690.92 263.8 690.15 263.92 690.08 266.98 688.33 268.03 687.74 268.5 687.22 270.71 684.8 272.1 680.64 272.29 680.09 272.43 679.66 272.87 678.34 273.04 677.85 275.28 671.16 277.63 667.81 285.11 664.9 293.96 663.18 297.98 662.49 299.4 662.24 301.8 662.24 303.33 661.4 303.83 661.13 303.83 659.1 303.45 657.35 303.4 657.1 302.73 653.94 303.09 652.28 305.86 648.96 303.65 641.21 301.25 637.9 298.67 633.47 296.46 632.37 296.36 632.45 294.22 634.96 293.76 635.04 289.98 635.69 288.04 635.14 286.65 632.92 285.95 631.44 280.79 627.39 279.11 627.63 278.82 627.67 276.06 628.13 270.34 630.71 265.55 631.82 260.76 631.54 258.64 628.96 255.96 625.74 253.32 622.22 251.29 610.88 251.1 606.27 252.95 601.11 253.68 595.75 250.92 587.28 250.94 586.16 251.05 579.03 251.1 575.66 252.95 563.29 254.24 558.68 251.85 551.68 248.52 549.46 243.73 548.73 241.7 547.81 239.67 544.3 235.63 543.38 227.05 536.32 242.97 536.51 267.67 529.29 275.79 525.42 282.8 524.55 293.07 522.75 296.69 527.13 301 532.36 304.35 537.91 307.41 543.95 313.61 551.22 316.95 555.14 337.13 571.37 343.16 574.27 344.69 579.02 344.49 585.04 345.95 589.38 348.08 592.87 348.23 593.11 352.29 599.74 350.71 606.1 350.96 614.37 352.86 619.89 355.36 624.2 361.62 628.94 366.76 636.58 369.23 639.39 370.28 640.58 375.97 645.83 376.29 646.14 376.43 646.2 385.23 650.49 394.18 651.43 394.74 651.6 399.87 653.1 403.13 654.92 406.93 657.04 412.06 658.89 412.95 659.21 413.47 659.39 411.93 663.15 411.54 664.06 409.13 669.92 408.72 673.11 408.47 675.06 408.82 676.93 409.36 679.81 409.75 681.9 410.09 682.44 410.63 683.28 411.95 685.33 415.3 690.53 415.45 690.77 415.17 692.02 413.7 698.52 413.57 698.7 411.77 701.17 410.59 702.79 402.94 707.16 396.88 708.8 396.74 708.91 392.98 711.94 392.24 712.53 387.28 714.1 385.9 714.53 385.84 714.74 385.06 717.52 383.59 722.77 379.34 727.18 379.82 729.03 379.87 729.22 380.45 731.47 379.49 734.09 379.37 734.26 379.26 734.41 378.92 735.48 375.49 744.4 374.9 748.59 374.6 750.76 374.63 750.9 375.06 752.54 375.91 755.85 376.23 757.12 376.27 757.25 377.6 759.28 379.21 761.7 379.32 761.87 379.72 762.04 380.73 762.49 381.51 762.83 386.17 764.89 389.78 766.49 391.44 768.05 392.14 768.71 392.36 768.91 394.39 770.82 394.8 771.2 394.82 771.23 395.28 771.36 396.97 771.86 399.84 772.7 400.42 772.87 401.03 773.05 401.1 773.07 401.15 773.08 402.47 773.47 402.77 773.56 403.49 773.77 404.1 773.95 408.94 774.55 410.77 775.88 412.9 777.42 417.61 780.85 418.77 783.57 419.29 784.83 420.01 786.52 420.18 786.92 420.3 787.21 420.33 787.3 420.46 787.61 420.63 787.99 420.71 788.19 420.75 788.29 420.77 788.33 420.8 788.41 420.86 788.54 420.94 788.73 420.8 789.47 420.73 789.83 419.34 797.13 418.93 799.27 417.88 813.4 422.9 821.3 426.54 825.57 427.42 826.6 428.01 827.31 428.67 828.03 428.96 828.44 435.37 830.49 436.72 830.92 438.24 831.29 438.88 831.54 439.87 831.93 440.18 831.97 441.97 832.58 443.18 832.98 446.65 834.09 447.95 834.51 447.87 835.17 447.8 836.02 447.71 836.96 447.69 837.27 447.91 837.48 447.79 837.48 448.01 837.69 448.27 837.84 449.13 838.69 449.57 839.13 449.89 839.45 450.13 839.67 450.8 840.35 453.15 842.67 455.85 845.34 453.14 850.16 457.77 855.36 455.96 858.96 453.86 859.31 452.96 859.3 452.93 859.33 448.76 858.86 446.38 860.87 446.36 860.85 446.12 861.06 446.07 861.14 446 861.24 445.12 862.54 443.69 864.62 441.12 866.47 440.81 866.75 440.49 867.03 440.07 867.42 439.87 867.6 436.32 871.4 435.52 871.74 435.3 871.89 435.09 871.98 434.09 872.38 433.77 872.5 433.09 872.71 432.74 872.95 431.69 873.45 429.38 875.11 429.15 875.23 428.96 875.36 428.8 875.58 426.57 878.24 426.21 879.59 425.88 880.69 424.28 880.88 424.03 880.92 423.25 881.03 422.61 881.11 421.45 880.66 420.66 880.36 418.11 879.37 417.18 880.12 415.93 881.02 415.59 881.26 415.07 881.69 413.37 882.85 412.44 883.14 412.07 883.24 410.87 883.58 408.46 884.28 407.44 884.57 407.42 884.57 407.25 884.63 406.99 884.7 406.81 884.75 402.68 887.74 400.63 890.71 400.37 892.08 399.87 894.38 398.94 898.7 397.59 901.34 397.6 901.38 394.95 906.53 393.89 907.7 389.95 911.94 383.97 915.04 383.77 915.13 383.55 915.25 383.36 915.33 382.65 915.68 382.62 915.7 381.82 915.85 378.66 916.44 378.47 916.52 378.09 916.6 377.84 916.58 376.95 916.75 375.67 917.18 373.59 917.87 372.84 918.12 372.65 918.09 372.47 918.08 372.3 918.07 372.15 918.12 371.92 918.2 371.81 918.24 371.68 918.26 371.6 918.29 371.52 918.33 371.13 918.53 370.73 918.76 370.51 918.89 370.31 918.98 370.23 919 370.06 918.87 369.93 918.78 369.22 918.26 367.81 917.25 363.31 915.48 362.16 915.04 361.29 914.7 351.95 911.05 340.31 907.79 335.99 906.09 335.26 905.81 334.88 905.66 334.28 905.42 331.44 904.34 327.68 904.09 326.64 904.03 325.5 903.96 318.91 903.57 317.82 903.51 316.71 903.44 312.91 904 312.33 904.07 312.29 904.07 311.6 904.19 310.8 904.31 309.1 903.93 302.92 902.51 302.57 902.43 302.1 902.32 301.33 902.14 300.67 901.99 296.87 900.03 296.68 899.78 296.29 899.28 295.6 898.39 295.13 897.78 294.71 897.24 294.44 896.89 292.49 895.2 290.64 893.6 288.66 894.14 286.68 894.7 285.52 895.02 282.73 895.79 281.49 896.3 278.08 897.71 275.82 898.65 273.81 897.36 272.73 896.67 272.63 896.61 272.53 896.54 272.55 896.23 272.55 896.16 272.56 895.89 272.59 895.31 272.6 895.04 272.63 894.52 272.64 894.14 272.66 893.8 272.83 890.12 272.88 889.11 272.91 888.38 271.44 886.02 265.98 881.67 265.9 881.61 265.64 881.4 264.86 880.77 261.94 879.37 258.95 877.93 255.62 878.37 254.92 878.46 254.9 878.47 253.9 879.12 252.18 880.24 252.08 880.31 250.57 881.28 248.84 880.67 248.06 880.37 246.11 879.67 241.77 878.1 240.3 877.56 238.65 876.97 238.14 876.79 236.87 876.33 236.49 876.19 236.04 876.02 235.91 875.98 Z" id="South District"/>
<path d="M 87.39 448.9 88.76 449.65 98.56 455 99.21 456.93 99.21 461.54 99.76 468.74 101.42 472.98 103.82 474.63 108.43 475.19 112.85 472.98 117.46 471.13 123.72 464.86 125.2 463.43 127.6 460.57 135.34 456.71 140.69 452.83 142.9 452.83 149.9 456.71 153.95 460.02 159.49 465 160.04 468.32 164.65 470.35 170.92 476.8 177 481.96 181.61 485.84 183.27 488.24 181.42 491.33 181.42 493.72 182.35 500.73 183.27 507.37 181.42 513.09 181.61 517.7 182.72 525.26 185.11 531.72 188.61 534.67 193.78 537.43 197.46 539.65 201.52 540.56 207.97 539 213.32 533.37 218.79 530.44 227.05 536.32 235.63 543.38 239.67 544.3 241.7 547.81 243.73 548.73 248.52 549.46 251.85 551.68 254.24 558.68 252.95 563.29 251.1 575.66 251.05 579.03 250.94 586.16 250.92 587.28 253.68 595.75 252.95 601.11 251.1 606.27 251.29 610.88 253.32 622.22 255.96 625.74 258.64 628.96 260.76 631.54 265.55 631.82 270.34 630.71 276.06 628.13 278.82 627.67 279.11 627.63 280.79 627.39 285.95 631.44 286.65 632.92 288.04 635.14 289.98 635.69 293.76 635.04 294.22 634.96 296.36 632.45 296.46 632.37 298.67 633.47 301.25 637.9 303.65 641.21 305.86 648.96 303.09 652.28 302.73 653.94 303.4 657.1 303.45 657.35 303.83 659.1 303.83 661.13 303.33 661.4 301.8 662.24 299.4 662.24 297.98 662.49 293.96 663.18 285.11 664.9 277.63 667.81 275.28 671.16 273.04 677.85 272.87 678.34 272.43 679.66 272.29 680.09 272.1 680.64 270.71 684.8 268.5 687.22 268.03 687.74 266.98 688.33 263.92 690.08 263.8 690.15 262.51 690.92 258.01 693.63 257.94 693.67 253.27 696.48 249.15 700.87 248.59 702.72 248.49 703.08 248.05 704.54 250.19 706.75 250.95 707.52 255.39 709.28 258.45 711.54 260.16 714.21 260.33 719.13 260.37 720.18 260.46 722.99 259.06 725.6 258.9 725.78 256.5 728.38 255.93 728.51 254.8 728.85 254.4 729.1 253.7 729.24 249.59 729.96 247.27 730.5 245.15 731.37 243.91 731.78 243.23 732.01 242.58 732.13 242.41 732.34 241.34 732.98 240.81 733.28 240.53 733.5 240.09 733.88 238.76 734.69 238.65 734.99 236.36 736.48 233.61 738.26 233.16 738.97 232.58 739.89 232.56 740.05 231.93 744.07 232.74 745.08 232.88 745.25 234.26 746.99 236.81 749.31 241.54 751.42 245.61 755.32 245.87 755.57 247.83 757.44 250.57 759.42 255.28 762.16 255.48 763.22 255.35 764.83 255.47 765.14 255.78 765.96 255.84 768.46 255.87 770 255.68 775.1 254.44 780.01 253.66 783.09 254.36 784.79 254.65 785.52 255.36 787.25 255.56 787.75 255.71 788.12 255.73 788.16 256.2 789.33 256.74 790.65 257.55 792.61 259.94 793.75 268.24 795.13 270.96 797.49 272.28 800.99 272.4 801.32 272.54 801.69 273.19 803.47 274.75 807.63 275.04 808.4 275.97 808.94 276 809.57 276.07 810.69 276.09 810.97 276.1 811.1 276.11 811.25 276.2 811.51 278.64 814.34 278.57 816.52 280.72 819.94 280.89 820.22 277.51 821.85 276.67 822.25 276.09 822.53 276.36 823.01 277.62 825.19 275.84 826.31 275.45 826.4 274.95 826.51 274.15 826.68 273.68 826.79 273.1 826.92 267.99 828.04 267.12 828.49 261.42 831.46 261.36 831.55 260.86 832.23 260.53 832.69 260.13 833.24 259.13 834.61 257.69 835.08 256.56 835.45 254.69 836.06 251.58 838.46 251.54 838.48 251.42 839.19 251.15 840.79 250.98 841.76 250.93 842.04 250.85 842.52 247.7 846.67 247.1 846.94 245.7 847.57 244.34 850.88 244.06 851.55 242.43 855.52 242.17 855.76 241.49 856.38 241.36 856.51 241.16 856.69 239.97 857.77 239.45 858.25 238.87 858.33 237.35 858.54 235.23 860.22 235.22 860.28 235.09 861.12 234.96 861.97 234.65 863.98 234.48 864.21 233.62 865.39 233.4 865.71 233.4 865.74 233.71 866.99 233.87 867.63 235.07 872.53 235.09 872.64 235.23 873.21 235.3 873.47 235.34 873.62 235.42 873.93 235.52 874.39 235.6 874.7 235.7 875.1 235.81 875.54 235.88 875.85 235.9 875.91 235.91 875.98 235.87 875.96 235.56 875.82 235.4 875.75 235.23 875.67 234.2 875.84 234.05 875.87 233.52 875.95 233.21 876 233.12 876.02 233.03 876.03 232.28 876.16 231.21 876.34 230.86 876.4 229.97 876.54 229.58 876.6 225.96 877.95 225.41 878.16 223.09 879.02 221.21 879.33 213.75 880.59 212.68 880.78 210.43 881.76 205.97 883.7 203.44 884.8 202.64 885.15 200.29 885.33 199.33 885.41 196.04 885.67 191.96 884.49 191.15 884.26 190.93 884.1 186.43 880.86 179.74 872.25 178.26 872.9 176.27 873.76 172.83 873.08 171.08 872.73 165.17 871.56 164.85 871.5 163.81 871.28 157.61 872.88 153.39 872.19 151.17 872.43 151.04 872.44 149.3 872.62 147.12 874.12 146.96 874.23 146.35 874.65 143.7 876.47 141.64 878.8 141.53 878.92 141.3 879.18 141.27 879.21 141.23 879.26 141.19 879.3 141.14 879.36 141 879.52 140.71 879.85 140.68 879.88 140.64 879.92 140.49 880.09 140.46 880.13 140.42 880.17 140.39 880.21 140.36 880.24 139.16 881.61 137.4 883.6 134.04 887.41 133.36 888.16 131.81 889.88 131.32 890.43 128.7 892.39 128.28 892.46 127.45 892.56 125.96 892.74 125.77 892.62 118.52 888.06 113.76 888.19 113.29 888.2 112.26 888.23 107.57 885.23 103.79 882.81 100.61 882.19 99.83 881.86 94.53 879.59 85.18 875.58 85.01 875.5 84.92 875.46 77.8 872.41 76.73 871.96 73.89 871.28 72.62 870.5 70.95 869.48 70.36 869.11 70.24 869 67.92 866.7 67.56 866.08 66.17 863.64 65.58 860.91 65.43 860.21 65.45 859.93 65.47 859.74 65.82 855.16 65.83 855.04 65.85 854.76 65.86 854.64 65.97 853.22 66.25 849.64 65.69 846.13 64.5 845.38 61.71 843.61 60.75 842.49 56.83 837.92 56.41 835.24 56.16 833.63 55.12 831.71 53.49 828.72 51.91 824.06 53.11 820.5 58.87 816.6 58.47 814.82 56.52 813.69 52.61 811.42 49.2 808.69 46.93 805.67 43.86 803.42 33.84 801.48 22.44 797.42 21.78 797.18 13.98 797.5 5.07 799.77 1.32 800.72 1 800.8 1.14 798.75 1.17 798.13 1.6 796.54 3.54 793.99 3.38 793.3 3.2 792.78 3.2 792.4 3.47 791.09 3.48 790.6 3.68 789.99 3.59 789.7 3.58 788.82 3.68 788.47 3.77 788.32 3.96 788.12 4.12 787.84 4.16 787.21 3.88 786.39 3.77 786.21 3.5 785.56 3.49 784.78 3.56 784.32 3.68 783.82 3.83 783.59 4.24 783.13 4.69 782.74 4.91 782.6 5.29 782.44 5.86 782.28 6.77 782.1 7.45 782.04 7.8 782.13 8.15 782.19 8.56 782.63 8.69 781.76 8.28 780.71 8.28 780.43 8.41 779.61 8.3 779.16 8.08 778.54 8.04 778.44 8.07 778.41 8.17 778.27 8.62 777.36 8.75 777.14 8.92 776.65 9.29 776.04 9.7 775.48 9.95 775.24 10.37 774.62 10.46 774.05 10.58 773.59 10.79 773.14 10.88 772.91 10.98 772.58 11.01 772.21 11.07 772.04 11.29 771.87 11.56 771.73 12.29 771.48 12.62 771.45 13.51 771.48 13.85 771.45 13.8 771.21 13.96 770.01 14.11 769.31 14 768.89 13.63 768.17 13.37 767.58 13.26 767.19 13.34 766.79 13.6 766.16 13.77 765.49 13.87 765.04 13.94 764.5 13.88 764.17 13.76 763.92 13.78 763.49 13.73 762.72 13.77 762.45 14.07 761.71 14.12 761.22 14.12 761.14 13.98 760.64 13.71 760.17 13.65 759.86 13.73 759.66 13.76 759.58 13.78 759.52 14.01 759.22 14.42 758.96 14.56 758.87 14.67 758.61 14.75 758.01 14.73 757.5 14.65 757.06 14.21 756.33 14.11 755.98 14.12 755.21 14.2 754.82 14.2 754.64 14.04 753.93 14.03 753.46 13.94 753 13.74 752.58 13.41 752.34 13.36 752.31 13.34 752.17 13.54 751.25 13.97 750.46 14.19 749.39 14.09 748.46 14.15 747.74 14.93 746.75 14.94 746.72 15.11 746.3 15.15 746.07 15.17 746.04 15.23 745.75 15.32 745.22 15.36 744.7 15.61 744.33 15.75 744.04 15.76 743.78 14.63 741.41 14.52 740.69 14.5 740.22 14.53 740.11 14.6 739.78 14.96 739.43 15.36 739.15 16.14 738.91 16.23 738.89 16.48 738.76 16.89 738.15 17.27 737.76 17.3 737.28 17.54 736.96 17.73 736.79 18.21 736.7 18.61 736.68 19.01 736.59 19.36 736.2 19.81 735.29 20.2 734.97 20.54 734.82 21.03 734.81 21.63 734.97 22.42 735.25 22.89 735.34 23.48 735.19 24.45 735.05 24.9 734.34 25.84 733.5 26.05 733.22 25.93 733.08 25.57 732.89 25.36 732.46 25.36 732.22 25.2 731.34 24.98 730.78 24.94 730.53 24.62 729.97 24.03 728.75 23.81 728.13 23.32 727.25 23.1 726.89 22.75 726.42 22.81 724.66 23.17 723.92 23.47 723.55 23.96 722.68 24.38 721.73 24.62 721.41 25.5 720.5 25.65 720.04 25.71 719.73 25.97 719.3 26.27 718.89 26.74 718.66 27.72 718.22 28.07 717.75 28.42 717.46 28.56 717.35 28.91 716.96 29.3 716.64 29.45 716.23 29.6 715.51 29.56 715.32 29.52 715.11 29.61 714.9 29.67 714.84 29.73 714.79 30.22 714.64 30.31 714.2 30.28 713.26 30.1 712.11 30.09 711.33 30.3 710.81 31.15 709.71 31.45 708.92 31.77 708.54 32.37 707.96 32.54 707.71 32.65 707.26 32.64 706.86 32.79 706.28 33.12 706.06 33.46 705.95 34.07 705.46 34.5 705.27 35.53 705.05 35.79 704.96 36.48 704.46 36.63 704.15 36.89 703.8 37.51 703.5 37.91 703.37 38.6 703.25 38.94 703.15 39.45 702.81 39.44 702.7 39.48 702.17 39.42 701.78 39.5 701.48 40.12 700.49 40.68 699.94 41.13 699.36 41.47 698.82 42.04 698.19 42.41 697.68 42.64 697.52 43.07 697.33 43.44 697 43.96 696.72 44.21 696.52 44.59 696.35 45.05 696.37 45.11 696.3 45.01 696.02 44.09 694.34 43.66 692.94 43.58 692.5 43.54 691.75 43.46 691.55 42.91 691.05 42.39 690.29 42.1 689.71 41.93 689.71 41.53 689.84 41.37 689.8 41.32 689.79 41.09 689.38 40.9 689.08 40.66 688.44 40.54 688.01 40.51 687.88 40.48 687.63 40.62 687.38 40.82 687.15 40.77 686.93 40.33 686.16 39.95 685.43 39.59 684.91 39.32 684.47 39.16 684.06 39.08 683.72 38.9 683.34 38.51 682.96 38.3 682.69 38.23 682.36 38.18 681.76 38.11 681.2 37.59 679.96 37.47 679.52 37.25 679.04 36.66 678.61 35.99 678.36 35.52 677.96 34.76 677.42 33.72 676.9 33.34 676.81 32.28 676.86 31.8 676.86 31.3 676.74 30.72 676.41 30.1 675.77 28.86 674.29 28.49 673.78 28.21 673.33 28.18 672.4 28.1 672.11 27.86 671.69 27.71 671.45 27.66 671.39 27.22 670.9 27.06 670.77 26.89 670.63 26.22 670.1 26.08 669.86 25.75 668.94 25.1 667.97 24.66 667.46 23.8 666.84 23.58 666.61 23.42 666.32 23.32 665.24 23.31 664.7 23.45 663.92 23.58 663.45 23.79 662.97 23.84 662.66 24.45 661.95 24.56 661.12 25.08 660.05 25.26 659.57 25.49 659.1 25.77 658.59 26.05 658.2 26.22 657.7 26.16 657.35 26.15 656.44 26.27 655.63 26.17 655.3 25.78 654.57 25.43 653.71 25.5 653.31 25.69 653 26 652.59 26.06 652.22 26.02 651.77 26.03 651.51 26.24 651.1 26.35 650.51 26.19 650.14 26.06 649.42 26.03 649.06 26.21 648.64 26.44 647.89 26.57 647.57 26.77 647.34 26.9 647.04 26.95 646.84 26.85 645.52 26.88 644.27 26.96 643.99 27.31 643.57 27.82 642.37 28.18 641.79 28.38 641.26 28.4 641.02 28.84 640.59 28.91 640.41 29.11 640.07 29.21 639.51 29.21 639.17 28.9 638.61 28.43 637.43 28.47 636.93 28.39 636.37 27.94 635.73 27.89 635.5 28.07 635.3 28.7 634.74 28.85 634.65 30.06 634.21 30.19 633.96 30.35 632.8 30.66 631.68 30.67 631.67 30.91 631.11 30.97 630.71 31.19 630.01 31.19 629.7 30.99 629.39 30.95 629.12 31.07 628.92 31.63 628.64 31.99 628.2 32.52 627.79 32.91 627.44 33.26 626.88 34.06 625.99 34.14 625.42 34.39 625.1 35.29 624.35 36.04 624.09 36.29 623.95 36.62 623.95 36.83 623.99 37.24 624.14 37.55 624.16 37.69 624.07 38.86 622.64 39.06 622.42 39.51 621.92 39.72 621.76 40.77 621.32 41.69 621.06 42.02 620.88 44.11 619.38 44.31 619.25 44.59 619.07 45.08 618.84 45.33 618.63 45.57 618.12 46.15 618.08 46.59 617.77 46.81 617.71 47.44 617.79 47.66 617.79 48.33 617.51 48.46 617.4 48.83 617.46 49.26 617.47 49.77 617.63 50.14 617.49 50.43 617.32 50.56 617.29 51.12 617.32 51.44 617.29 51.83 617.14 52.06 617.08 52.74 617.22 53.15 617.18 53.83 616.86 54.76 616.86 55.38 617.01 55.97 617.05 56.56 617 56.88 616.86 56.93 616.71 56.95 616.37 56.83 615.82 56.8 615.46 57.02 614.34 57.02 614.14 56.93 613.99 56.27 613.71 55.94 613.44 55.77 613.06 55.73 612.47 55.61 612.21 55.24 611.87 54.5 611.5 53.77 611.23 53.24 611.15 52.04 611.24 50.52 610.53 49.68 609.91 48.98 609.26 48.16 608.64 47.21 607.86 46.53 607.17 46.31 606.73 46.11 606.09 46.27 605.9 46.4 605.75 47.06 604.74 47.29 604.61 47.42 604.34 47.49 604.04 47.73 603.68 48.1 603.33 48.39 602.74 48.91 602.35 48.99 602.12 49.01 601.85 49.12 601.74 49.74 601.46 49.97 601.3 50.19 601 50.27 600.62 50.24 600.42 49.99 600.23 49.3 599.86 48.89 599.58 48.65 599.24 48.63 599.01 48.47 598.57 48.36 598.39 48.06 598.12 47.26 597.56 45.67 596.82 45.48 596.45 45.32 595.74 45.15 594.73 44.91 594.34 44.29 593.96 43.48 593.38 43.28 593.18 43.41 593.01 43.8 592.77 44.45 592.45 44.66 592.22 44.75 591.76 44.78 591.39 44.87 590.62 45.5 590.11 45.59 589.82 45.5 589.58 45.12 589.21 44.46 588.77 44.04 588.64 43.62 588.62 43.06 588.69 42.61 588.63 41.91 588.35 41.47 588.08 40.9 587.53 40.36 587.11 39.73 586.75 39.02 585.74 38.81 585.21 38.83 584.9 38.73 584.6 38.14 583.97 37.58 583.42 37.07 582.81 36.91 582.54 36.91 582.17 36.86 581.84 36.77 581.54 36.47 581.17 36.02 580.77 35.6 580.52 34.81 580.21 33.89 579.78 33.68 579.62 32.44 578.58 31.89 577.7 31.63 577.42 31 577.1 30.44 577.07 29.69 576.96 29.24 576.8 28.88 576.21 28.55 575.39 28.19 574.97 27.17 574.43 26.77 573.98 26.57 573.47 26.26 572.89 25.91 572.33 25.3 571.55 25.3 571.4 25.52 570.87 25.92 570.17 25.99 569.92 26.45 569.02 26.45 568.78 25.95 567.88 25.67 567.14 25.55 566.69 25.47 566.27 25.29 565.9 25.22 565.07 25.16 563.04 25.22 561.21 25.36 560.6 25.4 560.32 25.61 559.93 25.74 559.56 25.85 558.89 25.77 558.09 25.39 557.33 25.11 556.9 25.07 556.51 25.11 556.26 25.33 555.86 25.56 555.53 25.69 555.08 25.78 554.41 25.84 554.13 26.08 553.71 26.42 553.28 26.71 553.13 26.86 552.9 26.88 552.51 26.82 552.46 26.95 552.24 27.57 551.46 27.87 551.19 28.33 550.96 28.73 550.79 29.17 550.91 29.66 550.77 30.27 550 30.34 549.77 30.25 549.45 30.38 549.34 30.89 549.06 31.31 548.88 31.76 548.84 32.87 548.57 33.52 548.56 33.99 548.6 34.36 548.77 34.83 548.67 34.77 547.85 35.95 546.92 36.23 546.59 36.36 546.23 36.92 545.47 37.07 545.03 37.11 544.74 37.21 544.46 37.73 543.98 38.21 543.63 38.67 543.41 39.16 543.28 39.65 543.26 40.11 543.02 40.26 542.86 40.36 542.66 40.39 542.5 40.52 542.31 40.69 542.15 40.71 541.81 40.38 541.28 40.09 540.98 39.65 540.7 39.36 540.43 38.83 540.11 38.12 539.84 37.6 539.44 36.98 538.67 36.87 538.35 36.9 537.96 37.07 537.07 37.68 535.86 37.81 535.49 38.04 535.02 38.34 534.18 38.99 532.96 39.31 532.05 39.92 531.33 40.4 530.86 40.56 530.6 41.29 530.04 41.68 529.89 42.13 529.84 42.59 529.67 43.07 529.62 44.32 529.63 44.72 529.59 45.14 529.75 45.62 529.72 45.42 529.06 44.63 527.87 44.51 527.62 43.95 526.87 43.48 526.66 42.92 526.57 42.18 526.47 41.6 526.51 41.25 526.48 40.73 526.37 40.06 525.98 39.19 525.18 38.83 524.76 38.51 524.12 38.51 523.72 38.45 523.35 38.39 523.17 38.39 522.8 38.46 522.03 38.59 521.69 38.66 521.4 39.04 520.67 39.16 519.92 39.39 519.6 39.73 518.46 40.13 517.69 40.35 517.48 40.9 517.08 41.69 516.66 42.02 516.37 42.22 515.97 42.45 515.58 42.73 514.81 43.84 513.64 44.37 513.6 45.13 513.43 45.61 513.2 45.86 513.03 46.8 512.14 46.89 511.86 46.85 511.19 46.89 510.77 46.95 509.51 46.76 509.02 46.43 508.69 46.44 508.2 46.65 507.79 46.78 507.36 47.1 506.78 47.3 506.15 47.31 505.31 47.17 504.89 47.1 504.44 47.4 503.9 47.82 503.66 48.33 503.63 48.9 503.29 50 503.15 50.5 503.02 50.9 503.02 51.62 502.51 51.9 502.19 52.18 501.93 52.51 501.8 53.35 501.37 54.04 500.79 54.49 500.49 55.23 499.79 55.76 499.04 56.11 498.67 56.76 497.2 56.76 496.83 57.31 496.5 57.45 496.2 57.74 496.02 57.8 495.6 57.56 495.05 57.3 494.75 56.92 494.13 56.73 493.69 56.43 493.24 56.3 492.89 55.86 492.56 54.97 492.15 54.31 491.61 53.87 491.12 53.66 490.99 53.24 490.49 52.68 489.93 52.62 489.7 52.87 489.35 52.92 489.14 53.43 488.55 53.69 488.3 53.9 487.95 54.01 487.55 54.17 487.2 54.17 486.97 54.39 486.5 54.73 486.24 55 486.1 55.19 485.75 55.4 485.33 55.46 484.97 55.43 484.52 55.49 484 55.68 483.32 56.05 483.21 56.23 482.98 56.66 482.53 56.82 482.16 57.01 481.39 57.36 480.55 58.04 479.5 58.39 478.68 58.56 478.38 58.7 478.22 59.26 477.4 59.35 477.14 59.56 476.81 59.72 476.46 59.99 476.02 60.2 475.79 60.41 475.37 60.49 475.11 60.83 474.58 61.27 473.83 61.74 473.32 62.71 472.13 63.58 471.46 64.38 470.69 64.69 470.32 64.83 470.04 65.25 469.52 66.61 468.83 66.95 468.58 67.29 468.25 67.64 467.76 68.09 467.34 68.78 466.93 69.33 466.75 69.81 466.64 70.33 466.66 71.47 466.32 71.81 466.25 72.2 466.04 72.52 465.95 72.87 465.72 73.63 465.35 74.29 464.93 74.61 464.66 75.04 464.38 75.48 464.2 76.35 463.94 76.93 463.85 77.67 463.6 78.09 463.51 78.83 463.24 79.23 463.05 79.44 462.82 79.79 462.59 80.18 462.22 80.63 461.99 81.04 461.38 81.4 460.68 81.64 460.35 81.81 459.94 82.09 459.66 82.74 459.41 83.15 458.94 83.69 458.46 84.02 457.96 84.48 457.62 85.37 456.87 85.96 456.22 86.27 455.96 86.3 455.5 86.08 455.15 86 454.77 86.07 454.56 86.41 453.88 86.62 452.94 86.7 452.41 86.83 452.13 86.95 450.09 87.32 449.13 87.39 448.9 Z" id="West District"/>
</g>
</svg>